<svg version="1.1" xmlns="http://www.w3.org/2000/svg" xmlns:xlink="http://www.w3.org/1999/xlink" width="44.48864" height="44.48864" viewBox="0,0,44.48864,44.48864"><g transform="translate(-217.75568,-157.75568)"><g data-paper-data="{&quot;isPaintingLayer&quot;:true}" fill-rule="nonzero" stroke-linecap="butt" stroke-linejoin="miter" stroke-miterlimit="10" stroke-dasharray="" stroke-dashoffset="0" style="mix-blend-mode: normal"><path d="M217.75568,202.24432v-44.48864h44.48864v44.48864z" fill="none" stroke="none" stroke-width="NaN"/><g><path d="M240.01173,172.08764c3.38602,-0.05 5.97895,3.31468 6.66095,7.91131c0.64125,4.32197 -2.02837,8.0276 -6.66095,7.9113c-4.55628,-0.04664 -7.40542,-3.6059 -6.66095,-7.9113c0.81841,-4.73303 3.6833,-7.86733 6.66095,-7.91131z" fill="#de7b11" stroke="#231a11" stroke-width="0.5"/><path d="M239.57727,172.58338c2.7798,-0.04105 4.90849,2.72123 5.4684,6.49489c0.52645,3.54818 -1.66521,6.59036 -5.4684,6.49488c-3.74055,-0.03829 -6.22124,-2.96031 -5.61007,-6.49488c0.67188,-3.88564 3.16551,-6.45879 5.61007,-6.49489z" fill="#ffa13d" stroke="#000000" stroke-width="0"/><path d="M235.4651,176.52331c0.62431,-2.1851 2.22651,-3.64329 3.57863,-3.25698c1.35211,0.3863 1.64121,2.43123 1.01688,4.61632c-0.62431,2.1851 -2.57143,3.68293 -3.92354,3.29661c-1.35211,-0.38631 -1.29628,-2.47086 -0.67197,-4.65595z" fill="#ffb15e" stroke="none" stroke-width="0"/></g><path d="M233.94984,178.61678c0,0 0.19963,-0.81716 0.35486,-1.20791c0.14632,-0.36834 0.55139,-1.07334 0.55139,-1.07334c0,0 0.73737,0.61352 1.79054,0.72356c1.09464,0.11437 2.24917,-0.72574 3.55275,-0.74914c1.22913,-0.02206 2.62197,0.77558 3.21921,0.77558c0.8753,0 1.9375,-0.75 1.9375,-0.75c0,0 0.3704,0.80783 0.50366,1.19695c0.12683,0.37036 0.27759,1.0843 0.27759,1.0843c0,0 -1.41518,0.875 -2.53125,0.875c-0.69409,0 -1.92516,-0.85619 -3.28089,-0.84142c-1.29684,0.01413 -2.70773,0.9022 -3.87179,0.77701c-1.44089,-0.15497 -2.50357,-0.81059 -2.50357,-0.81059z" fill-opacity="0.76184" fill="#2fafc2" stroke="none" stroke-width="0"/><path d="M236.45341,183.62954c1.16406,-0.12519 2.57495,-1.05509 3.87179,-1.04096c1.35573,0.01477 2.5868,1.04798 3.28089,1.04798c1.11607,0 2.72681,-0.92684 2.72681,-0.92684c0,0 -0.15539,0.64645 -0.28842,0.98579c-0.10612,0.27069 -0.51198,1.08478 -0.51198,1.08478c0,0 -1.15747,1.04059 -2.11391,1.10124c-0.95644,0.06064 -1.99008,-0.76918 -3.21921,-0.79125c-1.30357,-0.0234 -2.13237,0.81468 -3.55275,0.74626c-1.42038,-0.06841 -2.15848,-0.99375 -2.15848,-0.99375c0,0 -0.39892,-0.71212 -0.52263,-1.0157c-0.13061,-0.32051 -0.33826,-1.05285 -0.33826,-1.05285c0,0 1.38526,1.01028 2.82615,0.85531z" data-paper-data="{&quot;index&quot;:null}" fill-opacity="0.76184" fill="#2fafc2" stroke="none" stroke-width="0"/></g></g></svg>