<svg version="1.1" xmlns="http://www.w3.org/2000/svg" xmlns:xlink="http://www.w3.org/1999/xlink" width="23.82264" height="53.75" viewBox="0,0,23.82264,53.75"><g transform="translate(-228.39328,-143.90269)"><g data-paper-data="{&quot;isPaintingLayer&quot;:true}" fill-rule="nonzero" stroke-linecap="butt" stroke-linejoin="miter" stroke-miterlimit="10" stroke-dasharray="" stroke-dashoffset="0" style="mix-blend-mode: normal"><g><path d="M235.14336,149.3868c0,0 8.71081,-0.04 9.2659,-0.04c3.97504,0 7.19747,9.59355 7.19747,21.42779c0,11.83424 -3.22241,21.42778 -7.19747,21.42778c-1.22303,0 -8.83011,-0.00415 -8.83011,-0.00415z" data-paper-data="{&quot;index&quot;:null}" fill="#000000" stroke="none" stroke-width="0"/><g data-paper-data="{&quot;index&quot;:null}" stroke="none" stroke-width="0"><path d="M242.8378,149.34679c3.97504,0 7.19745,9.59355 7.19745,21.42779c0,11.83424 -3.22241,21.42778 -7.19745,21.42778c-3.97504,0 -7.19747,-9.59354 -7.19747,-21.42778c0,-11.83424 3.22241,-21.42778 7.19747,-21.42778z" fill="#ce2be3"/><path d="M242.15125,149.34679c3.97504,0 7.19747,9.59355 7.19747,21.42779c0,11.83424 -3.22241,21.42778 -7.19747,21.42778c-3.97504,0 -7.19747,-9.59354 -7.19747,-21.42778c0,-11.83424 3.22241,-21.42778 7.19747,-21.42778z" fill="#000000"/></g><g data-paper-data="{&quot;index&quot;:null}" stroke="none" stroke-width="0"><path d="M240.54927,149.34679c3.97504,0 7.19747,9.59355 7.19747,21.42779c0,11.83424 -3.22241,21.42778 -7.19747,21.42778c-3.97504,0 -7.19747,-9.59354 -7.19747,-21.42778c0,-11.83424 3.22241,-21.42778 7.19747,-21.42778z" fill="#ce2be3"/><path d="M239.8627,149.34679c3.97504,0 7.19747,9.59355 7.19747,21.42779c0,11.83424 -3.22242,21.42778 -7.19747,21.42778c-3.97504,0 -7.19746,-9.59354 -7.19746,-21.42778c0,-11.83424 3.22241,-21.42778 7.19746,-21.42778z" fill="#000000"/></g><g data-paper-data="{&quot;index&quot;:null}" stroke="none" stroke-width="0"><path d="M238.03188,149.34679c3.97504,0 7.19746,9.59355 7.19746,21.42779c0,11.83424 -3.22241,21.42778 -7.19746,21.42778c-3.97504,0 -7.19747,-9.59354 -7.19747,-21.42778c0,-11.83424 3.22241,-21.42778 7.19747,-21.42778z" fill="#ce2be3"/><path d="M237.34531,149.34679c3.97504,0 7.19746,9.59355 7.19746,21.42779c0,11.83424 -3.22241,21.42778 -7.19746,21.42778c-3.97504,0 -7.19746,-9.59354 -7.19746,-21.42778c0,-11.83424 3.2224,-21.42778 7.19746,-21.42778z" fill="#000000"/></g><path d="M241.05529,174.24729v-6.63399h9.91701v6.63399z" data-paper-data="{&quot;index&quot;:null}" fill="#000000" stroke="none" stroke-width="0"/><g data-paper-data="{&quot;index&quot;:null}" fill="#000000" stroke="none" stroke-width="0"><path d="M236.78335,152.46723v-3.16958h7.93361l2.21225,3.16958z"/><path d="M240.36873,157.25845v-2.72731l8.08618,-0.07371l0.68657,2.80103z"/><path d="M241.43671,162.93419v-2.13762h9.23044v2.13762z"/></g><g data-paper-data="{&quot;index&quot;:null}" fill="#000000" stroke="none" stroke-width="0"><path d="M247.15807,189.02789l-2.21224,3.16957h-7.9336v-3.16957z"/><path d="M249.37032,184.23667l-0.68657,2.80103l-8.08617,-0.07372v-2.72731z"/><path d="M250.89601,178.56093v2.13762h-9.23044v-2.13762z"/></g><g data-paper-data="{&quot;index&quot;:null}" stroke="none" stroke-width="0"><path d="M235.59076,149.34679c3.97504,0 7.19745,9.59355 7.19745,21.42779c0,11.83424 -3.22241,21.42778 -7.19745,21.42778c-3.97504,0 -7.19747,-9.59354 -7.19747,-21.42778c0,-11.83424 3.22241,-21.42778 7.19747,-21.42778z" fill="#ffffff"/><path d="M235.59076,150.22395c3.66907,0 6.64346,9.20083 6.64346,20.55062c0,11.3498 -2.97437,20.55062 -6.64346,20.55062c-3.66907,0 -6.64347,-9.20083 -6.64347,-20.55062c0,-11.34979 2.97439,-20.55062 6.64347,-20.55062z" fill="#76ff42"/><path d="M235.46108,154.35915c2.57269,0 4.65825,7.34944 4.65825,16.41544c0,9.06599 -2.08556,16.41544 -4.65825,16.41544c-2.57269,0 -4.65825,-7.34944 -4.65825,-16.41544c0,-9.06599 2.08557,-16.41544 4.65825,-16.41544z" fill="#000000"/><g fill="#ce2be3"><path d="M232.62964,157.70072l0.45771,-1.00247h1.51018v1.00247z"/><path d="M235.80588,157.70072v-1.00247h1.96789v1.00247z"/></g><g fill="#ce2be3"><path d="M231.73458,160.70813l0.30514,-1.00247h1.4339v1.00247z"/><path d="M234.68196,160.70813v-1.00247h1.9679v1.00247z"/><path d="M237.98992,160.70813v-1.00247h0.8999l0.22885,1.00247z"/></g><g fill="#ce2be3"><path d="M231.21584,164.3003l0.07629,-1.00247h1.66275v1.00247z"/><path d="M234.16322,164.3003v-1.00247h1.96789v1.00247z"/><path d="M237.47118,164.3003v-1.00247h1.96788v1.00247z"/></g><g fill="#ce2be3"><path d="M230.88019,168.1431l0.07628,-1.00247h1.73905v1.00247z"/><path d="M233.90386,168.1431v-1.00247h1.9679v1.00247z"/><path d="M237.21182,168.1431v-1.00247h1.9679v1.00247z"/></g><g fill="#ce2be3"><path d="M230.87002,172.15298v-1.00247h1.73904v1.00247z"/><path d="M233.81741,172.15298v-1.00247h1.9679v1.00247z"/><path d="M237.12537,172.15298v-1.00247h1.96788v1.00247z"/></g><g fill="#ce2be3"><path d="M231.10905,176.16286l-0.15258,-1.00247h1.73905v1.00247z"/><path d="M233.90386,176.16286v-1.00247h1.9679v1.00247z"/><path d="M237.21182,176.16286v-1.00247h1.9679v1.00247z"/></g><g fill="#ce2be3"><path d="M231.78035,180.42335l-0.15256,-1.00247h1.58646v1.00247z"/><path d="M234.4226,180.42335v-1.00247h1.96788v1.00247z"/><path d="M237.73055,180.42335v-1.00247h1.58647l-0.15256,1.00247z"/></g><g fill="#ce2be3"><path d="M232.73137,184.09907l-0.38143,-1.00247h1.81533v1.00247z"/><path d="M235.37362,184.09907v-1.00247h1.96788v1.00247z"/></g></g><path d="M238.71593,146.5902c0,-1.34619 1.09131,-2.4375 2.4375,-2.4375c1.34619,0 2.4375,1.09131 2.4375,2.4375c0,1.34619 -1.09131,2.4375 -2.4375,2.4375c-1.34619,0 -2.4375,-1.09131 -2.4375,-2.4375z" data-paper-data="{&quot;index&quot;:null}" fill="#76ff42" stroke="#ffffff" stroke-width="0.5"/><path d="M238.71593,194.9652c0,-1.34619 1.09131,-2.4375 2.4375,-2.4375c1.34619,0 2.4375,1.09131 2.4375,2.4375c0,1.34619 -1.09131,2.4375 -2.4375,2.4375c-1.34619,0 -2.4375,-1.09131 -2.4375,-2.4375z" data-paper-data="{&quot;index&quot;:null}" fill="#76ff42" stroke="#ffffff" stroke-width="0.5"/><path d="M247.09093,159.9652c0,-1.34619 1.09131,-2.4375 2.4375,-2.4375c1.34619,0 2.4375,1.09131 2.4375,2.4375c0,1.34619 -1.09131,2.4375 -2.4375,2.4375c-1.34619,0 -2.4375,-1.09131 -2.4375,-2.4375z" data-paper-data="{&quot;index&quot;:null}" fill="#76ff42" stroke="#ffffff" stroke-width="0.5"/><path d="M247.09093,181.9652c0,-1.34619 1.09131,-2.4375 2.4375,-2.4375c1.34619,0 2.4375,1.09131 2.4375,2.4375c0,1.34619 -1.09131,2.4375 -2.4375,2.4375c-1.34619,0 -2.4375,-1.09131 -2.4375,-2.4375z" data-paper-data="{&quot;index&quot;:null}" fill="#76ff42" stroke="#ffffff" stroke-width="0.5"/></g></g></g></svg>