<svg version="1.1" xmlns="http://www.w3.org/2000/svg" xmlns:xlink="http://www.w3.org/1999/xlink" width="44.48864" height="44.48864" viewBox="0,0,44.48864,44.48864"><defs><linearGradient x1="240.02778" y1="176.88889" x2="240.02778" y2="185.44444" gradientUnits="userSpaceOnUse" id="color-1"><stop offset="0" stop-color="#ffdc43"/><stop offset="1" stop-color="#ffaf42"/></linearGradient></defs><g transform="translate(-217.75568,-157.75568)"><g data-paper-data="{&quot;isPaintingLayer&quot;:true}" fill-rule="nonzero" stroke-linecap="butt" stroke-linejoin="miter" stroke-miterlimit="10" stroke-dasharray="" stroke-dashoffset="0" style="mix-blend-mode: normal"><path d="M217.75568,202.24432v-44.48864h44.48864v44.48864z" fill="none" stroke="none" stroke-width="NaN"/><g fill="#f2f1ef" stroke="#231a11" stroke-width="0.5"><path d="M240.01172,172.08765c3.38602,-0.05 5.97895,3.31468 6.66095,7.91131c0.64125,4.32197 -2.02837,8.0276 -6.66095,7.9113c-4.55628,-0.04664 -7.40542,-3.6059 -6.66095,-7.9113c0.81841,-4.73303 3.6833,-7.86733 6.66095,-7.91131z"/></g><path d="M235.75,181.16667c0,-2.36255 1.91523,-4.27778 4.27778,-4.27778c2.36255,0 4.27778,1.91523 4.27778,4.27778c0,2.36255 -1.91523,4.27778 -4.27778,4.27778c-2.36255,0 -4.27778,-1.91523 -4.27778,-4.27778z" fill="url(#color-1)" stroke="#231a11" stroke-width="0.5"/></g></g></svg>