<svg version="1.1" xmlns="http://www.w3.org/2000/svg" xmlns:xlink="http://www.w3.org/1999/xlink" width="23.05362" height="23.05362" viewBox="0,0,23.05362,23.05362"><g transform="translate(-228.47319,-168.47319)"><g data-paper-data="{&quot;isPaintingLayer&quot;:true}" fill-rule="nonzero" stroke-linecap="butt" stroke-linejoin="miter" stroke-miterlimit="10" stroke-dasharray="" stroke-dashoffset="0" style="mix-blend-mode: normal"><path d="M231.99016,180c0,-4.42372 3.58613,-8.00985 8.00985,-8.00985c4.42372,0 8.00985,3.58613 8.00985,8.00985c0,4.42372 -3.58613,8.00985 -8.00985,8.00985c-4.42372,0 -8.00985,-3.58613 -8.00985,-8.00985z" fill-opacity="0.25" fill="#fbff00" stroke="#ffffff" stroke-width="0"/><path d="M228.47319,191.52681v-23.05362h23.05362v23.05362z" fill="none" stroke="none" stroke-width="0"/><g stroke="#ffffff" stroke-width="0.5"><path d="M234.37459,180c0,-3.10682 2.51858,-5.62541 5.62541,-5.62541c3.10682,0 5.62541,2.51858 5.62541,5.62541c0,3.10682 -2.51858,5.62541 -5.62541,5.62541c-3.10682,0 -5.62541,-2.51858 -5.62541,-5.62541z" fill="none"/><path d="M236.10256,180c0,-2.1525 1.74494,-3.89745 3.89745,-3.89745c2.1525,0 3.89745,1.74494 3.89745,3.89745c0,2.1525 -1.74494,3.89745 -3.89745,3.89745c-2.1525,0 -3.89745,-1.74494 -3.89745,-3.89745z" fill="#fbff00"/></g></g></g></svg>