<svg version="1.1" xmlns="http://www.w3.org/2000/svg" xmlns:xlink="http://www.w3.org/1999/xlink" width="44.48864" height="44.48864" viewBox="0,0,44.48864,44.48864"><defs><linearGradient x1="245.55154" y1="179.76059" x2="245.17723" y2="181.68097" gradientUnits="userSpaceOnUse" id="color-1"><stop offset="0" stop-color="#ffdc4a"/><stop offset="1" stop-color="#ffa737"/></linearGradient><linearGradient x1="243.06313" y1="182.77982" x2="242.79738" y2="184.71821" gradientUnits="userSpaceOnUse" id="color-2"><stop offset="0" stop-color="#ffdc4a"/><stop offset="1" stop-color="#ffa737"/></linearGradient><linearGradient x1="234.50153" y1="181.37493" x2="234.88847" y2="183.2928" gradientUnits="userSpaceOnUse" id="color-3"><stop offset="0" stop-color="#ffdc4a"/><stop offset="1" stop-color="#ffa737"/></linearGradient><linearGradient x1="238.59468" y1="184.385" x2="238.59468" y2="186.34152" gradientUnits="userSpaceOnUse" id="color-4"><stop offset="0" stop-color="#ffdc4a"/><stop offset="1" stop-color="#ffa737"/></linearGradient><linearGradient x1="239.60812" y1="180.57429" x2="239.60812" y2="182.35662" gradientUnits="userSpaceOnUse" id="color-5"><stop offset="0" stop-color="#ffdc4a"/><stop offset="1" stop-color="#ffa737"/></linearGradient><linearGradient x1="235.82561" y1="175.93042" x2="235.45152" y2="177.67304" gradientUnits="userSpaceOnUse" id="color-6"><stop offset="0" stop-color="#ffdc4a"/><stop offset="1" stop-color="#ffa737"/></linearGradient><linearGradient x1="241.20512" y1="173.16822" x2="241.36229" y2="174.9436" gradientUnits="userSpaceOnUse" id="color-7"><stop offset="0" stop-color="#ffdc4a"/><stop offset="1" stop-color="#ffa737"/></linearGradient><linearGradient x1="242.51919" y1="177.58479" x2="242.63784" y2="178.92509" gradientUnits="userSpaceOnUse" id="color-8"><stop offset="0" stop-color="#ffdc4a"/><stop offset="1" stop-color="#ffa737"/></linearGradient><linearGradient x1="243.97753" y1="175.04313" x2="244.09618" y2="176.38343" gradientUnits="userSpaceOnUse" id="color-9"><stop offset="0" stop-color="#ffdc4a"/><stop offset="1" stop-color="#ffa737"/></linearGradient></defs><g transform="translate(-217.75568,-157.75568)"><g data-paper-data="{&quot;isPaintingLayer&quot;:true}" fill-rule="nonzero" stroke-linecap="butt" stroke-linejoin="miter" stroke-miterlimit="10" stroke-dasharray="" stroke-dashoffset="0" style="mix-blend-mode: normal"><path d="M217.75568,202.24432v-44.48864h44.48864v44.48864z" fill="none" stroke="none" stroke-width="NaN"/><g><path d="M240.01173,172.08764c3.38602,-0.05 5.97895,3.31468 6.66095,7.91131c0.64125,4.32197 -2.02837,8.0276 -6.66095,7.9113c-4.55628,-0.04664 -7.40542,-3.6059 -6.66095,-7.9113c0.81841,-4.73303 3.6833,-7.86733 6.66095,-7.91131z" fill="#53c6b8" stroke="#231a11" stroke-width="0.5"/><path d="M239.57727,172.58338c2.7798,-0.04105 4.90849,2.72123 5.4684,6.49489c0.52645,3.54818 -1.66521,6.59036 -5.4684,6.49488c-3.74055,-0.03829 -6.22124,-2.96031 -5.61007,-6.49488c0.67188,-3.88564 3.16551,-6.45879 5.61007,-6.49489z" fill="#72e7f2" stroke="#000000" stroke-width="0"/><path d="M235.4651,176.52331c0.62431,-2.1851 2.22651,-3.64329 3.57863,-3.25698c1.35211,0.3863 1.64121,2.43123 1.01688,4.61632c-0.62431,2.1851 -2.57143,3.68293 -3.92354,3.29661c-1.35211,-0.38631 -1.29628,-2.47086 -0.67197,-4.65595z" fill="#a1f7ff" stroke="none" stroke-width="0"/></g><g stroke="none"><path d="M245.496,180.04555c0.16796,0.03274 0.44964,0.53387 0.34628,1.06417c-0.10337,0.5303 -0.42599,0.91363 -0.7206,0.85621c-0.29461,-0.05743 -0.44964,-0.53387 -0.34628,-1.06417c0.10337,-0.5303 0.5843,-0.88278 0.7206,-0.85621z" fill="#53c6b8" stroke-width="NaN"/><path d="M244.83093,180.6168c0.10337,-0.5303 0.5843,-0.88279 0.7206,-0.85622c0.16796,0.03274 0.44964,0.53387 0.34628,1.06417c-0.10336,0.5303 -0.42598,0.91363 -0.72059,0.85621c-0.29461,-0.05742 -0.44964,-0.53386 -0.34628,-1.06416z" fill="url(#color-1)" stroke-width="NaN"/></g><g stroke="none"><path d="M242.35238,183.96282c0.07339,-0.53527 0.53374,-0.91423 0.67132,-0.89537c0.16954,0.02325 0.47895,0.50773 0.40556,1.04301c-0.07338,0.53528 -0.37394,0.93615 -0.67131,0.89538c-0.29738,-0.04077 -0.47896,-0.50773 -0.40557,-1.04301z" fill="#53c6b8" stroke-width="NaN"/><path d="M242.39182,183.6752c0.07338,-0.53528 0.53373,-0.91424 0.67131,-0.89538c0.16954,0.02324 0.47895,0.50773 0.40556,1.04301c-0.07338,0.53528 -0.37394,0.93615 -0.67131,0.89538c-0.29738,-0.04077 -0.47896,-0.50773 -0.40557,-1.04301z" fill="url(#color-2)" stroke-width="NaN"/></g><g stroke="none"><path d="M234.21967,182.72595c-0.10685,-0.52961 0.20316,-1.03895 0.33928,-1.06642c0.16774,-0.03385 0.61936,0.32184 0.72621,0.85145c0.10685,0.52961 -0.04504,1.00706 -0.33927,1.06642c-0.29422,0.05936 -0.61937,-0.32185 -0.72622,-0.85146z" fill="#53c6b8" stroke-width="NaN"/><path d="M234.16225,182.44134c-0.10685,-0.52961 0.20315,-1.03895 0.33927,-1.06642c0.16774,-0.03384 0.61936,0.32185 0.72621,0.85146c0.10685,0.52961 -0.04504,1.00706 -0.33927,1.06642c-0.29422,0.05936 -0.61936,-0.32184 -0.72621,-0.85145z" fill="url(#color-3)" stroke-width="NaN"/></g><g stroke="none"><path d="M238.59468,184.67532c0.17113,0 0.54348,0.43798 0.54348,0.97826c0,0.54028 -0.24333,0.97826 -0.54348,0.97826c-0.30016,0 -0.54348,-0.43798 -0.54348,-0.97826c0,-0.54028 0.40461,-0.97826 0.54348,-0.97826z" fill="#53c6b8" stroke-width="NaN"/><path d="M238.59468,184.385c0.17113,0 0.54348,0.43798 0.54348,0.97826c0,0.54028 -0.24333,0.97826 -0.54348,0.97826c-0.30016,0 -0.54348,-0.43798 -0.54348,-0.97826c0,-0.54028 0.40461,-0.97826 0.54348,-0.97826z" fill="url(#color-4)" stroke-width="NaN"/></g><g stroke="none"><path d="M239.60812,180.83877c0.15589,0 0.49508,0.39898 0.49508,0.89116c0,0.49218 -0.22165,0.89117 -0.49508,0.89117c-0.27342,0 -0.49509,-0.39899 -0.49509,-0.89117c0,-0.49218 0.36859,-0.89116 0.49509,-0.89116z" fill="#53c6b8" stroke-width="NaN"/><path d="M239.60812,180.57429c0.15589,0 0.49508,0.39898 0.49508,0.89116c0,0.49218 -0.22165,0.89117 -0.49508,0.89117c-0.27342,0 -0.49509,-0.39899 -0.49509,-0.89117c0,-0.49218 0.36859,-0.89116 0.49509,-0.89116z" fill="url(#color-5)" stroke-width="NaN"/></g><g stroke="none"><path d="M235.7701,176.18901c0.15242,0.03272 0.40032,0.49401 0.29701,0.97522c-0.10331,0.48121 -0.40376,0.82479 -0.6711,0.7674c-0.26734,-0.05739 -0.40033,-0.49402 -0.29702,-0.97523c0.10331,-0.48121 0.54743,-0.79394 0.67111,-0.76739z" fill="#53c6b8" stroke-width="NaN"/><path d="M235.82561,175.93042c0.15242,0.03272 0.40033,0.49401 0.29702,0.97522c-0.10331,0.48122 -0.40377,0.82479 -0.67111,0.7674c-0.26734,-0.05739 -0.40033,-0.49402 -0.29702,-0.97523c0.10331,-0.48121 0.54743,-0.79394 0.67111,-0.76739z" fill="url(#color-6)" stroke-width="NaN"/></g><g stroke="none"><path d="M240.81386,174.363c-0.0434,-0.49026 0.28858,-0.92018 0.41458,-0.93134c0.15528,-0.01374 0.52834,0.35378 0.57174,0.84404c0.0434,0.49026 -0.1422,0.90724 -0.41457,0.93135c-0.27236,0.02411 -0.52835,-0.35378 -0.57175,-0.84404z" fill="#53c6b8" stroke-width="NaN"/><path d="M240.79054,174.09955c-0.0434,-0.49026 0.28858,-0.92018 0.41458,-0.93134c0.15528,-0.01375 0.52834,0.35377 0.57174,0.84403c0.0434,0.49026 -0.1422,0.90724 -0.41457,0.93135c-0.27236,0.02411 -0.52835,-0.35377 -0.57175,-0.84403z" fill="url(#color-7)" stroke-width="NaN"/></g><g stroke="none"><path d="M242.53679,177.78368c0.11723,-0.01038 0.39886,0.26708 0.43163,0.63719c0.03277,0.37011 -0.10735,0.68491 -0.31297,0.70311c-0.20563,0.0182 -0.39887,-0.26709 -0.43164,-0.6372c-0.03276,-0.37011 0.21786,-0.69468 0.31298,-0.7031z" fill="#53c6b8" stroke-width="NaN"/><path d="M242.20621,178.28788c-0.03277,-0.37011 0.21786,-0.69468 0.31298,-0.7031c0.11723,-0.01038 0.39886,0.26708 0.43163,0.63719c0.03277,0.37012 -0.10735,0.68491 -0.31297,0.70311c-0.20563,0.0182 -0.39887,-0.26708 -0.43164,-0.63719z" fill="url(#color-8)" stroke-width="NaN"/></g><g stroke="none"><path d="M243.99513,175.24202c0.11723,-0.01038 0.39886,0.26708 0.43163,0.63719c0.03277,0.37011 -0.10735,0.68491 -0.31297,0.70311c-0.20563,0.0182 -0.39887,-0.26709 -0.43164,-0.6372c-0.03276,-0.37011 0.21786,-0.69468 0.31298,-0.7031z" fill="#53c6b8" stroke-width="NaN"/><path d="M243.66455,175.74622c-0.03276,-0.37011 0.21786,-0.69468 0.31298,-0.7031c0.11723,-0.01038 0.39886,0.26708 0.43163,0.63719c0.03277,0.37012 -0.10735,0.68491 -0.31297,0.70311c-0.20563,0.0182 -0.39887,-0.26708 -0.43164,-0.63719z" fill="url(#color-9)" stroke-width="NaN"/></g></g></g></svg>