<svg version="1.1" xmlns="http://www.w3.org/2000/svg" xmlns:xlink="http://www.w3.org/1999/xlink" width="44.48864" height="44.48864" viewBox="0,0,44.48864,44.48864"><g transform="translate(-217.75568,-157.75568)"><g data-paper-data="{&quot;isPaintingLayer&quot;:true}" fill-rule="nonzero" stroke-linecap="butt" stroke-linejoin="miter" stroke-miterlimit="10" stroke-dasharray="" stroke-dashoffset="0" style="mix-blend-mode: normal"><path d="M217.75568,202.24432v-44.48864h44.48864v44.48864z" fill="none" stroke="none" stroke-width="NaN"/><path d="M247.25691,179.88886l4.64872,4.64873l-4.64872,4.64873z" fill="#38c7ff" stroke="#000000" stroke-width="0.4"/><path d="M233.14104,187.94631l-2.23001,-3.24943l2.23001,-3.37686l-3.82287,-4.65115h4.77858l3.63172,4.65115h9.05057v6.6263z" fill="#38c7ff" stroke="#000000" stroke-width="0.4"/><path d="M229.79604,180.65344l3.88415,3.88415l-3.88415,3.88415z" fill="#e6b200" stroke="#000000" stroke-width="0.4"/><path d="M245.89123,187.12046l-1.60218,-2.03886l1.60218,-2.10258v-1.40057l0.38462,-0.02826l3.49953,3.49953l-2.63415,2.63416l-1.25,0.00995z" data-paper-data="{&quot;index&quot;:null}" fill="#0068c7" stroke="#000000" stroke-width="0"/><path d="M246.36491,186.60831l-1.60218,-2.03886l1.60218,-2.10258v-1.81344l3.88415,3.88415l-3.88415,3.88416z" data-paper-data="{&quot;index&quot;:null}" fill="#ffe900" stroke="#000000" stroke-width="0.4"/><g fill="#0068c7" stroke="#000000" stroke-width="0"><path d="M234.94418,185.12763c0,-1.10844 0.89856,-2.00701 2.00701,-2.00701c1.10844,0 2.00701,0.89856 2.00701,2.00701c0,1.10844 -0.89856,2.00701 -2.00701,2.00701c-1.10844,0 -2.00701,-0.89856 -2.00701,-2.00701z"/><path d="M239.91391,185.12763c0,-0.79174 0.64183,-1.43357 1.43357,-1.43357c0.79174,0 1.43357,0.64183 1.43357,1.43357c0,0.79174 -0.64183,1.43357 -1.43357,1.43357c-0.79174,0 -1.43357,-0.64183 -1.43357,-1.43357z"/></g><g stroke="#000000" stroke-width="0.4"><path d="M235.4705,184.60131c0,-1.10844 0.89856,-2.00701 2.00701,-2.00701c1.10844,0 2.00701,0.89856 2.00701,2.00701c0,1.10844 -0.89856,2.00701 -2.00701,2.00701c-1.10844,0 -2.00701,-0.89856 -2.00701,-2.00701z" fill="#ffe900"/><path d="M240.44023,184.60131c0,-0.79174 0.64183,-1.43357 1.43357,-1.43357c0.79174,0 1.43357,0.64183 1.43357,1.43357c0,0.79174 -0.64183,1.43357 -1.43357,1.43357c-0.79174,0 -1.43357,-0.64183 -1.43357,-1.43357z" fill="#ffffff"/></g></g></g></svg>