<svg version="1.1" xmlns="http://www.w3.org/2000/svg" xmlns:xlink="http://www.w3.org/1999/xlink" width="44.48864" height="44.48864" viewBox="0,0,44.48864,44.48864"><g transform="translate(-217.75568,-157.75568)"><g data-paper-data="{&quot;isPaintingLayer&quot;:true}" fill-rule="nonzero" stroke-linecap="butt" stroke-linejoin="miter" stroke-miterlimit="10" stroke-dasharray="" stroke-dashoffset="0" style="mix-blend-mode: normal"><path d="M217.75568,202.24432v-44.48864h44.48864v44.48864z" fill="none" stroke="none" stroke-width="NaN"/><g><g><path d="M240.01173,172.08764c3.38602,-0.05 5.97895,3.31468 6.66095,7.91131c0.64125,4.32197 -2.02837,8.0276 -6.66095,7.9113c-4.55628,-0.04664 -7.40542,-3.6059 -6.66095,-7.9113c0.81841,-4.73303 3.6833,-7.86733 6.66095,-7.91131z" fill="#e2b622" stroke="#231a11" stroke-width="0.5"/><path d="M239.57727,172.58338c2.7798,-0.04105 4.90849,2.72123 5.4684,6.49489c0.52645,3.54818 -1.66521,6.59036 -5.4684,6.49488c-3.74055,-0.03829 -6.22124,-2.96031 -5.61007,-6.49488c0.67188,-3.88564 3.16551,-6.45879 5.61007,-6.49489z" fill="#ffda3d" stroke="#000000" stroke-width="0"/><path d="M235.4651,176.52331c0.62431,-2.1851 2.22651,-3.64329 3.57863,-3.25698c1.35211,0.3863 1.64121,2.43123 1.01688,4.61632c-0.62431,2.1851 -2.57143,3.68293 -3.92354,3.29661c-1.35211,-0.38631 -1.29628,-2.47086 -0.67197,-4.65595z" fill="#ffe572" stroke="none" stroke-width="0"/></g><path d="M233.94984,178.61678c0,0 0.19963,-0.81716 0.35486,-1.20791c0.14632,-0.36834 0.55139,-1.07334 0.55139,-1.07334c0,0 0.73737,0.61352 1.79054,0.72356c2.62911,0.27469 4.12854,0.02644 6.77196,0.02644c0.8753,0 1.9375,-0.75 1.9375,-0.75c0,0 0.3704,0.80783 0.50366,1.19695c0.12683,0.37036 0.27759,1.0843 0.27759,1.0843c0,0 -1.41518,0.875 -2.53125,0.875c-2.79212,0 -4.37656,0.23415 -7.15268,-0.06441c-1.44089,-0.15497 -2.50357,-0.81059 -2.50357,-0.81059z" fill-opacity="0.75189" fill="#682fc2" stroke="none" stroke-width="0"/><path d="M243.65676,183.63656c2.79404,-0.25883 2.74066,-0.92684 2.74066,-0.92684c0,0 -0.15618,0.64645 -0.28988,0.98579c-0.10666,0.27069 -0.51458,1.08478 -0.51458,1.08478c0,0 -0.59799,0.8057 -2.45797,1.04568c-1.38796,0.17908 -3.37484,0.02664 -6.02857,-0.10055c-1.42759,-0.06841 -2.61388,-0.88264 -2.61388,-0.88264c0,0 -0.40095,-0.71212 -0.52528,-1.0157c-0.13127,-0.32051 -0.33998,-1.05285 -0.33998,-1.05285c0,0 1.68705,0.75614 2.8405,0.85531c1.15345,0.09917 4.39495,0.26584 7.18899,0.00701z" data-paper-data="{&quot;index&quot;:null}" fill-opacity="0.75189" fill="#682fc2" stroke="none" stroke-width="0"/></g></g></g></svg>