<svg version="1.1" xmlns="http://www.w3.org/2000/svg" xmlns:xlink="http://www.w3.org/1999/xlink" width="23.05362" height="23.05362" viewBox="0,0,23.05362,23.05362"><g transform="translate(-228.47319,-168.47319)"><g data-paper-data="{&quot;isPaintingLayer&quot;:true}" fill-rule="nonzero" stroke-linecap="butt" stroke-linejoin="miter" stroke-miterlimit="10" stroke-dasharray="" stroke-dashoffset="0" style="mix-blend-mode: normal"><path d="M231.99016,180c0,-4.42372 3.58613,-8.00985 8.00985,-8.00985c4.42372,0 8.00985,3.58613 8.00985,8.00985c0,4.42372 -3.58613,8.00985 -8.00985,8.00985c-4.42372,0 -8.00985,-3.58613 -8.00985,-8.00985z" fill-opacity="0.25" fill="#fbff00" stroke="#ffffff" stroke-width="0"/><path d="M235.83613,180c0,-2.29964 1.86423,-4.16387 4.16387,-4.16387c2.29964,0 4.16387,1.86423 4.16387,4.16387c0,2.29964 -1.86423,4.16387 -4.16387,4.16387c-2.29964,0 -4.16387,-1.86423 -4.16387,-4.16387z" fill="none" stroke="#ffffff" stroke-width="0.5"/><path d="M237.11516,180c0,-1.59326 1.29159,-2.88485 2.88485,-2.88485c1.59326,0 2.88485,1.29159 2.88485,2.88485c0,1.59326 -1.29159,2.88485 -2.88485,2.88485c-1.59326,0 -2.88485,-1.29159 -2.88485,-2.88485z" fill="#fbff00" stroke="#ffffff" stroke-width="0.5"/><path d="M228.47319,191.52681v-23.05362h23.05362v23.05362z" fill="none" stroke="none" stroke-width="0"/></g></g></svg>