<svg version="1.1" xmlns="http://www.w3.org/2000/svg" xmlns:xlink="http://www.w3.org/1999/xlink" width="44.48864" height="44.48864" viewBox="0,0,44.48864,44.48864"><g transform="translate(-217.75568,-157.75568)"><g data-paper-data="{&quot;isPaintingLayer&quot;:true}" fill-rule="nonzero" stroke-linecap="butt" stroke-linejoin="miter" stroke-miterlimit="10" stroke-dasharray="" stroke-dashoffset="0" style="mix-blend-mode: normal"><path d="M217.75568,202.24432v-44.48864h44.48864v44.48864z" fill="none" stroke="none" stroke-width="NaN"/><g><path d="M240.01173,172.08764c3.38602,-0.05 5.97895,3.31468 6.66095,7.91131c0.64125,4.32197 -2.02837,8.0276 -6.66095,7.9113c-4.55628,-0.04664 -7.40542,-3.6059 -6.66095,-7.9113c0.81841,-4.73303 3.6833,-7.86733 6.66095,-7.91131z" fill="#48b81f" stroke="#231a11" stroke-width="0.5"/><path d="M239.57727,172.58338c2.7798,-0.04105 4.90849,2.72123 5.4684,6.49489c0.52645,3.54818 -1.66521,6.59036 -5.4684,6.49488c-3.74055,-0.03829 -6.22124,-2.96031 -5.61007,-6.49488c0.67188,-3.88564 3.16551,-6.45879 5.61007,-6.49489z" fill="#64e236" stroke="#000000" stroke-width="0"/><path d="M235.4651,176.52331c0.62431,-2.1851 2.22651,-3.64329 3.57863,-3.25698c1.35211,0.3863 1.64121,2.43123 1.01688,4.61632c-0.62431,2.1851 -2.57143,3.68293 -3.92354,3.29661c-1.35211,-0.38631 -1.29628,-2.47086 -0.67197,-4.65595z" fill="#7ef354" stroke="none" stroke-width="0"/></g><path d="M242.60165,183.32336c0.32497,-2.08585 1.63181,-0.26549 1.63181,-0.26549c0,0 1.02903,-1.81797 1.64593,-0.04392c0.35374,1.01727 -1.51172,2.14871 -1.51172,2.14871c0,0 -1.9351,-0.75406 -1.76602,-1.8393z" fill-opacity="0.87097" fill="#c22f95" stroke="none" stroke-width="0"/><path d="M242.49564,177.50874c0.01063,-1.83064 1.37215,-0.43954 1.37215,-0.43954c0,0 0.65205,-1.69239 1.41295,-0.25141c0.43631,0.82628 -1.02536,2.03865 -1.02536,2.03865c0,0 -1.76527,-0.39523 -1.75974,-1.34769z" fill-opacity="0.87097" fill="#c22f95" stroke="none" stroke-width="0"/><path d="M235.38797,185.14829c0,0 -1.69856,-1.32663 -1.24077,-2.29939c0.79835,-1.69643 1.6038,0.22195 1.6038,0.22195c0,0 1.47776,-1.66773 1.5656,0.44062c0.0457,1.09696 -1.92862,1.63682 -1.92862,1.63682z" data-paper-data="{&quot;index&quot;:null}" fill-opacity="0.87097" fill="#c22f95" stroke="none" stroke-width="0"/><path d="M235.83919,178.6793c0,0 -1.4511,-1.26597 -0.98175,-2.07621c0.81852,-1.41299 1.43079,0.30326 1.43079,0.30326c0,0 1.42846,-1.34107 1.38351,0.48989c-0.02338,0.95263 -1.83255,1.28306 -1.83255,1.28306z" data-paper-data="{&quot;index&quot;:null}" fill-opacity="0.87097" fill="#c22f95" stroke="none" stroke-width="0"/><path d="M240.00042,186.33472c0,0 -2.33334,-0.99359 -1.96459,-2.03479c0.64308,-1.81579 2.00164,-0.07599 2.00164,-0.07599c0,0 1.47823,-1.91226 1.99774,0.14619c0.2703,1.07099 -2.03479,1.96459 -2.03479,1.96459z" data-paper-data="{&quot;index&quot;:null}" fill-opacity="0.87097" fill="#c22f95" stroke="none" stroke-width="0"/><path d="M240.01309,179.33395c0,0 -2.02202,-0.86433 -1.70103,-1.7667c0.55978,-1.57368 1.73569,-0.06349 1.73569,-0.06349c0,0 1.28405,-1.65633 1.73204,0.12915c0.23309,0.92897 -1.7667,1.70104 -1.7667,1.70104z" data-paper-data="{&quot;index&quot;:null}" fill-opacity="0.87097" fill="#c22f95" stroke="none" stroke-width="0"/></g></g></svg>