<svg version="1.1" xmlns="http://www.w3.org/2000/svg" xmlns:xlink="http://www.w3.org/1999/xlink" width="47.125" height="47.125" viewBox="0,0,47.125,47.125"><g transform="translate(-216.4375,-156.4375)"><g data-paper-data="{&quot;isPaintingLayer&quot;:true}" fill-rule="nonzero" stroke-linecap="butt" stroke-linejoin="miter" stroke-miterlimit="10" stroke-dasharray="" stroke-dashoffset="0" style="mix-blend-mode: normal"><path d="M216.4375,203.5625v-47.125h47.125v47.125z" fill="none" stroke="none" stroke-width="NaN"/><g fill="#ffffff" stroke="none" stroke-width="0"><path d="M242.06689,180.87902l-0.7424,-3.25082l5.33903,0.01222z"/><g><path d="M241.30854,177.62566h-2.82546l1.41274,-6.13958z"/><path d="M233.13659,177.64041l5.33903,-0.01221l-0.7424,3.25082z" data-paper-data="{&quot;index&quot;:null}"/></g><g><path d="M237.66388,180.72453l2.22919,2.07016l-4.27817,3.80885z"/><path d="M244.11887,186.70032l-4.21861,-3.90217l2.2608,-2.02085z" data-paper-data="{&quot;index&quot;:null}"/></g><path d="M237.65868,180.96023l0.80536,-3.4146h2.86353l0.85011,3.36124l-2.2378,1.94714z"/></g><g fill="none" stroke="#ffffff" stroke-width="1.5"><path d="M236.0264,168.11207c1.1808,-0.54452 2.46425,-0.84312 3.8062,-0.84312c1.42359,0 2.78135,0.33604 4.02056,0.94522"/><path d="M246.48934,170.08681c2.00327,1.9433 3.39735,4.74519 3.7879,7.93544"/><path d="M250.24616,182.24974c-0.40789,2.93714 -1.66855,5.20923 -3.46848,7.08589"/><path d="M244.06844,191.38911c-1.29657,0.6781 -2.72934,1.05441 -4.23583,1.05441c-1.54243,0 -3.00761,-0.39449 -4.32843,-1.10348"/><path d="M232.72441,189.16198c-1.68964,-1.83624 -2.87731,-4.31798 -3.28881,-7.11822"/><path d="M229.38044,178.08498c0.38543,-3.26344 1.82033,-6.125 3.8846,-8.08372"/></g></g></g></svg>