<svg version="1.1" xmlns="http://www.w3.org/2000/svg" xmlns:xlink="http://www.w3.org/1999/xlink" width="47.125" height="47.125" viewBox="0,0,47.125,47.125"><g transform="translate(-216.4375,-156.4375)"><g data-paper-data="{&quot;isPaintingLayer&quot;:true}" fill-rule="nonzero" stroke-linecap="butt" stroke-linejoin="miter" stroke-miterlimit="10" stroke-dasharray="" stroke-dashoffset="0" style="mix-blend-mode: normal"><path d="M216.4375,203.5625v-47.125h47.125v47.125z" fill="none" stroke="none" stroke-width="NaN"/><g fill="#ffffff" stroke="none" stroke-width="0"><path d="M242.66876,180.9011l-0.88527,-3.25082l6.3665,0.01222z"/><g><path d="M241.76447,177.64774h-3.36921l1.68461,-6.13958z"/><path d="M232.01988,177.66249l6.3665,-0.01221l-0.88527,3.25082z" data-paper-data="{&quot;index&quot;:null}"/></g><g><path d="M237.4184,180.74661l2.65819,2.07016l-5.10148,3.80885z"/><path d="M245.11565,186.7224l-5.03046,-3.90217l2.69588,-2.02085z" data-paper-data="{&quot;index&quot;:null}"/></g><path d="M237.41221,180.98231l0.96035,-3.4146h3.4146l1.01371,3.36124l-2.66845,1.94714z"/></g><g fill="none" stroke="#ffffff" stroke-width="1.5"><path d="M235.46582,168.25584c1.40804,-0.54452 2.93849,-0.84312 4.53869,-0.84312c1.69755,0 3.31661,0.33604 4.7943,0.94522"/><path d="M247.9423,170.23058c2.38879,1.9433 4.05116,4.74519 4.51686,7.93544"/><path d="M252.42211,182.39351c-0.48639,2.93714 -1.98966,5.20923 -4.13597,7.08589"/><path d="M245.05549,191.53288c-1.54609,0.6781 -3.25459,1.05441 -5.051,1.05441c-1.83927,0 -3.58641,-0.39449 -5.16142,-1.10348"/><path d="M231.52836,189.30575c-2.0148,-1.83624 -3.43104,-4.31798 -3.92173,-7.11822"/><path d="M227.54087,178.22875c0.4596,-3.26344 2.17064,-6.125 4.63218,-8.08372"/></g></g></g></svg>