<svg version="1.1" xmlns="http://www.w3.org/2000/svg" xmlns:xlink="http://www.w3.org/1999/xlink" width="23.05362" height="23.05362" viewBox="0,0,23.05362,23.05362"><g transform="translate(-228.47319,-168.47319)"><g data-paper-data="{&quot;isPaintingLayer&quot;:true}" fill-rule="nonzero" stroke-linecap="butt" stroke-linejoin="miter" stroke-miterlimit="10" stroke-dasharray="" stroke-dashoffset="0" style="mix-blend-mode: normal"><path d="M231.99016,180c0,-4.42372 3.58613,-8.00985 8.00985,-8.00985c4.42372,0 8.00985,3.58613 8.00985,8.00985c0,4.42372 -3.58613,8.00985 -8.00985,8.00985c-4.42372,0 -8.00985,-3.58613 -8.00985,-8.00985z" fill-opacity="0.25" fill="#fbff00" stroke="#ffffff" stroke-width="0"/><path d="M228.47319,191.52681v-23.05362h23.05362v23.05362z" fill="none" stroke="none" stroke-width="0"/><g stroke="#ffffff" stroke-width="0.5"><path d="M232.98996,180c0,-3.87152 3.1385,-7.01003 7.01003,-7.01003c3.87152,0 7.01003,3.1385 7.01003,7.01003c0,3.87152 -3.1385,7.01003 -7.01003,7.01003c-3.87152,0 -7.01003,-3.1385 -7.01003,-7.01003z" fill="none"/><path d="M235.14325,180c0,-2.68231 2.17443,-4.85674 4.85674,-4.85674c2.68231,0 4.85674,2.17443 4.85674,4.85674c0,2.68231 -2.17443,4.85674 -4.85674,4.85674c-2.68231,0 -4.85674,-2.17443 -4.85674,-4.85674z" fill="#fbff00"/></g></g></g></svg>