<svg version="1.1" xmlns="http://www.w3.org/2000/svg" xmlns:xlink="http://www.w3.org/1999/xlink" width="47.125" height="47.125" viewBox="0,0,47.125,47.125"><g transform="translate(-216.4375,-156.4375)"><g data-paper-data="{&quot;isPaintingLayer&quot;:true}" fill-rule="nonzero" stroke-linecap="butt" stroke-linejoin="miter" stroke-miterlimit="10" stroke-dasharray="" stroke-dashoffset="0" style="mix-blend-mode: normal"><path d="M216.4375,203.5625v-47.125h47.125v47.125z" fill="none" stroke="none" stroke-width="NaN"/><g data-paper-data="{&quot;index&quot;:null}" fill="#ffffff" stroke="none" stroke-width="0"><path d="M232.99416,177.64043l5.33903,-0.01222l-0.7424,3.25082z"/><g><path d="M239.76186,171.48609l1.41274,6.13958h-2.82546z"/><path d="M241.92446,180.87902l-0.7424,-3.25082l5.33903,0.01221z" data-paper-data="{&quot;index&quot;:null}"/></g><g><path d="M244.04278,186.60355l-4.27817,-3.80885l2.22919,-2.07016z"/><path d="M237.49662,180.7773l2.2608,2.02085l-4.21861,3.90217z" data-paper-data="{&quot;index&quot;:null}"/></g><path d="M239.7178,182.85402l-2.2378,-1.94714l0.85011,-3.36124h2.86353l0.80536,3.4146z"/></g><g data-paper-data="{&quot;index&quot;:null}" fill="none" stroke="#ffffff" stroke-width="1.5"><path d="M235.80452,168.21417c1.23921,-0.60918 2.59697,-0.94522 4.02056,-0.94522c1.34195,0 2.6254,0.2986 3.8062,0.84312"/><path d="M229.38044,178.02226c0.39055,-3.19025 1.78463,-5.99214 3.7879,-7.93544"/><path d="M232.88,189.33564c-1.79993,-1.87666 -3.06059,-4.14875 -3.46848,-7.08589"/><path d="M244.1535,191.34005c-1.32082,0.70899 -2.786,1.10348 -4.32843,1.10348c-1.50649,0 -2.93926,-0.37631 -4.23583,-1.05441"/><path d="M250.22208,182.04377c-0.4115,2.80024 -1.59917,5.28198 -3.28881,7.11822"/><path d="M246.39264,170.00126c2.06427,1.95872 3.49917,4.82028 3.8846,8.08372"/></g></g></g></svg>