<svg version="1.1" xmlns="http://www.w3.org/2000/svg" xmlns:xlink="http://www.w3.org/1999/xlink" width="44.48864" height="44.48864" viewBox="0,0,44.48864,44.48864"><g transform="translate(-217.75568,-157.75568)"><g data-paper-data="{&quot;isPaintingLayer&quot;:true}" fill-rule="nonzero" stroke-linecap="butt" stroke-linejoin="miter" stroke-miterlimit="10" stroke-dasharray="" stroke-dashoffset="0" style="mix-blend-mode: normal"><path d="M217.75568,202.24432v-44.48864h44.48864v44.48864z" fill="none" stroke="none" stroke-width="NaN"/><path d="M247.25691,179.88886l4.64872,4.64873l-4.64872,4.64873z" fill="#38c7ff" stroke="#000000" stroke-width="0.5"/><g><path d="M240.52523,173.03673c2.57709,-0.03806 4.55055,2.52279 5.06963,6.02127c0.48806,3.28944 -1.54378,6.10978 -5.06963,6.02126c-3.46777,-0.0355 -5.63624,-2.74444 -5.06963,-6.02126c0.62289,-3.60229 2.80334,-5.9878 5.06963,-6.02127z" fill="#e8bc90" stroke="#231a11" stroke-width="0.5"/><path d="M240.19455,173.41404c2.1157,-0.03124 3.73584,2.07112 4.16198,4.94325c0.40067,2.70051 -1.26739,5.01591 -4.16198,4.94324c-2.84691,-0.02914 -4.73497,-2.25308 -4.26981,-4.94324c0.51137,-2.95735 2.40926,-4.91577 4.26981,-4.94325z" fill="#f3d3b3" stroke="#000000" stroke-width="0"/><path d="M237.06479,176.41272c0.47516,-1.66307 1.69459,-2.7729 2.72368,-2.47887c1.02908,0.29402 1.24912,1.8504 0.77395,3.51347c-0.47516,1.66307 -1.95711,2.80306 -2.9862,2.50904c-1.02908,-0.29402 -0.98659,-1.88056 -0.51144,-3.54363z" fill="#ffe4ca" stroke="none" stroke-width="0"/></g><path d="M233.14104,187.94631l-2.23001,-3.24943l2.23001,-3.37686l-3.82287,-4.65115h4.77858l3.63172,4.65115h9.05057v6.6263z" fill="#38c7ff" stroke="#000000" stroke-width="0.5"/><path d="M229.79604,180.65344l3.88415,3.88415l-3.88415,3.88415z" fill="#ffe900" stroke="#000000" stroke-width="0.5"/><path d="M245.89123,187.12046l-1.60218,-2.03886l1.60218,-2.10258v-1.40057l0.38462,-0.02826l3.49953,3.49953l-2.63415,2.63416l-1.25,0.00995z" data-paper-data="{&quot;index&quot;:null}" fill="#0068c7" stroke="#000000" stroke-width="0"/><path d="M246.36491,186.60831l-1.60218,-2.03886l1.60218,-2.10258v-1.81344l3.88415,3.88415l-3.88415,3.88416z" data-paper-data="{&quot;index&quot;:null}" fill="#ffe900" stroke="#000000" stroke-width="0.5"/><g fill="#0068c7" stroke="#000000" stroke-width="0"><path d="M234.94418,185.12763c0,-1.10844 0.89856,-2.00701 2.00701,-2.00701c1.10844,0 2.00701,0.89856 2.00701,2.00701c0,1.10844 -0.89856,2.00701 -2.00701,2.00701c-1.10844,0 -2.00701,-0.89856 -2.00701,-2.00701z"/><path d="M239.91391,185.12763c0,-0.79174 0.64183,-1.43357 1.43357,-1.43357c0.79174,0 1.43357,0.64183 1.43357,1.43357c0,0.79174 -0.64183,1.43357 -1.43357,1.43357c-0.79174,0 -1.43357,-0.64183 -1.43357,-1.43357z"/></g><g stroke="#000000" stroke-width="0.5"><path d="M235.4705,184.60131c0,-1.10844 0.89856,-2.00701 2.00701,-2.00701c1.10844,0 2.00701,0.89856 2.00701,2.00701c0,1.10844 -0.89856,2.00701 -2.00701,2.00701c-1.10844,0 -2.00701,-0.89856 -2.00701,-2.00701z" fill="#ffffff"/><path d="M240.44023,184.60131c0,-0.79174 0.64183,-1.43357 1.43357,-1.43357c0.79174,0 1.43357,0.64183 1.43357,1.43357c0,0.79174 -0.64183,1.43357 -1.43357,1.43357c-0.79174,0 -1.43357,-0.64183 -1.43357,-1.43357z" fill="#ffe900"/></g></g></g></svg>