<svg version="1.1" xmlns="http://www.w3.org/2000/svg" xmlns:xlink="http://www.w3.org/1999/xlink" width="44.48864" height="44.48864" viewBox="0,0,44.48864,44.48864"><g transform="translate(-217.75568,-157.75568)"><g data-paper-data="{&quot;isPaintingLayer&quot;:true}" fill-rule="nonzero" stroke-linecap="butt" stroke-linejoin="miter" stroke-miterlimit="10" stroke-dasharray="" stroke-dashoffset="0" style="mix-blend-mode: normal"><path d="M217.75568,202.24432v-44.48864h44.48864v44.48864z" fill="none" stroke="none" stroke-width="NaN"/><path d="M227.71875,180c0,-6.78274 5.49851,-12.28125 12.28125,-12.28125c6.78274,0 12.28125,5.49851 12.28125,12.28125c0,6.78274 -5.49851,12.28125 -12.28125,12.28125c-6.78274,0 -12.28125,-5.49851 -12.28125,-12.28125z" fill="#ffffff" stroke="#231a11" stroke-width="0"/><path d="M233.46875,180c0,-3.6071 2.92415,-6.53125 6.53125,-6.53125c3.6071,0 6.53125,2.92415 6.53125,6.53125c0,3.6071 -2.92415,6.53125 -6.53125,6.53125c-3.6071,0 -6.53125,-2.92415 -6.53125,-6.53125z" fill="#ffcf50" stroke="#231a11" stroke-width="0"/></g></g></svg>