<svg version="1.1" xmlns="http://www.w3.org/2000/svg" xmlns:xlink="http://www.w3.org/1999/xlink" width="44.48864" height="44.48864" viewBox="0,0,44.48864,44.48864"><g transform="translate(-217.75568,-157.75568)"><g data-paper-data="{&quot;isPaintingLayer&quot;:true}" fill-rule="nonzero" stroke-linecap="butt" stroke-linejoin="miter" stroke-miterlimit="10" stroke-dasharray="" stroke-dashoffset="0" style="mix-blend-mode: normal"><path d="M217.75568,202.24432v-44.48864h44.48864v44.48864z" fill="none" stroke="none" stroke-width="NaN"/><g><path d="M240.01173,172.08764c3.38602,-0.05 5.97895,3.31468 6.66095,7.91131c0.64125,4.32197 -2.02837,8.0276 -6.66095,7.9113c-4.55628,-0.04664 -7.40542,-3.6059 -6.66095,-7.9113c0.81841,-4.73303 3.6833,-7.86733 6.66095,-7.91131z" fill="#dd3668" stroke="#231a11" stroke-width="0.5"/><path d="M239.57727,172.58338c2.7798,-0.04105 4.90849,2.72123 5.4684,6.49489c0.52645,3.54818 -1.66521,6.59036 -5.4684,6.49488c-3.74055,-0.03829 -6.22124,-2.96031 -5.61007,-6.49488c0.67188,-3.88564 3.16551,-6.45879 5.61007,-6.49489z" fill="#f74d80" stroke="#000000" stroke-width="0"/><path d="M235.4651,176.52331c0.62431,-2.1851 2.22651,-3.64329 3.57863,-3.25698c1.35211,0.3863 1.64121,2.43123 1.01688,4.61632c-0.62431,2.1851 -2.57143,3.68293 -3.92354,3.29661c-1.35211,-0.38631 -1.29628,-2.47086 -0.67197,-4.65595z" fill="#ff769f" stroke="none" stroke-width="0"/></g><path d="M244.30556,182.38889c0,-0.61365 0.49746,-1.11111 1.11111,-1.11111c0.61365,0 1.11111,0.49746 1.11111,1.11111c0,0.61365 -0.49746,1.11111 -1.11111,1.11111c-0.61365,0 -1.11111,-0.49746 -1.11111,-1.11111z" fill-opacity="0.76613" fill="#33c32f" stroke="none" stroke-width="0"/><path d="M240.63889,182.61111c0,-0.30682 0.24873,-0.55556 0.55556,-0.55556c0.30682,0 0.55556,0.24873 0.55556,0.55556c0,0.30682 -0.24873,0.55556 -0.55556,0.55556c-0.30682,0 -0.55556,-0.24873 -0.55556,-0.55556z" fill-opacity="0.76613" fill="#33c32f" stroke="none" stroke-width="0"/><path d="M234.36111,183.25c0,-0.62899 0.5099,-1.13889 1.13889,-1.13889c0.62899,0 1.13889,0.5099 1.13889,1.13889c0,0.62899 -0.5099,1.13889 -1.13889,1.13889c-0.62899,0 -1.13889,-0.5099 -1.13889,-1.13889z" fill-opacity="0.76613" fill="#33c32f" stroke="none" stroke-width="0"/><path d="M238.19444,186.16667c0,-0.30682 0.24873,-0.55556 0.55556,-0.55556c0.30682,0 0.55556,0.24873 0.55556,0.55556c0,0.30682 -0.24873,0.55556 -0.55556,0.55556c-0.30682,0 -0.55556,-0.24873 -0.55556,-0.55556z" fill-opacity="0.76613" fill="#33c32f" stroke="none" stroke-width="0"/><path d="M241.58333,176.33333c0,-0.36819 0.29848,-0.66667 0.66667,-0.66667c0.36819,0 0.66667,0.29848 0.66667,0.66667c0,0.36819 -0.29848,0.66667 -0.66667,0.66667c-0.36819,0 -0.66667,-0.29848 -0.66667,-0.66667z" fill-opacity="0.76613" fill="#33c32f" stroke="none" stroke-width="0"/><path d="M234.41667,177.80556c0,-0.56763 0.46015,-1.02778 1.02778,-1.02778c0.56763,0 1.02778,0.46015 1.02778,1.02778c0,0.56763 -0.46015,1.02778 -1.02778,1.02778c-0.56763,0 -1.02778,-0.46015 -1.02778,-1.02778z" fill-opacity="0.76613" fill="#33c32f" stroke="none" stroke-width="0"/></g></g></svg>