<svg version="1.1" xmlns="http://www.w3.org/2000/svg" xmlns:xlink="http://www.w3.org/1999/xlink" width="576.57657" height="398.71771" viewBox="0,0,576.57657,398.71771"><g transform="translate(50.54054,37.71771)"><g data-paper-data="{&quot;isPaintingLayer&quot;:true}" fill-rule="nonzero" stroke-linecap="butt" stroke-linejoin="miter" stroke-miterlimit="10" stroke-dasharray="" stroke-dashoffset="0" style="mix-blend-mode: normal"><path d="M-50.54054,-4.68468v-33.03303h576.57657v33.03304z" fill="none" stroke="none" stroke-width="NaN"/><g fill="#000000" stroke="#fffee0" stroke-width="2"><g><g><path d="M61.99413,41.97443l-16,28.6l-16,-28.6z" data-paper-data="{&quot;index&quot;:null}"/><path d="M29.99413,41.97443l-16,28.6l-16,-28.6z" data-paper-data="{&quot;index&quot;:null}"/><path d="M125.99413,41.97443l-16,28.6l-16,-28.6z" data-paper-data="{&quot;index&quot;:null}"/><path d="M93.99413,41.97443l-16,28.6l-16,-28.6z" data-paper-data="{&quot;index&quot;:null}"/><path d="M157.99413,41.97443l-16,28.6l-16,-28.6z" data-paper-data="{&quot;index&quot;:null}"/></g><g><path d="M220.99413,41.97443l-16,28.6l-16,-28.6z" data-paper-data="{&quot;index&quot;:null}"/><path d="M188.99413,41.97443l-16,28.6l-16,-28.6z" data-paper-data="{&quot;index&quot;:null}"/><path d="M284.99413,41.97443l-16,28.6l-16,-28.6z" data-paper-data="{&quot;index&quot;:null}"/><path d="M252.99413,41.97443l-16,28.6l-16,-28.6z" data-paper-data="{&quot;index&quot;:null}"/><path d="M316.99413,41.97443l-16,28.6l-16,-28.6z" data-paper-data="{&quot;index&quot;:null}"/></g></g><g><path d="M380.66079,41.97443l-16,28.6l-16,-28.6z" data-paper-data="{&quot;index&quot;:null}"/><path d="M348.66079,41.97443l-16,28.6l-16,-28.6z" data-paper-data="{&quot;index&quot;:null}"/><path d="M444.66079,41.97443l-16,28.6l-16,-28.6z" data-paper-data="{&quot;index&quot;:null}"/><path d="M412.66079,41.97443l-16,28.6l-16,-28.6z" data-paper-data="{&quot;index&quot;:null}"/><path d="M476.66079,41.97443l-16,28.6l-16,-28.6z" data-paper-data="{&quot;index&quot;:null}"/></g></g><g data-paper-data="{&quot;index&quot;:null}" fill="#000000" stroke="#fffee0" stroke-width="2"><g><g><path d="M29.99413,358.57443l16,-28.6l16,28.6z" data-paper-data="{&quot;index&quot;:null}"/><path d="M-2.00587,358.57443l16,-28.6l16,28.6z" data-paper-data="{&quot;index&quot;:null}"/><path d="M93.99413,358.57443l16,-28.6l16,28.6z" data-paper-data="{&quot;index&quot;:null}"/><path d="M61.99413,358.57443l16,-28.6l16,28.6z" data-paper-data="{&quot;index&quot;:null}"/><path d="M125.99413,358.57443l16,-28.6l16,28.6z" data-paper-data="{&quot;index&quot;:null}"/></g><g><path d="M188.99413,358.57443l16,-28.6l16,28.6z" data-paper-data="{&quot;index&quot;:null}"/><path d="M156.99413,358.57443l16,-28.6l16,28.6z" data-paper-data="{&quot;index&quot;:null}"/><path d="M252.99413,358.57443l16,-28.6l16,28.6z" data-paper-data="{&quot;index&quot;:null}"/><path d="M220.99413,358.57443l16,-28.6l16,28.6z" data-paper-data="{&quot;index&quot;:null}"/><path d="M284.99413,358.57443l16,-28.6l16,28.6z" data-paper-data="{&quot;index&quot;:null}"/></g></g><g><path d="M348.66079,358.57443l16,-28.6l16,28.6z" data-paper-data="{&quot;index&quot;:null}"/><path d="M316.66079,358.57443l16,-28.6l16,28.6z" data-paper-data="{&quot;index&quot;:null}"/><path d="M412.66079,358.57443l16,-28.6l16,28.6z" data-paper-data="{&quot;index&quot;:null}"/><path d="M380.66079,358.57443l16,-28.6l16,28.6z" data-paper-data="{&quot;index&quot;:null}"/><path d="M444.66079,358.57443l16,-28.6l16,28.6z" data-paper-data="{&quot;index&quot;:null}"/></g></g><g fill="#000000" stroke-width="2"><path d="M156.9218,360l16,-28.6l16,28.6z" data-paper-data="{&quot;index&quot;:null}" stroke="#fffee0"/><path d="M188.9218,43.4l-16,28.6l-16,-28.6z" data-paper-data="{&quot;index&quot;:null}" stroke="#fffee0"/><path d="M186.77736,327.97443v32h-32v-32z" data-paper-data="{&quot;index&quot;:null}" stroke="#ffffff"/><path d="M186.77736,295.97443v32h-32v-32z" data-paper-data="{&quot;index&quot;:null}" stroke="#ffffff"/><path d="M186.77736,263.97443v32h-32v-32z" data-paper-data="{&quot;index&quot;:null}" stroke="#ffffff"/><path d="M186.77736,231.97443v32h-32v-32z" data-paper-data="{&quot;index&quot;:null}" stroke="#ffffff"/><path d="M186.77736,199.97443v32h-32v-32z" data-paper-data="{&quot;index&quot;:null}" stroke="#ffffff"/><path d="M186.77736,72.97443v32h-32v-32z" data-paper-data="{&quot;index&quot;:null}" stroke="#ffffff"/><path d="M186.77736,41.97443v32h-32v-32z" data-paper-data="{&quot;index&quot;:null}" stroke="#ffffff"/></g><g data-paper-data="{&quot;index&quot;:null}" fill="#000000" stroke-width="2"><path d="M481.50356,41.97443l-16,28.6l-16,-28.6z" data-paper-data="{&quot;index&quot;:null}" stroke="#fffee0"/><path d="M449.50356,358.57443l16,-28.6l16,28.6z" data-paper-data="{&quot;index&quot;:null}" stroke="#fffee0"/><path d="M447.35912,74v-32h32v32z" data-paper-data="{&quot;index&quot;:null}" stroke="#ffffff"/><path d="M447.35912,106v-32h32v32z" data-paper-data="{&quot;index&quot;:null}" stroke="#ffffff"/><path d="M447.35912,138v-32h32v32z" data-paper-data="{&quot;index&quot;:null}" stroke="#ffffff"/><path d="M447.35912,170v-32h32v32z" data-paper-data="{&quot;index&quot;:null}" stroke="#ffffff"/><path d="M447.35912,202v-32h32v32z" data-paper-data="{&quot;index&quot;:null}" stroke="#ffffff"/><path d="M447.35912,329v-32h32v32z" data-paper-data="{&quot;index&quot;:null}" stroke="#ffffff"/><path d="M447.35912,360v-32h32v32z" data-paper-data="{&quot;index&quot;:null}" stroke="#ffffff"/></g><g><path d="M476.71298,249.21359v-6.3h10v6.3z" fill="#000000" stroke="none" stroke-width="0"/><path d="M452.11298,249.21359v-6.3h5.5v6.3z" fill="#000000" stroke="none" stroke-width="0"/><path d="M452.91298,241.41359v-6.3h5.5v6.3z" fill="#000000" stroke="none" stroke-width="0"/><path d="M454.31298,233.31359v-6h5.5v6z" fill="#000000" stroke="none" stroke-width="0"/><path d="M456.51298,226.11359v-5.1h5.5v5.1z" fill="#000000" stroke="none" stroke-width="0"/><path d="M458.41298,220.01359v-3.5h5.5v3.5z" fill="#000000" stroke="none" stroke-width="0"/><path d="M475.91298,241.11359v-5.8h10v5.8z" fill="#000000" stroke="none" stroke-width="0"/><path d="M474.61298,233.81359v-6h10v6z" fill="#000000" stroke="none" stroke-width="0"/><path d="M471.71298,226.11359v-5h10v5z" fill="#000000" stroke="none" stroke-width="0"/><path d="M469.31298,220.01359v-3.1h10v3.1z" fill="#000000" stroke="none" stroke-width="0"/><path d="M466.01298,215.81359v-2.4h10v2.4z" fill="#000000" stroke="none" stroke-width="0"/><path d="M461.71298,212.81359v-1.6h10v1.6z" fill="#000000" stroke="none" stroke-width="0"/><path d="M475.91298,256.71359v-5.8h10v5.8z" fill="#000000" stroke="none" stroke-width="0"/><path d="M474.61298,264.21359v-6h10v6z" fill="#000000" stroke="none" stroke-width="0"/><path d="M471.71298,270.91359v-5h10v5z" fill="#000000" stroke="none" stroke-width="0"/><path d="M469.31298,275.11359v-3.1h10v3.1z" fill="#000000" stroke="none" stroke-width="0"/><path d="M466.01298,278.61359v-2.4h10v2.4z" fill="#000000" stroke="none" stroke-width="0"/><path d="M461.71298,280.81359v-1.6h10v1.6z" fill="#000000" stroke="none" stroke-width="0"/><path d="M452.91298,257.01359v-6.3h5.5v6.3z" fill="#000000" stroke="none" stroke-width="0"/><path d="M454.31298,264.61359v-6h5.5v6z" fill="#000000" stroke="none" stroke-width="0"/><path d="M456.51298,271.01359v-5.1h5.5v5.1z" fill="#000000" stroke="none" stroke-width="0"/><path d="M458.41298,275.51359v-3.5h5.5v3.5z" fill="#000000" stroke="none" stroke-width="0"/><path d="M463.91298,216.51359c-4.8,0 -8.8,13.3 -8.8,29.7c0,16.4 3.9,29.7 8.8,29.7c4.9,0 8.8,-13.3 8.8,-29.7c0,-16.4 -3.9,-29.7 -8.8,-29.7zM476.81298,246.21359c0,20 -5.7,36.3 -12.8,36.3c-7.1,0 -12.9,-16.2 -12.9,-36.2c0,-20 5.8,-36.3 12.9,-36.3c7.1,0 12.8,16.2 12.8,36.3v0z" fill="#ffed48" stroke="none" stroke-width="0"/><path d="M476.81298,246.31359c0,20 -5.7,36.3 -12.8,36.3c-7.1,0 -12.9,-16.3 -12.9,-36.3c0,-20 5.8,-36.3 12.9,-36.3c7.1,0 12.8,16.2 12.8,36.3z" fill="none" stroke="#fffecc" stroke-width="1.9"/></g></g></g></svg>