<svg version="1.1" xmlns="http://www.w3.org/2000/svg" xmlns:xlink="http://www.w3.org/1999/xlink" width="576.57657" height="398.71771" viewBox="0,0,576.57657,398.71771"><g transform="translate(50.54054,37.71771)"><g data-paper-data="{&quot;isPaintingLayer&quot;:true}" fill-rule="nonzero" stroke-linecap="butt" stroke-linejoin="miter" stroke-miterlimit="10" stroke-dasharray="" stroke-dashoffset="0" style="mix-blend-mode: normal"><path d="M-50.54054,-4.68468v-33.03303h576.57657v33.03304z" fill="none" stroke="none" stroke-width="NaN"/><g fill="#000000" stroke="#fffee0" stroke-width="2"><g><g><path d="M61.99413,41.97443l-16,28.6l-16,-28.6z" data-paper-data="{&quot;index&quot;:null}"/><path d="M29.99413,41.97443l-16,28.6l-16,-28.6z" data-paper-data="{&quot;index&quot;:null}"/><path d="M125.99413,41.97443l-16,28.6l-16,-28.6z" data-paper-data="{&quot;index&quot;:null}"/><path d="M93.99413,41.97443l-16,28.6l-16,-28.6z" data-paper-data="{&quot;index&quot;:null}"/><path d="M157.99413,41.97443l-16,28.6l-16,-28.6z" data-paper-data="{&quot;index&quot;:null}"/></g><g><path d="M220.99413,41.97443l-16,28.6l-16,-28.6z" data-paper-data="{&quot;index&quot;:null}"/><path d="M188.99413,41.97443l-16,28.6l-16,-28.6z" data-paper-data="{&quot;index&quot;:null}"/><path d="M284.99413,41.97443l-16,28.6l-16,-28.6z" data-paper-data="{&quot;index&quot;:null}"/><path d="M252.99413,41.97443l-16,28.6l-16,-28.6z" data-paper-data="{&quot;index&quot;:null}"/><path d="M316.99413,41.97443l-16,28.6l-16,-28.6z" data-paper-data="{&quot;index&quot;:null}"/></g></g><g><path d="M380.66079,41.97443l-16,28.6l-16,-28.6z" data-paper-data="{&quot;index&quot;:null}"/><path d="M348.66079,41.97443l-16,28.6l-16,-28.6z" data-paper-data="{&quot;index&quot;:null}"/><path d="M444.66079,41.97443l-16,28.6l-16,-28.6z" data-paper-data="{&quot;index&quot;:null}"/><path d="M412.66079,41.97443l-16,28.6l-16,-28.6z" data-paper-data="{&quot;index&quot;:null}"/><path d="M476.66079,41.97443l-16,28.6l-16,-28.6z" data-paper-data="{&quot;index&quot;:null}"/></g></g><path d="M29.99413,358.57443l16,-28.6l16,28.6z" data-paper-data="{&quot;index&quot;:null}" fill="#000000" stroke="#fffee0" stroke-width="2"/><path d="M-2.00587,358.57443l16,-28.6l16,28.6z" data-paper-data="{&quot;index&quot;:null}" fill="#000000" stroke="#fffee0" stroke-width="2"/><path d="M252.99413,358.57443l16,-28.6l16,28.6z" data-paper-data="{&quot;index&quot;:null}" fill="#000000" stroke="#fffee0" stroke-width="2"/><path d="M220.99413,358.57443l16,-28.6l16,28.6z" data-paper-data="{&quot;index&quot;:null}" fill="#000000" stroke="#fffee0" stroke-width="2"/><path d="M284.99413,358.57443l16,-28.6l16,28.6z" data-paper-data="{&quot;index&quot;:null}" fill="#000000" stroke="#fffee0" stroke-width="2"/><path d="M348.66079,358.57443l16,-28.6l16,28.6z" data-paper-data="{&quot;index&quot;:null}" fill="#000000" stroke="#fffee0" stroke-width="2"/><path d="M412.66079,358.57443l16,-28.6l16,28.6z" data-paper-data="{&quot;index&quot;:null}" fill="#000000" stroke="#fffee0" stroke-width="2"/><path d="M380.66079,358.57443l16,-28.6l16,28.6z" data-paper-data="{&quot;index&quot;:null}" fill="#000000" stroke="#fffee0" stroke-width="2"/><path d="M444.66079,358.57443l16,-28.6l16,28.6z" data-paper-data="{&quot;index&quot;:null}" fill="#000000" stroke="#fffee0" stroke-width="2"/><g fill="#000000" stroke-width="2"><path d="M284.3325,358.57443l16,-28.6l16,28.6z" data-paper-data="{&quot;index&quot;:null}" stroke="#fffee0"/><path d="M347.3325,358.57443l16,-28.6l16,28.6z" data-paper-data="{&quot;index&quot;:null}" stroke="#fffee0"/><path d="M286.33837,265v-32h32v32z" stroke="#ffffff"/><path d="M318.33837,265v-32h32v32z" stroke="#ffffff"/><path d="M350.33837,265v-32h32v32z" stroke="#ffffff"/><path d="M286.33837,297v-32h32v32z" stroke="#ffffff"/><path d="M350.33837,297v-32h32v32z" stroke="#ffffff"/><path d="M286.33837,329v-32h32v32z" stroke="#ffffff"/><path d="M350.33837,329v-32h32v32z" stroke="#ffffff"/><path d="M286.33837,360v-32h32v32z" stroke="#ffffff"/><path d="M350.33837,360v-32h32v32z" stroke="#ffffff"/></g><g fill="#000000" stroke="#fffee0" stroke-width="2"><path d="M93.99413,358.57443l16,-28.6l16,28.6z" data-paper-data="{&quot;index&quot;:null}"/><path d="M61.99413,358.57443l16,-28.6l16,28.6z" data-paper-data="{&quot;index&quot;:null}"/></g><g fill="#000000" stroke="#fffee0" stroke-width="2"><path d="M157.1,358.57443l16,-28.6l16,28.6z" data-paper-data="{&quot;index&quot;:null}"/><path d="M125.1,358.57443l16,-28.6l16,28.6z" data-paper-data="{&quot;index&quot;:null}"/></g><g fill="#000000" stroke="#fffee0" stroke-width="2"><path d="M219.05849,358.57443l16,-28.6l16,28.6z" data-paper-data="{&quot;index&quot;:null}"/><path d="M187.05849,358.57443l16,-28.6l16,28.6z" data-paper-data="{&quot;index&quot;:null}"/></g></g></g></svg>