<svg version="1.1" xmlns="http://www.w3.org/2000/svg" xmlns:xlink="http://www.w3.org/1999/xlink" width="576.57657" height="398.71771" viewBox="0,0,576.57657,398.71771"><g transform="translate(50.54054,37.71771)"><g data-paper-data="{&quot;isPaintingLayer&quot;:true}" fill-rule="nonzero" stroke-linecap="butt" stroke-linejoin="miter" stroke-miterlimit="10" stroke-dasharray="" stroke-dashoffset="0" style="mix-blend-mode: normal"><path d="M-50.54054,-4.68468v-33.03303h576.57657v33.03304z" fill="none" stroke="none" stroke-width="NaN"/><g fill="#000000" stroke="#fffee0" stroke-width="2"><g><g><path d="M61.99413,41.97443l-16,28.6l-16,-28.6z" data-paper-data="{&quot;index&quot;:null}"/><path d="M29.99413,41.97443l-16,28.6l-16,-28.6z" data-paper-data="{&quot;index&quot;:null}"/><path d="M125.99413,41.97443l-16,28.6l-16,-28.6z" data-paper-data="{&quot;index&quot;:null}"/><path d="M93.99413,41.97443l-16,28.6l-16,-28.6z" data-paper-data="{&quot;index&quot;:null}"/><path d="M157.99413,41.97443l-16,28.6l-16,-28.6z" data-paper-data="{&quot;index&quot;:null}"/></g><g><path d="M220.99413,41.97443l-16,28.6l-16,-28.6z" data-paper-data="{&quot;index&quot;:null}"/><path d="M188.99413,41.97443l-16,28.6l-16,-28.6z" data-paper-data="{&quot;index&quot;:null}"/><path d="M284.99413,41.97443l-16,28.6l-16,-28.6z" data-paper-data="{&quot;index&quot;:null}"/><path d="M252.99413,41.97443l-16,28.6l-16,-28.6z" data-paper-data="{&quot;index&quot;:null}"/><path d="M316.99413,41.97443l-16,28.6l-16,-28.6z" data-paper-data="{&quot;index&quot;:null}"/></g></g><g><path d="M380.66079,41.97443l-16,28.6l-16,-28.6z" data-paper-data="{&quot;index&quot;:null}"/><path d="M348.66079,41.97443l-16,28.6l-16,-28.6z" data-paper-data="{&quot;index&quot;:null}"/><path d="M444.66079,41.97443l-16,28.6l-16,-28.6z" data-paper-data="{&quot;index&quot;:null}"/><path d="M412.66079,41.97443l-16,28.6l-16,-28.6z" data-paper-data="{&quot;index&quot;:null}"/><path d="M476.66079,41.97443l-16,28.6l-16,-28.6z" data-paper-data="{&quot;index&quot;:null}"/></g></g><g data-paper-data="{&quot;index&quot;:null}" fill="#000000" stroke="#fffee0" stroke-width="2"><g><g><path d="M29.99413,358.57443l16,-28.6l16,28.6z" data-paper-data="{&quot;index&quot;:null}"/><path d="M-2.00587,358.57443l16,-28.6l16,28.6z" data-paper-data="{&quot;index&quot;:null}"/><path d="M93.99413,358.57443l16,-28.6l16,28.6z" data-paper-data="{&quot;index&quot;:null}"/><path d="M61.99413,358.57443l16,-28.6l16,28.6z" data-paper-data="{&quot;index&quot;:null}"/><path d="M125.99413,358.57443l16,-28.6l16,28.6z" data-paper-data="{&quot;index&quot;:null}"/></g><g><path d="M188.99413,358.57443l16,-28.6l16,28.6z" data-paper-data="{&quot;index&quot;:null}"/><path d="M156.99413,358.57443l16,-28.6l16,28.6z" data-paper-data="{&quot;index&quot;:null}"/><path d="M252.99413,358.57443l16,-28.6l16,28.6z" data-paper-data="{&quot;index&quot;:null}"/><path d="M220.99413,358.57443l16,-28.6l16,28.6z" data-paper-data="{&quot;index&quot;:null}"/><path d="M284.99413,358.57443l16,-28.6l16,28.6z" data-paper-data="{&quot;index&quot;:null}"/></g></g><g><path d="M348.66079,358.57443l16,-28.6l16,28.6z" data-paper-data="{&quot;index&quot;:null}"/><path d="M316.66079,358.57443l16,-28.6l16,28.6z" data-paper-data="{&quot;index&quot;:null}"/><path d="M412.66079,358.57443l16,-28.6l16,28.6z" data-paper-data="{&quot;index&quot;:null}"/><path d="M380.66079,358.57443l16,-28.6l16,28.6z" data-paper-data="{&quot;index&quot;:null}"/><path d="M444.66079,358.57443l16,-28.6l16,28.6z" data-paper-data="{&quot;index&quot;:null}"/></g></g><g><g data-paper-data="{&quot;index&quot;:null}" fill="#000000" stroke-width="2"><path d="M256.61719,41.97443l-16,28.6l-16,-28.6z" data-paper-data="{&quot;index&quot;:null}" stroke="#fffee0"/><path d="M224.61719,358.57443l16,-28.6l16,28.6z" data-paper-data="{&quot;index&quot;:null}" stroke="#fffee0"/><path d="M222.47275,74v-32h32v32z" data-paper-data="{&quot;index&quot;:null}" stroke="#ffffff"/><path d="M222.47275,106v-32h32v32z" data-paper-data="{&quot;index&quot;:null}" stroke="#ffffff"/><path d="M222.47275,138v-32h32v32z" data-paper-data="{&quot;index&quot;:null}" stroke="#ffffff"/><path d="M222.47275,170v-32h32v32z" data-paper-data="{&quot;index&quot;:null}" stroke="#ffffff"/><path d="M222.47275,202v-32h32v32z" data-paper-data="{&quot;index&quot;:null}" stroke="#ffffff"/><path d="M222.47275,329v-32h32v32z" data-paper-data="{&quot;index&quot;:null}" stroke="#ffffff"/><path d="M222.47275,360v-32h32v32z" data-paper-data="{&quot;index&quot;:null}" stroke="#ffffff"/></g><g><path d="M249.2786,250.36097v-6.3h10v6.3z" fill="#000000" stroke="none" stroke-width="0"/><path d="M224.7786,250.36097v-6.3h5.5v6.3z" fill="#000000" stroke="none" stroke-width="0"/><path d="M225.4786,242.56097v-6.3h5.5v6.3z" fill="#000000" stroke="none" stroke-width="0"/><path d="M226.9786,234.46097v-6h5.5v6z" fill="#000000" stroke="none" stroke-width="0"/><path d="M229.0786,227.26097v-5.1h5.5v5.1z" fill="#000000" stroke="none" stroke-width="0"/><path d="M230.9786,221.16097v-3.5h5.5v3.5z" fill="#000000" stroke="none" stroke-width="0"/><path d="M248.5786,242.26097v-5.8h10v5.8z" fill="#000000" stroke="none" stroke-width="0"/><path d="M247.1786,234.96097v-6h10v6z" fill="#000000" stroke="none" stroke-width="0"/><path d="M244.2786,227.26097v-5h10v5z" fill="#000000" stroke="none" stroke-width="0"/><path d="M241.8786,221.16097v-3.1h10v3.1z" fill="#000000" stroke="none" stroke-width="0"/><path d="M238.5786,216.96097v-2.4h10v2.4z" fill="#000000" stroke="none" stroke-width="0"/><path d="M234.2786,213.96097v-1.6h10v1.6z" fill="#000000" stroke="none" stroke-width="0"/><path d="M248.5786,257.86097v-5.8h10v5.8z" fill="#000000" stroke="none" stroke-width="0"/><path d="M247.1786,265.36097v-6h10v6z" fill="#000000" stroke="none" stroke-width="0"/><path d="M244.2786,272.06097v-5h10v5z" fill="#000000" stroke="none" stroke-width="0"/><path d="M241.8786,276.26097v-3.1h10v3.1z" fill="#000000" stroke="none" stroke-width="0"/><path d="M238.5786,279.76097v-2.4h10v2.4z" fill="#000000" stroke="none" stroke-width="0"/><path d="M234.2786,281.96097v-1.6h10v1.6z" fill="#000000" stroke="none" stroke-width="0"/><path d="M225.4786,258.16097v-6.3h5.5v6.3z" fill="#000000" stroke="none" stroke-width="0"/><path d="M226.9786,265.76097v-6h5.5v6z" fill="#000000" stroke="none" stroke-width="0"/><path d="M229.0786,272.16097v-5.1h5.5v5.1z" fill="#000000" stroke="none" stroke-width="0"/><path d="M230.9786,276.66097v-3.5h5.5v3.5z" fill="#000000" stroke="none" stroke-width="0"/><path d="M236.5786,217.66097c-4.8,0 -8.8,13.3 -8.8,29.7c0,16.4 3.9,29.7 8.8,29.7c4.9,0 8.8,-13.3 8.8,-29.7c0,-16.4 -3.9,-29.7 -8.8,-29.7zM249.3786,247.36097c0,20 -5.7,36.3 -12.8,36.3c-7.1,0 -12.9,-16.2 -12.9,-36.2c0,-20 5.8,-36.3 12.9,-36.3c7.1,0 12.8,16.2 12.8,36.3v0z" fill="#69f4ff" stroke="none" stroke-width="0"/><path d="M249.3786,247.46097c0,20 -5.7,36.3 -12.8,36.3c-7.1,0 -12.9,-16.3 -12.9,-36.3c0,-20 5.8,-36.3 12.9,-36.3c7.1,0 12.8,16.2 12.8,36.3z" fill="none" stroke="#e9fcff" stroke-width="1.9"/></g></g><g fill="#000000" stroke="#ffffff" stroke-width="2"><path d="M412.43124,297v-32h32v32z"/><path d="M412.43124,329v-32h32v32z"/><path d="M412.43124,360v-32h32v32z"/></g></g></g></svg>