<svg version="1.1" xmlns="http://www.w3.org/2000/svg" xmlns:xlink="http://www.w3.org/1999/xlink" width="576.57657" height="399.77907" viewBox="0,0,576.57657,399.77907"><g transform="translate(50.54054,37.71771)"><g data-paper-data="{&quot;isPaintingLayer&quot;:true}" fill-rule="nonzero" stroke-linecap="butt" stroke-linejoin="miter" stroke-miterlimit="10" stroke-dasharray="" stroke-dashoffset="0" style="mix-blend-mode: normal"><g><path d="M381.72414,353.78181h-21.8l10.9,-24z" fill="#ff00de" stroke="#fffee0" stroke-width="2"/><path d="M405.72414,360.38181h-21.8l10.9,-24z" fill="#ff00de" stroke="#fffee0" stroke-width="2"/><path d="M367.72414,359.08181h-21.8l10.9,-24z" fill="#ff00de" stroke="#fffee0" stroke-width="2"/><path d="M344.02414,358.58181h-21.8l10.9,-20.2z" fill="#ff00de" stroke="#fffee0" stroke-width="2"/><path d="M403.72414,359.08181h-22.3l11.2,-10.3l11.2,10.3z" fill="#000000" stroke="none" stroke-width="0"/><path d="M376.72414,357.08181h-22.3l11.2,-10.3l11.2,10.3z" fill="#000000" stroke="none" stroke-width="0"/><path d="M391.02414,356.38181h-14l7,-13.7z" fill="#000000" stroke="none" stroke-width="0"/><path d="M420.92414,358.58181h-22.3l11.2,-10.3l11.2,10.3z" fill="#000000" stroke="none" stroke-width="0"/><path d="M408.32414,357.88181h-14l7,-11.8z" fill="#000000" stroke="none" stroke-width="0"/><path d="M364.32414,357.08181h-14l7,-12.4z" fill="#000000" stroke="none" stroke-width="0"/><path d="M344.32414,357.08181h-14l7,-14z" fill="#000000" stroke="none" stroke-width="0"/><path d="M358.02414,358.38181h-14l7,-10.3z" fill="#000000" stroke="none" stroke-width="0"/><path d="M387.32414,358.78181h-26l13,-10.3z" fill="#000000" stroke="none" stroke-width="0"/><path d="M340.72414,358.78181h-26l13,-10.3z" fill="#000000" stroke="none" stroke-width="0"/><path d="M356.02414,357.38181h-26l13,-10.3z" fill="#000000" stroke="none" stroke-width="0"/><path d="M328.22414,358.68181v-3.1h70.5v3.1z" fill="#000000" stroke="none" stroke-width="0"/></g><g><path d="M32.3885,334.1l10.9,24h-21.8z" fill="#ff00de" stroke="#fffee0" stroke-width="2"/><path d="M61.3885,338.5l10.9,21.7h-21.8z" fill="#ff00de" stroke="#fffee0" stroke-width="2"/><path d="M16.8885,348.8l11.2,10.3h-22.3l11.2,-10.3z" fill="#000000" stroke="none" stroke-width="0"/><path d="M44.8885,347.8l11.2,10.3h-22.3l11.2,-10.3z" fill="#000000" stroke="none" stroke-width="0"/><path d="M26.3885,343.8l7,13.7h-14z" fill="#000000" stroke="none" stroke-width="0"/><path d="M53.0885,343.1l7,15h-14z" fill="#000000" stroke="none" stroke-width="0"/><path d="M77.08849,344.1l7,14h-14z" fill="#000000" stroke="none" stroke-width="0"/><path d="M7.3885,348.8l7,10.3h-14z" fill="#000000" stroke="none" stroke-width="0"/><path d="M59.3885,349.1l7,10.3h-14z" fill="#000000" stroke="none" stroke-width="0"/><path d="M36.0885,349.5l13,10.3h-26z" fill="#000000" stroke="none" stroke-width="0"/><path d="M87.7885,349.5l13,10.3h-26z" fill="#000000" stroke="none" stroke-width="0"/><path d="M68.3885,348.1l13,10.3h-26z" fill="#000000" stroke="none" stroke-width="0"/><path d="M9.3885,360.5v-4.2h83.6v4.2z" fill="#000000" stroke="none" stroke-width="0"/></g><g><path d="M140.48281,354.46136h-21.8l10.9,-24z" fill="#ff00de" stroke="#fffee0" stroke-width="2"/><path d="M164.48281,361.06136h-21.8l10.9,-24z" fill="#ff00de" stroke="#fffee0" stroke-width="2"/><path d="M126.48281,359.76136h-21.8l10.9,-24z" fill="#ff00de" stroke="#fffee0" stroke-width="2"/><path d="M102.78281,359.26136h-21.8l10.9,-20.2z" fill="#ff00de" stroke="#fffee0" stroke-width="2"/><path d="M162.48281,359.76136h-22.3l11.2,-10.3l11.2,10.3z" fill="#000000" stroke="none" stroke-width="0"/><path d="M135.48281,357.76136h-22.3l11.2,-10.3l11.2,10.3z" fill="#000000" stroke="none" stroke-width="0"/><path d="M149.78281,357.06136h-14l7,-13.7z" fill="#000000" stroke="none" stroke-width="0"/><path d="M179.68281,359.26136h-22.3l11.2,-10.3l11.2,10.3z" fill="#000000" stroke="none" stroke-width="0"/><path d="M167.08281,358.56136h-14l7,-11.8z" fill="#000000" stroke="none" stroke-width="0"/><path d="M123.08281,357.76136h-14l7,-12.4z" fill="#000000" stroke="none" stroke-width="0"/><path d="M103.08281,357.76136h-14l7,-14z" fill="#000000" stroke="none" stroke-width="0"/><path d="M116.78281,359.06136h-14l7,-10.3z" fill="#000000" stroke="none" stroke-width="0"/><path d="M146.08281,359.46136h-26l13,-10.3z" fill="#000000" stroke="none" stroke-width="0"/><path d="M99.48281,359.46136h-26l13,-10.3z" fill="#000000" stroke="none" stroke-width="0"/><path d="M114.78281,358.06136h-26l13,-10.3z" fill="#000000" stroke="none" stroke-width="0"/><path d="M86.98281,359.36136v-3.1h70.5v3.1z" fill="#000000" stroke="none" stroke-width="0"/></g><g><path d="M215.98195,354.46136h-21.8l10.9,-24z" fill="#ff00de" stroke="#fffee0" stroke-width="2"/><path d="M239.98195,361.06136h-21.8l10.9,-24z" fill="#ff00de" stroke="#fffee0" stroke-width="2"/><path d="M201.98195,359.76136h-21.8l10.9,-24z" fill="#ff00de" stroke="#fffee0" stroke-width="2"/><path d="M178.28195,359.26136h-21.8l10.9,-20.2z" fill="#ff00de" stroke="#fffee0" stroke-width="2"/><path d="M237.98195,359.76136h-22.3l11.2,-10.3l11.2,10.3z" fill="#000000" stroke="none" stroke-width="0"/><path d="M210.98195,357.76136h-22.3l11.2,-10.3l11.2,10.3z" fill="#000000" stroke="none" stroke-width="0"/><path d="M225.28195,357.06136h-14l7,-13.7z" fill="#000000" stroke="none" stroke-width="0"/><path d="M255.18195,359.26136h-22.3l11.2,-10.3l11.2,10.3z" fill="#000000" stroke="none" stroke-width="0"/><path d="M242.58195,358.56136h-14l7,-11.8z" fill="#000000" stroke="none" stroke-width="0"/><path d="M198.58195,357.76136h-14l7,-12.4z" fill="#000000" stroke="none" stroke-width="0"/><path d="M178.58195,357.76136h-14l7,-14z" fill="#000000" stroke="none" stroke-width="0"/><path d="M192.28195,359.06136h-14l7,-10.3z" fill="#000000" stroke="none" stroke-width="0"/><path d="M221.58195,359.46136h-26l13,-10.3z" fill="#000000" stroke="none" stroke-width="0"/><path d="M174.98195,359.46136h-26l13,-10.3z" fill="#000000" stroke="none" stroke-width="0"/><path d="M190.28195,358.06136h-26l13,-10.3z" fill="#000000" stroke="none" stroke-width="0"/><path d="M162.48195,359.36136v-3.1h70.5v3.1z" fill="#000000" stroke="none" stroke-width="0"/></g><g><path d="M267.48951,333.71911l10.9,24h-21.8z" fill="#ff00de" stroke="#fffee0" stroke-width="2"/><path d="M296.48951,338.11911l10.9,21.7h-21.8z" fill="#ff00de" stroke="#fffee0" stroke-width="2"/><path d="M251.98951,348.41911l11.2,10.3h-22.3l11.2,-10.3z" fill="#000000" stroke="none" stroke-width="0"/><path d="M279.98951,347.41911l11.2,10.3h-22.3l11.2,-10.3z" fill="#000000" stroke="none" stroke-width="0"/><path d="M261.48951,343.41911l7,13.7h-14z" fill="#000000" stroke="none" stroke-width="0"/><path d="M288.18951,342.71911l7,15h-14z" fill="#000000" stroke="none" stroke-width="0"/><path d="M312.18951,343.71911l7,14h-14z" fill="#000000" stroke="none" stroke-width="0"/><path d="M242.48951,348.41911l7,10.3h-14z" fill="#000000" stroke="none" stroke-width="0"/><path d="M294.48951,348.71911l7,10.3h-14z" fill="#000000" stroke="none" stroke-width="0"/><path d="M271.18951,349.11911l13,10.3h-26z" fill="#000000" stroke="none" stroke-width="0"/><path d="M322.88951,349.11911l13,10.3h-26z" fill="#000000" stroke="none" stroke-width="0"/><path d="M303.48951,347.71911l13,10.3h-26z" fill="#000000" stroke="none" stroke-width="0"/><path d="M244.48951,360.11911v-4.2h83.6v4.2z" fill="#000000" stroke="none" stroke-width="0"/></g><path d="M-50.54054,-4.68468v-33.03303h576.57657v33.03304z" fill="none" stroke="none" stroke-width="NaN"/><path d="M0,138v-32h32v32z" fill="#000000" stroke="#ffffff" stroke-width="2"/><path d="M32,138v-32h32v32z" fill="#000000" stroke="#ffffff" stroke-width="2"/><path d="M64,138v-32h32v32z" fill="#000000" stroke="#ffffff" stroke-width="2"/><g stroke="#fffdbd" stroke-width="2"><path d="M0.19223,189.0966c0,-7.5 6,-13.5 13.5,-13.5c7.5,0 13.5,6 13.5,13.5c0,7.5 -6,13.5 -13.5,13.5c-7.5,0 -13.5,-6 -13.5,-13.5z" fill="none"/><path d="M4.69223,189.0966c0,-5 4,-9 9,-9c5,0 9,4 9,9c0,5 -4,9 -9,9c-5,0 -9,-4 -9,-9z" fill="#fbf300"/></g><g stroke="#fffdbd" stroke-width="2"><path d="M128.69873,215.48633c0,-7.5 6,-13.5 13.5,-13.5c7.5,0 13.5,6 13.5,13.5c0,7.5 -6,13.5 -13.5,13.5c-7.5,0 -13.5,-6 -13.5,-13.5z" fill="none"/><path d="M133.19873,215.48633c0,-5 4,-9 9,-9c5,0 9,4 9,9c0,5 -4,9 -9,9c-5,0 -9,-4 -9,-9z" fill="#fbf300"/></g><g><path d="M251.57336,287.07711v-6.3h10v6.3z" fill="#000000" stroke="none" stroke-width="0"/><path d="M227.07336,287.07711v-6.3h5.5v6.3z" fill="#000000" stroke="none" stroke-width="0"/><path d="M227.77336,279.27711v-6.3h5.5v6.3z" fill="#000000" stroke="none" stroke-width="0"/><path d="M229.27336,271.17711v-6h5.5v6z" fill="#000000" stroke="none" stroke-width="0"/><path d="M231.37336,263.97711v-5.1h5.5v5.1z" fill="#000000" stroke="none" stroke-width="0"/><path d="M233.27336,257.87711v-3.5h5.5v3.5z" fill="#000000" stroke="none" stroke-width="0"/><path d="M250.87336,278.97711v-5.8h10v5.8z" fill="#000000" stroke="none" stroke-width="0"/><path d="M249.47336,271.67711v-6h10v6z" fill="#000000" stroke="none" stroke-width="0"/><path d="M246.57336,263.97711v-5h10v5z" fill="#000000" stroke="none" stroke-width="0"/><path d="M244.17336,257.87711v-3.1h10v3.1z" fill="#000000" stroke="none" stroke-width="0"/><path d="M240.87336,253.67711v-2.4h10v2.4z" fill="#000000" stroke="none" stroke-width="0"/><path d="M236.57336,250.67711v-1.6h10v1.6z" fill="#000000" stroke="none" stroke-width="0"/><path d="M250.87336,294.57711v-5.8h10v5.8z" fill="#000000" stroke="none" stroke-width="0"/><path d="M249.47336,302.07711v-6h10v6z" fill="#000000" stroke="none" stroke-width="0"/><path d="M246.57336,308.77711v-5h10v5z" fill="#000000" stroke="none" stroke-width="0"/><path d="M244.17336,312.97711v-3.1h10v3.1z" fill="#000000" stroke="none" stroke-width="0"/><path d="M240.87336,316.47711v-2.4h10v2.4z" fill="#000000" stroke="none" stroke-width="0"/><path d="M236.57336,318.67711v-1.6h10v1.6z" fill="#000000" stroke="none" stroke-width="0"/><path d="M227.77336,294.87711v-6.3h5.5v6.3z" fill="#000000" stroke="none" stroke-width="0"/><path d="M229.27336,302.47711v-6h5.5v6z" fill="#000000" stroke="none" stroke-width="0"/><path d="M231.37336,308.87711v-5.1h5.5v5.1z" fill="#000000" stroke="none" stroke-width="0"/><path d="M233.27336,313.37711v-3.5h5.5v3.5z" fill="#000000" stroke="none" stroke-width="0"/><path d="M238.87336,254.37711c-4.8,0 -8.8,13.3 -8.8,29.7c0,16.4 3.9,29.7 8.8,29.7c4.9,0 8.8,-13.3 8.8,-29.7c0,-16.4 -3.9,-29.7 -8.8,-29.7zM251.67336,284.07711c0,20 -5.7,36.3 -12.8,36.3c-7.1,0 -12.9,-16.2 -12.9,-36.2c0,-20 5.8,-36.3 12.9,-36.3c7.1,0 12.8,16.2 12.8,36.3v0z" fill="#69f4ff" stroke="none" stroke-width="0"/><path d="M251.67336,284.17711c0,20 -5.7,36.3 -12.8,36.3c-7.1,0 -12.9,-16.3 -12.9,-36.3c0,-20 5.8,-36.3 12.9,-36.3c7.1,0 12.8,16.2 12.8,36.3z" fill="none" stroke="#e9fcff" stroke-width="1.9"/></g><g fill="#000000" stroke-width="2"><path d="M96,138v-32h32v32z" stroke="#ffffff"/><path d="M128,138v-32h32v32z" stroke="#ffffff"/><path d="M160,138v-32h32v32z" stroke="#ffffff"/><path d="M192,138v-32h32v32z" stroke="#ffffff"/><g stroke="#fffee0"><path d="M63.99998,138.24231l-16,18l-16,-18z" data-paper-data="{&quot;index&quot;:null}"/><path d="M31.99998,138.24231l-16,18l-16,-18z" data-paper-data="{&quot;index&quot;:null}"/><path d="M127.99998,138.24231l-16,18l-16,-18z" data-paper-data="{&quot;index&quot;:null}"/><path d="M95.99998,138.24231l-16,18l-16,-18z" data-paper-data="{&quot;index&quot;:null}"/><path d="M191.99998,138.24231l-16,18l-16,-18z" data-paper-data="{&quot;index&quot;:null}"/><path d="M159.99998,138.24231l-16,18l-16,-18z" data-paper-data="{&quot;index&quot;:null}"/><path d="M223.99998,138.24231l-16,18l-16,-18z" data-paper-data="{&quot;index&quot;:null}"/></g></g><g fill="#000000" stroke-width="2"><path d="M223.35912,138v-32h32v32z" stroke="#ffffff"/><path d="M255.35912,138v-32h32v32z" stroke="#ffffff"/><path d="M287.35912,138v-32h32v32z" stroke="#ffffff"/><path d="M255.3591,138.24231l-16,18l-16,-18z" data-paper-data="{&quot;index&quot;:null}" stroke="#fffee0"/><path d="M319.3591,138.24231l-16,18l-16,-18z" data-paper-data="{&quot;index&quot;:null}" stroke="#fffee0"/><path d="M287.3591,138.24231l-16,18l-16,-18z" data-paper-data="{&quot;index&quot;:null}" stroke="#fffee0"/></g><path d="M224,360v-32h32v32z" fill="#000000" stroke="#ffffff" stroke-width="2"/><path d="M256,360v-32h32v32z" fill="#000000" stroke="#ffffff" stroke-width="2"/><path d="M288,360v-32h32v32z" fill="#000000" stroke="#ffffff" stroke-width="2"/><path d="M416,329v-32h32v32z" fill="#000000" stroke="#ffffff" stroke-width="2"/><path d="M448,329v-32h32v32z" fill="#000000" stroke="#ffffff" stroke-width="2"/><path d="M416,360v-32h32v32z" fill="#000000" stroke="#ffffff" stroke-width="2"/></g></g></svg>