<svg version="1.1" xmlns="http://www.w3.org/2000/svg" xmlns:xlink="http://www.w3.org/1999/xlink" width="576.57657" height="399.30932" viewBox="0,0,576.57657,399.30932"><g transform="translate(50.54054,37.71771)"><g data-paper-data="{&quot;isPaintingLayer&quot;:true}" fill-rule="nonzero" stroke-linecap="butt" stroke-linejoin="miter" stroke-miterlimit="10" stroke-dasharray="" stroke-dashoffset="0" style="mix-blend-mode: normal"><path d="M-50.54054,-4.68468v-33.03303h576.57657v33.03304z" fill="none" stroke="none" stroke-width="NaN"/><g fill="#000000" stroke="#fffee0" stroke-width="2"><g><g><path d="M61.99413,41.97443l-16,28.6l-16,-28.6z" data-paper-data="{&quot;index&quot;:null}"/><path d="M29.99413,41.97443l-16,28.6l-16,-28.6z" data-paper-data="{&quot;index&quot;:null}"/><path d="M125.99413,41.97443l-16,28.6l-16,-28.6z" data-paper-data="{&quot;index&quot;:null}"/><path d="M93.99413,41.97443l-16,28.6l-16,-28.6z" data-paper-data="{&quot;index&quot;:null}"/><path d="M157.99413,41.97443l-16,28.6l-16,-28.6z" data-paper-data="{&quot;index&quot;:null}"/></g><g><path d="M220.99413,41.97443l-16,28.6l-16,-28.6z" data-paper-data="{&quot;index&quot;:null}"/><path d="M188.99413,41.97443l-16,28.6l-16,-28.6z" data-paper-data="{&quot;index&quot;:null}"/><path d="M284.99413,41.97443l-16,28.6l-16,-28.6z" data-paper-data="{&quot;index&quot;:null}"/><path d="M252.99413,41.97443l-16,28.6l-16,-28.6z" data-paper-data="{&quot;index&quot;:null}"/><path d="M316.99413,41.97443l-16,28.6l-16,-28.6z" data-paper-data="{&quot;index&quot;:null}"/></g></g><g><path d="M380.66079,41.97443l-16,28.6l-16,-28.6z" data-paper-data="{&quot;index&quot;:null}"/><path d="M348.66079,41.97443l-16,28.6l-16,-28.6z" data-paper-data="{&quot;index&quot;:null}"/><path d="M444.66079,41.97443l-16,28.6l-16,-28.6z" data-paper-data="{&quot;index&quot;:null}"/><path d="M412.66079,41.97443l-16,28.6l-16,-28.6z" data-paper-data="{&quot;index&quot;:null}"/><path d="M476.66079,41.97443l-16,28.6l-16,-28.6z" data-paper-data="{&quot;index&quot;:null}"/></g></g><g data-paper-data="{&quot;index&quot;:null}" fill="#000000" stroke="#fffee0" stroke-width="2"><g><g><path d="M29.99413,358.57443l16,-28.6l16,28.6z" data-paper-data="{&quot;index&quot;:null}"/><path d="M-2.00587,358.57443l16,-28.6l16,28.6z" data-paper-data="{&quot;index&quot;:null}"/><path d="M93.99413,358.57443l16,-28.6l16,28.6z" data-paper-data="{&quot;index&quot;:null}"/><path d="M61.99413,358.57443l16,-28.6l16,28.6z" data-paper-data="{&quot;index&quot;:null}"/><path d="M125.99413,358.57443l16,-28.6l16,28.6z" data-paper-data="{&quot;index&quot;:null}"/></g><g><path d="M188.99413,358.57443l16,-28.6l16,28.6z" data-paper-data="{&quot;index&quot;:null}"/><path d="M156.99413,358.57443l16,-28.6l16,28.6z" data-paper-data="{&quot;index&quot;:null}"/><path d="M252.99413,358.57443l16,-28.6l16,28.6z" data-paper-data="{&quot;index&quot;:null}"/><path d="M220.99413,358.57443l16,-28.6l16,28.6z" data-paper-data="{&quot;index&quot;:null}"/><path d="M284.99413,358.57443l16,-28.6l16,28.6z" data-paper-data="{&quot;index&quot;:null}"/></g></g><g><path d="M348.66079,358.57443l16,-28.6l16,28.6z" data-paper-data="{&quot;index&quot;:null}"/><path d="M316.66079,358.57443l16,-28.6l16,28.6z" data-paper-data="{&quot;index&quot;:null}"/><path d="M412.66079,358.57443l16,-28.6l16,28.6z" data-paper-data="{&quot;index&quot;:null}"/><path d="M380.66079,358.57443l16,-28.6l16,28.6z" data-paper-data="{&quot;index&quot;:null}"/><path d="M444.66079,358.57443l16,-28.6l16,28.6z" data-paper-data="{&quot;index&quot;:null}"/></g></g><g fill="#000000" stroke="#ffffff" stroke-width="2"><path d="M127.88113,74v-32h32v32z"/><path d="M127.88113,106v-32h32v32z"/><path d="M127.88113,138v-32h32v32z"/></g><g fill="#000000" stroke="#ffffff" stroke-width="2"><path d="M287.36688,297v-32h32v32z"/><path d="M287.36688,329v-32h32v32z"/><path d="M287.36688,360v-32h32v32z"/></g><g fill="#000000" stroke="#ffffff" stroke-width="2"><path d="M448,74v-32h32v32z"/><path d="M448,106v-32h32v32z"/><path d="M448,138v-32h32v32z"/></g><g fill="#000000" stroke="#ffffff" stroke-width="2"><path d="M448,296.59161v-32h32v32z"/><path d="M448,328.59161v-32h32v32z"/><path d="M448,360.59161v-32h32v32z"/></g><g><path d="M473.27084,202.17103v-6.3h10v6.3z" fill="#000000" stroke="none" stroke-width="0"/><path d="M448.67084,202.17103v-6.3h5.5v6.3z" fill="#000000" stroke="none" stroke-width="0"/><path d="M449.47084,194.37103v-6.3h5.5v6.3z" fill="#000000" stroke="none" stroke-width="0"/><path d="M450.87084,186.27103v-6h5.5v6z" fill="#000000" stroke="none" stroke-width="0"/><path d="M453.07084,179.07103v-5.1h5.5v5.1z" fill="#000000" stroke="none" stroke-width="0"/><path d="M454.97084,172.97103v-3.5h5.5v3.5z" fill="#000000" stroke="none" stroke-width="0"/><path d="M472.47084,194.07103v-5.8h10v5.8z" fill="#000000" stroke="none" stroke-width="0"/><path d="M471.17084,186.77103v-6h10v6z" fill="#000000" stroke="none" stroke-width="0"/><path d="M468.27084,179.07103v-5h10v5z" fill="#000000" stroke="none" stroke-width="0"/><path d="M465.87084,172.97103v-3.1h10v3.1z" fill="#000000" stroke="none" stroke-width="0"/><path d="M462.57084,168.77103v-2.4h10v2.4z" fill="#000000" stroke="none" stroke-width="0"/><path d="M458.27084,165.77103v-1.6h10v1.6z" fill="#000000" stroke="none" stroke-width="0"/><path d="M472.47084,209.67103v-5.8h10v5.8z" fill="#000000" stroke="none" stroke-width="0"/><path d="M471.17084,217.17103v-6h10v6z" fill="#000000" stroke="none" stroke-width="0"/><path d="M468.27084,223.87103v-5h10v5z" fill="#000000" stroke="none" stroke-width="0"/><path d="M465.87084,228.07103v-3.1h10v3.1z" fill="#000000" stroke="none" stroke-width="0"/><path d="M462.57084,231.57103v-2.4h10v2.4z" fill="#000000" stroke="none" stroke-width="0"/><path d="M458.27084,233.77103v-1.6h10v1.6z" fill="#000000" stroke="none" stroke-width="0"/><path d="M449.47084,209.97103v-6.3h5.5v6.3z" fill="#000000" stroke="none" stroke-width="0"/><path d="M450.87084,217.57103v-6h5.5v6z" fill="#000000" stroke="none" stroke-width="0"/><path d="M453.07084,223.97103v-5.1h5.5v5.1z" fill="#000000" stroke="none" stroke-width="0"/><path d="M454.97084,228.47103v-3.5h5.5v3.5z" fill="#000000" stroke="none" stroke-width="0"/><path d="M460.47084,169.47103c-4.8,0 -8.8,13.3 -8.8,29.7c0,16.4 3.9,29.7 8.8,29.7c4.9,0 8.8,-13.3 8.8,-29.7c0,-16.4 -3.9,-29.7 -8.8,-29.7zM473.37084,199.17103c0,20 -5.7,36.3 -12.8,36.3c-7.1,0 -12.9,-16.2 -12.9,-36.2c0,-20 5.8,-36.3 12.9,-36.3c7.1,0 12.8,16.2 12.8,36.3v0z" fill="#ffed48" stroke="none" stroke-width="0"/><path d="M473.37084,199.27103c0,20 -5.7,36.3 -12.8,36.3c-7.1,0 -12.9,-16.3 -12.9,-36.3c0,-20 5.8,-36.3 12.9,-36.3c7.1,0 12.8,16.2 12.8,36.3z" fill="none" stroke="#fffecc" stroke-width="1.9"/></g></g></g></svg>