<svg version="1.1" xmlns="http://www.w3.org/2000/svg" xmlns:xlink="http://www.w3.org/1999/xlink" width="576.57657" height="399.77907" viewBox="0,0,576.57657,399.77907"><g transform="translate(50.54054,37.71771)"><g data-paper-data="{&quot;isPaintingLayer&quot;:true}" fill-rule="nonzero" stroke-linecap="butt" stroke-linejoin="miter" stroke-miterlimit="10" stroke-dasharray="" stroke-dashoffset="0" style="mix-blend-mode: normal"><g><path d="M32.3885,334.1l10.9,24h-21.8z" fill="#ff00de" stroke="#fffee0" stroke-width="2"/><path d="M61.3885,338.5l10.9,21.7h-21.8z" fill="#ff00de" stroke="#fffee0" stroke-width="2"/><path d="M16.8885,348.8l11.2,10.3h-22.3l11.2,-10.3z" fill="#000000" stroke="none" stroke-width="0"/><path d="M44.8885,347.8l11.2,10.3h-22.3l11.2,-10.3z" fill="#000000" stroke="none" stroke-width="0"/><path d="M26.3885,343.8l7,13.7h-14z" fill="#000000" stroke="none" stroke-width="0"/><path d="M53.0885,343.1l7,15h-14z" fill="#000000" stroke="none" stroke-width="0"/><path d="M77.08849,344.1l7,14h-14z" fill="#000000" stroke="none" stroke-width="0"/><path d="M7.3885,348.8l7,10.3h-14z" fill="#000000" stroke="none" stroke-width="0"/><path d="M59.3885,349.1l7,10.3h-14z" fill="#000000" stroke="none" stroke-width="0"/><path d="M36.0885,349.5l13,10.3h-26z" fill="#000000" stroke="none" stroke-width="0"/><path d="M87.7885,349.5l13,10.3h-26z" fill="#000000" stroke="none" stroke-width="0"/><path d="M68.3885,348.1l13,10.3h-26z" fill="#000000" stroke="none" stroke-width="0"/><path d="M9.3885,360.5v-4.2h83.6v4.2z" fill="#000000" stroke="none" stroke-width="0"/></g><g><path d="M120.94408,354.46136h-21.8l10.9,-24z" fill="#ff00de" stroke="#fffee0" stroke-width="2"/><path d="M144.94408,361.06136h-21.8l10.9,-24z" fill="#ff00de" stroke="#fffee0" stroke-width="2"/><path d="M106.94408,359.76136h-21.8l10.9,-24z" fill="#ff00de" stroke="#fffee0" stroke-width="2"/><path d="M83.24408,359.26136h-21.8l10.9,-20.2z" fill="#ff00de" stroke="#fffee0" stroke-width="2"/><path d="M142.94408,359.76136h-22.3l11.2,-10.3l11.2,10.3z" fill="#000000" stroke="none" stroke-width="0"/><path d="M115.94408,357.76136h-22.3l11.2,-10.3l11.2,10.3z" fill="#000000" stroke="none" stroke-width="0"/><path d="M130.24408,357.06136h-14l7,-13.7z" fill="#000000" stroke="none" stroke-width="0"/><path d="M160.14408,359.26136h-22.3l11.2,-10.3l11.2,10.3z" fill="#000000" stroke="none" stroke-width="0"/><path d="M147.54408,358.56136h-14l7,-11.8z" fill="#000000" stroke="none" stroke-width="0"/><path d="M103.54408,357.76136h-14l7,-12.4z" fill="#000000" stroke="none" stroke-width="0"/><path d="M83.54408,357.76136h-14l7,-14z" fill="#000000" stroke="none" stroke-width="0"/><path d="M97.24408,359.06136h-14l7,-10.3z" fill="#000000" stroke="none" stroke-width="0"/><path d="M126.54408,359.46136h-26l13,-10.3z" fill="#000000" stroke="none" stroke-width="0"/><path d="M79.94408,359.46136h-26l13,-10.3z" fill="#000000" stroke="none" stroke-width="0"/><path d="M95.24408,358.06136h-26l13,-10.3z" fill="#000000" stroke="none" stroke-width="0"/><path d="M67.44408,359.36136v-3.1h70.5v3.1z" fill="#000000" stroke="none" stroke-width="0"/></g><g><path d="M188.09139,333.7191l10.9,24h-21.8z" fill="#ff00de" stroke="#fffee0" stroke-width="2"/><path d="M217.09139,338.1191l10.9,21.7h-21.8z" fill="#ff00de" stroke="#fffee0" stroke-width="2"/><path d="M172.59139,348.4191l11.2,10.3h-22.3l11.2,-10.3z" fill="#000000" stroke="none" stroke-width="0"/><path d="M200.59139,347.4191l11.2,10.3h-22.3l11.2,-10.3z" fill="#000000" stroke="none" stroke-width="0"/><path d="M182.09139,343.4191l7,13.7h-14z" fill="#000000" stroke="none" stroke-width="0"/><path d="M208.79139,342.7191l7,15h-14z" fill="#000000" stroke="none" stroke-width="0"/><path d="M232.79139,343.7191l7,14h-14z" fill="#000000" stroke="none" stroke-width="0"/><path d="M163.09139,348.4191l7,10.3h-14z" fill="#000000" stroke="none" stroke-width="0"/><path d="M215.09139,348.7191l7,10.3h-14z" fill="#000000" stroke="none" stroke-width="0"/><path d="M191.79139,349.1191l13,10.3h-26z" fill="#000000" stroke="none" stroke-width="0"/><path d="M243.49139,349.1191l13,10.3h-26z" fill="#000000" stroke="none" stroke-width="0"/><path d="M224.09139,347.7191l13,10.3h-26z" fill="#000000" stroke="none" stroke-width="0"/><path d="M165.09139,360.1191v-4.2h83.6v4.2z" fill="#000000" stroke="none" stroke-width="0"/></g><path d="M-50.54054,-4.68468v-33.03303h576.57657v33.03304z" fill="none" stroke="none" stroke-width="NaN"/><path d="M32,297v-32h32v32z" fill="#000000" stroke="#ffffff" stroke-width="2"/><path d="M32,329v-32h32v32z" fill="#000000" stroke="#ffffff" stroke-width="2"/><path d="M32,360v-32h32v32z" fill="#000000" stroke="#ffffff" stroke-width="2"/><path d="M128,329v-32h32v32z" fill="#000000" stroke="#ffffff" stroke-width="2"/><path d="M128,360v-32h32v32z" fill="#000000" stroke="#ffffff" stroke-width="2"/><path d="M224,360v-32h32v32z" fill="#000000" stroke="#ffffff" stroke-width="2"/><g><path d="M333.28754,336.16019v0c0.9,1.1 -1,1.7 -1.3,2.4c-0.2,0.5 -0.7,0.8 -1.2,0.8h-17.9c-11.7,-8.5 -12,-24.3 -12,-34.8c0,-10.5 -0.9,-30.5 12.6,-35.6c8,0 9.8,0.2 17.9,0.2c-1.1,0.3 -3.3,0.6 -4.2,1.2c-0.9,0 -0.5,0 -0.7,0c-4.1,5 -4.1,7.4 -4.1,7.4l0.7,0.2h-1.3c-0.4,0.9 -0.6,1.3 -0.9,2.3h4.1c0.2,-0.6 0.2,-0.9 0.4,-1.3l-0.9,1.3c-2.9,8 0.7,16.6 0.7,24.1c0,7.5 -2.8,14.7 -0.4,21.4v1.4c-0.2,-0.1 -0.2,-0.2 -0.2,-0.4c-1.6,0.2 -2.4,0.2 -4.1,0.2c0.3,0.9 0.5,1.3 0.9,2.2h0.2c0.2,0.9 1.1,3.3 3.9,6.9h7.8zM318.98754,321.46019v0c1.6,0 2.4,0 4.1,0c-0.1,-1 -0.1,-1.4 -0.3,-2.4c-1.6,0 -2.4,0 -4.1,0c0.2,1 0.2,1.4 0.4,2.4zM317.98754,297.66019v0h4.2c0,-1 0,-1.5 0,-2.6h-4.1c0,1 0,1.6 0,2.6zM317.98754,303.36019v2.2h4.2v-2.2zM318.58754,278.06019h-4.1c-0.4,0.9 -0.6,1.3 -0.9,2.3h4.1c0.3,-0.9 0.5,-1.4 0.9,-2.3zM312.08754,286.26019c-0.2,1 -0.2,1.5 -0.4,2.6h4.1c0.2,-1 0.2,-1.5 0.4,-2.6zM310.98754,295.06019c0,1 0,1.6 0,2.6h4.2c0,-1 0,-1.5 0,-2.6zM310.78754,303.36019v2.2h4.2v-2.2zM310.88754,311.06019c0,0.9 0,1.4 0,2.4h4.1c0,-1 0,-1.4 0,-2.4zM315.68754,319.06019v0c-1.6,0 -2.4,0 -4.1,0c0.2,1 0.2,1.5 0.4,2.5c1.6,0 2.4,0 4.1,0c-0.2,-0.9 -0.2,-1.4 -0.4,-2.4zM313.38754,327.26019c0.3,0.9 0.5,1.3 0.9,2.2c1.6,-0.2 2.4,-0.2 4.1,-0.2c-0.4,-0.8 -0.6,-1.3 -0.9,-2.2c-1.6,0.2 -2.4,0.2 -4.1,0.2zM322.08754,313.46019c0,-1 0,-1.5 0,-2.4h-4.1c0,1 0,1.4 0,2.4zM319.08754,286.36019c-0.2,1 -0.2,1.5 -0.4,2.6h4.1c0.2,-1 0.2,-1.5 0.4,-2.6zM317.08754,273.36019h4.1c0.5,-0.8 0.8,-1.1 1.5,-1.7h-4.1c-0.7,0.6 -0.9,1 -1.5,1.7zM309.88754,273.36019h4.1c0.6,-0.8 0.8,-1.1 1.5,-1.7h-4.1c-0.7,0.6 -0.9,1 -1.5,1.7zM306.18754,280.36019h4.1c0.3,-0.9 0.5,-1.4 0.9,-2.3h-4.1c-0.4,0.9 -0.6,1.3 -0.9,2.3zM304.28754,288.86019h4.1c0.2,-1 0.2,-1.5 0.4,-2.6h-4.1c-0.2,1 -0.2,1.5 -0.4,2.6zM303.68754,295.06019v0c-0.2,1 -0.2,1.6 -0.2,2.6h4.2c0.2,-1 0.2,-1.5 0.2,-2.6h-4.1zM303.48754,305.56019h4.2v-2.2h-4.2c0,0.9 0,1.3 0,2.2zM303.68754,310.96019v0c0.2,1 0.2,1.5 0.2,2.5h4.1c-0.2,-0.9 -0.2,-1.4 -0.2,-2.4h-4.1zM304.78754,321.76019c1.6,0 2.4,0 4.1,0c-0.2,-1 -0.2,-1.5 -0.4,-2.5c-1.6,0 -2.4,0 -4.1,0c0.2,1 0.2,1.5 0.4,2.5zM306.38754,327.26019v0c0.3,1 0.5,1.4 0.9,2.3c1.6,-0.2 2.4,-0.2 4.1,-0.2c-0.4,-0.8 -0.6,-1.3 -0.9,-2.2c-1.6,0.2 -2.4,0.2 -4.1,0.2zM311.48754,336.36019v0c1.6,0 2.4,0 4.1,0c-0.7,-0.7 -0.9,-1.2 -1.5,-1.9c-1.6,0.2 -2.4,0.2 -4.1,0.2c0.6,0.7 0.8,1.1 1.5,1.8zM318.58754,336.06019v0c1.6,0 2.4,0 4.1,0c-0.7,-0.7 -1,-1.1 -1.6,-1.9c-1.6,0.2 -2.4,0.2 -4.1,0.2c0.5,0.8 0.8,1.2 1.5,1.9z" fill="#000000" stroke="none" stroke-width="0"/><path d="M320.98754,264.46019c0,-1.71208 1.38792,-3.1 3.1,-3.1c1.71208,0 3.1,1.38792 3.1,3.1c0,1.71208 -1.38792,3.1 -3.1,3.1c-1.71208,0 -3.1,-1.38792 -3.1,-3.1z" fill="#ff77ff" stroke="#fee6ff" stroke-width="0.9"/><path d="M320.98754,344.46019c0,-1.71208 1.38792,-3.1 3.1,-3.1c1.71208,0 3.1,1.38792 3.1,3.1c0,1.71208 -1.38792,3.1 -3.1,3.1c-1.71208,0 -3.1,-1.38792 -3.1,-3.1z" fill="#ff77ff" stroke="#fee6ff" stroke-width="0.9"/><path d="M343.88754,304.56019v0c0,18.3 -3.1,28.9 -10.5,35.1h-17.8c8.5,-10.6 10.3,-22.4 10.3,-35.4c0,-13 -1.5,-25.3 -10.3,-35.4h17.8c6.9,5.8 10.5,17.4 10.5,35.6zM341.48754,301.86019v0c-0.1,-2.5 -0.3,-5 -0.5,-7.4h-3.1c0.3,2.4 0.5,4.9 0.5,7.3h3.1zM340.28754,289.66019v0c-0.4,-2.4 -1,-4.8 -1.7,-7.1h-3.1c0.7,2.3 1.3,4.6 1.7,7h3.1zM329.38754,273.36019h-3.1c0.8,1.3 1.6,2.8 2.3,4.3h3.1c-0.6,-1.5 -1.4,-2.9 -2.3,-4.3zM333.58754,282.56019h-3.1c0.7,2.3 1.3,4.6 1.6,6.9h3.1c-0.5,-2.3 -1,-4.7 -1.7,-6.9zM332.68754,294.46019c0.2,2.4 0.4,4.9 0.4,7.3h3.1c0,-2.4 -0.2,-4.9 -0.4,-7.3zM330.68754,294.56019v0h-3.1c0.1,2.4 0.3,4.8 0.3,7.2h3.1c-0.1,-2.5 -0.2,-4.9 -0.4,-7.3zM327.58754,313.66019h3.1c0.2,-2.3 0.2,-4.6 0.2,-6.8h-3.1c0,2.3 0,4.6 -0.2,6.8zM332.28754,318.06019v0c-0.3,2.3 -0.8,4.7 -1.5,6.8h3.1c0.7,-2.2 1.2,-4.5 1.5,-6.7h-3.1zM332.78754,313.46019h3.1c0.2,-2.2 0.2,-4.5 0.2,-6.7h-3.1c0,2.3 0,4.6 -0.2,6.8zM333.58754,277.66019h3.1c-0.5,-1.5 -1.4,-2.9 -2.2,-4.3h-3.1c0.9,1.3 1.6,2.8 2.3,4.3zM323.28754,277.66019h3.1c-0.6,-1.5 -1.4,-3 -2.3,-4.3h-3.1c0.9,1.3 1.7,2.8 2.4,4.3zM325.38754,282.86019v0c0.7,2.3 1.2,4.6 1.5,6.8h3.1c-0.4,-2.4 -0.9,-4.7 -1.6,-6.9h-3.1zM325.58754,324.96019h3.1c0.7,-2.2 1.2,-4.6 1.5,-6.8h-3.1c-0.3,2.3 -0.8,4.7 -1.5,6.8zM320.18754,335.96019h3.1c1.4,-2.1 2.6,-4.1 3.6,-6.3h-3.1M328.68754,335.96019c1.3,-2.1 2.5,-4.1 3.5,-6.3h-3.1c-1,2.2 -2.3,4.2 -3.6,6.3zM337.28754,329.76019h-3.1c-1,2.1 -2.2,4.1 -3.5,6.2h3.1c1.4,-2 2.5,-4.1 3.5,-6.2zM339.08754,324.76019v0c0.7,-2.1 1.2,-4.4 1.5,-6.6h-3.1c-0.3,2.2 -0.8,4.6 -1.5,6.7h3.1zM341.08754,313.56019c0.2,-2.2 0.2,-4.5 0.2,-6.7h-3.1c0,2.2 0,4.5 -0.2,6.7z" fill="#000000" stroke="none" stroke-width="0"/><path d="M312.78754,274.56019c-4.8,0 -8.8,13.3 -8.8,29.7c0,16.4 3.9,29.7 8.8,29.7c4.9,0 8.8,-13.3 8.8,-29.7c0,-16.4 -3.9,-29.7 -8.8,-29.7zM325.68754,304.26019c0,20 -5.7,36.3 -12.8,36.3c-7.1,0 -12.9,-16.2 -12.9,-36.2c0,-20 5.8,-36.3 12.9,-36.3c7.1,0 12.8,16.2 12.8,36.3v0z" fill="#ff77ff" stroke="none" stroke-width="0"/><path d="M325.68754,304.36019c0,20 -5.7,36.3 -12.8,36.3c-7.1,0 -12.9,-16.3 -12.9,-36.3c0,-20 5.8,-36.3 12.9,-36.3c7.1,0 12.8,16.2 12.8,36.3z" fill="none" stroke="#fee6ff" stroke-width="1.9"/><path d="M332.68754,321.16019c0,-1.71208 1.38792,-3.1 3.1,-3.1c1.71208,0 3.1,1.38792 3.1,3.1c0,1.71208 -1.38792,3.1 -3.1,3.1c-1.71208,0 -3.1,-1.38792 -3.1,-3.1z" fill="#ff77ff" stroke="#fee6ff" stroke-width="0.9"/><path d="M332.68754,286.86019c0,-1.71208 1.38792,-3.1 3.1,-3.1c1.71208,0 3.1,1.38792 3.1,3.1c0,1.71208 -1.38792,3.1 -3.1,3.1c-1.71208,0 -3.1,-1.38792 -3.1,-3.1z" fill="#ff77ff" stroke="#fee6ff" stroke-width="0.9"/></g></g></g></svg>