<svg version="1.1" xmlns="http://www.w3.org/2000/svg" xmlns:xlink="http://www.w3.org/1999/xlink" width="576.57657" height="398.71771" viewBox="0,0,576.57657,398.71771"><g transform="translate(50.54054,37.71771)"><g data-paper-data="{&quot;isPaintingLayer&quot;:true}" fill-rule="nonzero" stroke-linecap="butt" stroke-linejoin="miter" stroke-miterlimit="10" stroke-dasharray="" stroke-dashoffset="0" style="mix-blend-mode: normal"><g data-paper-data="{&quot;index&quot;:null}" stroke="none" stroke-width="0"><path d="M464.60722,258.76225l3.8,52.3h-7.7l3.8,-52.3z" fill="#000000"/><path d="M458.90722,260.46225c0,-3.1 2.5,-5.7 5.7,-5.7c3.2,0 5.7,2.5 5.7,5.7c0,3.2 -2.5,5.7 -5.7,5.7c-3.2,0 -5.7,-2.5 -5.7,-5.7z" fill="#ff00de"/></g><path d="M-50.54054,-4.68468v-33.03303h576.57657v33.03304z" fill="none" stroke="none" stroke-width="NaN"/><g fill="none" stroke="none" stroke-width="1" font-family="sans-serif" font-weight="normal" font-size="12" text-anchor="start"><g><g/></g><g/><g/></g><path d="M0,329v-32h32v32z" fill="#000000" stroke="#ffffff" stroke-width="2"/><path d="M32,329v-32h32v32z" fill="#000000" stroke="#ffffff" stroke-width="2"/><path d="M64,329v-32h32v32z" fill="#000000" stroke="#ffffff" stroke-width="2"/><path d="M96,329v-32h32v32z" fill="#000000" stroke="#ffffff" stroke-width="2"/><path d="M128,329v-32h32v32z" fill="#000000" stroke="#ffffff" stroke-width="2"/><path d="M160,329v-32h32v32z" fill="#000000" stroke="#ffffff" stroke-width="2"/><path d="M192,329v-32h32v32z" fill="#000000" stroke="#ffffff" stroke-width="2"/><path d="M224,329v-32h32v32z" fill="#000000" stroke="#ffffff" stroke-width="2"/><path d="M256,329v-32h32v32z" fill="#000000" stroke="#ffffff" stroke-width="2"/><path d="M288,329v-32h32v32z" fill="#000000" stroke="#ffffff" stroke-width="2"/><path d="M320,329v-32h32v32z" fill="#000000" stroke="#ffffff" stroke-width="2"/><path d="M352,329v-32h32v32z" fill="#000000" stroke="#ffffff" stroke-width="2"/><path d="M384,329v-32h32v32z" fill="#000000" stroke="#ffffff" stroke-width="2"/><path d="M159.3801,296.29377l16,-18l16,18z" fill="#000000" stroke="#fffee0" stroke-width="2"/><path d="M127.38011,296.29377l16,-18l16,18z" fill="#000000" stroke="#fffee0" stroke-width="2"/><path d="M223.3801,296.29377l16,-18l16,18z" fill="#000000" stroke="#fffee0" stroke-width="2"/><path d="M191.38011,296.29377l16,-18l16,18z" fill="#000000" stroke="#fffee0" stroke-width="2"/><path d="M255.53139,296.29377l16,-18l16,18z" fill="#000000" stroke="#fffee0" stroke-width="2"/><path d="M288.62411,296.29377l16,-18l16,18z" fill="#000000" stroke="#fffee0" stroke-width="2"/><g stroke="#fffdbd" stroke-width="2"><path d="M242.38993,185.15941c0,-7.5 6,-13.5 13.5,-13.5c7.5,0 13.5,6 13.5,13.5c0,7.5 -6,13.5 -13.5,13.5c-7.5,0 -13.5,-6 -13.5,-13.5z" fill="none"/><path d="M246.88993,185.15941c0,-5 4,-9 9,-9c5,0 9,4 9,9c0,5 -4,9 -9,9c-5,0 -9,-4 -9,-9z" fill="#fbf300"/></g><path d="M125.90068,296.1443c-1.4,1.1 -28.7,0.9 -29.6,0c0,-4.1 6.6,-7.4 14.8,-7.4c8.2,0 14.8,3.3 14.8,7.4z" fill="#fbff00" stroke="#fffdbd" stroke-width="1.9"/><path d="M416,329v-32h32v32z" fill="#000000" stroke="#ffffff" stroke-width="2"/><path d="M448,329v-32h32v32z" fill="#000000" stroke="#ffffff" stroke-width="2"/><path d="M448,360v-32h32v32z" fill="#000000" stroke="#ffffff" stroke-width="2"/></g></g></svg>