<svg version="1.1" xmlns="http://www.w3.org/2000/svg" xmlns:xlink="http://www.w3.org/1999/xlink" width="576.57657" height="399.77907" viewBox="0,0,576.57657,399.77907"><g transform="translate(50.54054,37.71771)"><g data-paper-data="{&quot;isPaintingLayer&quot;:true}" fill-rule="nonzero" stroke-linecap="butt" stroke-linejoin="miter" stroke-miterlimit="10" stroke-dasharray="" stroke-dashoffset="0" style="mix-blend-mode: normal"><g stroke="none" stroke-width="0"><path d="M431.99999,226.34362l3.8,52.3h-7.7l3.8,-52.3z" fill="#000000"/><path d="M426.29999,228.04362c0,-3.1 2.5,-5.7 5.7,-5.7c3.2,0 5.7,2.5 5.7,5.7c0,3.2 -2.5,5.7 -5.7,5.7c-3.2,0 -5.7,-2.5 -5.7,-5.7z" fill="#ff00de"/></g><g><path d="M32.3885,334.1l10.9,24h-21.8z" fill="#ff00de" stroke="#fffee0" stroke-width="2"/><path d="M61.3885,338.5l10.9,21.7h-21.8z" fill="#ff00de" stroke="#fffee0" stroke-width="2"/><path d="M16.8885,348.8l11.2,10.3h-22.3l11.2,-10.3z" fill="#000000" stroke="none" stroke-width="0"/><path d="M44.8885,347.8l11.2,10.3h-22.3l11.2,-10.3z" fill="#000000" stroke="none" stroke-width="0"/><path d="M26.3885,343.8l7,13.7h-14z" fill="#000000" stroke="none" stroke-width="0"/><path d="M53.0885,343.1l7,15h-14z" fill="#000000" stroke="none" stroke-width="0"/><path d="M77.08849,344.1l7,14h-14z" fill="#000000" stroke="none" stroke-width="0"/><path d="M7.3885,348.8l7,10.3h-14z" fill="#000000" stroke="none" stroke-width="0"/><path d="M59.3885,349.1l7,10.3h-14z" fill="#000000" stroke="none" stroke-width="0"/><path d="M36.0885,349.5l13,10.3h-26z" fill="#000000" stroke="none" stroke-width="0"/><path d="M87.7885,349.5l13,10.3h-26z" fill="#000000" stroke="none" stroke-width="0"/><path d="M68.3885,348.1l13,10.3h-26z" fill="#000000" stroke="none" stroke-width="0"/><path d="M9.3885,360.5v-4.2h83.6v4.2z" fill="#000000" stroke="none" stroke-width="0"/></g><g><path d="M151.2684,354.46136h-21.8l10.9,-24z" fill="#ff00de" stroke="#fffee0" stroke-width="2"/><path d="M175.2684,361.06136h-21.8l10.9,-24z" fill="#ff00de" stroke="#fffee0" stroke-width="2"/><path d="M137.2684,359.76136h-21.8l10.9,-24z" fill="#ff00de" stroke="#fffee0" stroke-width="2"/><path d="M113.5684,359.26136h-21.8l10.9,-20.2z" fill="#ff00de" stroke="#fffee0" stroke-width="2"/><path d="M173.2684,359.76136h-22.3l11.2,-10.3l11.2,10.3z" fill="#000000" stroke="none" stroke-width="0"/><path d="M146.2684,357.76136h-22.3l11.2,-10.3l11.2,10.3z" fill="#000000" stroke="none" stroke-width="0"/><path d="M160.5684,357.06136h-14l7,-13.7z" fill="#000000" stroke="none" stroke-width="0"/><path d="M190.4684,359.26136h-22.3l11.2,-10.3l11.2,10.3z" fill="#000000" stroke="none" stroke-width="0"/><path d="M177.8684,358.56136h-14l7,-11.8z" fill="#000000" stroke="none" stroke-width="0"/><path d="M133.8684,357.76136h-14l7,-12.4z" fill="#000000" stroke="none" stroke-width="0"/><path d="M113.8684,357.76136h-14l7,-14z" fill="#000000" stroke="none" stroke-width="0"/><path d="M127.5684,359.06136h-14l7,-10.3z" fill="#000000" stroke="none" stroke-width="0"/><path d="M156.8684,359.46136h-26l13,-10.3z" fill="#000000" stroke="none" stroke-width="0"/><path d="M110.2684,359.46136h-26l13,-10.3z" fill="#000000" stroke="none" stroke-width="0"/><path d="M125.5684,358.06136h-26l13,-10.3z" fill="#000000" stroke="none" stroke-width="0"/><path d="M97.7684,359.36136v-3.1h70.5v3.1z" fill="#000000" stroke="none" stroke-width="0"/></g><g><path d="M401.68861,354.46136h-21.8l10.9,-24z" fill="#ff00de" stroke="#fffee0" stroke-width="2"/><path d="M425.68861,361.06136h-21.8l10.9,-24z" fill="#ff00de" stroke="#fffee0" stroke-width="2"/><path d="M387.68861,359.76136h-21.8l10.9,-24z" fill="#ff00de" stroke="#fffee0" stroke-width="2"/><path d="M363.98861,359.26136h-21.8l10.9,-20.2z" fill="#ff00de" stroke="#fffee0" stroke-width="2"/><path d="M423.68861,359.76136h-22.3l11.2,-10.3l11.2,10.3z" fill="#000000" stroke="none" stroke-width="0"/><path d="M396.68861,357.76136h-22.3l11.2,-10.3l11.2,10.3z" fill="#000000" stroke="none" stroke-width="0"/><path d="M410.98861,357.06136h-14l7,-13.7z" fill="#000000" stroke="none" stroke-width="0"/><path d="M440.88861,359.26136h-22.3l11.2,-10.3l11.2,10.3z" fill="#000000" stroke="none" stroke-width="0"/><path d="M428.28861,358.56136h-14l7,-11.8z" fill="#000000" stroke="none" stroke-width="0"/><path d="M384.28861,357.76136h-14l7,-12.4z" fill="#000000" stroke="none" stroke-width="0"/><path d="M364.28861,357.76136h-14l7,-14z" fill="#000000" stroke="none" stroke-width="0"/><path d="M377.98861,359.06136h-14l7,-10.3z" fill="#000000" stroke="none" stroke-width="0"/><path d="M407.28861,359.46136h-26l13,-10.3z" fill="#000000" stroke="none" stroke-width="0"/><path d="M360.68861,359.46136h-26l13,-10.3z" fill="#000000" stroke="none" stroke-width="0"/><path d="M375.98861,358.06136h-26l13,-10.3z" fill="#000000" stroke="none" stroke-width="0"/><path d="M348.18861,359.36136v-3.1h70.5v3.1z" fill="#000000" stroke="none" stroke-width="0"/></g><g><path d="M253.63105,333.71911l10.9,24h-21.8z" fill="#ff00de" stroke="#fffee0" stroke-width="2"/><path d="M282.63105,338.11911l10.9,21.7h-21.8z" fill="#ff00de" stroke="#fffee0" stroke-width="2"/><path d="M238.13105,348.41911l11.2,10.3h-22.3l11.2,-10.3z" fill="#000000" stroke="none" stroke-width="0"/><path d="M266.13105,347.41911l11.2,10.3h-22.3l11.2,-10.3z" fill="#000000" stroke="none" stroke-width="0"/><path d="M247.63105,343.41911l7,13.7h-14z" fill="#000000" stroke="none" stroke-width="0"/><path d="M274.33105,342.71911l7,15h-14z" fill="#000000" stroke="none" stroke-width="0"/><path d="M298.33105,343.71911l7,14h-14z" fill="#000000" stroke="none" stroke-width="0"/><path d="M228.63105,348.41911l7,10.3h-14z" fill="#000000" stroke="none" stroke-width="0"/><path d="M280.63105,348.71911l7,10.3h-14z" fill="#000000" stroke="none" stroke-width="0"/><path d="M257.33105,349.11911l13,10.3h-26z" fill="#000000" stroke="none" stroke-width="0"/><path d="M309.03105,349.11911l13,10.3h-26z" fill="#000000" stroke="none" stroke-width="0"/><path d="M289.63105,347.71911l13,10.3h-26z" fill="#000000" stroke="none" stroke-width="0"/><path d="M230.63105,360.11911v-4.2h83.6v4.2z" fill="#000000" stroke="none" stroke-width="0"/></g><path d="M-50.54054,-4.68468v-33.03303h576.57657v33.03304z" fill="none" stroke="none" stroke-width="NaN"/><path d="M64,329v-32h32v32z" fill="#000000" stroke="#ffffff" stroke-width="2"/><path d="M64,360v-32h32v32z" fill="#000000" stroke="#ffffff" stroke-width="2"/><path d="M320,265v-32h32v32z" fill="#000000" stroke="#ffffff" stroke-width="2"/><path d="M192,297v-32h32v32z" fill="#000000" stroke="#ffffff" stroke-width="2"/><path d="M320,297v-32h32v32z" fill="#000000" stroke="#ffffff" stroke-width="2"/><path d="M416,297v-32h32v32z" fill="#000000" stroke="#ffffff" stroke-width="2"/><path d="M192,329v-32h32v32z" fill="#000000" stroke="#ffffff" stroke-width="2"/><path d="M320,329v-32h32v32z" fill="#000000" stroke="#ffffff" stroke-width="2"/><path d="M416,329v-32h32v32z" fill="#000000" stroke="#ffffff" stroke-width="2"/><path d="M192,360v-32h32v32z" fill="#000000" stroke="#ffffff" stroke-width="2"/><path d="M320,360v-32h32v32z" fill="#000000" stroke="#ffffff" stroke-width="2"/><path d="M416,360v-32h32v32z" fill="#000000" stroke="#ffffff" stroke-width="2"/><path d="M448,297v-32h32v32z" fill="#000000" stroke="#ffffff" stroke-width="2"/></g></g></svg>