<svg version="1.1" xmlns="http://www.w3.org/2000/svg" xmlns:xlink="http://www.w3.org/1999/xlink" width="576.57657" height="398.71771" viewBox="0,0,576.57657,398.71771"><g transform="translate(50.54054,37.71771)"><g data-paper-data="{&quot;isPaintingLayer&quot;:true}" fill-rule="nonzero" stroke-linecap="butt" stroke-linejoin="miter" stroke-miterlimit="10" stroke-dasharray="" stroke-dashoffset="0" style="mix-blend-mode: normal"><g data-paper-data="{&quot;index&quot;:null}" stroke="none" stroke-width="0"><path d="M240.30311,169.02615l-3.8,-52.3h7.7l-3.8,52.3z" fill="#000000"/><path d="M240.40311,161.62615c3.2,0 5.7,2.5 5.7,5.7c0,3.2 -2.5,5.7 -5.7,5.7c-3.2,0 -5.7,-2.6 -5.7,-5.7c0,-3.2 2.5,-5.7 5.7,-5.7z" fill="#ff00de"/></g><g data-paper-data="{&quot;index&quot;:null}" stroke="none" stroke-width="0"><path d="M15.38193,232.01111l3.8,52.3h-7.7l3.8,-52.3z" fill="#000000"/><path d="M9.68193,233.71111c0,-3.1 2.5,-5.7 5.7,-5.7c3.2,0 5.7,2.5 5.7,5.7c0,3.2 -2.5,5.7 -5.7,5.7c-3.2,0 -5.7,-2.5 -5.7,-5.7z" fill="#ff00de"/></g><path d="M-50.54054,-4.68468v-33.03303h576.57657v33.03304z" fill="none" stroke="none" stroke-width="NaN"/><path d="M0,74v-32h32v32z" fill="#000000" stroke="#ffffff" stroke-width="2"/><path d="M0,106v-32h32v32z" fill="#000000" stroke="#ffffff" stroke-width="2"/><path d="M0,138v-32h32v32z" fill="#000000" stroke="#ffffff" stroke-width="2"/><path d="M32,138v-32h32v32z" fill="#000000" stroke="#ffffff" stroke-width="2"/><path d="M64,138v-32h32v32z" fill="#000000" stroke="#ffffff" stroke-width="2"/><path d="M96,138v-32h32v32z" fill="#000000" stroke="#ffffff" stroke-width="2"/><path d="M128,138v-32h32v32z" fill="#000000" stroke="#ffffff" stroke-width="2"/><path d="M160,138v-32h32v32z" fill="#000000" stroke="#ffffff" stroke-width="2"/><path d="M192,138v-32h32v32z" fill="#000000" stroke="#ffffff" stroke-width="2"/><path d="M224,138v-32h32v32z" fill="#000000" stroke="#ffffff" stroke-width="2"/><path d="M256,138v-32h32v32z" fill="#000000" stroke="#ffffff" stroke-width="2"/><path d="M288,138v-32h32v32z" fill="#000000" stroke="#ffffff" stroke-width="2"/><path d="M320,138v-32h32v32z" fill="#000000" stroke="#ffffff" stroke-width="2"/><path d="M352,138v-32h32v32z" fill="#000000" stroke="#ffffff" stroke-width="2"/><path d="M384,138v-32h32v32z" fill="#000000" stroke="#ffffff" stroke-width="2"/><path d="M416,138v-32h32v32z" fill="#000000" stroke="#ffffff" stroke-width="2"/><path d="M448,138v-32h32v32z" fill="#000000" stroke="#ffffff" stroke-width="2"/><path d="M0,297v-32h32v32z" fill="#000000" stroke="#ffffff" stroke-width="2"/><path d="M32,297v-32h32v32z" fill="#000000" stroke="#ffffff" stroke-width="2"/><path d="M64,297v-32h32v32z" fill="#000000" stroke="#ffffff" stroke-width="2"/><path d="M96,297v-32h32v32z" fill="#000000" stroke="#ffffff" stroke-width="2"/><path d="M128,297v-32h32v32z" fill="#000000" stroke="#ffffff" stroke-width="2"/><path d="M160,297v-32h32v32z" fill="#000000" stroke="#ffffff" stroke-width="2"/><path d="M192,297v-32h32v32z" fill="#000000" stroke="#ffffff" stroke-width="2"/><path d="M224,297v-32h32v32z" fill="#000000" stroke="#ffffff" stroke-width="2"/><path d="M256,297v-32h32v32z" fill="#000000" stroke="#ffffff" stroke-width="2"/><path d="M288,297v-32h32v32z" fill="#000000" stroke="#ffffff" stroke-width="2"/><path d="M320,297v-32h32v32z" fill="#000000" stroke="#ffffff" stroke-width="2"/><path d="M352,297v-32h32v32z" fill="#000000" stroke="#ffffff" stroke-width="2"/><path d="M384,297v-32h32v32z" fill="#000000" stroke="#ffffff" stroke-width="2"/><path d="M416,297v-32h32v32z" fill="#000000" stroke="#ffffff" stroke-width="2"/><path d="M448,297v-32h32v32z" fill="#000000" stroke="#ffffff" stroke-width="2"/><path d="M0,329v-32h32v32z" fill="#000000" stroke="#ffffff" stroke-width="2"/><path d="M0,360v-32h32v32z" fill="#000000" stroke="#ffffff" stroke-width="2"/><g fill="#000000" stroke="#fffee0" stroke-width="2"><path d="M31.92435,137.62757l-16,18l-16,-18z"/><path d="M95.92435,137.62757l-16,18l-16,-18z"/><path d="M63.92435,137.62757l-16,18l-16,-18z"/><path d="M159.92434,137.62757l-16,18l-16,-18z"/><path d="M127.92435,137.62757l-16,18l-16,-18z"/></g><g data-paper-data="{&quot;index&quot;:null}" fill="#000000" stroke="#fffee0" stroke-width="2"><path d="M224.10792,264.87341l16,-18l16,18z"/><path d="M288.10792,264.87341l16,-18l16,18z"/><path d="M256.10792,264.87341l16,-18l16,18z"/><path d="M352.10792,264.87341l16,-18l16,18z"/><path d="M320.10792,264.87341l16,-18l16,18z"/></g><g data-paper-data="{&quot;index&quot;:null}" fill="#000000" stroke="#fffee0" stroke-width="2"><path d="M383.15133,264.87341l16,-18l16,18z"/><path d="M447.15133,264.87341l16,-18l16,18z"/><path d="M415.15133,264.87341l16,-18l16,18z"/></g></g></g></svg>