<svg version="1.1" xmlns="http://www.w3.org/2000/svg" xmlns:xlink="http://www.w3.org/1999/xlink" width="576.57657" height="398.71771" viewBox="0,0,576.57657,398.71771"><g transform="translate(50.54054,37.71771)"><g data-paper-data="{&quot;isPaintingLayer&quot;:true}" fill-rule="nonzero" stroke-linecap="butt" stroke-linejoin="miter" stroke-miterlimit="10" stroke-dasharray="" stroke-dashoffset="0" style="mix-blend-mode: normal"><g data-paper-data="{&quot;index&quot;:null}" stroke="none" stroke-width="0"><path d="M176.00576,228.66478l3.8,52.3h-7.7l3.8,-52.3z" fill="#000000"/><path d="M170.30576,230.36478c0,-3.1 2.5,-5.7 5.7,-5.7c3.2,0 5.7,2.5 5.7,5.7c0,3.2 -2.5,5.7 -5.7,5.7c-3.2,0 -5.7,-2.5 -5.7,-5.7z" fill="#ff00de"/></g><path d="M33.99698,359.35608l16,-18l16,18z" fill="#000000" stroke="#fffee0" stroke-width="2"/><path d="M1.99698,359.35608l16,-18l16,18z" fill="#000000" stroke="#fffee0" stroke-width="2"/><path d="M97.99698,359.35608l16,-18l16,18z" fill="#000000" stroke="#fffee0" stroke-width="2"/><path d="M65.99698,359.35608l16,-18l16,18z" fill="#000000" stroke="#fffee0" stroke-width="2"/><path d="M161.99698,359.35608l16,-18l16,18z" fill="#000000" stroke="#fffee0" stroke-width="2"/><path d="M129.99698,359.35608l16,-18l16,18z" fill="#000000" stroke="#fffee0" stroke-width="2"/><path d="M-50.54054,-4.68468v-33.03303h576.57657v33.03304z" fill="none" stroke="none" stroke-width="NaN"/><path d="M160,297v-32h32v32z" fill="#000000" stroke="#ffffff" stroke-width="2"/><path d="M192,297v-32h32v32z" fill="#000000" stroke="#ffffff" stroke-width="2"/><path d="M224,297v-32h32v32z" fill="#000000" stroke="#ffffff" stroke-width="2"/><path d="M256,297v-32h32v32z" fill="#000000" stroke="#ffffff" stroke-width="2"/><path d="M288,297v-32h32v32z" fill="#000000" stroke="#ffffff" stroke-width="2"/><path d="M320,297v-32h32v32z" fill="#000000" stroke="#ffffff" stroke-width="2"/><path d="M352,297v-32h32v32z" fill="#000000" stroke="#ffffff" stroke-width="2"/><path d="M160,329v-32h32v32z" fill="#000000" stroke="#ffffff" stroke-width="2"/><path d="M160,360v-32h32v32z" fill="#000000" stroke="#ffffff" stroke-width="2"/><path d="M222.65412,264.25518l19.14041,-32.62861l19.14041,32.62861z" fill="#000000" stroke="#fffede" stroke-width="2"/><path d="M374.81669,264.25518l19.14041,-32.62861l19.14041,32.62861z" fill="#000000" stroke="#fffede" stroke-width="2"/><g><path d="M472.92264,223.16369v-6.3h10v6.3z" fill="#000000" stroke="none" stroke-width="0"/><path d="M448.32264,223.16369v-6.3h5.5v6.3z" fill="#000000" stroke="none" stroke-width="0"/><path d="M449.12264,215.36369v-6.3h5.5v6.3z" fill="#000000" stroke="none" stroke-width="0"/><path d="M450.52264,207.26369v-6h5.5v6z" fill="#000000" stroke="none" stroke-width="0"/><path d="M452.72264,200.06369v-5.1h5.5v5.1z" fill="#000000" stroke="none" stroke-width="0"/><path d="M454.62264,193.96369v-3.5h5.5v3.5z" fill="#000000" stroke="none" stroke-width="0"/><path d="M472.12264,215.06369v-5.8h10v5.8z" fill="#000000" stroke="none" stroke-width="0"/><path d="M470.82264,207.76369v-6h10v6z" fill="#000000" stroke="none" stroke-width="0"/><path d="M467.92264,200.06369v-5h10v5z" fill="#000000" stroke="none" stroke-width="0"/><path d="M465.52264,193.96369v-3.1h10v3.1z" fill="#000000" stroke="none" stroke-width="0"/><path d="M462.22264,189.76369v-2.4h10v2.4z" fill="#000000" stroke="none" stroke-width="0"/><path d="M457.92264,186.76369v-1.6h10v1.6z" fill="#000000" stroke="none" stroke-width="0"/><path d="M472.12264,230.66369v-5.8h10v5.8z" fill="#000000" stroke="none" stroke-width="0"/><path d="M470.82264,238.16369v-6h10v6z" fill="#000000" stroke="none" stroke-width="0"/><path d="M467.92264,244.86369v-5h10v5z" fill="#000000" stroke="none" stroke-width="0"/><path d="M465.52264,249.06369v-3.1h10v3.1z" fill="#000000" stroke="none" stroke-width="0"/><path d="M462.22264,252.56369v-2.4h10v2.4z" fill="#000000" stroke="none" stroke-width="0"/><path d="M457.92264,254.76369v-1.6h10v1.6z" fill="#000000" stroke="none" stroke-width="0"/><path d="M449.12264,230.96369v-6.3h5.5v6.3z" fill="#000000" stroke="none" stroke-width="0"/><path d="M450.52264,238.56369v-6h5.5v6z" fill="#000000" stroke="none" stroke-width="0"/><path d="M452.72264,244.96369v-5.1h5.5v5.1z" fill="#000000" stroke="none" stroke-width="0"/><path d="M454.62264,249.46369v-3.5h5.5v3.5z" fill="#000000" stroke="none" stroke-width="0"/><path d="M460.12264,190.46369c-4.8,0 -8.8,13.3 -8.8,29.7c0,16.4 3.9,29.7 8.8,29.7c4.9,0 8.8,-13.3 8.8,-29.7c0,-16.4 -3.9,-29.7 -8.8,-29.7zM473.02264,220.16369c0,20 -5.7,36.3 -12.8,36.3c-7.1,0 -12.9,-16.2 -12.9,-36.2c0,-20 5.8,-36.3 12.9,-36.3c7.1,0 12.8,16.2 12.8,36.3v0z" fill="#ffed48" stroke="none" stroke-width="0"/><path d="M473.02264,220.26369c0,20 -5.7,36.3 -12.8,36.3c-7.1,0 -12.9,-16.3 -12.9,-36.3c0,-20 5.8,-36.3 12.9,-36.3c7.1,0 12.8,16.2 12.8,36.3z" fill="none" stroke="#fffecc" stroke-width="1.9"/></g><g fill="#000000" stroke-width="2"><path d="M385.28312,359.35608l16,-18l16,18z" stroke="#fffee0"/><path d="M383.28614,297v-32h32v32z" stroke="#ffffff"/><path d="M383.28614,329v-32h32v32z" stroke="#ffffff"/><path d="M383.28614,360v-32h32v32z" stroke="#ffffff"/></g></g></g></svg>