<svg version="1.1" xmlns="http://www.w3.org/2000/svg" xmlns:xlink="http://www.w3.org/1999/xlink" width="576.57657" height="399.77907" viewBox="0,0,576.57657,399.77907"><g transform="translate(50.54054,37.71771)"><g data-paper-data="{&quot;isPaintingLayer&quot;:true}" fill-rule="nonzero" stroke-linecap="butt" stroke-linejoin="miter" stroke-miterlimit="10" stroke-dasharray="" stroke-dashoffset="0" style="mix-blend-mode: normal"><g stroke="none" stroke-width="0"><path d="M208.4441,202.81143l3.8,52.3h-7.7l3.8,-52.3z" fill="#000000"/><path d="M202.7441,204.51143c0,-3.1 2.5,-5.7 5.7,-5.7c3.2,0 5.7,2.5 5.7,5.7c0,3.2 -2.5,5.7 -5.7,5.7c-3.2,0 -5.7,-2.5 -5.7,-5.7z" fill="#ff00de"/></g><g><path d="M432.65757,353.78181h-21.8l10.9,-24z" fill="#ff00de" stroke="#fffee0" stroke-width="2"/><path d="M456.65757,360.38181h-21.8l10.9,-24z" fill="#ff00de" stroke="#fffee0" stroke-width="2"/><path d="M418.65757,359.08181h-21.8l10.9,-24z" fill="#ff00de" stroke="#fffee0" stroke-width="2"/><path d="M394.95757,358.58181h-21.8l10.9,-20.2z" fill="#ff00de" stroke="#fffee0" stroke-width="2"/><path d="M454.65757,359.08181h-22.3l11.2,-10.3l11.2,10.3z" fill="#000000" stroke="none" stroke-width="0"/><path d="M427.65757,357.08181h-22.3l11.2,-10.3l11.2,10.3z" fill="#000000" stroke="none" stroke-width="0"/><path d="M441.95757,356.38181h-14l7,-13.7z" fill="#000000" stroke="none" stroke-width="0"/><path d="M471.85757,358.58181h-22.3l11.2,-10.3l11.2,10.3z" fill="#000000" stroke="none" stroke-width="0"/><path d="M459.25757,357.88181h-14l7,-11.8z" fill="#000000" stroke="none" stroke-width="0"/><path d="M415.25757,357.08181h-14l7,-12.4z" fill="#000000" stroke="none" stroke-width="0"/><path d="M395.25757,357.08181h-14l7,-14z" fill="#000000" stroke="none" stroke-width="0"/><path d="M408.95757,358.38181h-14l7,-10.3z" fill="#000000" stroke="none" stroke-width="0"/><path d="M438.25757,358.78181h-26l13,-10.3z" fill="#000000" stroke="none" stroke-width="0"/><path d="M391.65757,358.78181h-26l13,-10.3z" fill="#000000" stroke="none" stroke-width="0"/><path d="M406.95757,357.38181h-26l13,-10.3z" fill="#000000" stroke="none" stroke-width="0"/><path d="M379.15757,358.68181v-3.1h70.5v3.1z" fill="#000000" stroke="none" stroke-width="0"/></g><g><path d="M346.9092,354.46136h-21.8l10.9,-24z" fill="#ff00de" stroke="#fffee0" stroke-width="2"/><path d="M370.9092,361.06136h-21.8l10.9,-24z" fill="#ff00de" stroke="#fffee0" stroke-width="2"/><path d="M332.9092,359.76136h-21.8l10.9,-24z" fill="#ff00de" stroke="#fffee0" stroke-width="2"/><path d="M309.2092,359.26136h-21.8l10.9,-20.2z" fill="#ff00de" stroke="#fffee0" stroke-width="2"/><path d="M368.9092,359.76136h-22.3l11.2,-10.3l11.2,10.3z" fill="#000000" stroke="none" stroke-width="0"/><path d="M341.9092,357.76136h-22.3l11.2,-10.3l11.2,10.3z" fill="#000000" stroke="none" stroke-width="0"/><path d="M356.2092,357.06136h-14l7,-13.7z" fill="#000000" stroke="none" stroke-width="0"/><path d="M386.1092,359.26136h-22.3l11.2,-10.3l11.2,10.3z" fill="#000000" stroke="none" stroke-width="0"/><path d="M373.5092,358.56136h-14l7,-11.8z" fill="#000000" stroke="none" stroke-width="0"/><path d="M329.50919,357.76136h-14l7,-12.4z" fill="#000000" stroke="none" stroke-width="0"/><path d="M309.50919,357.76136h-14l7,-14z" fill="#000000" stroke="none" stroke-width="0"/><path d="M323.2092,359.06136h-14l7,-10.3z" fill="#000000" stroke="none" stroke-width="0"/><path d="M352.5092,359.46136h-26l13,-10.3z" fill="#000000" stroke="none" stroke-width="0"/><path d="M305.9092,359.46136h-26l13,-10.3z" fill="#000000" stroke="none" stroke-width="0"/><path d="M321.2092,358.06136h-26l13,-10.3z" fill="#000000" stroke="none" stroke-width="0"/><path d="M293.4092,359.36136v-3.1h70.5v3.1z" fill="#000000" stroke="none" stroke-width="0"/></g><g><path d="M238.958,333.7191l10.9,24h-21.8z" fill="#ff00de" stroke="#fffee0" stroke-width="2"/><path d="M267.958,338.1191l10.9,21.7h-21.8z" fill="#ff00de" stroke="#fffee0" stroke-width="2"/><path d="M223.458,348.4191l11.2,10.3h-22.3l11.2,-10.3z" fill="#000000" stroke="none" stroke-width="0"/><path d="M251.458,347.4191l11.2,10.3h-22.3l11.2,-10.3z" fill="#000000" stroke="none" stroke-width="0"/><path d="M232.958,343.4191l7,13.7h-14z" fill="#000000" stroke="none" stroke-width="0"/><path d="M259.658,342.7191l7,15h-14z" fill="#000000" stroke="none" stroke-width="0"/><path d="M283.658,343.7191l7,14h-14z" fill="#000000" stroke="none" stroke-width="0"/><path d="M213.958,348.4191l7,10.3h-14z" fill="#000000" stroke="none" stroke-width="0"/><path d="M265.958,348.7191l7,10.3h-14z" fill="#000000" stroke="none" stroke-width="0"/><path d="M242.658,349.1191l13,10.3h-26z" fill="#000000" stroke="none" stroke-width="0"/><path d="M294.358,349.1191l13,10.3h-26z" fill="#000000" stroke="none" stroke-width="0"/><path d="M274.958,347.7191l13,10.3h-26z" fill="#000000" stroke="none" stroke-width="0"/><path d="M215.958,360.1191v-4.2h83.6v4.2z" fill="#000000" stroke="none" stroke-width="0"/></g><path d="M-50.54054,-4.68468v-33.03303h576.57657v33.03304z" fill="none" stroke="none" stroke-width="NaN"/><path d="M0,265v-32h32v32z" fill="#000000" stroke="#ffffff" stroke-width="2"/><path d="M32,265v-32h32v32z" fill="#000000" stroke="#ffffff" stroke-width="2"/><path d="M64,265v-32h32v32z" fill="#000000" stroke="#ffffff" stroke-width="2"/><path d="M96,265v-32h32v32z" fill="#000000" stroke="#ffffff" stroke-width="2"/><path d="M128,265v-32h32v32z" fill="#000000" stroke="#ffffff" stroke-width="2"/><path d="M160,265v-32h32v32z" fill="#000000" stroke="#ffffff" stroke-width="2"/><path d="M192,265v-32h32v32z" fill="#000000" stroke="#ffffff" stroke-width="2"/><path d="M192,297v-32h32v32z" fill="#000000" stroke="#ffffff" stroke-width="2"/><path d="M192,329v-32h32v32z" fill="#000000" stroke="#ffffff" stroke-width="2"/><path d="M192,360v-32h32v32z" fill="#000000" stroke="#ffffff" stroke-width="2"/><path d="M288,297v-32h32v32z" fill="#000000" stroke="#ffffff" stroke-width="2"/><path d="M288,329v-32h32v32z" fill="#000000" stroke="#ffffff" stroke-width="2"/><path d="M384,329v-32h32v32z" fill="#000000" stroke="#ffffff" stroke-width="2"/><path d="M288,360v-32h32v32z" fill="#000000" stroke="#ffffff" stroke-width="2"/><path d="M384,360v-32h32v32z" fill="#000000" stroke="#ffffff" stroke-width="2"/></g></g></svg>