<svg version="1.1" xmlns="http://www.w3.org/2000/svg" xmlns:xlink="http://www.w3.org/1999/xlink" width="576.57657" height="398.03813" viewBox="0,0,576.57657,398.03813"><g transform="translate(50.54054,37.71771)"><g data-paper-data="{&quot;isPaintingLayer&quot;:true}" fill-rule="nonzero" stroke-linecap="butt" stroke-linejoin="miter" stroke-miterlimit="10" stroke-dasharray="" stroke-dashoffset="0" style="mix-blend-mode: normal"><path d="M-50.54054,-4.68468v-33.03303h576.57657v33.03304z" fill="none" stroke="none" stroke-width="NaN"/><path d="M0,138v-32h32v32z" fill="#000000" stroke="#ffffff" stroke-width="2"/><path d="M32,138v-32h32v32z" fill="#000000" stroke="#ffffff" stroke-width="2"/><g><path d="M89.76895,189.19647v-6.3h10v6.3z" fill="#000000" stroke="none" stroke-width="0"/><path d="M65.26895,189.19647v-6.3h5.5v6.3z" fill="#000000" stroke="none" stroke-width="0"/><path d="M65.96895,181.39647v-6.3h5.5v6.3z" fill="#000000" stroke="none" stroke-width="0"/><path d="M67.46895,173.29647v-6h5.5v6z" fill="#000000" stroke="none" stroke-width="0"/><path d="M69.56895,166.09647v-5.1h5.5v5.1z" fill="#000000" stroke="none" stroke-width="0"/><path d="M71.46895,159.99647v-3.5h5.5v3.5z" fill="#000000" stroke="none" stroke-width="0"/><path d="M89.06895,181.09647v-5.8h10v5.8z" fill="#000000" stroke="none" stroke-width="0"/><path d="M87.66895,173.79647v-6h10v6z" fill="#000000" stroke="none" stroke-width="0"/><path d="M84.76895,166.09647v-5h10v5z" fill="#000000" stroke="none" stroke-width="0"/><path d="M82.36895,159.99647v-3.1h10v3.1z" fill="#000000" stroke="none" stroke-width="0"/><path d="M79.06895,155.79647v-2.4h10v2.4z" fill="#000000" stroke="none" stroke-width="0"/><path d="M74.76895,152.79647v-1.6h10v1.6z" fill="#000000" stroke="none" stroke-width="0"/><path d="M89.06895,196.69647v-5.8h10v5.8z" fill="#000000" stroke="none" stroke-width="0"/><path d="M87.66895,204.19647v-6h10v6z" fill="#000000" stroke="none" stroke-width="0"/><path d="M84.76895,210.89647v-5h10v5z" fill="#000000" stroke="none" stroke-width="0"/><path d="M82.36895,215.09647v-3.1h10v3.1z" fill="#000000" stroke="none" stroke-width="0"/><path d="M79.06895,218.59647v-2.4h10v2.4z" fill="#000000" stroke="none" stroke-width="0"/><path d="M74.76895,220.79647v-1.6h10v1.6z" fill="#000000" stroke="none" stroke-width="0"/><path d="M65.96895,196.99647v-6.3h5.5v6.3z" fill="#000000" stroke="none" stroke-width="0"/><path d="M67.46895,204.59647v-6h5.5v6z" fill="#000000" stroke="none" stroke-width="0"/><path d="M69.56895,210.99647v-5.1h5.5v5.1z" fill="#000000" stroke="none" stroke-width="0"/><path d="M71.46895,215.49647v-3.5h5.5v3.5z" fill="#000000" stroke="none" stroke-width="0"/><path d="M77.06895,156.49647c-4.8,0 -8.8,13.3 -8.8,29.7c0,16.4 3.9,29.7 8.8,29.7c4.9,0 8.8,-13.3 8.8,-29.7c0,-16.4 -3.9,-29.7 -8.8,-29.7zM89.86895,186.19647c0,20 -5.7,36.3 -12.8,36.3c-7.1,0 -12.9,-16.2 -12.9,-36.2c0,-20 5.8,-36.3 12.9,-36.3c7.1,0 12.8,16.2 12.8,36.3v0z" fill="#69f4ff" stroke="none" stroke-width="0"/><path d="M89.86895,186.29647c0,20 -5.7,36.3 -12.8,36.3c-7.1,0 -12.9,-16.3 -12.9,-36.3c0,-20 5.8,-36.3 12.9,-36.3c7.1,0 12.8,16.2 12.8,36.3z" fill="none" stroke="#e9fcff" stroke-width="1.9"/></g><g data-paper-data="{&quot;index&quot;:null}" fill="#000000" stroke="#fffee0" stroke-width="2"><path d="M280.84914,359.32042l16,-18l16,18z" data-paper-data="{&quot;index&quot;:null}"/><path d="M344.84914,359.32042l16,-18l16,18z" data-paper-data="{&quot;index&quot;:null}"/><path d="M312.84914,359.32042l16,-18l16,18z" data-paper-data="{&quot;index&quot;:null}"/><path d="M376.84914,359.32042l16,-18l16,18z" data-paper-data="{&quot;index&quot;:null}"/></g><g data-paper-data="{&quot;index&quot;:null}" stroke="#fffdbd" stroke-width="2"><path d="M344.31813,302.51271c7.5,0 13.5,6 13.5,13.5c0,7.5 -6,13.5 -13.5,13.5c-7.5,0 -13.5,-6 -13.5,-13.5c0,-7.5 6,-13.5 13.5,-13.5z" fill="none"/><path d="M344.31813,307.01271c5,0 9,4 9,9c0,5 -4,9 -9,9c-5,0 -9,-4 -9,-9c0,-5 4,-9 9,-9z" fill="#fbf300"/></g></g></g></svg>