<svg version="1.1" xmlns="http://www.w3.org/2000/svg" xmlns:xlink="http://www.w3.org/1999/xlink" width="576.57657" height="398.71771" viewBox="0,0,576.57657,398.71771"><g transform="translate(50.54054,37.71771)"><g data-paper-data="{&quot;isPaintingLayer&quot;:true}" fill-rule="nonzero" stroke-linecap="butt" stroke-linejoin="miter" stroke-miterlimit="10" stroke-dasharray="" stroke-dashoffset="0" style="mix-blend-mode: normal"><g fill="#000000" stroke="#fffee0" stroke-width="2"><path d="M33.99698,359.35608l16,-18l16,18z"/><path d="M1.99698,359.35608l16,-18l16,18z"/><path d="M97.99698,359.35608l16,-18l16,18z"/><path d="M65.99698,359.35608l16,-18l16,18z"/><path d="M161.99698,359.35608l16,-18l16,18z"/><path d="M129.99698,359.35608l16,-18l16,18z"/><path d="M225.99698,359.35608l16,-18l16,18z"/><path d="M193.99698,359.35608l16,-18l16,18z"/><path d="M289.99698,359.35608l16,-18l16,18z"/><path d="M257.99698,359.35608l16,-18l16,18z"/><path d="M353.99698,359.35608l16,-18l16,18z"/><path d="M321.99698,359.35608l16,-18l16,18z"/><path d="M417.99698,359.35608l16,-18l16,18z"/><path d="M385.99698,359.35608l16,-18l16,18z"/><path d="M449.99698,359.35608l16,-18l16,18z"/></g><path d="M-50.54054,-4.68468v-33.03303h576.57657v33.03304z" fill="none" stroke="none" stroke-width="NaN"/><g fill="#000000" stroke="#ffffff" stroke-width="2"><path d="M93.46547,265v-32h32v32z"/><path d="M93.46547,297v-32h32v32z"/><path d="M93.46547,329v-32h32v32z"/><path d="M93.46547,360v-32h32v32z"/></g><path d="M224,265v-32h32v32z" fill="#000000" stroke="#ffffff" stroke-width="2"/><path d="M224,297v-32h32v32z" fill="#000000" stroke="#ffffff" stroke-width="2"/><path d="M224,329v-32h32v32z" fill="#000000" stroke="#ffffff" stroke-width="2"/><path d="M224,360v-32h32v32z" fill="#000000" stroke="#ffffff" stroke-width="2"/><path d="M255.55108,232.82828c-1.4,1.1 -28.7,0.9 -29.6,0c0,-4.1 6.6,-7.4 14.8,-7.4c8.2,0 14.8,3.3 14.8,7.4z" fill="#fbff00" stroke="#fffdbd" stroke-width="1.9"/></g></g></svg>