<svg version="1.1" xmlns="http://www.w3.org/2000/svg" xmlns:xlink="http://www.w3.org/1999/xlink" width="576.57657" height="398.39181" viewBox="0,0,576.57657,398.39181"><g transform="translate(50.54054,37.71771)"><g data-paper-data="{&quot;isPaintingLayer&quot;:true}" fill-rule="nonzero" stroke-linecap="butt" stroke-linejoin="miter" stroke-miterlimit="10" stroke-dasharray="" stroke-dashoffset="0" style="mix-blend-mode: normal"><g fill="#000000" stroke="#fffee0" stroke-width="2"><path d="M33.99698,359.35608l16,-18l16,18z"/><path d="M1.99698,359.35608l16,-18l16,18z"/><path d="M97.99698,359.35608l16,-18l16,18z"/><path d="M65.99698,359.35608l16,-18l16,18z"/><path d="M161.99698,359.35608l16,-18l16,18z"/><path d="M129.99698,359.35608l16,-18l16,18z"/><path d="M225.99698,359.35608l16,-18l16,18z"/><path d="M193.99698,359.35608l16,-18l16,18z"/><path d="M289.99698,359.35608l16,-18l16,18z"/><path d="M257.99698,359.35608l16,-18l16,18z"/><path d="M353.99698,359.35608l16,-18l16,18z"/><path d="M321.99698,359.35608l16,-18l16,18z"/><path d="M417.99698,359.35608l16,-18l16,18z"/><path d="M385.99698,359.35608l16,-18l16,18z"/><path d="M449.99698,359.35608l16,-18l16,18z"/></g><path d="M-50.54054,-4.68468v-33.03303h576.57657v33.03304z" fill="none" stroke="none" stroke-width="NaN"/><path d="M37,264.6741v-32h32v32z" fill="#000000" stroke="#ffffff" stroke-width="2"/><path d="M37,296.6741v-32h32v32z" fill="#000000" stroke="#ffffff" stroke-width="2"/><path d="M133,296.6741v-32h32v32z" fill="#000000" stroke="#ffffff" stroke-width="2"/><path d="M37,328.6741v-32h32v32z" fill="#000000" stroke="#ffffff" stroke-width="2"/><path d="M133,328.6741v-32h32v32z" fill="#000000" stroke="#ffffff" stroke-width="2"/><path d="M37,359.6741v-32h32v32z" fill="#000000" stroke="#ffffff" stroke-width="2"/><path d="M133,359.6741v-32h32v32z" fill="#000000" stroke="#ffffff" stroke-width="2"/><g stroke="#fffdbd" stroke-width="2"><path d="M265.49999,229.87501c0,-7.5 6,-13.5 13.5,-13.5c7.5,0 13.5,6 13.5,13.5c0,7.5 -6,13.5 -13.5,13.5c-7.5,0 -13.5,-6 -13.5,-13.5z" fill="none"/><path d="M269.99999,229.87501c0,-5 4,-9 9,-9c5,0 9,4 9,9c0,5 -4,9 -9,9c-5,0 -9,-4 -9,-9z" fill="#fbf300"/></g><g stroke="#fffdbd" stroke-width="2"><path d="M378.49999,209.87501c0,-7.5 6,-13.5 13.5,-13.5c7.5,0 13.5,6 13.5,13.5c0,7.5 -6,13.5 -13.5,13.5c-7.5,0 -13.5,-6 -13.5,-13.5z" fill="none"/><path d="M382.99999,209.87501c0,-5 4,-9 9,-9c5,0 9,4 9,9c0,5 -4,9 -9,9c-5,0 -9,-4 -9,-9z" fill="#fbf300"/></g></g></g></svg>