<svg version="1.1" xmlns="http://www.w3.org/2000/svg" xmlns:xlink="http://www.w3.org/1999/xlink" width="576.57657" height="399.77907" viewBox="0,0,576.57657,399.77907"><g transform="translate(50.54054,37.71771)"><g data-paper-data="{&quot;isPaintingLayer&quot;:true}" fill-rule="nonzero" stroke-linecap="butt" stroke-linejoin="miter" stroke-miterlimit="10" stroke-dasharray="" stroke-dashoffset="0" style="mix-blend-mode: normal"><g><path d="M453.30124,353.78181h-21.8l10.9,-24z" fill="#ff00de" stroke="#fffee0" stroke-width="2"/><path d="M477.30124,360.38181h-21.8l10.9,-24z" fill="#ff00de" stroke="#fffee0" stroke-width="2"/><path d="M439.30124,359.08181h-21.8l10.9,-24z" fill="#ff00de" stroke="#fffee0" stroke-width="2"/><path d="M415.60124,358.58181h-21.8l10.9,-20.2z" fill="#ff00de" stroke="#fffee0" stroke-width="2"/><path d="M475.30124,359.08181h-22.3l11.2,-10.3l11.2,10.3z" fill="#000000" stroke="none" stroke-width="0"/><path d="M448.30124,357.08181h-22.3l11.2,-10.3l11.2,10.3z" fill="#000000" stroke="none" stroke-width="0"/><path d="M462.60124,356.38181h-14l7,-13.7z" fill="#000000" stroke="none" stroke-width="0"/><path d="M492.50124,358.58181h-22.3l11.2,-10.3l11.2,10.3z" fill="#000000" stroke="none" stroke-width="0"/><path d="M479.90124,357.88181h-14l7,-11.8z" fill="#000000" stroke="none" stroke-width="0"/><path d="M435.90124,357.08181h-14l7,-12.4z" fill="#000000" stroke="none" stroke-width="0"/><path d="M415.90124,357.08181h-14l7,-14z" fill="#000000" stroke="none" stroke-width="0"/><path d="M429.60124,358.38181h-14l7,-10.3z" fill="#000000" stroke="none" stroke-width="0"/><path d="M458.90124,358.78181h-26l13,-10.3z" fill="#000000" stroke="none" stroke-width="0"/><path d="M412.30124,358.78181h-26l13,-10.3z" fill="#000000" stroke="none" stroke-width="0"/><path d="M427.60124,357.38181h-26l13,-10.3z" fill="#000000" stroke="none" stroke-width="0"/><path d="M399.80124,358.68181v-3.1h70.5v3.1z" fill="#000000" stroke="none" stroke-width="0"/></g><g><path d="M32.3885,334.1l10.9,24h-21.8z" fill="#ff00de" stroke="#fffee0" stroke-width="2"/><path d="M61.3885,338.5l10.9,21.7h-21.8z" fill="#ff00de" stroke="#fffee0" stroke-width="2"/><path d="M16.8885,348.8l11.2,10.3h-22.3l11.2,-10.3z" fill="#000000" stroke="none" stroke-width="0"/><path d="M44.8885,347.8l11.2,10.3h-22.3l11.2,-10.3z" fill="#000000" stroke="none" stroke-width="0"/><path d="M26.3885,343.8l7,13.7h-14z" fill="#000000" stroke="none" stroke-width="0"/><path d="M53.0885,343.1l7,15h-14z" fill="#000000" stroke="none" stroke-width="0"/><path d="M77.08849,344.1l7,14h-14z" fill="#000000" stroke="none" stroke-width="0"/><path d="M7.3885,348.8l7,10.3h-14z" fill="#000000" stroke="none" stroke-width="0"/><path d="M59.3885,349.1l7,10.3h-14z" fill="#000000" stroke="none" stroke-width="0"/><path d="M36.0885,349.5l13,10.3h-26z" fill="#000000" stroke="none" stroke-width="0"/><path d="M87.7885,349.5l13,10.3h-26z" fill="#000000" stroke="none" stroke-width="0"/><path d="M68.3885,348.1l13,10.3h-26z" fill="#000000" stroke="none" stroke-width="0"/><path d="M9.3885,360.5v-4.2h83.6v4.2z" fill="#000000" stroke="none" stroke-width="0"/></g><g><path d="M140.48281,354.46136h-21.8l10.9,-24z" fill="#ff00de" stroke="#fffee0" stroke-width="2"/><path d="M164.48281,361.06136h-21.8l10.9,-24z" fill="#ff00de" stroke="#fffee0" stroke-width="2"/><path d="M126.48281,359.76136h-21.8l10.9,-24z" fill="#ff00de" stroke="#fffee0" stroke-width="2"/><path d="M102.78281,359.26136h-21.8l10.9,-20.2z" fill="#ff00de" stroke="#fffee0" stroke-width="2"/><path d="M162.48281,359.76136h-22.3l11.2,-10.3l11.2,10.3z" fill="#000000" stroke="none" stroke-width="0"/><path d="M135.48281,357.76136h-22.3l11.2,-10.3l11.2,10.3z" fill="#000000" stroke="none" stroke-width="0"/><path d="M149.78281,357.06136h-14l7,-13.7z" fill="#000000" stroke="none" stroke-width="0"/><path d="M179.68281,359.26136h-22.3l11.2,-10.3l11.2,10.3z" fill="#000000" stroke="none" stroke-width="0"/><path d="M167.08281,358.56136h-14l7,-11.8z" fill="#000000" stroke="none" stroke-width="0"/><path d="M123.08281,357.76136h-14l7,-12.4z" fill="#000000" stroke="none" stroke-width="0"/><path d="M103.08281,357.76136h-14l7,-14z" fill="#000000" stroke="none" stroke-width="0"/><path d="M116.78281,359.06136h-14l7,-10.3z" fill="#000000" stroke="none" stroke-width="0"/><path d="M146.08281,359.46136h-26l13,-10.3z" fill="#000000" stroke="none" stroke-width="0"/><path d="M99.48281,359.46136h-26l13,-10.3z" fill="#000000" stroke="none" stroke-width="0"/><path d="M114.78281,358.06136h-26l13,-10.3z" fill="#000000" stroke="none" stroke-width="0"/><path d="M86.98281,359.36136v-3.1h70.5v3.1z" fill="#000000" stroke="none" stroke-width="0"/></g><g><path d="M215.98195,354.46136h-21.8l10.9,-24z" fill="#ff00de" stroke="#fffee0" stroke-width="2"/><path d="M239.98195,361.06136h-21.8l10.9,-24z" fill="#ff00de" stroke="#fffee0" stroke-width="2"/><path d="M201.98195,359.76136h-21.8l10.9,-24z" fill="#ff00de" stroke="#fffee0" stroke-width="2"/><path d="M178.28195,359.26136h-21.8l10.9,-20.2z" fill="#ff00de" stroke="#fffee0" stroke-width="2"/><path d="M237.98195,359.76136h-22.3l11.2,-10.3l11.2,10.3z" fill="#000000" stroke="none" stroke-width="0"/><path d="M210.98195,357.76136h-22.3l11.2,-10.3l11.2,10.3z" fill="#000000" stroke="none" stroke-width="0"/><path d="M225.28195,357.06136h-14l7,-13.7z" fill="#000000" stroke="none" stroke-width="0"/><path d="M255.18195,359.26136h-22.3l11.2,-10.3l11.2,10.3z" fill="#000000" stroke="none" stroke-width="0"/><path d="M242.58195,358.56136h-14l7,-11.8z" fill="#000000" stroke="none" stroke-width="0"/><path d="M198.58195,357.76136h-14l7,-12.4z" fill="#000000" stroke="none" stroke-width="0"/><path d="M178.58195,357.76136h-14l7,-14z" fill="#000000" stroke="none" stroke-width="0"/><path d="M192.28195,359.06136h-14l7,-10.3z" fill="#000000" stroke="none" stroke-width="0"/><path d="M221.58195,359.46136h-26l13,-10.3z" fill="#000000" stroke="none" stroke-width="0"/><path d="M174.98195,359.46136h-26l13,-10.3z" fill="#000000" stroke="none" stroke-width="0"/><path d="M190.28195,358.06136h-26l13,-10.3z" fill="#000000" stroke="none" stroke-width="0"/><path d="M162.48195,359.36136v-3.1h70.5v3.1z" fill="#000000" stroke="none" stroke-width="0"/></g><g><path d="M344.77915,333.71911l10.9,24h-21.8z" fill="#ff00de" stroke="#fffee0" stroke-width="2"/><path d="M373.77915,338.11911l10.9,21.7h-21.8z" fill="#ff00de" stroke="#fffee0" stroke-width="2"/><path d="M329.27915,348.41911l11.2,10.3h-22.3l11.2,-10.3z" fill="#000000" stroke="none" stroke-width="0"/><path d="M357.27915,347.41911l11.2,10.3h-22.3l11.2,-10.3z" fill="#000000" stroke="none" stroke-width="0"/><path d="M338.77915,343.41911l7,13.7h-14z" fill="#000000" stroke="none" stroke-width="0"/><path d="M365.47915,342.71911l7,15h-14z" fill="#000000" stroke="none" stroke-width="0"/><path d="M389.47915,343.71911l7,14h-14z" fill="#000000" stroke="none" stroke-width="0"/><path d="M319.77915,348.41911l7,10.3h-14z" fill="#000000" stroke="none" stroke-width="0"/><path d="M371.77915,348.71911l7,10.3h-14z" fill="#000000" stroke="none" stroke-width="0"/><path d="M348.47915,349.11911l13,10.3h-26z" fill="#000000" stroke="none" stroke-width="0"/><path d="M400.17915,349.11911l13,10.3h-26z" fill="#000000" stroke="none" stroke-width="0"/><path d="M380.77915,347.71911l13,10.3h-26z" fill="#000000" stroke="none" stroke-width="0"/><path d="M321.77915,360.11911v-4.2h83.6v4.2z" fill="#000000" stroke="none" stroke-width="0"/></g><g><path d="M267.48951,333.71911l10.9,24h-21.8z" fill="#ff00de" stroke="#fffee0" stroke-width="2"/><path d="M296.48951,338.11911l10.9,21.7h-21.8z" fill="#ff00de" stroke="#fffee0" stroke-width="2"/><path d="M251.98951,348.41911l11.2,10.3h-22.3l11.2,-10.3z" fill="#000000" stroke="none" stroke-width="0"/><path d="M279.98951,347.41911l11.2,10.3h-22.3l11.2,-10.3z" fill="#000000" stroke="none" stroke-width="0"/><path d="M261.48951,343.41911l7,13.7h-14z" fill="#000000" stroke="none" stroke-width="0"/><path d="M288.18951,342.71911l7,15h-14z" fill="#000000" stroke="none" stroke-width="0"/><path d="M312.18951,343.71911l7,14h-14z" fill="#000000" stroke="none" stroke-width="0"/><path d="M242.48951,348.41911l7,10.3h-14z" fill="#000000" stroke="none" stroke-width="0"/><path d="M294.48951,348.71911l7,10.3h-14z" fill="#000000" stroke="none" stroke-width="0"/><path d="M271.18951,349.11911l13,10.3h-26z" fill="#000000" stroke="none" stroke-width="0"/><path d="M322.88951,349.11911l13,10.3h-26z" fill="#000000" stroke="none" stroke-width="0"/><path d="M303.48951,347.71911l13,10.3h-26z" fill="#000000" stroke="none" stroke-width="0"/><path d="M244.48951,360.11911v-4.2h83.6v4.2z" fill="#000000" stroke="none" stroke-width="0"/></g><path d="M-50.54054,-4.68468v-33.03303h576.57657v33.03304z" fill="none" stroke="none" stroke-width="NaN"/><g stroke="#fffdbd" stroke-width="2"><path d="M7.49998,219.87501c0,-7.5 6,-13.5 13.5,-13.5c7.5,0 13.5,6 13.5,13.5c0,7.5 -6,13.5 -13.5,13.5c-7.5,0 -13.5,-6 -13.5,-13.5z" fill="none"/><path d="M11.99998,219.87501c0,-5 4,-9 9,-9c5,0 9,4 9,9c0,5 -4,9 -9,9c-5,0 -9,-4 -9,-9z" fill="#fbf300"/></g><g fill="#000000" stroke="#ffffff" stroke-width="2"><path d="M128,234v-32h32v32z"/><path d="M128,265v-32h32v32z"/><path d="M224,265v-32h32v32z"/><path d="M128,297v-32h32v32z"/><path d="M224,297v-32h32v32z"/><path d="M320,297v-32h32v32z"/><path d="M128,329v-32h32v32z"/><path d="M224,329v-32h32v32z"/><path d="M320,329v-32h32v32z"/><path d="M128,360v-32h32v32z"/><path d="M224,360v-32h32v32z"/><path d="M320,360v-32h32v32z"/></g><path d="M351.79999,262.57501c-1.4,1.1 -28.7,0.9 -29.6,0c0,-4.1 6.6,-7.4 14.8,-7.4c8.2,0 14.8,3.3 14.8,7.4z" fill="#fbff00" stroke="#fffdbd" stroke-width="1.9"/></g></g></svg>