<svg version="1.1" xmlns="http://www.w3.org/2000/svg" xmlns:xlink="http://www.w3.org/1999/xlink" width="576.57657" height="398.19782" viewBox="0,0,576.57657,398.19782"><g transform="translate(50.54054,37.71771)"><g data-paper-data="{&quot;isPaintingLayer&quot;:true}" fill-rule="nonzero" stroke-linecap="butt" stroke-linejoin="miter" stroke-miterlimit="10" stroke-dasharray="" stroke-dashoffset="0" style="mix-blend-mode: normal"><path d="M-50.54054,-4.68468v-33.03303h576.57657v33.03304z" fill="none" stroke="none" stroke-width="NaN"/><g fill="#000000" stroke="#fffede" stroke-width="2"><path d="M79.03,359.48011l19.14041,-32.62861l19.14041,32.62861z"/><path d="M208.03,359.48011l19.14041,-32.62861l19.14041,32.62861z"/></g><g><path d="M319.8,342.2v0c0.9,1.1 -1,1.7 -1.3,2.4c-0.2,0.5 -0.7,0.8 -1.2,0.8h-17.9c-11.7,-8.5 -12,-24.3 -12,-34.8c0,-10.5 -0.9,-30.5 12.6,-35.6c8,0 9.8,0.2 17.9,0.2c-1.1,0.3 -3.3,0.6 -4.2,1.2c-0.9,0 -0.5,0 -0.7,0c-4.1,5 -4.1,7.4 -4.1,7.4l0.7,0.2h-1.3c-0.4,0.9 -0.6,1.3 -0.9,2.3h4.1c0.2,-0.6 0.2,-0.9 0.4,-1.3l-0.9,1.3c-2.9,8 0.7,16.6 0.7,24.1c0,7.5 -2.8,14.7 -0.4,21.4v1.4c-0.2,-0.1 -0.2,-0.2 -0.2,-0.4c-1.6,0.2 -2.4,0.2 -4.1,0.2c0.3,0.9 0.5,1.3 0.9,2.2h0.2c0.2,0.9 1.1,3.3 3.9,6.9h7.8zM305.6,327.5v0c1.6,0 2.4,0 4.1,0c-0.1,-1 -0.1,-1.4 -0.3,-2.4c-1.6,0 -2.4,0 -4.1,0c0.2,1 0.2,1.4 0.4,2.4zM304.6,303.7v0h4.2c0,-1 0,-1.5 0,-2.6h-4.1c0,1 0,1.6 0,2.6zM304.6,309.4v2.2h4.2v-2.2zM305.2,284.1h-4.1c-0.4,0.9 -0.6,1.3 -0.9,2.3h4.1c0.3,-0.9 0.5,-1.4 0.9,-2.3zM298.7,292.3c-0.2,1 -0.2,1.5 -0.4,2.6h4.1c0.2,-1 0.2,-1.5 0.4,-2.6zM297.6,301.1c0,1 0,1.6 0,2.6h4.2c0,-1 0,-1.5 0,-2.6zM297.4,309.4v2.2h4.2v-2.2zM297.5,317.1c0,0.9 0,1.4 0,2.4h4.1c0,-1 0,-1.4 0,-2.4zM302.3,325.1v0c-1.6,0 -2.4,0 -4.1,0c0.2,1 0.2,1.5 0.4,2.5c1.6,0 2.4,0 4.1,0c-0.2,-0.9 -0.2,-1.4 -0.4,-2.4zM300,333.3c0.3,0.9 0.5,1.3 0.9,2.2c1.6,-0.2 2.4,-0.2 4.1,-0.2c-0.4,-0.8 -0.6,-1.3 -0.9,-2.2c-1.6,0.2 -2.4,0.2 -4.1,0.2zM308.7,319.5c0,-1 0,-1.5 0,-2.4h-4.1c0,1 0,1.4 0,2.4zM305.7,292.4c-0.2,1 -0.2,1.5 -0.4,2.6h4.1c0.2,-1 0.2,-1.5 0.4,-2.6zM303.7,279.5h4.1c0.5,-0.8 0.8,-1.1 1.5,-1.7h-4.1c-0.7,0.6 -0.9,1 -1.5,1.7zM296.6,279.5h4.1c0.6,-0.8 0.8,-1.1 1.5,-1.7h-4.1c-0.7,0.6 -0.9,1 -1.5,1.7zM292.9,286.5h4.1c0.3,-0.9 0.5,-1.4 0.9,-2.3h-4.1c-0.4,0.9 -0.6,1.3 -0.9,2.3zM291,295h4.1c0.2,-1 0.2,-1.5 0.4,-2.6h-4.1c-0.2,1 -0.2,1.5 -0.4,2.6zM290.3,301.2v0c-0.2,1 -0.2,1.6 -0.2,2.6h4.2c0.2,-1 0.2,-1.5 0.2,-2.6h-4.1zM290.2,311.7h4.2v-2.2h-4.2c0,0.9 0,1.3 0,2.2zM290.4,317.1v0c0.2,1 0.2,1.5 0.2,2.5h4.1c-0.2,-0.9 -0.2,-1.4 -0.2,-2.4h-4.1zM291.5,328c1.6,0 2.4,0 4.1,0c-0.2,-1 -0.2,-1.5 -0.4,-2.5c-1.6,0 -2.4,0 -4.1,0c0.2,1 0.2,1.5 0.4,2.5zM293.1,333.5v0c0.3,1 0.5,1.4 0.9,2.3c1.6,-0.2 2.4,-0.2 4.1,-0.2c-0.4,-0.8 -0.6,-1.3 -0.9,-2.2c-1.6,0.2 -2.4,0.2 -4.1,0.2zM298.2,342.5v0c1.6,0 2.4,0 4.1,0c-0.7,-0.7 -0.9,-1.2 -1.5,-1.9c-1.6,0.2 -2.4,0.2 -4.1,0.2c0.6,0.7 0.8,1.1 1.5,1.8zM305.2,342.2v0c1.6,0 2.4,0 4.1,0c-0.7,-0.7 -1,-1.1 -1.6,-1.9c-1.6,0.2 -2.4,0.2 -4.1,0.2c0.5,0.8 0.8,1.2 1.5,1.9z" fill="#000000" stroke="none" stroke-width="0"/><path d="M307.5,270.5c0,-1.71208 1.38792,-3.1 3.1,-3.1c1.71208,0 3.1,1.38792 3.1,3.1c0,1.71208 -1.38792,3.1 -3.1,3.1c-1.71208,0 -3.1,-1.38792 -3.1,-3.1z" fill="#ff77ff" stroke="#fee6ff" stroke-width="0.9"/><path d="M307.5,350.4c0,-1.71208 1.38792,-3.1 3.1,-3.1c1.71208,0 3.1,1.38792 3.1,3.1c0,1.71208 -1.38792,3.1 -3.1,3.1c-1.71208,0 -3.1,-1.38792 -3.1,-3.1z" fill="#ff77ff" stroke="#fee6ff" stroke-width="0.9"/><path d="M330.4,310.6v0c0,18.3 -3.1,28.9 -10.5,35.1h-17.8c8.5,-10.6 10.3,-22.4 10.3,-35.4c0,-13 -1.5,-25.3 -10.3,-35.4h17.8c6.9,5.8 10.5,17.4 10.5,35.6zM328.1,307.9v0c-0.1,-2.5 -0.3,-5 -0.5,-7.4h-3.1c0.3,2.4 0.5,4.9 0.5,7.3h3.1zM326.9,295.7v0c-0.4,-2.4 -1,-4.8 -1.7,-7.1h-3.1c0.7,2.3 1.3,4.6 1.7,7h3.1zM316,279.4h-3.1c0.8,1.3 1.6,2.8 2.3,4.3h3.1c-0.6,-1.5 -1.4,-2.9 -2.3,-4.3zM320.2,288.7h-3.1c0.7,2.3 1.3,4.6 1.6,6.9h3.1c-0.5,-2.3 -1,-4.7 -1.7,-6.9zM319.3,300.6c0.2,2.4 0.4,4.9 0.4,7.3h3.1c0,-2.4 -0.2,-4.9 -0.4,-7.3zM317.3,300.7v0h-3.1c0.1,2.4 0.3,4.8 0.3,7.2h3.1c-0.1,-2.5 -0.2,-4.9 -0.4,-7.3zM314.2,319.7h3.1c0.2,-2.3 0.2,-4.6 0.2,-6.8h-3.1c0,2.3 0,4.6 -0.2,6.8zM318.9,324.1v0c-0.3,2.3 -0.8,4.7 -1.5,6.8h3.1c0.7,-2.2 1.2,-4.5 1.5,-6.7h-3.1zM319.4,319.6h3.1c0.2,-2.2 0.2,-4.5 0.2,-6.7h-3.1c0,2.3 0,4.6 -0.2,6.8zM320.2,283.7h3.1c-0.5,-1.5 -1.4,-2.9 -2.2,-4.3h-3.1c0.9,1.3 1.6,2.8 2.3,4.3zM309.9,283.7h3.1c-0.6,-1.5 -1.4,-3 -2.3,-4.3h-3.1c0.9,1.3 1.7,2.8 2.4,4.3zM312,288.9v0c0.7,2.3 1.2,4.6 1.5,6.8h3.1c-0.4,-2.4 -0.9,-4.7 -1.6,-6.9h-3.1zM312.1,331h3.1c0.7,-2.2 1.2,-4.6 1.5,-6.8h-3.1c-0.3,2.3 -0.8,4.7 -1.5,6.8zM306.8,342h3.1c1.4,-2.1 2.6,-4.1 3.6,-6.3h-3.1M315.2,342c1.3,-2.1 2.5,-4.1 3.5,-6.3h-3.1c-1,2.2 -2.3,4.2 -3.6,6.3zM323.9,335.8h-3.1c-1,2.1 -2.2,4.1 -3.5,6.2h3.1c1.4,-2 2.5,-4.1 3.5,-6.2zM325.7,330.8v0c0.7,-2.1 1.2,-4.4 1.5,-6.6h-3.1c-0.3,2.2 -0.8,4.6 -1.5,6.7h3.1zM327.6,319.7c0.2,-2.2 0.2,-4.5 0.2,-6.7h-3.1c0,2.2 0,4.5 -0.2,6.7z" fill="#000000" stroke="none" stroke-width="0"/><path d="M299.3,280.6c-4.8,0 -8.8,13.3 -8.8,29.7c0,16.4 3.9,29.7 8.8,29.7c4.9,0 8.8,-13.3 8.8,-29.7c0,-16.4 -3.9,-29.7 -8.8,-29.7zM312.1,310.3c0,20 -5.7,36.3 -12.8,36.3c-7.1,0 -12.9,-16.2 -12.9,-36.2c0,-20 5.8,-36.3 12.9,-36.3c7.1,0 12.8,16.2 12.8,36.3v0z" fill="#ff77ff" stroke="none" stroke-width="0"/><path d="M312.2,310.3c0,20 -5.7,36.3 -12.8,36.3c-7.1,0 -12.9,-16.3 -12.9,-36.3c0,-20 5.8,-36.3 12.9,-36.3c7.1,0 12.8,16.2 12.8,36.3z" fill="none" stroke="#fee6ff" stroke-width="1.9"/><path d="M319.2,327.1c0,-1.71208 1.38792,-3.1 3.1,-3.1c1.71208,0 3.1,1.38792 3.1,3.1c0,1.71208 -1.38792,3.1 -3.1,3.1c-1.71208,0 -3.1,-1.38792 -3.1,-3.1z" fill="#ff77ff" stroke="#fee6ff" stroke-width="0.9"/><path d="M319.2,292.9c0,-1.71208 1.38792,-3.1 3.1,-3.1c1.71208,0 3.1,1.38792 3.1,3.1c0,1.71208 -1.38792,3.1 -3.1,3.1c-1.71208,0 -3.1,-1.38792 -3.1,-3.1z" fill="#ff77ff" stroke="#fee6ff" stroke-width="0.9"/></g></g></g></svg>