<svg version="1.1" xmlns="http://www.w3.org/2000/svg" xmlns:xlink="http://www.w3.org/1999/xlink" width="576.57657" height="398.71771" viewBox="0,0,576.57657,398.71771"><g transform="translate(50.54054,37.71771)"><g data-paper-data="{&quot;isPaintingLayer&quot;:true}" fill-rule="nonzero" stroke-linecap="butt" stroke-linejoin="miter" stroke-miterlimit="10" stroke-dasharray="" stroke-dashoffset="0" style="mix-blend-mode: normal"><path d="M33.99698,359.35608l16,-18l16,18z" fill="#000000" stroke="#fffee0" stroke-width="2"/><path d="M1.99698,359.35608l16,-18l16,18z" fill="#000000" stroke="#fffee0" stroke-width="2"/><path d="M97.99698,359.35608l16,-18l16,18z" fill="#000000" stroke="#fffee0" stroke-width="2"/><path d="M65.99698,359.35608l16,-18l16,18z" fill="#000000" stroke="#fffee0" stroke-width="2"/><path d="M161.99698,359.35608l16,-18l16,18z" fill="#000000" stroke="#fffee0" stroke-width="2"/><path d="M129.99698,359.35608l16,-18l16,18z" fill="#000000" stroke="#fffee0" stroke-width="2"/><path d="M225.99698,359.35608l16,-18l16,18z" fill="#000000" stroke="#fffee0" stroke-width="2"/><path d="M193.99698,359.35608l16,-18l16,18z" fill="#000000" stroke="#fffee0" stroke-width="2"/><path d="M289.99698,359.35608l16,-18l16,18z" fill="#000000" stroke="#fffee0" stroke-width="2"/><path d="M257.99698,359.35608l16,-18l16,18z" fill="#000000" stroke="#fffee0" stroke-width="2"/><path d="M353.99698,359.35608l16,-18l16,18z" fill="#000000" stroke="#fffee0" stroke-width="2"/><path d="M321.99698,359.35608l16,-18l16,18z" fill="#000000" stroke="#fffee0" stroke-width="2"/><path d="M417.99698,359.35608l16,-18l16,18z" fill="#000000" stroke="#fffee0" stroke-width="2"/><path d="M385.99698,359.35608l16,-18l16,18z" fill="#000000" stroke="#fffee0" stroke-width="2"/><path d="M449.99698,359.35608l16,-18l16,18z" fill="#000000" stroke="#fffee0" stroke-width="2"/><path d="M-50.54054,-4.68468v-33.03303h576.57657v33.03304z" fill="none" stroke="none" stroke-width="NaN"/><g fill="none" stroke="none" stroke-width="1" font-family="sans-serif" font-weight="normal" font-size="12" text-anchor="start"><g><g/></g><g/><g/></g><path d="M-1.90659,360v-32h32v32z" fill="#000000" stroke="#ffffff" stroke-width="2"/><path d="M27.50316,326.70771c-1.4,1.1 -28.7,0.9 -29.6,0c0,-4.1 6.6,-7.4 14.8,-7.4c8.2,0 14.8,3.3 14.8,7.4z" fill="#fbff00" stroke="#fffdbd" stroke-width="1.9"/><g stroke="#fffdbd" stroke-width="2"><path d="M198.15193,247.46854c0,-7.5 6,-13.5 13.5,-13.5c7.5,0 13.5,6 13.5,13.5c0,7.5 -6,13.5 -13.5,13.5c-7.5,0 -13.5,-6 -13.5,-13.5z" fill="none"/><path d="M202.65193,247.46854c0,-5 4,-9 9,-9c5,0 9,4 9,9c0,5 -4,9 -9,9c-5,0 -9,-4 -9,-9z" fill="#fbf300"/></g><g><path d="M326.19095,192.92862v-6.3h10v6.3z" fill="#000000" stroke="none" stroke-width="0"/><path d="M301.59095,192.92862v-6.3h5.5v6.3z" fill="#000000" stroke="none" stroke-width="0"/><path d="M302.39095,185.12862v-6.3h5.5v6.3z" fill="#000000" stroke="none" stroke-width="0"/><path d="M303.79095,177.02862v-6h5.5v6z" fill="#000000" stroke="none" stroke-width="0"/><path d="M305.99095,169.82862v-5.1h5.5v5.1z" fill="#000000" stroke="none" stroke-width="0"/><path d="M307.89095,163.72862v-3.5h5.5v3.5z" fill="#000000" stroke="none" stroke-width="0"/><path d="M325.39095,184.82862v-5.8h10v5.8z" fill="#000000" stroke="none" stroke-width="0"/><path d="M324.09095,177.52862v-6h10v6z" fill="#000000" stroke="none" stroke-width="0"/><path d="M321.19095,169.82862v-5h10v5z" fill="#000000" stroke="none" stroke-width="0"/><path d="M318.79095,163.72862v-3.1h10v3.1z" fill="#000000" stroke="none" stroke-width="0"/><path d="M315.49095,159.52862v-2.4h10v2.4z" fill="#000000" stroke="none" stroke-width="0"/><path d="M311.19095,156.52862v-1.6h10v1.6z" fill="#000000" stroke="none" stroke-width="0"/><path d="M325.39095,200.42862v-5.8h10v5.8z" fill="#000000" stroke="none" stroke-width="0"/><path d="M324.09095,207.92862v-6h10v6z" fill="#000000" stroke="none" stroke-width="0"/><path d="M321.19095,214.62862v-5h10v5z" fill="#000000" stroke="none" stroke-width="0"/><path d="M318.79095,218.82862v-3.1h10v3.1z" fill="#000000" stroke="none" stroke-width="0"/><path d="M315.49095,222.32862v-2.4h10v2.4z" fill="#000000" stroke="none" stroke-width="0"/><path d="M311.19095,224.52862v-1.6h10v1.6z" fill="#000000" stroke="none" stroke-width="0"/><path d="M302.39095,200.72862v-6.3h5.5v6.3z" fill="#000000" stroke="none" stroke-width="0"/><path d="M303.79095,208.32862v-6h5.5v6z" fill="#000000" stroke="none" stroke-width="0"/><path d="M305.99095,214.72862v-5.1h5.5v5.1z" fill="#000000" stroke="none" stroke-width="0"/><path d="M307.89095,219.22862v-3.5h5.5v3.5z" fill="#000000" stroke="none" stroke-width="0"/><path d="M313.39095,160.22862c-4.8,0 -8.8,13.3 -8.8,29.7c0,16.4 3.9,29.7 8.8,29.7c4.9,0 8.8,-13.3 8.8,-29.7c0,-16.4 -3.9,-29.7 -8.8,-29.7zM326.29095,189.92862c0,20 -5.7,36.3 -12.8,36.3c-7.1,0 -12.9,-16.2 -12.9,-36.2c0,-20 5.8,-36.3 12.9,-36.3c7.1,0 12.8,16.2 12.8,36.3v0z" fill="#ffed48" stroke="none" stroke-width="0"/><path d="M326.29095,190.02862c0,20 -5.7,36.3 -12.8,36.3c-7.1,0 -12.9,-16.3 -12.9,-36.3c0,-20 5.8,-36.3 12.9,-36.3c7.1,0 12.8,16.2 12.8,36.3z" fill="none" stroke="#fffecc" stroke-width="1.9"/></g><path d="M288,138v-32h32v32z" fill="#000000" stroke="#ffffff" stroke-width="2"/><path d="M320,138v-32h32v32z" fill="#000000" stroke="#ffffff" stroke-width="2"/><path d="M352,138v-32h32v32z" fill="#000000" stroke="#ffffff" stroke-width="2"/><path d="M384,138v-32h32v32z" fill="#000000" stroke="#ffffff" stroke-width="2"/><path d="M416,138v-32h32v32z" fill="#000000" stroke="#ffffff" stroke-width="2"/><path d="M448,138v-32h32v32z" fill="#000000" stroke="#ffffff" stroke-width="2"/></g></g></svg>