<svg version="1.1" xmlns="http://www.w3.org/2000/svg" xmlns:xlink="http://www.w3.org/1999/xlink" width="576.57657" height="399.81806" viewBox="0,0,576.57657,399.81806"><g transform="translate(50.54054,37.71771)"><g data-paper-data="{&quot;isPaintingLayer&quot;:true}" fill-rule="nonzero" stroke-linecap="butt" stroke-linejoin="miter" stroke-miterlimit="10" stroke-dasharray="" stroke-dashoffset="0" style="mix-blend-mode: normal"><g data-paper-data="{&quot;index&quot;:null}" stroke="none" stroke-width="0"><path d="M76.43296,237.84769l3.8,52.3h-7.7l3.8,-52.3z" fill="#000000"/><path d="M70.73296,239.54769c0,-3.1 2.5,-5.7 5.7,-5.7c3.2,0 5.7,2.5 5.7,5.7c0,3.2 -2.5,5.7 -5.7,5.7c-3.2,0 -5.7,-2.5 -5.7,-5.7z" fill="#ff00de"/></g><g data-paper-data="{&quot;index&quot;:null}" stroke="none" stroke-width="0"><path d="M76.33296,169.02615l-3.8,-52.3h7.7l-3.8,52.3z" fill="#000000"/><path d="M76.43296,161.62615c3.2,0 5.7,2.5 5.7,5.7c0,3.2 -2.5,5.7 -5.7,5.7c-3.2,0 -5.7,-2.6 -5.7,-5.7c0,-3.2 2.5,-5.7 5.7,-5.7z" fill="#ff00de"/></g><path d="M-50.54054,-4.68468v-33.03303h576.57657v33.03304z" fill="none" stroke="none" stroke-width="NaN"/><path d="M-50.54054,-4.68467v-33.03304h576.57657v33.03303z" data-paper-data="{&quot;index&quot;:null}" fill="none" stroke="none" stroke-width="NaN"/><path d="M123.49549,138v-32h32v32z" data-paper-data="{&quot;index&quot;:null}" fill="#000000" stroke="#ffffff" stroke-width="2"/><path d="M91.49549,138v-32h32v32z" data-paper-data="{&quot;index&quot;:null}" fill="#000000" stroke="#ffffff" stroke-width="2"/><path d="M59.49549,138v-32h32v32z" data-paper-data="{&quot;index&quot;:null}" fill="#000000" stroke="#ffffff" stroke-width="2"/><path d="M27.49549,138v-32h32v32z" data-paper-data="{&quot;index&quot;:null}" fill="#000000" stroke="#ffffff" stroke-width="2"/><path d="M-4.50451,138v-32h32v32z" data-paper-data="{&quot;index&quot;:null}" fill="#000000" stroke="#ffffff" stroke-width="2"/><path d="M123.49549,297v-32h32v32z" data-paper-data="{&quot;index&quot;:null}" fill="#000000" stroke="#ffffff" stroke-width="2"/><path d="M91.49549,297v-32h32v32z" data-paper-data="{&quot;index&quot;:null}" fill="#000000" stroke="#ffffff" stroke-width="2"/><path d="M59.49549,297v-32h32v32z" data-paper-data="{&quot;index&quot;:null}" fill="#000000" stroke="#ffffff" stroke-width="2"/><path d="M27.49549,297v-32h32v32z" data-paper-data="{&quot;index&quot;:null}" fill="#000000" stroke="#ffffff" stroke-width="2"/><path d="M-4.50451,297v-32h32v32z" data-paper-data="{&quot;index&quot;:null}" fill="#000000" stroke="#ffffff" stroke-width="2"/><g fill="#000000" stroke="#ffffff" stroke-width="2"><path d="M122.54301,74v-32h32v32z" data-paper-data="{&quot;index&quot;:null}"/><path d="M122.54301,106v-32h32v32z" data-paper-data="{&quot;index&quot;:null}"/><path d="M122.54301,138v-32h32v32z" data-paper-data="{&quot;index&quot;:null}"/><path d="M122.54301,297v-32h32v32z" data-paper-data="{&quot;index&quot;:null}"/><path d="M122.54301,329v-32h32v32z" data-paper-data="{&quot;index&quot;:null}"/><path d="M122.54301,360v-32h32v32z" data-paper-data="{&quot;index&quot;:null}"/></g><path d="M448.36916,361.10035l16,-18l16,18z" fill="#000000" stroke="#fffee0" stroke-width="2"/><g><path d="M151.43096,236.61081v0c1.03367,1.26338 -1.14853,1.95249 -1.49308,2.75646c-0.22971,0.57426 -0.80397,0.91882 -1.37823,0.91882h-20.55861c-13.43775,-9.76247 -13.78231,-27.90918 -13.78231,-39.9687c0,-12.05952 -1.03367,-35.03004 14.47143,-40.88752c9.18821,0 11.25555,0.22971 20.55861,0.22971c-1.26338,0.34456 -3.79014,0.68912 -4.82381,1.37823c-1.03367,0 -0.57426,0 -0.80397,0c-4.70896,5.74263 -4.70896,8.49909 -4.70896,8.49909l0.80397,0.22971h-1.49308c-0.45941,1.03367 -0.68912,1.49308 -1.03367,2.64161h4.70896c0.22971,-0.68912 0.22971,-1.03367 0.45941,-1.49308l-1.03367,1.49308c-3.33073,9.18821 0.80397,19.06553 0.80397,27.67948c0,8.61394 -3.21587,16.88333 -0.45941,24.57846v1.60794c-0.22971,-0.11485 -0.22971,-0.22971 -0.22971,-0.45941c-1.83764,0.22971 -2.75646,0.22971 -4.70896,0.22971c0.34456,1.03367 0.57426,1.49308 1.03367,2.52676h0.22971c0.22971,1.03367 1.26338,3.79014 4.47925,7.92483h8.9585zM135.00704,219.72748v0c1.83764,0 2.75646,0 4.70896,0c-0.11485,-1.14853 -0.11485,-1.60794 -0.34456,-2.75646c-1.83764,0 -2.75646,0 -4.70896,0c0.22971,1.14853 0.22971,1.60794 0.45941,2.75646zM133.85852,192.39256v0h4.82381c0,-1.14853 0,-1.72279 0,-2.98617h-4.70896c0,1.14853 0,1.83764 0,2.98617zM133.85852,198.93916v2.52676h4.82381v-2.52676zM134.54763,169.88145h-4.70896c-0.45941,1.03367 -0.68912,1.49308 -1.03367,2.64161h4.70896c0.34456,-1.03367 0.57426,-1.60794 1.03367,-2.64161zM127.08221,179.29937c-0.22971,1.14853 -0.22971,1.72279 -0.45941,2.98617h4.70896c0.22971,-1.14853 0.22971,-1.72279 0.45941,-2.98617zM125.81883,189.40639c0,1.14853 0,1.83764 0,2.98617h4.82381c0,-1.14853 0,-1.72279 0,-2.98617zM125.58913,198.93916v2.52676h4.82381v-2.52676zM125.70398,207.78281c0,1.03367 0,1.60794 0,2.75646h4.70896c0,-1.14853 0,-1.60794 0,-2.75646zM131.21691,216.97102v0c-1.83764,0 -2.75646,0 -4.70896,0c0.22971,1.14853 0.22971,1.72279 0.45941,2.87131c1.83764,0 2.75646,0 4.70896,0c-0.22971,-1.03367 -0.22971,-1.60794 -0.45941,-2.75646zM128.5753,226.38893c0.34456,1.03367 0.57426,1.49308 1.03367,2.52676c1.83764,-0.22971 2.75646,-0.22971 4.70896,-0.22971c-0.45941,-0.91882 -0.68912,-1.49308 -1.03367,-2.52676c-1.83764,0.22971 -2.75646,0.22971 -4.70896,0.22971zM138.56747,210.53927c0,-1.14853 0,-1.72279 0,-2.75646h-4.70896c0,1.14853 0,1.60794 0,2.75646zM135.12189,179.41422c-0.22971,1.14853 -0.22971,1.72279 -0.45941,2.98617h4.70896c0.22971,-1.14853 0.22971,-1.72279 0.45941,-2.98617zM132.82484,164.48338h4.70896c0.57426,-0.91882 0.91882,-1.26338 1.72279,-1.95249h-4.70896c-0.80397,0.68912 -1.03367,1.14853 -1.72279,1.95249zM124.55546,164.48338h4.70896c0.68912,-0.91882 0.91882,-1.26338 1.72279,-1.95249h-4.70896c-0.80397,0.68912 -1.03367,1.14853 -1.72279,1.95249zM120.30591,172.52306h4.70896c0.34456,-1.03367 0.57426,-1.60794 1.03367,-2.64161h-4.70896c-0.45941,1.03367 -0.68912,1.49308 -1.03367,2.64161zM118.12371,182.28553h4.70896c0.22971,-1.14853 0.22971,-1.72279 0.45941,-2.98617h-4.70896c-0.22971,1.14853 -0.22971,1.72279 -0.45941,2.98617zM117.43459,189.40639v0c-0.22971,1.14853 -0.22971,1.83764 -0.22971,2.98617h4.82381c0.22971,-1.14853 0.22971,-1.72279 0.22971,-2.98617h-4.70896zM117.20489,201.46592h4.82381v-2.52676h-4.82381c0,1.03367 0,1.49308 0,2.52676zM117.43459,207.66796v0c0.22971,1.14853 0.22971,1.72279 0.22971,2.87131h4.70896c-0.22971,-1.03367 -0.22971,-1.60794 -0.22971,-2.75646h-4.70896zM118.69797,220.07204c1.83764,0 2.75646,0 4.70896,0c-0.22971,-1.14853 -0.22971,-1.72279 -0.45941,-2.87131c-1.83764,0 -2.75646,0 -4.70896,0c0.22971,1.14853 0.22971,1.72279 0.45941,2.87131zM120.53561,226.38893v0c0.34456,1.14853 0.57426,1.60794 1.03367,2.64161c1.83764,-0.22971 2.75646,-0.22971 4.70896,-0.22971c-0.45941,-0.91882 -0.68912,-1.49308 -1.03367,-2.52676c-1.83764,0.22971 -2.75646,0.22971 -4.70896,0.22971zM126.3931,236.84052v0c1.83764,0 2.75646,0 4.70896,0c-0.80397,-0.80397 -1.03367,-1.37823 -1.72279,-2.1822c-1.83764,0.22971 -2.75646,0.22971 -4.70896,0.22971c0.68912,0.80397 0.91882,1.26338 1.72279,2.06735zM134.54763,236.49596v0c1.83764,0 2.75646,0 4.70896,0c-0.80397,-0.80397 -1.14853,-1.26338 -1.83764,-2.1822c-1.83764,0.22971 -2.75646,0.22971 -4.70896,0.22971c0.57426,0.91882 0.91882,1.37823 1.72279,2.1822z" fill="#000000" stroke="none" stroke-width="0"/><path d="M137.30409,154.2615c0,-1.96637 1.59406,-3.56043 3.56043,-3.56043c1.96637,0 3.56043,1.59406 3.56043,3.56043c0,1.96637 -1.59406,3.56043 -3.56043,3.56043c-1.96637,0 -3.56043,-1.59406 -3.56043,-3.56043z" fill="#2bff50" stroke="#e1ffe5" stroke-width="0.9"/><path d="M137.30409,246.14358c0,-1.96637 1.59406,-3.56043 3.56043,-3.56043c1.96637,0 3.56043,1.59406 3.56043,3.56043c0,1.96637 -1.59406,3.56043 -3.56043,3.56043c-1.96637,0 -3.56043,-1.59406 -3.56043,-3.56043z" fill="#2bff50" stroke="#e1ffe5" stroke-width="0.9"/><path d="M163.60534,200.31739v0c0,21.01803 -3.56043,33.1924 -12.05952,40.31326h-20.44376c9.76247,-12.17438 11.82982,-25.72698 11.82982,-40.65782c0,-14.93084 -1.72279,-29.05771 -11.82982,-40.65782h20.44376c7.92483,6.66145 12.05952,19.98435 12.05952,40.88752zM160.84888,197.21637v0c-0.11485,-2.87131 -0.34456,-5.74263 -0.57426,-8.49909h-3.56043c0.34456,2.75646 0.57426,5.62778 0.57426,8.38424h3.56043zM159.47064,183.20435v0c-0.45941,-2.75646 -1.14853,-5.51292 -1.95249,-8.15453h-3.56043c0.80397,2.64161 1.49308,5.28322 1.95249,8.03968h3.56043zM146.95171,164.48338h-3.56043c0.91882,1.49308 1.83764,3.21587 2.64161,4.93866h3.56043c-0.68912,-1.72279 -1.60794,-3.33073 -2.64161,-4.93866zM151.77552,175.04982h-3.56043c0.80397,2.64161 1.49308,5.28322 1.83764,7.92483h3.56043c-0.57426,-2.64161 -1.14853,-5.39807 -1.95249,-7.92483zM150.74185,188.71728c0.22971,2.75646 0.45941,5.62778 0.45941,8.38424h3.56043c0,-2.75646 -0.22971,-5.62778 -0.45941,-8.38424zM148.4448,188.83213v0h-3.56043c0.11485,2.75646 0.34456,5.51292 0.34456,8.26939h3.56043c-0.11485,-2.87131 -0.22971,-5.62778 -0.45941,-8.38424zM144.88437,210.76898h3.56043c0.22971,-2.64161 0.22971,-5.28322 0.22971,-7.80998h-3.56043c0,2.64161 0,5.28322 -0.22971,7.80998zM150.28244,215.82249v0c-0.34456,2.64161 -0.91882,5.39807 -1.72279,7.80998h3.56043c0.80397,-2.52676 1.37823,-5.16837 1.72279,-7.69512h-3.56043zM150.8567,210.53927h3.56043c0.22971,-2.52676 0.22971,-5.16837 0.22971,-7.69512h-3.56043c0,2.64161 0,5.28322 -0.22971,7.80998zM151.77552,169.42204h3.56043c-0.57426,-1.72279 -1.60794,-3.33073 -2.52676,-4.93866h-3.56043c1.03367,1.49308 1.83764,3.21587 2.64161,4.93866zM139.9457,169.42204h3.56043c-0.68912,-1.72279 -1.60794,-3.44558 -2.64161,-4.93866h-3.56043c1.03367,1.49308 1.95249,3.21587 2.75646,4.93866zM142.35761,175.39438v0c0.80397,2.64161 1.37823,5.28322 1.72279,7.80998h3.56043c-0.45941,-2.75646 -1.03367,-5.39807 -1.83764,-7.92483h-3.56043zM142.58731,223.74732h3.56043c0.80397,-2.52676 1.37823,-5.28322 1.72279,-7.80998h-3.56043c-0.34456,2.64161 -0.91882,5.39807 -1.72279,7.80998zM136.38527,236.38111h3.56043c1.60794,-2.4119 2.98617,-4.70896 4.13469,-7.23571h-3.56043M146.14774,236.38111c1.49308,-2.4119 2.87131,-4.70896 4.01984,-7.23571h-3.56043c-1.14853,2.52676 -2.64161,4.82381 -4.13469,7.23571zM156.02507,229.26025h-3.56043c-1.14853,2.4119 -2.52676,4.70896 -4.01984,7.12086h3.56043c1.60794,-2.29705 2.87131,-4.70896 4.01984,-7.12086zM158.09241,223.51762v0c0.80397,-2.4119 1.37823,-5.05351 1.72279,-7.58027h-3.56043c-0.34456,2.52676 -0.91882,5.28322 -1.72279,7.69512h3.56043zM160.38947,210.65412c0.22971,-2.52676 0.22971,-5.16837 0.22971,-7.69512h-3.56043c0,2.52676 0,5.16837 -0.22971,7.69512z" fill="#000000" stroke="none" stroke-width="0"/><path d="M127.88618,165.86161c-5.51292,0 -10.10703,15.2754 -10.10703,34.11122c0,18.83583 4.47925,34.11122 10.10703,34.11122c5.62778,0 10.10703,-15.2754 10.10703,-34.11122c0,-18.83583 -4.47925,-34.11122 -10.10703,-34.11122zM142.70217,199.97283c0,22.97052 -6.5466,41.69149 -14.70113,41.69149c-8.15453,0 -14.81598,-18.60612 -14.81598,-41.57664c0,-22.97052 6.66145,-41.69149 14.81598,-41.69149c8.15453,0 14.70113,18.60612 14.70113,41.69149v0z" fill="#2bff50" stroke="none" stroke-width="0"/><path d="M142.70217,200.08769c0,22.97052 -6.5466,41.69149 -14.70113,41.69149c-8.15453,0 -14.81598,-18.72097 -14.81598,-41.69149c0,-22.97052 6.66145,-41.69149 14.81598,-41.69149c8.15453,0 14.70113,18.60612 14.70113,41.69149z" fill="none" stroke="#e1ffe5" stroke-width="1.9"/><path d="M150.74185,219.38292c0,-1.96637 1.59406,-3.56043 3.56043,-3.56043c1.96637,0 3.56043,1.59406 3.56043,3.56043c0,1.96637 -1.59406,3.56043 -3.56043,3.56043c-1.96637,0 -3.56043,-1.59406 -3.56043,-3.56043z" fill="#2bff50" stroke="#e1ffe5" stroke-width="0.9"/><path d="M150.74185,179.98848c0,-1.96637 1.59406,-3.56043 3.56043,-3.56043c1.96637,0 3.56043,1.59406 3.56043,3.56043c0,1.96637 -1.59406,3.56043 -3.56043,3.56043c-1.96637,0 -3.56043,-1.59406 -3.56043,-3.56043z" fill="#2bff50" stroke="#e1ffe5" stroke-width="0.9"/></g><g><path d="M141.35233,203.23728v-7.23571h11.48526v7.23571z" fill="#000000" stroke="none" stroke-width="0"/><path d="M113.21344,203.23728v-7.23571h6.31689v7.23571z" fill="#000000" stroke="none" stroke-width="0"/><path d="M114.01741,194.27877v-7.23571h6.31689v7.23571z" fill="#000000" stroke="none" stroke-width="0"/><path d="M115.7402,184.97571v-6.89116h6.31689v6.89116z" fill="#000000" stroke="none" stroke-width="0"/><path d="M118.1521,176.70633v-5.85748h6.31689v5.85748z" fill="#000000" stroke="none" stroke-width="0"/><path d="M120.3343,169.70032v-4.01984h6.31689v4.01984z" fill="#000000" stroke="none" stroke-width="0"/><path d="M140.54836,193.93422v-6.66145h11.48526v6.66145z" fill="#000000" stroke="none" stroke-width="0"/><path d="M138.94042,185.54998v-6.89116h11.48526v6.89116z" fill="#000000" stroke="none" stroke-width="0"/><path d="M135.6097,176.70633v-5.74263h11.48526v5.74263z" fill="#000000" stroke="none" stroke-width="0"/><path d="M132.85323,169.70032v-3.56043h11.48526v3.56043z" fill="#000000" stroke="none" stroke-width="0"/><path d="M129.0631,164.87651v-2.75646h11.48526v2.75646z" fill="#000000" stroke="none" stroke-width="0"/><path d="M124.12444,161.43093v-1.83764h11.48526v1.83764z" fill="#000000" stroke="none" stroke-width="0"/><path d="M140.54836,211.85122v-6.66145h11.48526v6.66145z" fill="#000000" stroke="none" stroke-width="0"/><path d="M138.94042,220.46517v-6.89116h11.48526v6.89116z" fill="#000000" stroke="none" stroke-width="0"/><path d="M135.6097,228.16029v-5.74263h11.48526v5.74263z" fill="#000000" stroke="none" stroke-width="0"/><path d="M132.85323,232.9841v-3.56043h11.48526v3.56043z" fill="#000000" stroke="none" stroke-width="0"/><path d="M129.0631,237.00394v-2.75646h11.48526v2.75646z" fill="#000000" stroke="none" stroke-width="0"/><path d="M124.12444,239.5307v-1.83764h11.48526v1.83764z" fill="#000000" stroke="none" stroke-width="0"/><path d="M114.01741,212.19578v-7.23571h6.31689v7.23571z" fill="#000000" stroke="none" stroke-width="0"/><path d="M115.7402,220.92458v-6.89116h6.31689v6.89116z" fill="#000000" stroke="none" stroke-width="0"/><path d="M118.1521,228.27514v-5.85748h6.31689v5.85748z" fill="#000000" stroke="none" stroke-width="0"/><path d="M120.3343,233.44351v-4.01984h6.31689v4.01984z" fill="#000000" stroke="none" stroke-width="0"/><path d="M126.76605,165.68048c-5.51292,0 -10.10703,15.2754 -10.10703,34.11122c0,18.83583 4.47925,34.11122 10.10703,34.11122c5.62778,0 10.10703,-15.2754 10.10703,-34.11122c0,-18.83583 -4.47925,-34.11122 -10.10703,-34.11122zM141.46718,199.7917c0,22.97052 -6.5466,41.69149 -14.70113,41.69149c-8.15453,0 -14.81598,-18.60612 -14.81598,-41.57664c0,-22.97052 6.66145,-41.69149 14.81598,-41.69149c8.15453,0 14.70113,18.60612 14.70113,41.69149v0z" fill="#69f4ff" stroke="none" stroke-width="0"/><path d="M141.46718,199.90655c0,22.97052 -6.5466,41.69149 -14.70113,41.69149c-8.15453,0 -14.81598,-18.72097 -14.81598,-41.69149c0,-22.97052 6.66145,-41.69149 14.81598,-41.69149c8.15453,0 14.70113,18.60612 14.70113,41.69149z" fill="none" stroke="#e9fcff" stroke-width="1.9"/></g></g></g></svg>