<svg version="1.1" xmlns="http://www.w3.org/2000/svg" xmlns:xlink="http://www.w3.org/1999/xlink" width="576.57657" height="399.08769" viewBox="0,0,576.57657,399.08769"><g transform="translate(50.54054,37.71771)"><g data-paper-data="{&quot;isPaintingLayer&quot;:true}" fill-rule="nonzero" stroke-linecap="butt" stroke-linejoin="miter" stroke-miterlimit="10" stroke-dasharray="" stroke-dashoffset="0" style="mix-blend-mode: normal"><path d="M-50.54054,-4.68468v-33.03303h576.57657v33.03304z" fill="none" stroke="none" stroke-width="NaN"/><path d="M29.99413,138v-32h32v32z" data-paper-data="{&quot;index&quot;:null}" fill="#000000" stroke="#ffffff" stroke-width="2"/><path d="M-2.00587,138v-32h32v32z" data-paper-data="{&quot;index&quot;:null}" fill="#000000" stroke="#ffffff" stroke-width="2"/><path d="M29.99413,297v-32h32v32z" data-paper-data="{&quot;index&quot;:null}" fill="#000000" stroke="#ffffff" stroke-width="2"/><path d="M-2.00587,297v-32h32v32z" data-paper-data="{&quot;index&quot;:null}" fill="#000000" stroke="#ffffff" stroke-width="2"/><g fill="#000000" stroke-width="2"><path d="M128.13438,41.97443l-16,28.6l-16,-28.6z" data-paper-data="{&quot;index&quot;:null}" stroke="#fffee0"/><path d="M96.13438,358.57443l16,-28.6l16,28.6z" data-paper-data="{&quot;index&quot;:null}" stroke="#fffee0"/><path d="M94.12851,74v-32h32v32z" data-paper-data="{&quot;index&quot;:null}" stroke="#ffffff"/><path d="M94.12851,106v-32h32v32z" data-paper-data="{&quot;index&quot;:null}" stroke="#ffffff"/><path d="M94.12851,138v-32h32v32z" data-paper-data="{&quot;index&quot;:null}" stroke="#ffffff"/><path d="M62.12851,138v-32h32v32z" data-paper-data="{&quot;index&quot;:null}" stroke="#ffffff"/><path d="M94.12851,297v-32h32v32z" data-paper-data="{&quot;index&quot;:null}" stroke="#ffffff"/><path d="M62.12851,297v-32h32v32z" data-paper-data="{&quot;index&quot;:null}" stroke="#ffffff"/><path d="M94.12851,329v-32h32v32z" data-paper-data="{&quot;index&quot;:null}" stroke="#ffffff"/><path d="M94.12851,360v-32h32v32z" data-paper-data="{&quot;index&quot;:null}" stroke="#ffffff"/></g><path d="M30.68187,265.24336l16,-18l16,18z" data-paper-data="{&quot;index&quot;:null}" fill="#000000" stroke="#fffee0" stroke-width="2"/><path d="M-1.31813,265.24336l16,-18l16,18z" data-paper-data="{&quot;index&quot;:null}" fill="#000000" stroke="#fffee0" stroke-width="2"/><path d="M94.68187,265.24336l16,-18l16,18z" data-paper-data="{&quot;index&quot;:null}" fill="#000000" stroke="#fffee0" stroke-width="2"/><path d="M62.68187,265.24336l16,-18l16,18z" data-paper-data="{&quot;index&quot;:null}" fill="#000000" stroke="#fffee0" stroke-width="2"/><g><path d="M159.9895,225.33413v0c0.9,1.1 -1,1.7 -1.3,2.4c-0.2,0.5 -0.7,0.8 -1.2,0.8h-17.9c-11.7,-8.5 -12,-24.3 -12,-34.8c0,-10.5 -0.9,-30.5 12.6,-35.6c8,0 9.8,0.2 17.9,0.2c-1.1,0.3 -3.3,0.6 -4.2,1.2c-0.9,0 -0.5,0 -0.7,0c-4.1,5 -4.1,7.4 -4.1,7.4l0.7,0.2h-1.3c-0.4,0.9 -0.6,1.3 -0.9,2.3h4.1c0.2,-0.6 0.2,-0.9 0.4,-1.3l-0.9,1.3c-2.9,8 0.7,16.6 0.7,24.1c0,7.5 -2.8,14.7 -0.4,21.4v1.4c-0.2,-0.1 -0.2,-0.2 -0.2,-0.4c-1.6,0.2 -2.4,0.2 -4.1,0.2c0.3,0.9 0.5,1.3 0.9,2.2h0.2c0.2,0.9 1.1,3.3 3.9,6.9h7.8zM145.6895,210.63412v0c1.6,0 2.4,0 4.1,0c-0.1,-1 -0.1,-1.4 -0.3,-2.4c-1.6,0 -2.4,0 -4.1,0c0.2,1 0.2,1.4 0.4,2.4zM144.6895,186.83413v0h4.2c0,-1 0,-1.5 0,-2.6h-4.1c0,1 0,1.6 0,2.6zM144.6895,192.53413v2.2h4.2v-2.2zM145.2895,167.23413h-4.1c-0.4,0.9 -0.6,1.3 -0.9,2.3h4.1c0.3,-0.9 0.5,-1.4 0.9,-2.3zM138.7895,175.43413c-0.2,1 -0.2,1.5 -0.4,2.6h4.1c0.2,-1 0.2,-1.5 0.4,-2.6zM137.6895,184.23413c0,1 0,1.6 0,2.6h4.2c0,-1 0,-1.5 0,-2.6zM137.4895,192.53413v2.2h4.2v-2.2zM137.5895,200.23413c0,0.9 0,1.4 0,2.4h4.1c0,-1 0,-1.4 0,-2.4zM142.3895,208.23413v0c-1.6,0 -2.4,0 -4.1,0c0.2,1 0.2,1.5 0.4,2.5c1.6,0 2.4,0 4.1,0c-0.2,-0.9 -0.2,-1.4 -0.4,-2.4zM140.0895,216.43413c0.3,0.9 0.5,1.3 0.9,2.2c1.6,-0.2 2.4,-0.2 4.1,-0.2c-0.4,-0.8 -0.6,-1.3 -0.9,-2.2c-1.6,0.2 -2.4,0.2 -4.1,0.2zM148.7895,202.63412c0,-1 0,-1.5 0,-2.4h-4.1c0,1 0,1.4 0,2.4zM145.7895,175.53413c-0.2,1 -0.2,1.5 -0.4,2.6h4.1c0.2,-1 0.2,-1.5 0.4,-2.6zM143.7895,162.53413h4.1c0.5,-0.8 0.8,-1.1 1.5,-1.7h-4.1c-0.7,0.6 -0.9,1 -1.5,1.7zM136.5895,162.53413h4.1c0.6,-0.8 0.8,-1.1 1.5,-1.7h-4.1c-0.7,0.6 -0.9,1 -1.5,1.7zM132.8895,169.53413h4.1c0.3,-0.9 0.5,-1.4 0.9,-2.3h-4.1c-0.4,0.9 -0.6,1.3 -0.9,2.3zM130.9895,178.03413h4.1c0.2,-1 0.2,-1.5 0.4,-2.6h-4.1c-0.2,1 -0.2,1.5 -0.4,2.6zM130.3895,184.23413v0c-0.2,1 -0.2,1.6 -0.2,2.6h4.2c0.2,-1 0.2,-1.5 0.2,-2.6h-4.1zM130.1895,194.73413h4.2v-2.2h-4.2c0,0.9 0,1.3 0,2.2zM130.3895,200.13412v0c0.2,1 0.2,1.5 0.2,2.5h4.1c-0.2,-0.9 -0.2,-1.4 -0.2,-2.4h-4.1zM131.4895,210.93413c1.6,0 2.4,0 4.1,0c-0.2,-1 -0.2,-1.5 -0.4,-2.5c-1.6,0 -2.4,0 -4.1,0c0.2,1 0.2,1.5 0.4,2.5zM133.0895,216.43413v0c0.3,1 0.5,1.4 0.9,2.3c1.6,-0.2 2.4,-0.2 4.1,-0.2c-0.4,-0.8 -0.6,-1.3 -0.9,-2.2c-1.6,0.2 -2.4,0.2 -4.1,0.2zM138.1895,225.53413v0c1.6,0 2.4,0 4.1,0c-0.7,-0.7 -0.9,-1.2 -1.5,-1.9c-1.6,0.2 -2.4,0.2 -4.1,0.2c0.6,0.7 0.8,1.1 1.5,1.8zM145.2895,225.23413v0c1.6,0 2.4,0 4.1,0c-0.7,-0.7 -1,-1.1 -1.6,-1.9c-1.6,0.2 -2.4,0.2 -4.1,0.2c0.5,0.8 0.8,1.2 1.5,1.9z" fill="#000000" stroke="none" stroke-width="0"/><path d="M147.6895,153.63413c0,-1.71208 1.38792,-3.1 3.1,-3.1c1.71208,0 3.1,1.38792 3.1,3.1c0,1.71208 -1.38792,3.1 -3.1,3.1c-1.71208,0 -3.1,-1.38792 -3.1,-3.1z" fill="#2bff50" stroke="#e1ffe5" stroke-width="0.9"/><path d="M147.6895,233.63413c0,-1.71208 1.38792,-3.1 3.1,-3.1c1.71208,0 3.1,1.38792 3.1,3.1c0,1.71208 -1.38792,3.1 -3.1,3.1c-1.71208,0 -3.1,-1.38792 -3.1,-3.1z" fill="#2bff50" stroke="#e1ffe5" stroke-width="0.9"/><path d="M170.5895,193.73413v0c0,18.3 -3.1,28.9 -10.5,35.1h-17.8c8.5,-10.6 10.3,-22.4 10.3,-35.4c0,-13 -1.5,-25.3 -10.3,-35.4h17.8c6.9,5.8 10.5,17.4 10.5,35.6zM168.1895,191.03413v0c-0.1,-2.5 -0.3,-5 -0.5,-7.4h-3.1c0.3,2.4 0.5,4.9 0.5,7.3h3.1zM166.9895,178.83413v0c-0.4,-2.4 -1,-4.8 -1.7,-7.1h-3.1c0.7,2.3 1.3,4.6 1.7,7h3.1zM156.0895,162.53413h-3.1c0.8,1.3 1.6,2.8 2.3,4.3h3.1c-0.6,-1.5 -1.4,-2.9 -2.3,-4.3zM160.2895,171.73413h-3.1c0.7,2.3 1.3,4.6 1.6,6.9h3.1c-0.5,-2.3 -1,-4.7 -1.7,-6.9zM159.3895,183.63413c0.2,2.4 0.4,4.9 0.4,7.3h3.1c0,-2.4 -0.2,-4.9 -0.4,-7.3zM157.3895,183.73413v0h-3.1c0.1,2.4 0.3,4.8 0.3,7.2h3.1c-0.1,-2.5 -0.2,-4.9 -0.4,-7.3zM154.2895,202.83413h3.1c0.2,-2.3 0.2,-4.6 0.2,-6.8h-3.1c0,2.3 0,4.6 -0.2,6.8zM158.9895,207.23413v0c-0.3,2.3 -0.8,4.7 -1.5,6.8h3.1c0.7,-2.2 1.2,-4.5 1.5,-6.7h-3.1zM159.4895,202.63412h3.1c0.2,-2.2 0.2,-4.5 0.2,-6.7h-3.1c0,2.3 0,4.6 -0.2,6.8zM160.2895,166.83413h3.1c-0.5,-1.5 -1.4,-2.9 -2.2,-4.3h-3.1c0.9,1.3 1.6,2.8 2.3,4.3zM149.9895,166.83413h3.1c-0.6,-1.5 -1.4,-3 -2.3,-4.3h-3.1c0.9,1.3 1.7,2.8 2.4,4.3zM152.0895,172.03413v0c0.7,2.3 1.2,4.6 1.5,6.8h3.1c-0.4,-2.4 -0.9,-4.7 -1.6,-6.9h-3.1zM152.2895,214.13413h3.1c0.7,-2.2 1.2,-4.6 1.5,-6.8h-3.1c-0.3,2.3 -0.8,4.7 -1.5,6.8zM146.8895,225.13413h3.1c1.4,-2.1 2.6,-4.1 3.6,-6.3h-3.1M155.3895,225.13413c1.3,-2.1 2.5,-4.1 3.5,-6.3h-3.1c-1,2.2 -2.3,4.2 -3.6,6.3zM163.9895,218.93413h-3.1c-1,2.1 -2.2,4.1 -3.5,6.2h3.1c1.4,-2 2.5,-4.1 3.5,-6.2zM165.7895,213.93413v0c0.7,-2.1 1.2,-4.4 1.5,-6.6h-3.1c-0.3,2.2 -0.8,4.6 -1.5,6.7h3.1zM167.7895,202.73413c0.2,-2.2 0.2,-4.5 0.2,-6.7h-3.1c0,2.2 0,4.5 -0.2,6.7z" fill="#000000" stroke="none" stroke-width="0"/><path d="M139.4895,163.73413c-4.8,0 -8.8,13.3 -8.8,29.7c0,16.4 3.9,29.7 8.8,29.7c4.9,0 8.8,-13.3 8.8,-29.7c0,-16.4 -3.9,-29.7 -8.8,-29.7zM152.3895,193.43413c0,20 -5.7,36.3 -12.8,36.3c-7.1,0 -12.9,-16.2 -12.9,-36.2c0,-20 5.8,-36.3 12.9,-36.3c7.1,0 12.8,16.2 12.8,36.3v0z" fill="#2bff50" stroke="none" stroke-width="0"/><path d="M152.3895,193.53413c0,20 -5.7,36.3 -12.8,36.3c-7.1,0 -12.9,-16.3 -12.9,-36.3c0,-20 5.8,-36.3 12.9,-36.3c7.1,0 12.8,16.2 12.8,36.3z" fill="none" stroke="#e1ffe5" stroke-width="1.9"/><path d="M159.3895,210.33413c0,-1.71208 1.38792,-3.1 3.1,-3.1c1.71208,0 3.1,1.38792 3.1,3.1c0,1.71208 -1.38792,3.1 -3.1,3.1c-1.71208,0 -3.1,-1.38792 -3.1,-3.1z" fill="#2bff50" stroke="#e1ffe5" stroke-width="0.9"/><path d="M159.3895,176.03413c0,-1.71208 1.38792,-3.1 3.1,-3.1c1.71208,0 3.1,1.38792 3.1,3.1c0,1.71208 -1.38792,3.1 -3.1,3.1c-1.71208,0 -3.1,-1.38792 -3.1,-3.1z" fill="#2bff50" stroke="#e1ffe5" stroke-width="0.9"/></g><path d="M391.77063,360.36998l16,-28.6l16,28.6z" fill="#000000" stroke="#fffee0" stroke-width="2"/></g></g></svg>