<svg version="1.1" xmlns="http://www.w3.org/2000/svg" xmlns:xlink="http://www.w3.org/1999/xlink" width="576.57657" height="399.77907" viewBox="0,0,576.57657,399.77907"><g transform="translate(50.54054,37.71771)"><g data-paper-data="{&quot;isPaintingLayer&quot;:true}" fill-rule="nonzero" stroke-linecap="butt" stroke-linejoin="miter" stroke-miterlimit="10" stroke-dasharray="" stroke-dashoffset="0" style="mix-blend-mode: normal"><g><path d="M32.3885,334.1l10.9,24h-21.8z" fill="#ff00de" stroke="#fffee0" stroke-width="2"/><path d="M61.3885,338.5l10.9,21.7h-21.8z" fill="#ff00de" stroke="#fffee0" stroke-width="2"/><path d="M16.8885,348.8l11.2,10.3h-22.3l11.2,-10.3z" fill="#000000" stroke="none" stroke-width="0"/><path d="M44.8885,347.8l11.2,10.3h-22.3l11.2,-10.3z" fill="#000000" stroke="none" stroke-width="0"/><path d="M26.3885,343.8l7,13.7h-14z" fill="#000000" stroke="none" stroke-width="0"/><path d="M53.0885,343.1l7,15h-14z" fill="#000000" stroke="none" stroke-width="0"/><path d="M77.08849,344.1l7,14h-14z" fill="#000000" stroke="none" stroke-width="0"/><path d="M7.3885,348.8l7,10.3h-14z" fill="#000000" stroke="none" stroke-width="0"/><path d="M59.3885,349.1l7,10.3h-14z" fill="#000000" stroke="none" stroke-width="0"/><path d="M36.0885,349.5l13,10.3h-26z" fill="#000000" stroke="none" stroke-width="0"/><path d="M87.7885,349.5l13,10.3h-26z" fill="#000000" stroke="none" stroke-width="0"/><path d="M68.3885,348.1l13,10.3h-26z" fill="#000000" stroke="none" stroke-width="0"/><path d="M9.3885,360.5v-4.2h83.6v4.2z" fill="#000000" stroke="none" stroke-width="0"/></g><g><path d="M140.48281,354.46136h-21.8l10.9,-24z" fill="#ff00de" stroke="#fffee0" stroke-width="2"/><path d="M164.48281,361.06136h-21.8l10.9,-24z" fill="#ff00de" stroke="#fffee0" stroke-width="2"/><path d="M126.48281,359.76136h-21.8l10.9,-24z" fill="#ff00de" stroke="#fffee0" stroke-width="2"/><path d="M102.78281,359.26136h-21.8l10.9,-20.2z" fill="#ff00de" stroke="#fffee0" stroke-width="2"/><path d="M162.48281,359.76136h-22.3l11.2,-10.3l11.2,10.3z" fill="#000000" stroke="none" stroke-width="0"/><path d="M135.48281,357.76136h-22.3l11.2,-10.3l11.2,10.3z" fill="#000000" stroke="none" stroke-width="0"/><path d="M149.78281,357.06136h-14l7,-13.7z" fill="#000000" stroke="none" stroke-width="0"/><path d="M179.68281,359.26136h-22.3l11.2,-10.3l11.2,10.3z" fill="#000000" stroke="none" stroke-width="0"/><path d="M167.08281,358.56136h-14l7,-11.8z" fill="#000000" stroke="none" stroke-width="0"/><path d="M123.08281,357.76136h-14l7,-12.4z" fill="#000000" stroke="none" stroke-width="0"/><path d="M103.08281,357.76136h-14l7,-14z" fill="#000000" stroke="none" stroke-width="0"/><path d="M116.78281,359.06136h-14l7,-10.3z" fill="#000000" stroke="none" stroke-width="0"/><path d="M146.08281,359.46136h-26l13,-10.3z" fill="#000000" stroke="none" stroke-width="0"/><path d="M99.48281,359.46136h-26l13,-10.3z" fill="#000000" stroke="none" stroke-width="0"/><path d="M114.78281,358.06136h-26l13,-10.3z" fill="#000000" stroke="none" stroke-width="0"/><path d="M86.98281,359.36136v-3.1h70.5v3.1z" fill="#000000" stroke="none" stroke-width="0"/></g><g><path d="M233.63109,354.46136h-21.8l10.9,-24z" fill="#ff00de" stroke="#fffee0" stroke-width="2"/><path d="M257.63109,361.06136h-21.8l10.9,-24z" fill="#ff00de" stroke="#fffee0" stroke-width="2"/><path d="M219.63109,359.76136h-21.8l10.9,-24z" fill="#ff00de" stroke="#fffee0" stroke-width="2"/><path d="M195.93109,359.26136h-21.8l10.9,-20.2z" fill="#ff00de" stroke="#fffee0" stroke-width="2"/><path d="M255.63109,359.76136h-22.3l11.2,-10.3l11.2,10.3z" fill="#000000" stroke="none" stroke-width="0"/><path d="M228.63109,357.76136h-22.3l11.2,-10.3l11.2,10.3z" fill="#000000" stroke="none" stroke-width="0"/><path d="M242.93109,357.06136h-14l7,-13.7z" fill="#000000" stroke="none" stroke-width="0"/><path d="M272.83109,359.26136h-22.3l11.2,-10.3l11.2,10.3z" fill="#000000" stroke="none" stroke-width="0"/><path d="M260.23109,358.56136h-14l7,-11.8z" fill="#000000" stroke="none" stroke-width="0"/><path d="M216.23109,357.76136h-14l7,-12.4z" fill="#000000" stroke="none" stroke-width="0"/><path d="M196.23109,357.76136h-14l7,-14z" fill="#000000" stroke="none" stroke-width="0"/><path d="M209.93109,359.06136h-14l7,-10.3z" fill="#000000" stroke="none" stroke-width="0"/><path d="M239.23109,359.46136h-26l13,-10.3z" fill="#000000" stroke="none" stroke-width="0"/><path d="M192.63109,359.46136h-26l13,-10.3z" fill="#000000" stroke="none" stroke-width="0"/><path d="M207.93109,358.06136h-26l13,-10.3z" fill="#000000" stroke="none" stroke-width="0"/><path d="M180.13109,359.36136v-3.1h70.5v3.1z" fill="#000000" stroke="none" stroke-width="0"/></g><path d="M-50.54054,-4.68468v-33.03303h576.57657v33.03304z" fill="none" stroke="none" stroke-width="NaN"/><path d="M160,265v-32h32v32z" fill="#000000" stroke="#ffffff" stroke-width="2"/><path d="M160,297v-32h32v32z" fill="#000000" stroke="#ffffff" stroke-width="2"/><path d="M160,329v-32h32v32z" fill="#000000" stroke="#ffffff" stroke-width="2"/><path d="M160,360v-32h32v32z" fill="#000000" stroke="#ffffff" stroke-width="2"/><g stroke="#fffdbd" stroke-width="2"><path d="M59.768,254.34943c0,-7.5 6,-13.5 13.5,-13.5c7.5,0 13.5,6 13.5,13.5c0,7.5 -6,13.5 -13.5,13.5c-7.5,0 -13.5,-6 -13.5,-13.5z" fill="none"/><path d="M64.268,254.34943c0,-5 4,-9 9,-9c5,0 9,4 9,9c0,5 -4,9 -9,9c-5,0 -9,-4 -9,-9z" fill="#fbf300"/></g><path d="M256,297v-32h32v32z" fill="#000000" stroke="#ffffff" stroke-width="2"/><path d="M288,297v-32h32v32z" fill="#000000" stroke="#ffffff" stroke-width="2"/><path d="M320,297v-32h32v32z" fill="#000000" stroke="#ffffff" stroke-width="2"/><path d="M352,297v-32h32v32z" fill="#000000" stroke="#ffffff" stroke-width="2"/><path d="M384,297v-32h32v32z" fill="#000000" stroke="#ffffff" stroke-width="2"/><path d="M416,297v-32h32v32z" fill="#000000" stroke="#ffffff" stroke-width="2"/><path d="M448,297v-32h32v32z" fill="#000000" stroke="#ffffff" stroke-width="2"/><path d="M256,329v-32h32v32z" fill="#000000" stroke="#ffffff" stroke-width="2"/><path d="M256,360v-32h32v32z" fill="#000000" stroke="#ffffff" stroke-width="2"/><path d="M397.62081,263.60725c-1.4,1.1 -28.7,0.9 -29.6,0c0,-4.1 6.6,-7.4 14.8,-7.4c8.2,0 14.8,3.3 14.8,7.4z" fill="#fbff00" stroke="#fffdbd" stroke-width="1.9"/><path d="M288,138v-32h32v32z" fill="#000000" stroke="#ffffff" stroke-width="2"/><path d="M320,138v-32h32v32z" fill="#000000" stroke="#ffffff" stroke-width="2"/><path d="M352,138v-32h32v32z" fill="#000000" stroke="#ffffff" stroke-width="2"/><path d="M384,138v-32h32v32z" fill="#000000" stroke="#ffffff" stroke-width="2"/><path d="M416,138v-32h32v32z" fill="#000000" stroke="#ffffff" stroke-width="2"/><path d="M448,138v-32h32v32z" fill="#000000" stroke="#ffffff" stroke-width="2"/><g fill="#000000" stroke="#fffee0" stroke-width="2"><path d="M319.99999,137.61401l-16,18l-16,-18z" data-paper-data="{&quot;index&quot;:null}"/><path d="M383.99999,137.61401l-16,18l-16,-18z" data-paper-data="{&quot;index&quot;:null}"/><path d="M351.99999,137.61401l-16,18l-16,-18z" data-paper-data="{&quot;index&quot;:null}"/><path d="M447.99999,137.61401l-16,18l-16,-18z" data-paper-data="{&quot;index&quot;:null}"/><path d="M415.99999,137.61401l-16,18l-16,-18z" data-paper-data="{&quot;index&quot;:null}"/><path d="M479.99999,137.61401l-16,18l-16,-18z" data-paper-data="{&quot;index&quot;:null}"/></g></g></g></svg>