<svg version="1.1" xmlns="http://www.w3.org/2000/svg" xmlns:xlink="http://www.w3.org/1999/xlink" width="576.57657" height="479.25487" viewBox="0,0,576.57657,479.25487"><defs><linearGradient x1="212.60001" y1="127.25487" x2="236.60001" y2="127.25487" gradientUnits="userSpaceOnUse" id="color-1"><stop offset="0" stop-color="#80ffff" stop-opacity="0"/><stop offset="1" stop-color="#80ffff"/></linearGradient></defs><g transform="translate(50.54054,115)"><g data-paper-data="{&quot;isPaintingLayer&quot;:true}" fill-rule="nonzero" stroke-linejoin="miter" stroke-miterlimit="10" stroke-dasharray="" stroke-dashoffset="0" style="mix-blend-mode: normal"><path d="M-50.54054,-4.68468v-33.03303h576.57657v33.03304z" fill="none" stroke="none" stroke-width="NaN" stroke-linecap="butt"/><g><path d="M212.60001,363.25487v-472h24v472z" fill="url(#color-1)" stroke="none" stroke-width="0" stroke-linecap="butt"/><path d="M234.3143,-86.74513v449" fill="none" stroke="#6bffdb" stroke-width="4" stroke-linecap="round"/><g fill="#000000" stroke="#ffffff" stroke-width="2" stroke-linecap="butt"><path d="M236.8,-82v-32h32v32z"/><path d="M236.8,-51v-32h32v32z"/><path d="M236.8,77v-32h32v32z"/><path d="M236.8,109v-32h32v32z"/><path d="M236.8,141v-32h32v32z"/><path d="M236.8,13v-32h32v32z"/><path d="M236.8,45v-32h32v32z"/><path d="M236.8,173v-32h32v32z"/><path d="M236.8,205v-32h32v32z"/><path d="M236.8,237v-32h32v32z"/><path d="M236.8,268v-32h32v32z"/><path d="M236.8,-19v-32h32v32z"/><g><path d="M236.8,300v-32h32v32z"/><path d="M236.8,332v-32h32v32z"/><path d="M236.8,363v-32h32v32z"/></g></g></g></g></g></svg>