<svg version="1.1" xmlns="http://www.w3.org/2000/svg" xmlns:xlink="http://www.w3.org/1999/xlink" width="576.57657" height="399.77907" viewBox="0,0,576.57657,399.77907"><g transform="translate(50.54054,37.71771)"><g data-paper-data="{&quot;isPaintingLayer&quot;:true}" fill-rule="nonzero" stroke-linecap="butt" stroke-linejoin="miter" stroke-miterlimit="10" stroke-dasharray="" stroke-dashoffset="0" style="mix-blend-mode: normal"><g stroke="none" stroke-width="0"><path d="M369.24746,270.46649l3.8,52.3h-7.7l3.8,-52.3z" fill="#000000"/><path d="M363.54746,272.16649c0,-3.1 2.5,-5.7 5.7,-5.7c3.2,0 5.7,2.5 5.7,5.7c0,3.2 -2.5,5.7 -5.7,5.7c-3.2,0 -5.7,-2.5 -5.7,-5.7z" fill="#ff00de"/></g><g><path d="M441.79497,354.46136h-21.8l10.9,-24z" fill="#ff00de" stroke="#fffee0" stroke-width="2"/><path d="M465.79497,361.06136h-21.8l10.9,-24z" fill="#ff00de" stroke="#fffee0" stroke-width="2"/><path d="M427.79497,359.76136h-21.8l10.9,-24z" fill="#ff00de" stroke="#fffee0" stroke-width="2"/><path d="M404.09497,359.26136h-21.8l10.9,-20.2z" fill="#ff00de" stroke="#fffee0" stroke-width="2"/><path d="M463.79497,359.76136h-22.3l11.2,-10.3l11.2,10.3z" fill="#000000" stroke="none" stroke-width="0"/><path d="M436.79497,357.76136h-22.3l11.2,-10.3l11.2,10.3z" fill="#000000" stroke="none" stroke-width="0"/><path d="M451.09497,357.06136h-14l7,-13.7z" fill="#000000" stroke="none" stroke-width="0"/><path d="M480.99497,359.26136h-22.3l11.2,-10.3l11.2,10.3z" fill="#000000" stroke="none" stroke-width="0"/><path d="M468.39497,358.56136h-14l7,-11.8z" fill="#000000" stroke="none" stroke-width="0"/><path d="M424.39497,357.76136h-14l7,-12.4z" fill="#000000" stroke="none" stroke-width="0"/><path d="M404.39497,357.76136h-14l7,-14z" fill="#000000" stroke="none" stroke-width="0"/><path d="M418.09497,359.06136h-14l7,-10.3z" fill="#000000" stroke="none" stroke-width="0"/><path d="M447.39497,359.46136h-26l13,-10.3z" fill="#000000" stroke="none" stroke-width="0"/><path d="M400.79497,359.46136h-26l13,-10.3z" fill="#000000" stroke="none" stroke-width="0"/><path d="M416.09497,358.06136h-26l13,-10.3z" fill="#000000" stroke="none" stroke-width="0"/><path d="M388.29497,359.36136v-3.1h70.5v3.1z" fill="#000000" stroke="none" stroke-width="0"/></g><path d="M-50.54054,-4.68468v-33.03303h576.57657v33.03304z" fill="none" stroke="none" stroke-width="NaN"/><path d="M0,329v-32h32v32z" fill="#000000" stroke="#ffffff" stroke-width="2"/><path d="M32,329v-32h32v32z" fill="#000000" stroke="#ffffff" stroke-width="2"/><path d="M64,329v-32h32v32z" fill="#000000" stroke="#ffffff" stroke-width="2"/><path d="M96,329v-32h32v32z" fill="#000000" stroke="#ffffff" stroke-width="2"/><path d="M128,329v-32h32v32z" fill="#000000" stroke="#ffffff" stroke-width="2"/><path d="M160,329v-32h32v32z" fill="#000000" stroke="#ffffff" stroke-width="2"/><path d="M192,329v-32h32v32z" fill="#000000" stroke="#ffffff" stroke-width="2"/><path d="M224,329v-32h32v32z" fill="#000000" stroke="#ffffff" stroke-width="2"/><path d="M256,329v-32h32v32z" fill="#000000" stroke="#ffffff" stroke-width="2"/><path d="M288,329v-32h32v32z" fill="#000000" stroke="#ffffff" stroke-width="2"/><path d="M320,329v-32h32v32z" fill="#000000" stroke="#ffffff" stroke-width="2"/><path d="M352,329v-32h32v32z" fill="#000000" stroke="#ffffff" stroke-width="2"/><path d="M352,360v-32h32v32z" fill="#000000" stroke="#ffffff" stroke-width="2"/><path d="M71.99999,297.27501l16,-28.6l16,28.6z" fill="#000000" stroke="#fffee0" stroke-width="2"/></g></g></svg>