<svg version="1.1" xmlns="http://www.w3.org/2000/svg" xmlns:xlink="http://www.w3.org/1999/xlink" width="576.57657" height="398.99458" viewBox="0,0,576.57657,398.99458"><g transform="translate(50.54054,37.71771)"><g data-paper-data="{&quot;isPaintingLayer&quot;:true}" fill-rule="nonzero" stroke-linecap="butt" stroke-linejoin="miter" stroke-miterlimit="10" stroke-dasharray="" stroke-dashoffset="0" style="mix-blend-mode: normal"><g data-paper-data="{&quot;index&quot;:null}" stroke="none" stroke-width="0"><path d="M464.6267,234.52086l3.8,52.3h-7.7l3.8,-52.3z" fill="#000000"/><path d="M458.9267,236.22086c0,-3.1 2.5,-5.7 5.7,-5.7c3.2,0 5.7,2.5 5.7,5.7c0,3.2 -2.5,5.7 -5.7,5.7c-3.2,0 -5.7,-2.5 -5.7,-5.7z" fill="#ff00de"/></g><g fill="#000000" stroke="#fffee0" stroke-width="2"><path d="M33.99698,359.35608l16,-18l16,18z"/><path d="M289.99698,359.35608l16,-18l16,18z"/><path d="M353.99698,359.35608l16,-18l16,18z"/><path d="M321.99698,359.35608l16,-18l16,18z"/><path d="M417.99698,359.35608l16,-18l16,18z"/><path d="M385.99698,359.35608l16,-18l16,18z"/><path d="M449.99698,359.35608l16,-18l16,18z"/></g><path d="M-50.54054,-4.68468v-33.03303h576.57657v33.03304z" fill="none" stroke="none" stroke-width="NaN"/><g fill="#000000" stroke="#fffede" stroke-width="2"><path d="M37.03,359.48011l19.14041,-32.62861l19.14041,32.62861z"/><path d="M166.03,359.48011l19.14041,-32.62861l19.14041,32.62861z"/></g><path d="M279.79999,359.575c-1.4,1.1 -28.7,0.9 -29.6,0c0,-4.1 6.6,-7.4 14.8,-7.4c8.2,0 14.8,3.3 14.8,7.4z" fill="#fbff00" stroke="#fffede" stroke-width="1.9"/><g fill="#000000" stroke="#ffffff" stroke-width="2"><path d="M447.44745,297v-32h32v32z"/><path d="M447.44745,329v-32h32v32z"/><path d="M447.44745,360v-32h32v32z"/></g><g fill="#000000" stroke="#ffffff" stroke-width="2"><path d="M414.47982,297v-32h32v32z"/><path d="M414.47982,329v-32h32v32z"/><path d="M414.47982,360v-32h32v32z"/></g></g></g></svg>