<svg version="1.1" xmlns="http://www.w3.org/2000/svg" xmlns:xlink="http://www.w3.org/1999/xlink" width="576.57657" height="399.77907" viewBox="0,0,576.57657,399.77907"><g transform="translate(50.54054,37.71771)"><g data-paper-data="{&quot;isPaintingLayer&quot;:true}" fill-rule="nonzero" stroke-linecap="butt" stroke-linejoin="miter" stroke-miterlimit="10" stroke-dasharray="" stroke-dashoffset="0" style="mix-blend-mode: normal"><g><path d="M410.15887,353.78181h-21.8l10.9,-24z" fill="#ff00de" stroke="#fffee0" stroke-width="2"/><path d="M434.15887,360.38181h-21.8l10.9,-24z" fill="#ff00de" stroke="#fffee0" stroke-width="2"/><path d="M396.15887,359.08181h-21.8l10.9,-24z" fill="#ff00de" stroke="#fffee0" stroke-width="2"/><path d="M372.45887,358.58181h-21.8l10.9,-20.2z" fill="#ff00de" stroke="#fffee0" stroke-width="2"/><path d="M432.15887,359.08181h-22.3l11.2,-10.3l11.2,10.3z" fill="#000000" stroke="none" stroke-width="0"/><path d="M405.15887,357.08181h-22.3l11.2,-10.3l11.2,10.3z" fill="#000000" stroke="none" stroke-width="0"/><path d="M419.45887,356.38181h-14l7,-13.7z" fill="#000000" stroke="none" stroke-width="0"/><path d="M449.35887,358.58181h-22.3l11.2,-10.3l11.2,10.3z" fill="#000000" stroke="none" stroke-width="0"/><path d="M436.75887,357.88181h-14l7,-11.8z" fill="#000000" stroke="none" stroke-width="0"/><path d="M392.75887,357.08181h-14l7,-12.4z" fill="#000000" stroke="none" stroke-width="0"/><path d="M372.75887,357.08181h-14l7,-14z" fill="#000000" stroke="none" stroke-width="0"/><path d="M386.45887,358.38181h-14l7,-10.3z" fill="#000000" stroke="none" stroke-width="0"/><path d="M415.75887,358.78181h-26l13,-10.3z" fill="#000000" stroke="none" stroke-width="0"/><path d="M369.15887,358.78181h-26l13,-10.3z" fill="#000000" stroke="none" stroke-width="0"/><path d="M384.45887,357.38181h-26l13,-10.3z" fill="#000000" stroke="none" stroke-width="0"/><path d="M356.65887,358.68181v-3.1h70.5v3.1z" fill="#000000" stroke="none" stroke-width="0"/></g><g><path d="M32.3885,334.1l10.9,24h-21.8z" fill="#ff00de" stroke="#fffee0" stroke-width="2"/><path d="M61.3885,338.5l10.9,21.7h-21.8z" fill="#ff00de" stroke="#fffee0" stroke-width="2"/><path d="M16.8885,348.8l11.2,10.3h-22.3l11.2,-10.3z" fill="#000000" stroke="none" stroke-width="0"/><path d="M44.8885,347.8l11.2,10.3h-22.3l11.2,-10.3z" fill="#000000" stroke="none" stroke-width="0"/><path d="M26.3885,343.8l7,13.7h-14z" fill="#000000" stroke="none" stroke-width="0"/><path d="M53.0885,343.1l7,15h-14z" fill="#000000" stroke="none" stroke-width="0"/><path d="M77.08849,344.1l7,14h-14z" fill="#000000" stroke="none" stroke-width="0"/><path d="M7.3885,348.8l7,10.3h-14z" fill="#000000" stroke="none" stroke-width="0"/><path d="M59.3885,349.1l7,10.3h-14z" fill="#000000" stroke="none" stroke-width="0"/><path d="M36.0885,349.5l13,10.3h-26z" fill="#000000" stroke="none" stroke-width="0"/><path d="M87.7885,349.5l13,10.3h-26z" fill="#000000" stroke="none" stroke-width="0"/><path d="M68.3885,348.1l13,10.3h-26z" fill="#000000" stroke="none" stroke-width="0"/><path d="M9.3885,360.5v-4.2h83.6v4.2z" fill="#000000" stroke="none" stroke-width="0"/></g><g><path d="M151.2684,354.46136h-21.8l10.9,-24z" fill="#ff00de" stroke="#fffee0" stroke-width="2"/><path d="M175.2684,361.06136h-21.8l10.9,-24z" fill="#ff00de" stroke="#fffee0" stroke-width="2"/><path d="M137.2684,359.76136h-21.8l10.9,-24z" fill="#ff00de" stroke="#fffee0" stroke-width="2"/><path d="M113.5684,359.26136h-21.8l10.9,-20.2z" fill="#ff00de" stroke="#fffee0" stroke-width="2"/><path d="M173.2684,359.76136h-22.3l11.2,-10.3l11.2,10.3z" fill="#000000" stroke="none" stroke-width="0"/><path d="M146.2684,357.76136h-22.3l11.2,-10.3l11.2,10.3z" fill="#000000" stroke="none" stroke-width="0"/><path d="M160.5684,357.06136h-14l7,-13.7z" fill="#000000" stroke="none" stroke-width="0"/><path d="M190.4684,359.26136h-22.3l11.2,-10.3l11.2,10.3z" fill="#000000" stroke="none" stroke-width="0"/><path d="M177.8684,358.56136h-14l7,-11.8z" fill="#000000" stroke="none" stroke-width="0"/><path d="M133.8684,357.76136h-14l7,-12.4z" fill="#000000" stroke="none" stroke-width="0"/><path d="M113.8684,357.76136h-14l7,-14z" fill="#000000" stroke="none" stroke-width="0"/><path d="M127.5684,359.06136h-14l7,-10.3z" fill="#000000" stroke="none" stroke-width="0"/><path d="M156.8684,359.46136h-26l13,-10.3z" fill="#000000" stroke="none" stroke-width="0"/><path d="M110.2684,359.46136h-26l13,-10.3z" fill="#000000" stroke="none" stroke-width="0"/><path d="M125.5684,358.06136h-26l13,-10.3z" fill="#000000" stroke="none" stroke-width="0"/><path d="M97.7684,359.36136v-3.1h70.5v3.1z" fill="#000000" stroke="none" stroke-width="0"/></g><g><path d="M270.26052,333.71911l10.9,24h-21.8z" fill="#ff00de" stroke="#fffee0" stroke-width="2"/><path d="M299.26052,338.11911l10.9,21.7h-21.8z" fill="#ff00de" stroke="#fffee0" stroke-width="2"/><path d="M254.76052,348.41911l11.2,10.3h-22.3l11.2,-10.3z" fill="#000000" stroke="none" stroke-width="0"/><path d="M282.76052,347.41911l11.2,10.3h-22.3l11.2,-10.3z" fill="#000000" stroke="none" stroke-width="0"/><path d="M264.26052,343.41911l7,13.7h-14z" fill="#000000" stroke="none" stroke-width="0"/><path d="M290.96052,342.71911l7,15h-14z" fill="#000000" stroke="none" stroke-width="0"/><path d="M314.96052,343.71911l7,14h-14z" fill="#000000" stroke="none" stroke-width="0"/><path d="M245.26052,348.41911l7,10.3h-14z" fill="#000000" stroke="none" stroke-width="0"/><path d="M297.26052,348.71911l7,10.3h-14z" fill="#000000" stroke="none" stroke-width="0"/><path d="M273.96052,349.11911l13,10.3h-26z" fill="#000000" stroke="none" stroke-width="0"/><path d="M325.66052,349.11911l13,10.3h-26z" fill="#000000" stroke="none" stroke-width="0"/><path d="M306.26052,347.71911l13,10.3h-26z" fill="#000000" stroke="none" stroke-width="0"/><path d="M247.26052,360.11911v-4.2h83.6v4.2z" fill="#000000" stroke="none" stroke-width="0"/></g><g><path d="M197.87342,333.71911l10.9,24h-21.8z" fill="#ff00de" stroke="#fffee0" stroke-width="2"/><path d="M226.87342,338.11911l10.9,21.7h-21.8z" fill="#ff00de" stroke="#fffee0" stroke-width="2"/><path d="M182.37342,348.41911l11.2,10.3h-22.3l11.2,-10.3z" fill="#000000" stroke="none" stroke-width="0"/><path d="M210.37342,347.41911l11.2,10.3h-22.3l11.2,-10.3z" fill="#000000" stroke="none" stroke-width="0"/><path d="M191.87342,343.41911l7,13.7h-14z" fill="#000000" stroke="none" stroke-width="0"/><path d="M218.57342,342.71911l7,15h-14z" fill="#000000" stroke="none" stroke-width="0"/><path d="M242.57342,343.71911l7,14h-14z" fill="#000000" stroke="none" stroke-width="0"/><path d="M172.87342,348.41911l7,10.3h-14z" fill="#000000" stroke="none" stroke-width="0"/><path d="M224.87342,348.71911l7,10.3h-14z" fill="#000000" stroke="none" stroke-width="0"/><path d="M201.57342,349.11911l13,10.3h-26z" fill="#000000" stroke="none" stroke-width="0"/><path d="M253.27342,349.11911l13,10.3h-26z" fill="#000000" stroke="none" stroke-width="0"/><path d="M233.87342,347.71911l13,10.3h-26z" fill="#000000" stroke="none" stroke-width="0"/><path d="M174.87342,360.11911v-4.2h83.6v4.2z" fill="#000000" stroke="none" stroke-width="0"/></g><path d="M-50.54054,-4.68468v-33.03303h576.57657v33.03304z" fill="none" stroke="none" stroke-width="NaN"/><path d="M0,234v-32h32v32z" fill="#000000" stroke="#ffffff" stroke-width="2"/><path d="M128,234v-32h32v32z" fill="#000000" stroke="#ffffff" stroke-width="2"/><path d="M0,265v-32h32v32z" fill="#000000" stroke="#ffffff" stroke-width="2"/><path d="M128,265v-32h32v32z" fill="#000000" stroke="#ffffff" stroke-width="2"/><path d="M224,265v-32h32v32z" fill="#000000" stroke="#ffffff" stroke-width="2"/><path d="M0,297v-32h32v32z" fill="#000000" stroke="#ffffff" stroke-width="2"/><path d="M128,297v-32h32v32z" fill="#000000" stroke="#ffffff" stroke-width="2"/><path d="M224,297v-32h32v32z" fill="#000000" stroke="#ffffff" stroke-width="2"/><path d="M320,297v-32h32v32z" fill="#000000" stroke="#ffffff" stroke-width="2"/><path d="M0,329v-32h32v32z" fill="#000000" stroke="#ffffff" stroke-width="2"/><path d="M128,329v-32h32v32z" fill="#000000" stroke="#ffffff" stroke-width="2"/><path d="M224,329v-32h32v32z" fill="#000000" stroke="#ffffff" stroke-width="2"/><path d="M320,329v-32h32v32z" fill="#000000" stroke="#ffffff" stroke-width="2"/><path d="M0,360v-32h32v32z" fill="#000000" stroke="#ffffff" stroke-width="2"/><path d="M128,360v-32h32v32z" fill="#000000" stroke="#ffffff" stroke-width="2"/><path d="M224,360v-32h32v32z" fill="#000000" stroke="#ffffff" stroke-width="2"/><path d="M320,360v-32h32v32z" fill="#000000" stroke="#ffffff" stroke-width="2"/><path d="M416,329v-32h32v32z" fill="#000000" stroke="#ffffff" stroke-width="2"/><path d="M416,360v-32h32v32z" fill="#000000" stroke="#ffffff" stroke-width="2"/></g></g></svg>