<svg version="1.1" xmlns="http://www.w3.org/2000/svg" xmlns:xlink="http://www.w3.org/1999/xlink" width="576.57657" height="399.77907" viewBox="0,0,576.57657,399.77907"><g transform="translate(50.54054,37.71771)"><g data-paper-data="{&quot;isPaintingLayer&quot;:true}" fill-rule="nonzero" stroke-linecap="butt" stroke-linejoin="miter" stroke-miterlimit="10" stroke-dasharray="" stroke-dashoffset="0" style="mix-blend-mode: normal"><g><path d="M432.65756,353.78181h-21.8l10.9,-24z" fill="#ff00de" stroke="#fffee0" stroke-width="2"/><path d="M456.65756,360.38181h-21.8l10.9,-24z" fill="#ff00de" stroke="#fffee0" stroke-width="2"/><path d="M418.65756,359.08181h-21.8l10.9,-24z" fill="#ff00de" stroke="#fffee0" stroke-width="2"/><path d="M394.95756,358.58181h-21.8l10.9,-20.2z" fill="#ff00de" stroke="#fffee0" stroke-width="2"/><path d="M454.65756,359.08181h-22.3l11.2,-10.3l11.2,10.3z" fill="#000000" stroke="none" stroke-width="0"/><path d="M427.65756,357.08181h-22.3l11.2,-10.3l11.2,10.3z" fill="#000000" stroke="none" stroke-width="0"/><path d="M441.95756,356.38181h-14l7,-13.7z" fill="#000000" stroke="none" stroke-width="0"/><path d="M471.85756,358.58181h-22.3l11.2,-10.3l11.2,10.3z" fill="#000000" stroke="none" stroke-width="0"/><path d="M459.25756,357.88181h-14l7,-11.8z" fill="#000000" stroke="none" stroke-width="0"/><path d="M415.25756,357.08181h-14l7,-12.4z" fill="#000000" stroke="none" stroke-width="0"/><path d="M395.25756,357.08181h-14l7,-14z" fill="#000000" stroke="none" stroke-width="0"/><path d="M408.95756,358.38181h-14l7,-10.3z" fill="#000000" stroke="none" stroke-width="0"/><path d="M438.25756,358.78181h-26l13,-10.3z" fill="#000000" stroke="none" stroke-width="0"/><path d="M391.65756,358.78181h-26l13,-10.3z" fill="#000000" stroke="none" stroke-width="0"/><path d="M406.95756,357.38181h-26l13,-10.3z" fill="#000000" stroke="none" stroke-width="0"/><path d="M379.15756,358.68181v-3.1h70.5v3.1z" fill="#000000" stroke="none" stroke-width="0"/></g><g><path d="M32.3885,334.1l10.9,24h-21.8z" fill="#ff00de" stroke="#fffee0" stroke-width="2"/><path d="M61.3885,338.5l10.9,21.7h-21.8z" fill="#ff00de" stroke="#fffee0" stroke-width="2"/><path d="M16.8885,348.8l11.2,10.3h-22.3l11.2,-10.3z" fill="#000000" stroke="none" stroke-width="0"/><path d="M44.8885,347.8l11.2,10.3h-22.3l11.2,-10.3z" fill="#000000" stroke="none" stroke-width="0"/><path d="M26.3885,343.8l7,13.7h-14z" fill="#000000" stroke="none" stroke-width="0"/><path d="M53.0885,343.1l7,15h-14z" fill="#000000" stroke="none" stroke-width="0"/><path d="M77.08849,344.1l7,14h-14z" fill="#000000" stroke="none" stroke-width="0"/><path d="M7.3885,348.8l7,10.3h-14z" fill="#000000" stroke="none" stroke-width="0"/><path d="M59.3885,349.1l7,10.3h-14z" fill="#000000" stroke="none" stroke-width="0"/><path d="M36.0885,349.5l13,10.3h-26z" fill="#000000" stroke="none" stroke-width="0"/><path d="M87.7885,349.5l13,10.3h-26z" fill="#000000" stroke="none" stroke-width="0"/><path d="M68.3885,348.1l13,10.3h-26z" fill="#000000" stroke="none" stroke-width="0"/><path d="M9.3885,360.5v-4.2h83.6v4.2z" fill="#000000" stroke="none" stroke-width="0"/></g><g><path d="M151.2684,354.46136h-21.8l10.9,-24z" fill="#ff00de" stroke="#fffee0" stroke-width="2"/><path d="M175.2684,361.06136h-21.8l10.9,-24z" fill="#ff00de" stroke="#fffee0" stroke-width="2"/><path d="M137.2684,359.76136h-21.8l10.9,-24z" fill="#ff00de" stroke="#fffee0" stroke-width="2"/><path d="M113.5684,359.26136h-21.8l10.9,-20.2z" fill="#ff00de" stroke="#fffee0" stroke-width="2"/><path d="M173.2684,359.76136h-22.3l11.2,-10.3l11.2,10.3z" fill="#000000" stroke="none" stroke-width="0"/><path d="M146.2684,357.76136h-22.3l11.2,-10.3l11.2,10.3z" fill="#000000" stroke="none" stroke-width="0"/><path d="M160.5684,357.06136h-14l7,-13.7z" fill="#000000" stroke="none" stroke-width="0"/><path d="M190.4684,359.26136h-22.3l11.2,-10.3l11.2,10.3z" fill="#000000" stroke="none" stroke-width="0"/><path d="M177.8684,358.56136h-14l7,-11.8z" fill="#000000" stroke="none" stroke-width="0"/><path d="M133.8684,357.76136h-14l7,-12.4z" fill="#000000" stroke="none" stroke-width="0"/><path d="M113.8684,357.76136h-14l7,-14z" fill="#000000" stroke="none" stroke-width="0"/><path d="M127.5684,359.06136h-14l7,-10.3z" fill="#000000" stroke="none" stroke-width="0"/><path d="M156.8684,359.46136h-26l13,-10.3z" fill="#000000" stroke="none" stroke-width="0"/><path d="M110.2684,359.46136h-26l13,-10.3z" fill="#000000" stroke="none" stroke-width="0"/><path d="M125.5684,358.06136h-26l13,-10.3z" fill="#000000" stroke="none" stroke-width="0"/><path d="M97.7684,359.36136v-3.1h70.5v3.1z" fill="#000000" stroke="none" stroke-width="0"/></g><g><path d="M346.90919,354.46136h-21.8l10.9,-24z" fill="#ff00de" stroke="#fffee0" stroke-width="2"/><path d="M370.90919,361.06136h-21.8l10.9,-24z" fill="#ff00de" stroke="#fffee0" stroke-width="2"/><path d="M332.90919,359.76136h-21.8l10.9,-24z" fill="#ff00de" stroke="#fffee0" stroke-width="2"/><path d="M309.20919,359.26136h-21.8l10.9,-20.2z" fill="#ff00de" stroke="#fffee0" stroke-width="2"/><path d="M368.90919,359.76136h-22.3l11.2,-10.3l11.2,10.3z" fill="#000000" stroke="none" stroke-width="0"/><path d="M341.90919,357.76136h-22.3l11.2,-10.3l11.2,10.3z" fill="#000000" stroke="none" stroke-width="0"/><path d="M356.20919,357.06136h-14l7,-13.7z" fill="#000000" stroke="none" stroke-width="0"/><path d="M386.10919,359.26136h-22.3l11.2,-10.3l11.2,10.3z" fill="#000000" stroke="none" stroke-width="0"/><path d="M373.50919,358.56136h-14l7,-11.8z" fill="#000000" stroke="none" stroke-width="0"/><path d="M329.50919,357.76136h-14l7,-12.4z" fill="#000000" stroke="none" stroke-width="0"/><path d="M309.50919,357.76136h-14l7,-14z" fill="#000000" stroke="none" stroke-width="0"/><path d="M323.20919,359.06136h-14l7,-10.3z" fill="#000000" stroke="none" stroke-width="0"/><path d="M352.50919,359.46136h-26l13,-10.3z" fill="#000000" stroke="none" stroke-width="0"/><path d="M305.90919,359.46136h-26l13,-10.3z" fill="#000000" stroke="none" stroke-width="0"/><path d="M321.20919,358.06136h-26l13,-10.3z" fill="#000000" stroke="none" stroke-width="0"/><path d="M293.40919,359.36136v-3.1h70.5v3.1z" fill="#000000" stroke="none" stroke-width="0"/></g><g><path d="M215.4811,333.71911l10.9,24h-21.8z" fill="#ff00de" stroke="#fffee0" stroke-width="2"/><path d="M244.4811,338.11911l10.9,21.7h-21.8z" fill="#ff00de" stroke="#fffee0" stroke-width="2"/><path d="M199.9811,348.41911l11.2,10.3h-22.3l11.2,-10.3z" fill="#000000" stroke="none" stroke-width="0"/><path d="M227.9811,347.41911l11.2,10.3h-22.3l11.2,-10.3z" fill="#000000" stroke="none" stroke-width="0"/><path d="M209.4811,343.41911l7,13.7h-14z" fill="#000000" stroke="none" stroke-width="0"/><path d="M236.1811,342.71911l7,15h-14z" fill="#000000" stroke="none" stroke-width="0"/><path d="M260.1811,343.71911l7,14h-14z" fill="#000000" stroke="none" stroke-width="0"/><path d="M190.4811,348.41911l7,10.3h-14z" fill="#000000" stroke="none" stroke-width="0"/><path d="M242.4811,348.71911l7,10.3h-14z" fill="#000000" stroke="none" stroke-width="0"/><path d="M219.1811,349.11911l13,10.3h-26z" fill="#000000" stroke="none" stroke-width="0"/><path d="M270.8811,349.11911l13,10.3h-26z" fill="#000000" stroke="none" stroke-width="0"/><path d="M251.4811,347.71911l13,10.3h-26z" fill="#000000" stroke="none" stroke-width="0"/><path d="M192.4811,360.11911v-4.2h83.6v4.2z" fill="#000000" stroke="none" stroke-width="0"/></g><path d="M-50.54054,-4.68468v-33.03303h576.57657v33.03304z" fill="none" stroke="none" stroke-width="NaN"/><g stroke="#fffdbd" stroke-width="2"><path d="M71.49999,223.87501c0,-7.5 6,-13.5 13.5,-13.5c7.5,0 13.5,6 13.5,13.5c0,7.5 -6,13.5 -13.5,13.5c-7.5,0 -13.5,-6 -13.5,-13.5z" fill="none"/><path d="M75.99999,223.87501c0,-5 4,-9 9,-9c5,0 9,4 9,9c0,5 -4,9 -9,9c-5,0 -9,-4 -9,-9z" fill="#fbf300"/></g><path d="M192,265v-32h32v32z" fill="#000000" stroke="#ffffff" stroke-width="2"/><path d="M192,297v-32h32v32z" fill="#000000" stroke="#ffffff" stroke-width="2"/><path d="M288,297v-32h32v32z" fill="#000000" stroke="#ffffff" stroke-width="2"/><path d="M192,329v-32h32v32z" fill="#000000" stroke="#ffffff" stroke-width="2"/><path d="M288,329v-32h32v32z" fill="#000000" stroke="#ffffff" stroke-width="2"/><path d="M192,360v-32h32v32z" fill="#000000" stroke="#ffffff" stroke-width="2"/><path d="M288,360v-32h32v32z" fill="#000000" stroke="#ffffff" stroke-width="2"/><path d="M384,329v-32h32v32z" fill="#000000" stroke="#ffffff" stroke-width="2"/><path d="M384,360v-32h32v32z" fill="#000000" stroke="#ffffff" stroke-width="2"/></g></g></svg>