<svg version="1.1" xmlns="http://www.w3.org/2000/svg" xmlns:xlink="http://www.w3.org/1999/xlink" width="576.57657" height="400.99459" viewBox="0,0,576.57657,400.99459"><g transform="translate(50.54054,37.71771)"><g data-paper-data="{&quot;isPaintingLayer&quot;:true}" fill-rule="nonzero" stroke-linecap="butt" stroke-linejoin="miter" stroke-miterlimit="10" stroke-dasharray="" stroke-dashoffset="0" style="mix-blend-mode: normal"><g stroke="none" stroke-width="0"><path d="M402.58474,270.4665l3.8,52.3h-7.7l3.8,-52.3z" fill="#000000"/><path d="M396.88474,272.1665c0,-3.1 2.5,-5.7 5.7,-5.7c3.2,0 5.7,2.5 5.7,5.7c0,3.2 -2.5,5.7 -5.7,5.7c-3.2,0 -5.7,-2.5 -5.7,-5.7z" fill="#ff00de"/></g><g><path d="M372.00892,353.78181h-21.8l10.9,-24z" fill="#ff00de" stroke="#fffee0" stroke-width="2"/><path d="M396.00892,360.38181h-21.8l10.9,-24z" fill="#ff00de" stroke="#fffee0" stroke-width="2"/><path d="M358.00892,359.08181h-21.8l10.9,-24z" fill="#ff00de" stroke="#fffee0" stroke-width="2"/><path d="M334.30892,358.58181h-21.8l10.9,-20.2z" fill="#ff00de" stroke="#fffee0" stroke-width="2"/><path d="M394.00892,359.08181h-22.3l11.2,-10.3l11.2,10.3z" fill="#000000" stroke="none" stroke-width="0"/><path d="M367.00892,357.08181h-22.3l11.2,-10.3l11.2,10.3z" fill="#000000" stroke="none" stroke-width="0"/><path d="M381.30892,356.38181h-14l7,-13.7z" fill="#000000" stroke="none" stroke-width="0"/><path d="M411.20892,358.58181h-22.3l11.2,-10.3l11.2,10.3z" fill="#000000" stroke="none" stroke-width="0"/><path d="M398.60892,357.88181h-14l7,-11.8z" fill="#000000" stroke="none" stroke-width="0"/><path d="M354.60892,357.08181h-14l7,-12.4z" fill="#000000" stroke="none" stroke-width="0"/><path d="M334.60892,357.08181h-14l7,-14z" fill="#000000" stroke="none" stroke-width="0"/><path d="M348.30892,358.38181h-14l7,-10.3z" fill="#000000" stroke="none" stroke-width="0"/><path d="M377.60892,358.78181h-26l13,-10.3z" fill="#000000" stroke="none" stroke-width="0"/><path d="M331.00892,358.78181h-26l13,-10.3z" fill="#000000" stroke="none" stroke-width="0"/><path d="M346.30892,357.38181h-26l13,-10.3z" fill="#000000" stroke="none" stroke-width="0"/><path d="M318.50892,358.68181v-3.1h70.5v3.1z" fill="#000000" stroke="none" stroke-width="0"/></g><g><path d="M278.43491,354.46136h-21.8l10.9,-24z" fill="#ff00de" stroke="#fffee0" stroke-width="2"/><path d="M302.43491,361.06136h-21.8l10.9,-24z" fill="#ff00de" stroke="#fffee0" stroke-width="2"/><path d="M264.43491,359.76136h-21.8l10.9,-24z" fill="#ff00de" stroke="#fffee0" stroke-width="2"/><path d="M240.73491,359.26136h-21.8l10.9,-20.2z" fill="#ff00de" stroke="#fffee0" stroke-width="2"/><path d="M300.43491,359.76136h-22.3l11.2,-10.3l11.2,10.3z" fill="#000000" stroke="none" stroke-width="0"/><path d="M273.43491,357.76136h-22.3l11.2,-10.3l11.2,10.3z" fill="#000000" stroke="none" stroke-width="0"/><path d="M287.73491,357.06136h-14l7,-13.7z" fill="#000000" stroke="none" stroke-width="0"/><path d="M317.63491,359.26136h-22.3l11.2,-10.3l11.2,10.3z" fill="#000000" stroke="none" stroke-width="0"/><path d="M305.03491,358.56136h-14l7,-11.8z" fill="#000000" stroke="none" stroke-width="0"/><path d="M261.03491,357.76136h-14l7,-12.4z" fill="#000000" stroke="none" stroke-width="0"/><path d="M241.03491,357.76136h-14l7,-14z" fill="#000000" stroke="none" stroke-width="0"/><path d="M254.73491,359.06136h-14l7,-10.3z" fill="#000000" stroke="none" stroke-width="0"/><path d="M284.03491,359.46136h-26l13,-10.3z" fill="#000000" stroke="none" stroke-width="0"/><path d="M237.43491,359.46136h-26l13,-10.3z" fill="#000000" stroke="none" stroke-width="0"/><path d="M252.73491,358.06136h-26l13,-10.3z" fill="#000000" stroke="none" stroke-width="0"/><path d="M224.93491,359.36136v-3.1h70.5v3.1z" fill="#000000" stroke="none" stroke-width="0"/></g><g><path d="M172.44012,333.71911l10.9,24h-21.8z" fill="#ff00de" stroke="#fffee0" stroke-width="2"/><path d="M201.44012,338.11911l10.9,21.7h-21.8z" fill="#ff00de" stroke="#fffee0" stroke-width="2"/><path d="M156.94012,348.41911l11.2,10.3h-22.3l11.2,-10.3z" fill="#000000" stroke="none" stroke-width="0"/><path d="M184.94012,347.41911l11.2,10.3h-22.3l11.2,-10.3z" fill="#000000" stroke="none" stroke-width="0"/><path d="M166.44012,343.41911l7,13.7h-14z" fill="#000000" stroke="none" stroke-width="0"/><path d="M193.14012,342.71911l7,15h-14z" fill="#000000" stroke="none" stroke-width="0"/><path d="M217.14012,343.71911l7,14h-14z" fill="#000000" stroke="none" stroke-width="0"/><path d="M147.44012,348.41911l7,10.3h-14z" fill="#000000" stroke="none" stroke-width="0"/><path d="M199.44012,348.71911l7,10.3h-14z" fill="#000000" stroke="none" stroke-width="0"/><path d="M176.14012,349.11911l13,10.3h-26z" fill="#000000" stroke="none" stroke-width="0"/><path d="M227.84012,349.11911l13,10.3h-26z" fill="#000000" stroke="none" stroke-width="0"/><path d="M208.44012,347.71911l13,10.3h-26z" fill="#000000" stroke="none" stroke-width="0"/><path d="M149.44012,360.11911v-4.2h83.6v4.2z" fill="#000000" stroke="none" stroke-width="0"/></g><path d="M-50.54054,-4.68468v-33.03303h576.57657v33.03304z" fill="none" stroke="none" stroke-width="NaN"/><path d="M-0.00001,359.27501l16,-28.6l16,28.6z" fill="#000000" stroke="#fffee0" stroke-width="2"/><path d="M137.79999,361.57501c-1.4,1.1 -28.7,0.9 -29.6,0c0,-4.1 6.6,-7.4 14.8,-7.4c8.2,0 14.8,3.3 14.8,7.4z" fill="#fbff00" stroke="#fffdbd" stroke-width="1.9"/><path d="M288,297v-32h32v32z" fill="#000000" stroke="#ffffff" stroke-width="2"/><path d="M288,329v-32h32v32z" fill="#000000" stroke="#ffffff" stroke-width="2"/><path d="M288,360v-32h32v32z" fill="#000000" stroke="#ffffff" stroke-width="2"/><path d="M384,329v-32h32v32z" fill="#000000" stroke="#ffffff" stroke-width="2"/><path d="M416,329v-32h32v32z" fill="#000000" stroke="#ffffff" stroke-width="2"/><path d="M448,329v-32h32v32z" fill="#000000" stroke="#ffffff" stroke-width="2"/><path d="M384,360v-32h32v32z" fill="#000000" stroke="#ffffff" stroke-width="2"/></g></g></svg>