<svg version="1.1" xmlns="http://www.w3.org/2000/svg" xmlns:xlink="http://www.w3.org/1999/xlink" width="576.57657" height="399.77907" viewBox="0,0,576.57657,399.77907"><g transform="translate(50.54054,37.71771)"><g data-paper-data="{&quot;isPaintingLayer&quot;:true}" fill-rule="nonzero" stroke-linecap="butt" stroke-linejoin="miter" stroke-miterlimit="10" stroke-dasharray="" stroke-dashoffset="0" style="mix-blend-mode: normal"><g><path d="M448.30883,353.78181h-21.8l10.9,-24z" fill="#ff00de" stroke="#fffee0" stroke-width="2"/><path d="M472.30883,360.38181h-21.8l10.9,-24z" fill="#ff00de" stroke="#fffee0" stroke-width="2"/><path d="M434.30883,359.08181h-21.8l10.9,-24z" fill="#ff00de" stroke="#fffee0" stroke-width="2"/><path d="M410.60883,358.58181h-21.8l10.9,-20.2z" fill="#ff00de" stroke="#fffee0" stroke-width="2"/><path d="M470.30883,359.08181h-22.3l11.2,-10.3l11.2,10.3z" fill="#000000" stroke="none" stroke-width="0"/><path d="M443.30883,357.08181h-22.3l11.2,-10.3l11.2,10.3z" fill="#000000" stroke="none" stroke-width="0"/><path d="M457.60883,356.38181h-14l7,-13.7z" fill="#000000" stroke="none" stroke-width="0"/><path d="M487.50883,358.58181h-22.3l11.2,-10.3l11.2,10.3z" fill="#000000" stroke="none" stroke-width="0"/><path d="M474.90883,357.88181h-14l7,-11.8z" fill="#000000" stroke="none" stroke-width="0"/><path d="M430.90883,357.08181h-14l7,-12.4z" fill="#000000" stroke="none" stroke-width="0"/><path d="M410.90883,357.08181h-14l7,-14z" fill="#000000" stroke="none" stroke-width="0"/><path d="M424.60883,358.38181h-14l7,-10.3z" fill="#000000" stroke="none" stroke-width="0"/><path d="M453.90883,358.78181h-26l13,-10.3z" fill="#000000" stroke="none" stroke-width="0"/><path d="M407.30883,358.78181h-26l13,-10.3z" fill="#000000" stroke="none" stroke-width="0"/><path d="M422.60883,357.38181h-26l13,-10.3z" fill="#000000" stroke="none" stroke-width="0"/><path d="M394.80883,358.68181v-3.1h70.5v3.1z" fill="#000000" stroke="none" stroke-width="0"/></g><g><path d="M346.9092,354.46136h-21.8l10.9,-24z" fill="#ff00de" stroke="#fffee0" stroke-width="2"/><path d="M370.9092,361.06136h-21.8l10.9,-24z" fill="#ff00de" stroke="#fffee0" stroke-width="2"/><path d="M332.9092,359.76136h-21.8l10.9,-24z" fill="#ff00de" stroke="#fffee0" stroke-width="2"/><path d="M309.2092,359.26136h-21.8l10.9,-20.2z" fill="#ff00de" stroke="#fffee0" stroke-width="2"/><path d="M368.9092,359.76136h-22.3l11.2,-10.3l11.2,10.3z" fill="#000000" stroke="none" stroke-width="0"/><path d="M341.9092,357.76136h-22.3l11.2,-10.3l11.2,10.3z" fill="#000000" stroke="none" stroke-width="0"/><path d="M356.2092,357.06136h-14l7,-13.7z" fill="#000000" stroke="none" stroke-width="0"/><path d="M386.1092,359.26136h-22.3l11.2,-10.3l11.2,10.3z" fill="#000000" stroke="none" stroke-width="0"/><path d="M373.5092,358.56136h-14l7,-11.8z" fill="#000000" stroke="none" stroke-width="0"/><path d="M329.50919,357.76136h-14l7,-12.4z" fill="#000000" stroke="none" stroke-width="0"/><path d="M309.50919,357.76136h-14l7,-14z" fill="#000000" stroke="none" stroke-width="0"/><path d="M323.2092,359.06136h-14l7,-10.3z" fill="#000000" stroke="none" stroke-width="0"/><path d="M352.5092,359.46136h-26l13,-10.3z" fill="#000000" stroke="none" stroke-width="0"/><path d="M305.9092,359.46136h-26l13,-10.3z" fill="#000000" stroke="none" stroke-width="0"/><path d="M321.2092,358.06136h-26l13,-10.3z" fill="#000000" stroke="none" stroke-width="0"/><path d="M293.4092,359.36136v-3.1h70.5v3.1z" fill="#000000" stroke="none" stroke-width="0"/></g><g><path d="M235.04518,333.7191l10.9,24h-21.8z" fill="#ff00de" stroke="#fffee0" stroke-width="2"/><path d="M264.04518,338.1191l10.9,21.7h-21.8z" fill="#ff00de" stroke="#fffee0" stroke-width="2"/><path d="M219.54518,348.4191l11.2,10.3h-22.3l11.2,-10.3z" fill="#000000" stroke="none" stroke-width="0"/><path d="M247.54518,347.4191l11.2,10.3h-22.3l11.2,-10.3z" fill="#000000" stroke="none" stroke-width="0"/><path d="M229.04518,343.4191l7,13.7h-14z" fill="#000000" stroke="none" stroke-width="0"/><path d="M255.74518,342.7191l7,15h-14z" fill="#000000" stroke="none" stroke-width="0"/><path d="M279.74518,343.7191l7,14h-14z" fill="#000000" stroke="none" stroke-width="0"/><path d="M210.04518,348.4191l7,10.3h-14z" fill="#000000" stroke="none" stroke-width="0"/><path d="M262.04518,348.7191l7,10.3h-14z" fill="#000000" stroke="none" stroke-width="0"/><path d="M238.74518,349.1191l13,10.3h-26z" fill="#000000" stroke="none" stroke-width="0"/><path d="M290.44518,349.1191l13,10.3h-26z" fill="#000000" stroke="none" stroke-width="0"/><path d="M271.04518,347.7191l13,10.3h-26z" fill="#000000" stroke="none" stroke-width="0"/><path d="M212.04518,360.1191v-4.2h83.6v4.2z" fill="#000000" stroke="none" stroke-width="0"/></g><path d="M-50.54054,-4.68468v-33.03303h576.57657v33.03304z" fill="none" stroke="none" stroke-width="NaN"/><path d="M0,265v-32h32v32z" fill="#000000" stroke="#ffffff" stroke-width="2"/><path d="M32,265v-32h32v32z" fill="#000000" stroke="#ffffff" stroke-width="2"/><path d="M64,265v-32h32v32z" fill="#000000" stroke="#ffffff" stroke-width="2"/><path d="M96,265v-32h32v32z" fill="#000000" stroke="#ffffff" stroke-width="2"/><path d="M128,265v-32h32v32z" fill="#000000" stroke="#ffffff" stroke-width="2"/><path d="M160,265v-32h32v32z" fill="#000000" stroke="#ffffff" stroke-width="2"/><path d="M192,265v-32h32v32z" fill="#000000" stroke="#ffffff" stroke-width="2"/><path d="M192,297v-32h32v32z" fill="#000000" stroke="#ffffff" stroke-width="2"/><path d="M192,329v-32h32v32z" fill="#000000" stroke="#ffffff" stroke-width="2"/><path d="M192,360v-32h32v32z" fill="#000000" stroke="#ffffff" stroke-width="2"/><path d="M1.10102,233.56869l16,-28.6l16,28.6z" fill="#000000" stroke="#fffee0" stroke-width="2"/><path d="M416,265v-32h32v32z" fill="#000000" stroke="#ffffff" stroke-width="2"/><path d="M288,297v-32h32v32z" fill="#000000" stroke="#ffffff" stroke-width="2"/><path d="M416,297v-32h32v32z" fill="#000000" stroke="#ffffff" stroke-width="2"/><path d="M288,329v-32h32v32z" fill="#000000" stroke="#ffffff" stroke-width="2"/><path d="M416,329v-32h32v32z" fill="#000000" stroke="#ffffff" stroke-width="2"/><path d="M288,360v-32h32v32z" fill="#000000" stroke="#ffffff" stroke-width="2"/><path d="M416,360v-32h32v32z" fill="#000000" stroke="#ffffff" stroke-width="2"/></g></g></svg>