<svg version="1.1" xmlns="http://www.w3.org/2000/svg" xmlns:xlink="http://www.w3.org/1999/xlink" width="576.57657" height="398.91771" viewBox="0,0,576.57657,398.91771"><g transform="translate(50.54054,37.71771)"><g data-paper-data="{&quot;isPaintingLayer&quot;:true}" fill-rule="nonzero" stroke-linecap="butt" stroke-linejoin="miter" stroke-miterlimit="10" stroke-dasharray="" stroke-dashoffset="0" style="mix-blend-mode: normal"><g><path d="M32.3885,334.1l10.9,24h-21.8z" fill="#ff00de" stroke="#fffee0" stroke-width="2"/><path d="M61.3885,338.5l10.9,21.7h-21.8z" fill="#ff00de" stroke="#fffee0" stroke-width="2"/><path d="M16.8885,348.8l11.2,10.3h-22.3l11.2,-10.3z" fill="#000000" stroke="none" stroke-width="0"/><path d="M44.8885,347.8l11.2,10.3h-22.3l11.2,-10.3z" fill="#000000" stroke="none" stroke-width="0"/><path d="M26.3885,343.8l7,13.7h-14z" fill="#000000" stroke="none" stroke-width="0"/><path d="M53.0885,343.1l7,15h-14z" fill="#000000" stroke="none" stroke-width="0"/><path d="M77.08849,344.1l7,14h-14z" fill="#000000" stroke="none" stroke-width="0"/><path d="M7.3885,348.8l7,10.3h-14z" fill="#000000" stroke="none" stroke-width="0"/><path d="M59.3885,349.1l7,10.3h-14z" fill="#000000" stroke="none" stroke-width="0"/><path d="M36.0885,349.5l13,10.3h-26z" fill="#000000" stroke="none" stroke-width="0"/><path d="M87.7885,349.5l13,10.3h-26z" fill="#000000" stroke="none" stroke-width="0"/><path d="M68.3885,348.1l13,10.3h-26z" fill="#000000" stroke="none" stroke-width="0"/><path d="M9.3885,360.5v-4.2h83.6v4.2z" fill="#000000" stroke="none" stroke-width="0"/></g><g fill="#000000" stroke="#fffee0" stroke-width="2"><path d="M220.99413,41.97443l-16,28.6l-16,-28.6z" data-paper-data="{&quot;index&quot;:null}"/><path d="M188.99413,41.97443l-16,28.6l-16,-28.6z" data-paper-data="{&quot;index&quot;:null}"/><path d="M284.99413,41.97443l-16,28.6l-16,-28.6z" data-paper-data="{&quot;index&quot;:null}"/><path d="M252.99413,41.97443l-16,28.6l-16,-28.6z" data-paper-data="{&quot;index&quot;:null}"/><path d="M316.99413,41.97443l-16,28.6l-16,-28.6z" data-paper-data="{&quot;index&quot;:null}"/></g><g fill="#000000" stroke="#fffee0" stroke-width="2"><path d="M380.66079,41.97443l-16,28.6l-16,-28.6z" data-paper-data="{&quot;index&quot;:null}"/><path d="M348.66079,41.97443l-16,28.6l-16,-28.6z" data-paper-data="{&quot;index&quot;:null}"/><path d="M444.66079,41.97443l-16,28.6l-16,-28.6z" data-paper-data="{&quot;index&quot;:null}"/><path d="M412.66079,41.97443l-16,28.6l-16,-28.6z" data-paper-data="{&quot;index&quot;:null}"/><path d="M476.66079,41.97443l-16,28.6l-16,-28.6z" data-paper-data="{&quot;index&quot;:null}"/></g><g fill="#000000" stroke="#fffee0" stroke-width="2"><path d="M188.99413,358.57443l16,-28.6l16,28.6z" data-paper-data="{&quot;index&quot;:null}"/><path d="M156.99413,358.57443l16,-28.6l16,28.6z" data-paper-data="{&quot;index&quot;:null}"/><path d="M252.99413,358.57443l16,-28.6l16,28.6z" data-paper-data="{&quot;index&quot;:null}"/><path d="M220.99413,358.57443l16,-28.6l16,28.6z" data-paper-data="{&quot;index&quot;:null}"/><path d="M284.99413,358.57443l16,-28.6l16,28.6z" data-paper-data="{&quot;index&quot;:null}"/></g><g fill="#000000" stroke="#fffee0" stroke-width="2"><path d="M348.66079,358.57443l16,-28.6l16,28.6z" data-paper-data="{&quot;index&quot;:null}"/><path d="M316.66079,358.57443l16,-28.6l16,28.6z" data-paper-data="{&quot;index&quot;:null}"/><path d="M412.66079,358.57443l16,-28.6l16,28.6z" data-paper-data="{&quot;index&quot;:null}"/><path d="M380.66079,358.57443l16,-28.6l16,28.6z" data-paper-data="{&quot;index&quot;:null}"/><path d="M444.66079,358.57443l16,-28.6l16,28.6z" data-paper-data="{&quot;index&quot;:null}"/></g><path d="M-50.54054,-4.68468v-33.03303h576.57657v33.03304z" fill="none" stroke="none" stroke-width="NaN"/><g fill="#000000" stroke="#ffffff" stroke-width="2"><path d="M65,329v-32h32v32z"/><path d="M65,360v-32h32v32z"/></g><g><path d="M152.39999,282.97502v0c0.9,1.1 -1,1.7 -1.3,2.4c-0.2,0.5 -0.7,0.8 -1.2,0.8h-17.9c-11.7,-8.5 -12,-24.3 -12,-34.8c0,-10.5 -0.9,-30.5 12.6,-35.6c8,0 9.8,0.2 17.9,0.2c-1.1,0.3 -3.3,0.6 -4.2,1.2c-0.9,0 -0.5,0 -0.7,0c-4.1,5 -4.1,7.4 -4.1,7.4l0.7,0.2h-1.3c-0.4,0.9 -0.6,1.3 -0.9,2.3h4.1c0.2,-0.6 0.2,-0.9 0.4,-1.3l-0.9,1.3c-2.9,8 0.7,16.6 0.7,24.1c0,7.5 -2.8,14.7 -0.4,21.4v1.4c-0.2,-0.1 -0.2,-0.2 -0.2,-0.4c-1.6,0.2 -2.4,0.2 -4.1,0.2c0.3,0.9 0.5,1.3 0.9,2.2h0.2c0.2,0.9 1.1,3.3 3.9,6.9h7.8zM138.09999,268.275v0c1.6,0 2.4,0 4.1,0c-0.1,-1 -0.1,-1.4 -0.3,-2.4c-1.6,0 -2.4,0 -4.1,0c0.2,1 0.2,1.4 0.4,2.4zM137.09999,244.47502v0h4.2c0,-1 0,-1.5 0,-2.6h-4.1c0,1 0,1.6 0,2.6zM137.09999,250.17501v2.2h4.2v-2.2zM137.69999,224.87501h-4.1c-0.4,0.9 -0.6,1.3 -0.9,2.3h4.1c0.3,-0.9 0.5,-1.4 0.9,-2.3zM131.19999,233.07502c-0.2,1 -0.2,1.5 -0.4,2.6h4.1c0.2,-1 0.2,-1.5 0.4,-2.6zM130.09999,241.87501c0,1 0,1.6 0,2.6h4.2c0,-1 0,-1.5 0,-2.6zM129.89999,250.17501v2.2h4.2v-2.2zM129.99998,257.87501c0,0.9 0,1.4 0,2.4h4.1c0,-1 0,-1.4 0,-2.4zM134.79999,265.87501v0c-1.6,0 -2.4,0 -4.1,0c0.2,1 0.2,1.5 0.4,2.5c1.6,0 2.4,0 4.1,0c-0.2,-0.9 -0.2,-1.4 -0.4,-2.4zM132.49998,274.07502c0.3,0.9 0.5,1.3 0.9,2.2c1.6,-0.2 2.4,-0.2 4.1,-0.2c-0.4,-0.8 -0.6,-1.3 -0.9,-2.2c-1.6,0.2 -2.4,0.2 -4.1,0.2zM141.19999,260.275c0,-1 0,-1.5 0,-2.4h-4.1c0,1 0,1.4 0,2.4zM138.19999,233.17501c-0.2,1 -0.2,1.5 -0.4,2.6h4.1c0.2,-1 0.2,-1.5 0.4,-2.6zM136.19999,220.17501h4.1c0.5,-0.8 0.8,-1.1 1.5,-1.7h-4.1c-0.7,0.6 -0.9,1 -1.5,1.7zM128.99998,220.17501h4.1c0.6,-0.8 0.8,-1.1 1.5,-1.7h-4.1c-0.7,0.6 -0.9,1 -1.5,1.7zM125.29999,227.17501h4.1c0.3,-0.9 0.5,-1.4 0.9,-2.3h-4.1c-0.4,0.9 -0.6,1.3 -0.9,2.3zM123.39999,235.67501h4.1c0.2,-1 0.2,-1.5 0.4,-2.6h-4.1c-0.2,1 -0.2,1.5 -0.4,2.6zM122.79999,241.87501v0c-0.2,1 -0.2,1.6 -0.2,2.6h4.2c0.2,-1 0.2,-1.5 0.2,-2.6h-4.1zM122.59999,252.37501h4.2v-2.2h-4.2c0,0.9 0,1.3 0,2.2zM122.79999,257.775v0c0.2,1 0.2,1.5 0.2,2.5h4.1c-0.2,-0.9 -0.2,-1.4 -0.2,-2.4h-4.1zM123.89999,268.57502c1.6,0 2.4,0 4.1,0c-0.2,-1 -0.2,-1.5 -0.4,-2.5c-1.6,0 -2.4,0 -4.1,0c0.2,1 0.2,1.5 0.4,2.5zM125.49998,274.07502v0c0.3,1 0.5,1.4 0.9,2.3c1.6,-0.2 2.4,-0.2 4.1,-0.2c-0.4,-0.8 -0.6,-1.3 -0.9,-2.2c-1.6,0.2 -2.4,0.2 -4.1,0.2zM130.59999,283.17501v0c1.6,0 2.4,0 4.1,0c-0.7,-0.7 -0.9,-1.2 -1.5,-1.9c-1.6,0.2 -2.4,0.2 -4.1,0.2c0.6,0.7 0.8,1.1 1.5,1.8zM137.69999,282.87502v0c1.6,0 2.4,0 4.1,0c-0.7,-0.7 -1,-1.1 -1.6,-1.9c-1.6,0.2 -2.4,0.2 -4.1,0.2c0.5,0.8 0.8,1.2 1.5,1.9z" fill="#000000" stroke="none" stroke-width="0"/><path d="M140.09999,211.27502c0,-1.71208 1.38792,-3.1 3.1,-3.1c1.71208,0 3.1,1.38792 3.1,3.1c0,1.71208 -1.38792,3.1 -3.1,3.1c-1.71208,0 -3.1,-1.38792 -3.1,-3.1z" fill="#ff77ff" stroke="#fee6ff" stroke-width="0.9"/><path d="M140.09999,291.27502c0,-1.71208 1.38792,-3.1 3.1,-3.1c1.71208,0 3.1,1.38792 3.1,3.1c0,1.71208 -1.38792,3.1 -3.1,3.1c-1.71208,0 -3.1,-1.38792 -3.1,-3.1z" fill="#ff77ff" stroke="#fee6ff" stroke-width="0.9"/><path d="M162.99998,251.37501v0c0,18.3 -3.1,28.9 -10.5,35.1h-17.8c8.5,-10.6 10.3,-22.4 10.3,-35.4c0,-13 -1.5,-25.3 -10.3,-35.4h17.8c6.9,5.8 10.5,17.4 10.5,35.6zM160.59999,248.67501v0c-0.1,-2.5 -0.3,-5 -0.5,-7.4h-3.1c0.3,2.4 0.5,4.9 0.5,7.3h3.1zM159.39999,236.47502v0c-0.4,-2.4 -1,-4.8 -1.7,-7.1h-3.1c0.7,2.3 1.3,4.6 1.7,7h3.1zM148.49998,220.17501h-3.1c0.8,1.3 1.6,2.8 2.3,4.3h3.1c-0.6,-1.5 -1.4,-2.9 -2.3,-4.3zM152.69999,229.37501h-3.1c0.7,2.3 1.3,4.6 1.6,6.9h3.1c-0.5,-2.3 -1,-4.7 -1.7,-6.9zM151.79999,241.27502c0.2,2.4 0.4,4.9 0.4,7.3h3.1c0,-2.4 -0.2,-4.9 -0.4,-7.3zM149.79999,241.37501v0h-3.1c0.1,2.4 0.3,4.8 0.3,7.2h3.1c-0.1,-2.5 -0.2,-4.9 -0.4,-7.3zM146.69999,260.47502h3.1c0.2,-2.3 0.2,-4.6 0.2,-6.8h-3.1c0,2.3 0,4.6 -0.2,6.8zM151.39999,264.87501v0c-0.3,2.3 -0.8,4.7 -1.5,6.8h3.1c0.7,-2.2 1.2,-4.5 1.5,-6.7h-3.1zM151.89999,260.275h3.1c0.2,-2.2 0.2,-4.5 0.2,-6.7h-3.1c0,2.3 0,4.6 -0.2,6.8zM152.69999,224.47502h3.1c-0.5,-1.5 -1.4,-2.9 -2.2,-4.3h-3.1c0.9,1.3 1.6,2.8 2.3,4.3zM142.39999,224.47502h3.1c-0.6,-1.5 -1.4,-3 -2.3,-4.3h-3.1c0.9,1.3 1.7,2.8 2.4,4.3zM144.49998,229.67501v0c0.7,2.3 1.2,4.6 1.5,6.8h3.1c-0.4,-2.4 -0.9,-4.7 -1.6,-6.9h-3.1zM144.69999,271.77502h3.1c0.7,-2.2 1.2,-4.6 1.5,-6.8h-3.1c-0.3,2.3 -0.8,4.7 -1.5,6.8zM139.29999,282.77502h3.1c1.4,-2.1 2.6,-4.1 3.6,-6.3h-3.1M147.79999,282.77502c1.3,-2.1 2.5,-4.1 3.5,-6.3h-3.1c-1,2.2 -2.3,4.2 -3.6,6.3zM156.39999,276.57502h-3.1c-1,2.1 -2.2,4.1 -3.5,6.2h3.1c1.4,-2 2.5,-4.1 3.5,-6.2zM158.19999,271.57502v0c0.7,-2.1 1.2,-4.4 1.5,-6.6h-3.1c-0.3,2.2 -0.8,4.6 -1.5,6.7h3.1zM160.19999,260.37501c0.2,-2.2 0.2,-4.5 0.2,-6.7h-3.1c0,2.2 0,4.5 -0.2,6.7z" fill="#000000" stroke="none" stroke-width="0"/><path d="M131.89999,221.37501c-4.8,0 -8.8,13.3 -8.8,29.7c0,16.4 3.9,29.7 8.8,29.7c4.9,0 8.8,-13.3 8.8,-29.7c0,-16.4 -3.9,-29.7 -8.8,-29.7zM144.79999,251.07502c0,20 -5.7,36.3 -12.8,36.3c-7.1,0 -12.9,-16.2 -12.9,-36.2c0,-20 5.8,-36.3 12.9,-36.3c7.1,0 12.8,16.2 12.8,36.3v0z" fill="#ff77ff" stroke="none" stroke-width="0"/><path d="M144.79999,251.17501c0,20 -5.7,36.3 -12.8,36.3c-7.1,0 -12.9,-16.3 -12.9,-36.3c0,-20 5.8,-36.3 12.9,-36.3c7.1,0 12.8,16.2 12.8,36.3z" fill="none" stroke="#fee6ff" stroke-width="1.9"/><path d="M151.79999,267.97502c0,-1.71208 1.38792,-3.1 3.1,-3.1c1.71208,0 3.1,1.38792 3.1,3.1c0,1.71208 -1.38792,3.1 -3.1,3.1c-1.71208,0 -3.1,-1.38792 -3.1,-3.1z" fill="#ff77ff" stroke="#fee6ff" stroke-width="0.9"/><path d="M151.79999,233.67501c0,-1.71208 1.38792,-3.1 3.1,-3.1c1.71208,0 3.1,1.38792 3.1,3.1c0,1.71208 -1.38792,3.1 -3.1,3.1c-1.71208,0 -3.1,-1.38792 -3.1,-3.1z" fill="#ff77ff" stroke="#fee6ff" stroke-width="0.9"/></g><g fill="#000000" stroke="#ffffff" stroke-width="2"><path d="M411.2761,293.02285v-32h32v32z"/><path d="M411.2761,325.02285v-32h32v32z"/><path d="M411.2761,357.02285v-32h32v32z"/></g></g></g></svg>