<svg version="1.1" xmlns="http://www.w3.org/2000/svg" xmlns:xlink="http://www.w3.org/1999/xlink" width="576.57657" height="398.71771" viewBox="0,0,576.57657,398.71771"><g transform="translate(50.54054,37.71771)"><g data-paper-data="{&quot;isPaintingLayer&quot;:true}" fill-rule="nonzero" stroke-linecap="butt" stroke-linejoin="miter" stroke-miterlimit="10" stroke-dasharray="" stroke-dashoffset="0" style="mix-blend-mode: normal"><path d="M-50.54054,-4.68468v-33.03303h576.57657v33.03304z" fill="none" stroke="none" stroke-width="NaN"/><path d="M61.99413,41.97443l-16,28.6l-16,-28.6z" data-paper-data="{&quot;index&quot;:null}" fill="#000000" stroke="#fffee0" stroke-width="2"/><path d="M29.99413,41.97443l-16,28.6l-16,-28.6z" data-paper-data="{&quot;index&quot;:null}" fill="#000000" stroke="#fffee0" stroke-width="2"/><path d="M125.99413,41.97443l-16,28.6l-16,-28.6z" data-paper-data="{&quot;index&quot;:null}" fill="#000000" stroke="#fffee0" stroke-width="2"/><path d="M93.99413,41.97443l-16,28.6l-16,-28.6z" data-paper-data="{&quot;index&quot;:null}" fill="#000000" stroke="#fffee0" stroke-width="2"/><path d="M29.99413,358.57443l16,-28.6l16,28.6z" data-paper-data="{&quot;index&quot;:null}" fill="#000000" stroke="#fffee0" stroke-width="2"/><path d="M-2.00587,358.57443l16,-28.6l16,28.6z" data-paper-data="{&quot;index&quot;:null}" fill="#000000" stroke="#fffee0" stroke-width="2"/><path d="M93.99413,358.57443l16,-28.6l16,28.6z" data-paper-data="{&quot;index&quot;:null}" fill="#000000" stroke="#fffee0" stroke-width="2"/><path d="M61.99413,358.57443l16,-28.6l16,28.6z" data-paper-data="{&quot;index&quot;:null}" fill="#000000" stroke="#fffee0" stroke-width="2"/><path d="M96,74v-32h32v32z" fill="#000000" stroke="#ffffff" stroke-width="2"/><path d="M96,106v-32h32v32z" fill="#000000" stroke="#ffffff" stroke-width="2"/><path d="M96,138v-32h32v32z" fill="#000000" stroke="#ffffff" stroke-width="2"/><path d="M128,138v-32h32v32z" fill="#000000" stroke="#ffffff" stroke-width="2"/><path d="M160,138v-32h32v32z" fill="#000000" stroke="#ffffff" stroke-width="2"/><path d="M192,138v-32h32v32z" fill="#000000" stroke="#ffffff" stroke-width="2"/><path d="M224,138v-32h32v32z" fill="#000000" stroke="#ffffff" stroke-width="2"/><path d="M256,138v-32h32v32z" fill="#000000" stroke="#ffffff" stroke-width="2"/><path d="M288,138v-32h32v32z" fill="#000000" stroke="#ffffff" stroke-width="2"/><path d="M320,138v-32h32v32z" fill="#000000" stroke="#ffffff" stroke-width="2"/><path d="M352,138v-32h32v32z" fill="#000000" stroke="#ffffff" stroke-width="2"/><path d="M384,138v-32h32v32z" fill="#000000" stroke="#ffffff" stroke-width="2"/><path d="M416,138v-32h32v32z" fill="#000000" stroke="#ffffff" stroke-width="2"/><path d="M448,138v-32h32v32z" fill="#000000" stroke="#ffffff" stroke-width="2"/><path d="M96,297v-32h32v32z" fill="#000000" stroke="#ffffff" stroke-width="2"/><path d="M128,297v-32h32v32z" fill="#000000" stroke="#ffffff" stroke-width="2"/><path d="M160,297v-32h32v32z" fill="#000000" stroke="#ffffff" stroke-width="2"/><path d="M192,297v-32h32v32z" fill="#000000" stroke="#ffffff" stroke-width="2"/><path d="M224,297v-32h32v32z" fill="#000000" stroke="#ffffff" stroke-width="2"/><path d="M256,297v-32h32v32z" fill="#000000" stroke="#ffffff" stroke-width="2"/><path d="M288,297v-32h32v32z" fill="#000000" stroke="#ffffff" stroke-width="2"/><path d="M320,297v-32h32v32z" fill="#000000" stroke="#ffffff" stroke-width="2"/><path d="M352,297v-32h32v32z" fill="#000000" stroke="#ffffff" stroke-width="2"/><path d="M384,297v-32h32v32z" fill="#000000" stroke="#ffffff" stroke-width="2"/><path d="M416,297v-32h32v32z" fill="#000000" stroke="#ffffff" stroke-width="2"/><path d="M448,297v-32h32v32z" fill="#000000" stroke="#ffffff" stroke-width="2"/><path d="M96,329v-32h32v32z" fill="#000000" stroke="#ffffff" stroke-width="2"/><path d="M96,360v-32h32v32z" fill="#000000" stroke="#ffffff" stroke-width="2"/><g fill="#000000" stroke="#fffee0" stroke-width="2"><path d="M350.8002,265.47562l16,-18l16,18z"/><path d="M318.8002,265.47562l16,-18l16,18z"/><path d="M414.8002,265.47562l16,-18l16,18z"/><path d="M382.8002,265.47562l16,-18l16,18z"/><path d="M446.8002,265.47562l16,-18l16,18z"/></g></g></g></svg>