<svg version="1.1" xmlns="http://www.w3.org/2000/svg" xmlns:xlink="http://www.w3.org/1999/xlink" width="576.57657" height="399.0798" viewBox="0,0,576.57657,399.0798"><g transform="translate(50.54054,37.71771)"><g data-paper-data="{&quot;isPaintingLayer&quot;:true}" fill-rule="nonzero" stroke-linecap="butt" stroke-linejoin="miter" stroke-miterlimit="10" stroke-dasharray="" stroke-dashoffset="0" style="mix-blend-mode: normal"><g fill="#000000" stroke="#fffee0" stroke-width="2"><path d="M351.99999,360.36209l16,-18l16,18z"/><path d="M319.99998,360.36209l16,-18l16,18z"/><path d="M415.99999,360.36209l16,-18l16,18z"/><path d="M383.99999,360.36209l16,-18l16,18z"/><path d="M447.99999,360.36209l16,-18l16,18z"/></g><path d="M-50.54054,-4.68468v-33.03303h576.57657v33.03304z" fill="none" stroke="none" stroke-width="NaN"/><g><path d="M447,329v-32h32v32z" fill="#000000" stroke="#ffffff" stroke-width="2"/><path d="M319,360v-32h32v32z" fill="#000000" stroke="#ffffff" stroke-width="2"/><path d="M447,360v-32h32v32z" fill="#000000" stroke="#ffffff" stroke-width="2"/><path d="M477.79999,297.1838c-1.4,1.1 -28.7,0.9 -29.6,0c0,-4.1 6.6,-7.4 14.8,-7.4c8.2,0 14.8,3.3 14.8,7.4z" fill="#fbff00" stroke="#fffdbc" stroke-width="1.9"/></g></g></g></svg>