<svg version="1.1" xmlns="http://www.w3.org/2000/svg" xmlns:xlink="http://www.w3.org/1999/xlink" width="576.57657" height="399.77907" viewBox="0,0,576.57657,399.77907"><g transform="translate(50.54054,37.71771)"><g data-paper-data="{&quot;isPaintingLayer&quot;:true}" fill-rule="nonzero" stroke-linecap="butt" stroke-linejoin="miter" stroke-miterlimit="10" stroke-dasharray="" stroke-dashoffset="0" style="mix-blend-mode: normal"><g><path d="M432.65756,353.78181h-21.8l10.9,-24z" fill="#ff00de" stroke="#fffee0" stroke-width="2"/><path d="M456.65756,360.38181h-21.8l10.9,-24z" fill="#ff00de" stroke="#fffee0" stroke-width="2"/><path d="M418.65756,359.08181h-21.8l10.9,-24z" fill="#ff00de" stroke="#fffee0" stroke-width="2"/><path d="M394.95756,358.58181h-21.8l10.9,-20.2z" fill="#ff00de" stroke="#fffee0" stroke-width="2"/><path d="M454.65756,359.08181h-22.3l11.2,-10.3l11.2,10.3z" fill="#000000" stroke="none" stroke-width="0"/><path d="M427.65756,357.08181h-22.3l11.2,-10.3l11.2,10.3z" fill="#000000" stroke="none" stroke-width="0"/><path d="M441.95756,356.38181h-14l7,-13.7z" fill="#000000" stroke="none" stroke-width="0"/><path d="M471.85756,358.58181h-22.3l11.2,-10.3l11.2,10.3z" fill="#000000" stroke="none" stroke-width="0"/><path d="M459.25756,357.88181h-14l7,-11.8z" fill="#000000" stroke="none" stroke-width="0"/><path d="M415.25756,357.08181h-14l7,-12.4z" fill="#000000" stroke="none" stroke-width="0"/><path d="M395.25756,357.08181h-14l7,-14z" fill="#000000" stroke="none" stroke-width="0"/><path d="M408.95756,358.38181h-14l7,-10.3z" fill="#000000" stroke="none" stroke-width="0"/><path d="M438.25756,358.78181h-26l13,-10.3z" fill="#000000" stroke="none" stroke-width="0"/><path d="M391.65756,358.78181h-26l13,-10.3z" fill="#000000" stroke="none" stroke-width="0"/><path d="M406.95756,357.38181h-26l13,-10.3z" fill="#000000" stroke="none" stroke-width="0"/><path d="M379.15756,358.68181v-3.1h70.5v3.1z" fill="#000000" stroke="none" stroke-width="0"/></g><g><path d="M58.8,334.1l10.9,24h-21.8z" fill="#ff00de" stroke="#fffee0" stroke-width="2"/><path d="M87.8,338.5l10.9,21.7h-21.8z" fill="#ff00de" stroke="#fffee0" stroke-width="2"/><path d="M43.3,348.8l11.2,10.3h-22.3l11.2,-10.3z" fill="#000000" stroke="none" stroke-width="0"/><path d="M71.3,347.8l11.2,10.3h-22.3l11.2,-10.3z" fill="#000000" stroke="none" stroke-width="0"/><path d="M52.8,343.8l7,13.7h-14z" fill="#000000" stroke="none" stroke-width="0"/><path d="M79.5,343.1l7,15h-14z" fill="#000000" stroke="none" stroke-width="0"/><path d="M103.5,344.1l7,14h-14z" fill="#000000" stroke="none" stroke-width="0"/><path d="M33.8,348.8l7,10.3h-14z" fill="#000000" stroke="none" stroke-width="0"/><path d="M85.8,349.1l7,10.3h-14z" fill="#000000" stroke="none" stroke-width="0"/><path d="M62.5,349.5l13,10.3h-26z" fill="#000000" stroke="none" stroke-width="0"/><path d="M114.2,349.5l13,10.3h-26z" fill="#000000" stroke="none" stroke-width="0"/><path d="M94.8,348.1l13,10.3h-26z" fill="#000000" stroke="none" stroke-width="0"/><path d="M35.8,360.5v-4.2h83.6v4.2z" fill="#000000" stroke="none" stroke-width="0"/></g><g><path d="M222.67729,354.46136h-21.8l10.9,-24z" fill="#ff00de" stroke="#fffee0" stroke-width="2"/><path d="M246.67729,361.06136h-21.8l10.9,-24z" fill="#ff00de" stroke="#fffee0" stroke-width="2"/><path d="M208.67729,359.76136h-21.8l10.9,-24z" fill="#ff00de" stroke="#fffee0" stroke-width="2"/><path d="M184.97729,359.26136h-21.8l10.9,-20.2z" fill="#ff00de" stroke="#fffee0" stroke-width="2"/><path d="M244.67729,359.76136h-22.3l11.2,-10.3l11.2,10.3z" fill="#000000" stroke="none" stroke-width="0"/><path d="M217.67729,357.76136h-22.3l11.2,-10.3l11.2,10.3z" fill="#000000" stroke="none" stroke-width="0"/><path d="M231.97729,357.06136h-14l7,-13.7z" fill="#000000" stroke="none" stroke-width="0"/><path d="M261.87729,359.26136h-22.3l11.2,-10.3l11.2,10.3z" fill="#000000" stroke="none" stroke-width="0"/><path d="M249.27729,358.56136h-14l7,-11.8z" fill="#000000" stroke="none" stroke-width="0"/><path d="M205.27729,357.76136h-14l7,-12.4z" fill="#000000" stroke="none" stroke-width="0"/><path d="M185.27729,357.76136h-14l7,-14z" fill="#000000" stroke="none" stroke-width="0"/><path d="M198.97729,359.06136h-14l7,-10.3z" fill="#000000" stroke="none" stroke-width="0"/><path d="M228.27729,359.46136h-26l13,-10.3z" fill="#000000" stroke="none" stroke-width="0"/><path d="M181.67729,359.46136h-26l13,-10.3z" fill="#000000" stroke="none" stroke-width="0"/><path d="M196.97729,358.06136h-26l13,-10.3z" fill="#000000" stroke="none" stroke-width="0"/><path d="M169.17729,359.36136v-3.1h70.5v3.1z" fill="#000000" stroke="none" stroke-width="0"/></g><g><path d="M305.47586,332.7409l10.9,24h-21.8z" fill="#ff00de" stroke="#fffee0" stroke-width="2"/><path d="M334.47586,337.1409l10.9,21.7h-21.8z" fill="#ff00de" stroke="#fffee0" stroke-width="2"/><path d="M289.97586,347.4409l11.2,10.3h-22.3l11.2,-10.3z" fill="#000000" stroke="none" stroke-width="0"/><path d="M317.97586,346.4409l11.2,10.3h-22.3l11.2,-10.3z" fill="#000000" stroke="none" stroke-width="0"/><path d="M299.47586,342.4409l7,13.7h-14z" fill="#000000" stroke="none" stroke-width="0"/><path d="M326.17586,341.7409l7,15h-14z" fill="#000000" stroke="none" stroke-width="0"/><path d="M350.17586,342.7409l7,14h-14z" fill="#000000" stroke="none" stroke-width="0"/><path d="M280.47586,347.4409l7,10.3h-14z" fill="#000000" stroke="none" stroke-width="0"/><path d="M332.47586,347.7409l7,10.3h-14z" fill="#000000" stroke="none" stroke-width="0"/><path d="M309.17586,348.1409l13,10.3h-26z" fill="#000000" stroke="none" stroke-width="0"/><path d="M360.87586,348.1409l13,10.3h-26z" fill="#000000" stroke="none" stroke-width="0"/><path d="M341.47586,346.7409l13,10.3h-26z" fill="#000000" stroke="none" stroke-width="0"/><path d="M282.47586,359.1409v-4.2h83.6v4.2z" fill="#000000" stroke="none" stroke-width="0"/></g><path d="M-50.54054,-4.68468v-33.03303h576.57657v33.03304z" fill="none" stroke="none" stroke-width="NaN"/><path d="M256,297v-32h32v32z" fill="#000000" stroke="#ffffff" stroke-width="2"/><path d="M128,329v-32h32v32z" fill="#000000" stroke="#ffffff" stroke-width="2"/><path d="M256,329v-32h32v32z" fill="#000000" stroke="#ffffff" stroke-width="2"/><path d="M0,360v-32h32v32z" fill="#000000" stroke="#ffffff" stroke-width="2"/><path d="M128,360v-32h32v32z" fill="#000000" stroke="#ffffff" stroke-width="2"/><path d="M256,360v-32h32v32z" fill="#000000" stroke="#ffffff" stroke-width="2"/><path d="M352,329v-32h32v32z" fill="#000000" stroke="#ffffff" stroke-width="2"/><path d="M352,360v-32h32v32z" fill="#000000" stroke="#ffffff" stroke-width="2"/><path d="M448,360v-32h32v32z" fill="#000000" stroke="#ffffff" stroke-width="2"/></g></g></svg>