<svg version="1.1" xmlns="http://www.w3.org/2000/svg" xmlns:xlink="http://www.w3.org/1999/xlink" width="576.57657" height="398.71771" viewBox="0,0,576.57657,398.71771"><g transform="translate(50.54054,37.71771)"><g data-paper-data="{&quot;isPaintingLayer&quot;:true}" fill-rule="nonzero" stroke-linecap="butt" stroke-linejoin="miter" stroke-miterlimit="10" stroke-dasharray="" stroke-dashoffset="0" style="mix-blend-mode: normal"><g data-paper-data="{&quot;index&quot;:null}" stroke="none" stroke-width="0"><path d="M433.65366,258.76225l3.8,52.3h-7.7l3.8,-52.3z" fill="#000000"/><path d="M427.95366,260.46225c0,-3.1 2.5,-5.7 5.7,-5.7c3.2,0 5.7,2.5 5.7,5.7c0,3.2 -2.5,5.7 -5.7,5.7c-3.2,0 -5.7,-2.5 -5.7,-5.7z" fill="#ff00de"/></g><g data-paper-data="{&quot;index&quot;:null}" stroke="none" stroke-width="0"><path d="M98.92069,171.53589l-3.8,-52.3h7.7l-3.8,52.3z" fill="#000000"/><path d="M99.02069,164.13589c3.2,0 5.7,2.5 5.7,5.7c0,3.2 -2.5,5.7 -5.7,5.7c-3.2,0 -5.7,-2.6 -5.7,-5.7c0,-3.2 2.5,-5.7 5.7,-5.7z" fill="#ff00de"/></g><g data-paper-data="{&quot;index&quot;:null}" stroke="none" stroke-width="0"><path d="M313.92238,171.53589l-3.8,-52.3h7.7l-3.8,52.3z" fill="#000000"/><path d="M314.02238,164.13589c3.2,0 5.7,2.5 5.7,5.7c0,3.2 -2.5,5.7 -5.7,5.7c-3.2,0 -5.7,-2.6 -5.7,-5.7c0,-3.2 2.5,-5.7 5.7,-5.7z" fill="#ff00de"/></g><g fill="#000000" stroke="#fffee0" stroke-width="2"><path d="M33.99698,359.35608l16,-18l16,18z"/><path d="M1.99698,359.35608l16,-18l16,18z"/><path d="M97.99698,359.35608l16,-18l16,18z"/><path d="M65.99698,359.35608l16,-18l16,18z"/><path d="M161.99698,359.35608l16,-18l16,18z"/><path d="M129.99698,359.35608l16,-18l16,18z"/><path d="M225.99698,359.35608l16,-18l16,18z"/><path d="M193.99698,359.35608l16,-18l16,18z"/><path d="M289.99698,359.35608l16,-18l16,18z"/><path d="M257.99698,359.35608l16,-18l16,18z"/><path d="M353.99698,359.35608l16,-18l16,18z"/><path d="M321.99698,359.35608l16,-18l16,18z"/><path d="M417.99698,359.35608l16,-18l16,18z"/><path d="M385.99698,359.35608l16,-18l16,18z"/></g><path d="M-50.54054,-4.68468v-33.03303h576.57657v33.03304z" fill="none" stroke="none" stroke-width="NaN"/><g fill="none" stroke="none" stroke-width="1" font-family="sans-serif" font-weight="normal" font-size="12" text-anchor="start"><g><g/></g><g/><g/></g><path d="M0,138v-32h32v32z" fill="#000000" stroke="#ffffff" stroke-width="2"/><path d="M32,138v-32h32v32z" fill="#000000" stroke="#ffffff" stroke-width="2"/><path d="M64,138v-32h32v32z" fill="#000000" stroke="#ffffff" stroke-width="2"/><path d="M96,138v-32h32v32z" fill="#000000" stroke="#ffffff" stroke-width="2"/><path d="M128,138v-32h32v32z" fill="#000000" stroke="#ffffff" stroke-width="2"/><path d="M160,138v-32h32v32z" fill="#000000" stroke="#ffffff" stroke-width="2"/><path d="M192,138v-32h32v32z" fill="#000000" stroke="#ffffff" stroke-width="2"/><path d="M224,138v-32h32v32z" fill="#000000" stroke="#ffffff" stroke-width="2"/><path d="M256,138v-32h32v32z" fill="#000000" stroke="#ffffff" stroke-width="2"/><path d="M288,138v-32h32v32z" fill="#000000" stroke="#ffffff" stroke-width="2"/><path d="M320,138v-32h32v32z" fill="#000000" stroke="#ffffff" stroke-width="2"/><path d="M352,138v-32h32v32z" fill="#000000" stroke="#ffffff" stroke-width="2"/><path d="M384,138v-32h32v32z" fill="#000000" stroke="#ffffff" stroke-width="2"/><g data-paper-data="{&quot;index&quot;:null}" fill="#000000" stroke="#fffede" stroke-width="2"><path d="M165.57104,137.9472l-19.14041,32.62861l-19.14041,-32.62861z"/><path d="M294.57104,137.9472l-19.14041,32.62861l-19.14041,-32.62861z"/></g><g><path d="M411.93429,187.65726v-6.3h10v6.3z" fill="#000000" stroke="none" stroke-width="0"/><path d="M387.43429,187.65726v-6.3h5.5v6.3z" fill="#000000" stroke="none" stroke-width="0"/><path d="M388.13429,179.85726v-6.3h5.5v6.3z" fill="#000000" stroke="none" stroke-width="0"/><path d="M389.63429,171.75726v-6h5.5v6z" fill="#000000" stroke="none" stroke-width="0"/><path d="M391.73429,164.55726v-5.1h5.5v5.1z" fill="#000000" stroke="none" stroke-width="0"/><path d="M393.63429,158.45726v-3.5h5.5v3.5z" fill="#000000" stroke="none" stroke-width="0"/><path d="M411.23429,179.55726v-5.8h10v5.8z" fill="#000000" stroke="none" stroke-width="0"/><path d="M409.83429,172.25726v-6h10v6z" fill="#000000" stroke="none" stroke-width="0"/><path d="M406.93429,164.55726v-5h10v5z" fill="#000000" stroke="none" stroke-width="0"/><path d="M404.53429,158.45726v-3.1h10v3.1z" fill="#000000" stroke="none" stroke-width="0"/><path d="M401.23429,154.25726v-2.4h10v2.4z" fill="#000000" stroke="none" stroke-width="0"/><path d="M396.93429,151.25726v-1.6h10v1.6z" fill="#000000" stroke="none" stroke-width="0"/><path d="M411.23429,195.15726v-5.8h10v5.8z" fill="#000000" stroke="none" stroke-width="0"/><path d="M409.83429,202.65726v-6h10v6z" fill="#000000" stroke="none" stroke-width="0"/><path d="M406.93429,209.35726v-5h10v5z" fill="#000000" stroke="none" stroke-width="0"/><path d="M404.53429,213.55726v-3.1h10v3.1z" fill="#000000" stroke="none" stroke-width="0"/><path d="M401.23429,217.05726v-2.4h10v2.4z" fill="#000000" stroke="none" stroke-width="0"/><path d="M396.93429,219.25726v-1.6h10v1.6z" fill="#000000" stroke="none" stroke-width="0"/><path d="M388.13429,195.45726v-6.3h5.5v6.3z" fill="#000000" stroke="none" stroke-width="0"/><path d="M389.63429,203.05726v-6h5.5v6z" fill="#000000" stroke="none" stroke-width="0"/><path d="M391.73429,209.45726v-5.1h5.5v5.1z" fill="#000000" stroke="none" stroke-width="0"/><path d="M393.63429,213.95726v-3.5h5.5v3.5z" fill="#000000" stroke="none" stroke-width="0"/><path d="M399.23429,154.95726c-4.8,0 -8.8,13.3 -8.8,29.7c0,16.4 3.9,29.7 8.8,29.7c4.9,0 8.8,-13.3 8.8,-29.7c0,-16.4 -3.9,-29.7 -8.8,-29.7zM412.03429,184.65726c0,20 -5.7,36.3 -12.8,36.3c-7.1,0 -12.9,-16.2 -12.9,-36.2c0,-20 5.8,-36.3 12.9,-36.3c7.1,0 12.8,16.2 12.8,36.3v0z" fill="#69f4ff" stroke="none" stroke-width="0"/><path d="M412.03429,184.75726c0,20 -5.7,36.3 -12.8,36.3c-7.1,0 -12.9,-16.3 -12.9,-36.3c0,-20 5.8,-36.3 12.9,-36.3c7.1,0 12.8,16.2 12.8,36.3z" fill="none" stroke="#e9fcff" stroke-width="1.9"/></g><g fill="#000000" stroke="#ffffff" stroke-width="2"><path d="M448.80658,329v-32h32v32z" data-paper-data="{&quot;index&quot;:null}"/><path d="M416.80658,329v-32h32v32z" data-paper-data="{&quot;index&quot;:null}"/><path d="M416.80658,360v-32h32v32z" data-paper-data="{&quot;index&quot;:null}"/></g></g></g></svg>