<svg version="1.1" xmlns="http://www.w3.org/2000/svg" xmlns:xlink="http://www.w3.org/1999/xlink" width="576.57657" height="398.71771" viewBox="0,0,576.57657,398.71771"><g transform="translate(50.54054,37.71771)"><g data-paper-data="{&quot;isPaintingLayer&quot;:true}" fill-rule="nonzero" stroke-linecap="butt" stroke-linejoin="miter" stroke-miterlimit="10" stroke-dasharray="" stroke-dashoffset="0" style="mix-blend-mode: normal"><path d="M-50.54054,-4.68468v-33.03303h576.57657v33.03304z" fill="none" stroke="none" stroke-width="NaN"/><g fill="#000000" stroke="#fffee0" stroke-width="2"><g><g><path d="M61.99413,41.97443l-16,28.6l-16,-28.6z" data-paper-data="{&quot;index&quot;:null}"/><path d="M29.99413,41.97443l-16,28.6l-16,-28.6z" data-paper-data="{&quot;index&quot;:null}"/><path d="M125.99413,41.97443l-16,28.6l-16,-28.6z" data-paper-data="{&quot;index&quot;:null}"/><path d="M93.99413,41.97443l-16,28.6l-16,-28.6z" data-paper-data="{&quot;index&quot;:null}"/><path d="M157.99413,41.97443l-16,28.6l-16,-28.6z" data-paper-data="{&quot;index&quot;:null}"/></g><g><path d="M220.99413,41.97443l-16,28.6l-16,-28.6z" data-paper-data="{&quot;index&quot;:null}"/><path d="M188.99413,41.97443l-16,28.6l-16,-28.6z" data-paper-data="{&quot;index&quot;:null}"/><path d="M284.99413,41.97443l-16,28.6l-16,-28.6z" data-paper-data="{&quot;index&quot;:null}"/><path d="M252.99413,41.97443l-16,28.6l-16,-28.6z" data-paper-data="{&quot;index&quot;:null}"/><path d="M316.99413,41.97443l-16,28.6l-16,-28.6z" data-paper-data="{&quot;index&quot;:null}"/></g></g><g><path d="M380.66079,41.97443l-16,28.6l-16,-28.6z" data-paper-data="{&quot;index&quot;:null}"/><path d="M348.66079,41.97443l-16,28.6l-16,-28.6z" data-paper-data="{&quot;index&quot;:null}"/><path d="M444.66079,41.97443l-16,28.6l-16,-28.6z" data-paper-data="{&quot;index&quot;:null}"/><path d="M412.66079,41.97443l-16,28.6l-16,-28.6z" data-paper-data="{&quot;index&quot;:null}"/><path d="M476.66079,41.97443l-16,28.6l-16,-28.6z" data-paper-data="{&quot;index&quot;:null}"/></g></g><g data-paper-data="{&quot;index&quot;:null}" fill="#000000" stroke="#fffee0" stroke-width="2"><g><g><path d="M29.99413,358.57443l16,-28.6l16,28.6z" data-paper-data="{&quot;index&quot;:null}"/><path d="M-2.00587,358.57443l16,-28.6l16,28.6z" data-paper-data="{&quot;index&quot;:null}"/><path d="M93.99413,358.57443l16,-28.6l16,28.6z" data-paper-data="{&quot;index&quot;:null}"/><path d="M61.99413,358.57443l16,-28.6l16,28.6z" data-paper-data="{&quot;index&quot;:null}"/><path d="M125.99413,358.57443l16,-28.6l16,28.6z" data-paper-data="{&quot;index&quot;:null}"/></g><g><path d="M188.99413,358.57443l16,-28.6l16,28.6z" data-paper-data="{&quot;index&quot;:null}"/><path d="M156.99413,358.57443l16,-28.6l16,28.6z" data-paper-data="{&quot;index&quot;:null}"/><path d="M252.99413,358.57443l16,-28.6l16,28.6z" data-paper-data="{&quot;index&quot;:null}"/><path d="M220.99413,358.57443l16,-28.6l16,28.6z" data-paper-data="{&quot;index&quot;:null}"/><path d="M284.99413,358.57443l16,-28.6l16,28.6z" data-paper-data="{&quot;index&quot;:null}"/></g></g><g><path d="M348.66079,358.57443l16,-28.6l16,28.6z" data-paper-data="{&quot;index&quot;:null}"/><path d="M316.66079,358.57443l16,-28.6l16,28.6z" data-paper-data="{&quot;index&quot;:null}"/><path d="M412.66079,358.57443l16,-28.6l16,28.6z" data-paper-data="{&quot;index&quot;:null}"/><path d="M380.66079,358.57443l16,-28.6l16,28.6z" data-paper-data="{&quot;index&quot;:null}"/><path d="M444.66079,358.57443l16,-28.6l16,28.6z" data-paper-data="{&quot;index&quot;:null}"/></g></g><path d="M411.2761,74v-32h32v32z" fill="#000000" stroke="#ffffff" stroke-width="2"/><path d="M411.2761,297v-32h32v32z" fill="#000000" stroke="#ffffff" stroke-width="2"/><path d="M411.2761,329v-32h32v32z" fill="#000000" stroke="#ffffff" stroke-width="2"/><path d="M411.2761,360v-32h32v32z" fill="#000000" stroke="#ffffff" stroke-width="2"/><g fill="#000000" stroke="#ffffff" stroke-width="2"><path d="M411.2761,106v-32h32v32z"/><path d="M411.2761,138v-32h32v32z"/><path d="M411.2761,170v-32h32v32z"/></g><g fill="#000000" stroke="#ffffff" stroke-width="2"><path d="M190.97925,73.87338v-32h32v32z"/><path d="M190.97925,105.87338v-32h32v32z"/><path d="M190.97925,137.87338v-32h32v32z"/></g><g><path d="M436.5547,220.5291v-6.3h10v6.3z" fill="#000000" stroke="none" stroke-width="0"/><path d="M411.9547,220.5291v-6.3h5.5v6.3z" fill="#000000" stroke="none" stroke-width="0"/><path d="M412.7547,212.7291v-6.3h5.5v6.3z" fill="#000000" stroke="none" stroke-width="0"/><path d="M414.1547,204.6291v-6h5.5v6z" fill="#000000" stroke="none" stroke-width="0"/><path d="M416.3547,197.4291v-5.1h5.5v5.1z" fill="#000000" stroke="none" stroke-width="0"/><path d="M418.2547,191.3291v-3.5h5.5v3.5z" fill="#000000" stroke="none" stroke-width="0"/><path d="M435.7547,212.4291v-5.8h10v5.8z" fill="#000000" stroke="none" stroke-width="0"/><path d="M434.4547,205.1291v-6h10v6z" fill="#000000" stroke="none" stroke-width="0"/><path d="M431.5547,197.4291v-5h10v5z" fill="#000000" stroke="none" stroke-width="0"/><path d="M429.1547,191.3291v-3.1h10v3.1z" fill="#000000" stroke="none" stroke-width="0"/><path d="M425.8547,187.1291v-2.4h10v2.4z" fill="#000000" stroke="none" stroke-width="0"/><path d="M421.5547,184.1291v-1.6h10v1.6z" fill="#000000" stroke="none" stroke-width="0"/><path d="M435.7547,228.0291v-5.8h10v5.8z" fill="#000000" stroke="none" stroke-width="0"/><path d="M434.4547,235.5291v-6h10v6z" fill="#000000" stroke="none" stroke-width="0"/><path d="M431.5547,242.2291v-5h10v5z" fill="#000000" stroke="none" stroke-width="0"/><path d="M429.1547,246.4291v-3.1h10v3.1z" fill="#000000" stroke="none" stroke-width="0"/><path d="M425.8547,249.9291v-2.4h10v2.4z" fill="#000000" stroke="none" stroke-width="0"/><path d="M421.5547,252.1291v-1.6h10v1.6z" fill="#000000" stroke="none" stroke-width="0"/><path d="M412.7547,228.3291v-6.3h5.5v6.3z" fill="#000000" stroke="none" stroke-width="0"/><path d="M414.1547,235.9291v-6h5.5v6z" fill="#000000" stroke="none" stroke-width="0"/><path d="M416.3547,242.3291v-5.1h5.5v5.1z" fill="#000000" stroke="none" stroke-width="0"/><path d="M418.2547,246.8291v-3.5h5.5v3.5z" fill="#000000" stroke="none" stroke-width="0"/><path d="M423.7547,187.8291c-4.8,0 -8.8,13.3 -8.8,29.7c0,16.4 3.9,29.7 8.8,29.7c4.9,0 8.8,-13.3 8.8,-29.7c0,-16.4 -3.9,-29.7 -8.8,-29.7zM436.6547,217.5291c0,20 -5.7,36.3 -12.8,36.3c-7.1,0 -12.9,-16.2 -12.9,-36.2c0,-20 5.8,-36.3 12.9,-36.3c7.1,0 12.8,16.2 12.8,36.3v0z" fill="#ffed48" stroke="none" stroke-width="0"/><path d="M436.6547,217.6291c0,20 -5.7,36.3 -12.8,36.3c-7.1,0 -12.9,-16.3 -12.9,-36.3c0,-20 5.8,-36.3 12.9,-36.3c7.1,0 12.8,16.2 12.8,36.3z" fill="none" stroke="#fffecc" stroke-width="1.9"/></g></g></g></svg>