<svg version="1.1" xmlns="http://www.w3.org/2000/svg" xmlns:xlink="http://www.w3.org/1999/xlink" width="576.57657" height="399.09952" viewBox="0,0,576.57657,399.09952"><g transform="translate(50.54054,37.71771)"><g data-paper-data="{&quot;isPaintingLayer&quot;:true}" fill-rule="nonzero" stroke-linecap="butt" stroke-linejoin="miter" stroke-miterlimit="10" stroke-dasharray="" stroke-dashoffset="0" style="mix-blend-mode: normal"><g><path d="M453.30124,353.78181h-21.8l10.9,-24z" fill="#ff00de" stroke="#fffee0" stroke-width="2"/><path d="M477.30124,360.38181h-21.8l10.9,-24z" fill="#ff00de" stroke="#fffee0" stroke-width="2"/><path d="M439.30124,359.08181h-21.8l10.9,-24z" fill="#ff00de" stroke="#fffee0" stroke-width="2"/><path d="M415.60124,358.58181h-21.8l10.9,-20.2z" fill="#ff00de" stroke="#fffee0" stroke-width="2"/><path d="M475.30124,359.08181h-22.3l11.2,-10.3l11.2,10.3z" fill="#000000" stroke="none" stroke-width="0"/><path d="M448.30124,357.08181h-22.3l11.2,-10.3l11.2,10.3z" fill="#000000" stroke="none" stroke-width="0"/><path d="M462.60124,356.38181h-14l7,-13.7z" fill="#000000" stroke="none" stroke-width="0"/><path d="M492.50124,358.58181h-22.3l11.2,-10.3l11.2,10.3z" fill="#000000" stroke="none" stroke-width="0"/><path d="M479.90124,357.88181h-14l7,-11.8z" fill="#000000" stroke="none" stroke-width="0"/><path d="M435.90124,357.08181h-14l7,-12.4z" fill="#000000" stroke="none" stroke-width="0"/><path d="M415.90124,357.08181h-14l7,-14z" fill="#000000" stroke="none" stroke-width="0"/><path d="M429.60124,358.38181h-14l7,-10.3z" fill="#000000" stroke="none" stroke-width="0"/><path d="M458.90124,358.78181h-26l13,-10.3z" fill="#000000" stroke="none" stroke-width="0"/><path d="M412.30124,358.78181h-26l13,-10.3z" fill="#000000" stroke="none" stroke-width="0"/><path d="M427.60124,357.38181h-26l13,-10.3z" fill="#000000" stroke="none" stroke-width="0"/><path d="M399.80124,358.68181v-3.1h70.5v3.1z" fill="#000000" stroke="none" stroke-width="0"/></g><g><path d="M344.77915,333.71911l10.9,24h-21.8z" fill="#ff00de" stroke="#fffee0" stroke-width="2"/><path d="M373.77915,338.11911l10.9,21.7h-21.8z" fill="#ff00de" stroke="#fffee0" stroke-width="2"/><path d="M329.27915,348.41911l11.2,10.3h-22.3l11.2,-10.3z" fill="#000000" stroke="none" stroke-width="0"/><path d="M357.27915,347.41911l11.2,10.3h-22.3l11.2,-10.3z" fill="#000000" stroke="none" stroke-width="0"/><path d="M338.77915,343.41911l7,13.7h-14z" fill="#000000" stroke="none" stroke-width="0"/><path d="M365.47915,342.71911l7,15h-14z" fill="#000000" stroke="none" stroke-width="0"/><path d="M389.47915,343.71911l7,14h-14z" fill="#000000" stroke="none" stroke-width="0"/><path d="M319.77915,348.41911l7,10.3h-14z" fill="#000000" stroke="none" stroke-width="0"/><path d="M371.77915,348.71911l7,10.3h-14z" fill="#000000" stroke="none" stroke-width="0"/><path d="M348.47915,349.11911l13,10.3h-26z" fill="#000000" stroke="none" stroke-width="0"/><path d="M400.17915,349.11911l13,10.3h-26z" fill="#000000" stroke="none" stroke-width="0"/><path d="M380.77915,347.71911l13,10.3h-26z" fill="#000000" stroke="none" stroke-width="0"/><path d="M321.77915,360.11911v-4.2h83.6v4.2z" fill="#000000" stroke="none" stroke-width="0"/></g><g><path d="M267.48951,333.71911l10.9,24h-21.8z" fill="#ff00de" stroke="#fffee0" stroke-width="2"/><path d="M296.48951,338.11911l10.9,21.7h-21.8z" fill="#ff00de" stroke="#fffee0" stroke-width="2"/><path d="M251.98951,348.41911l11.2,10.3h-22.3l11.2,-10.3z" fill="#000000" stroke="none" stroke-width="0"/><path d="M279.98951,347.41911l11.2,10.3h-22.3l11.2,-10.3z" fill="#000000" stroke="none" stroke-width="0"/><path d="M261.48951,343.41911l7,13.7h-14z" fill="#000000" stroke="none" stroke-width="0"/><path d="M288.18951,342.71911l7,15h-14z" fill="#000000" stroke="none" stroke-width="0"/><path d="M312.18951,343.71911l7,14h-14z" fill="#000000" stroke="none" stroke-width="0"/><path d="M242.48951,348.41911l7,10.3h-14z" fill="#000000" stroke="none" stroke-width="0"/><path d="M294.48951,348.71911l7,10.3h-14z" fill="#000000" stroke="none" stroke-width="0"/><path d="M271.18951,349.11911l13,10.3h-26z" fill="#000000" stroke="none" stroke-width="0"/><path d="M322.88951,349.11911l13,10.3h-26z" fill="#000000" stroke="none" stroke-width="0"/><path d="M303.48951,347.71911l13,10.3h-26z" fill="#000000" stroke="none" stroke-width="0"/><path d="M244.48951,360.11911v-4.2h83.6v4.2z" fill="#000000" stroke="none" stroke-width="0"/></g><path d="M-50.54054,-4.68468v-33.03303h576.57657v33.03304z" fill="none" stroke="none" stroke-width="NaN"/><path d="M0,329v-32h32v32z" fill="#000000" stroke="#ffffff" stroke-width="2"/><path d="M32,329v-32h32v32z" fill="#000000" stroke="#ffffff" stroke-width="2"/><path d="M64,329v-32h32v32z" fill="#000000" stroke="#ffffff" stroke-width="2"/><path d="M96,329v-32h32v32z" fill="#000000" stroke="#ffffff" stroke-width="2"/><path d="M128,329v-32h32v32z" fill="#000000" stroke="#ffffff" stroke-width="2"/><path d="M160,329v-32h32v32z" fill="#000000" stroke="#ffffff" stroke-width="2"/><path d="M192,329v-32h32v32z" fill="#000000" stroke="#ffffff" stroke-width="2"/><path d="M224,329v-32h32v32z" fill="#000000" stroke="#ffffff" stroke-width="2"/><path d="M224,360v-32h32v32z" fill="#000000" stroke="#ffffff" stroke-width="2"/><g fill="#000000" stroke="#fffee0" stroke-width="2"><path d="M60.68447,297.26411l16,-28.6l16,28.6z"/><path d="M28.68447,297.26411l16,-28.6l16,28.6z"/></g><g fill="#000000" stroke="#ffffff" stroke-width="2"><path d="M320.12662,265v-32h32v32z"/><path d="M320.12662,297v-32h32v32z"/><path d="M320.12662,329v-32h32v32z"/><path d="M320.12662,360v-32h32v32z"/></g><g stroke="#fffdbd" stroke-width="2"><path d="M414.39621,278.5922c0,-7.5 6,-13.5 13.5,-13.5c7.5,0 13.5,6 13.5,13.5c0,7.5 -6,13.5 -13.5,13.5c-7.5,0 -13.5,-6 -13.5,-13.5z" fill="none"/><path d="M418.89621,278.5922c0,-5 4,-9 9,-9c5,0 9,4 9,9c0,5 -4,9 -9,9c-5,0 -9,-4 -9,-9z" fill="#fbf300"/></g></g></g></svg>