<svg version="1.1" xmlns="http://www.w3.org/2000/svg" xmlns:xlink="http://www.w3.org/1999/xlink" width="576.57657" height="399.18887" viewBox="0,0,576.57657,399.18887"><g transform="translate(50.54054,37.71771)"><g data-paper-data="{&quot;isPaintingLayer&quot;:true}" fill-rule="nonzero" stroke-linecap="butt" stroke-linejoin="miter" stroke-miterlimit="10" stroke-dasharray="" stroke-dashoffset="0" style="mix-blend-mode: normal"><g data-paper-data="{&quot;index&quot;:null}" stroke="none" stroke-width="0"><path d="M207.87115,148.35331l-3.8,-52.3h7.7l-3.8,52.3z" fill="#000000"/><path d="M207.97115,140.95331c3.2,0 5.7,2.5 5.7,5.7c0,3.2 -2.5,5.7 -5.7,5.7c-3.2,0 -5.7,-2.6 -5.7,-5.7c0,-3.2 2.5,-5.7 5.7,-5.7z" fill="#ff00de"/></g><g stroke="none" stroke-width="0"><path d="M207.97115,230.30263l3.8,52.3h-7.7l3.8,-52.3z" fill="#000000"/><path d="M202.27115,232.00263c0,-3.1 2.5,-5.7 5.7,-5.7c3.2,0 5.7,2.5 5.7,5.7c0,3.2 -2.5,5.7 -5.7,5.7c-3.2,0 -5.7,-2.5 -5.7,-5.7z" fill="#ff00de"/></g><path d="M-50.54054,-4.68468v-33.03303h576.57657v33.03304z" fill="none" stroke="none" stroke-width="NaN"/><path d="M64.99999,348.53922l16,-18l16,18z" fill="#000000" stroke="#fffee0" stroke-width="2"/><path d="M128.99999,348.53922l16,-18l16,18z" fill="#000000" stroke="#fffee0" stroke-width="2"/><path d="M96.99999,348.53922l16,-18l16,18z" fill="#000000" stroke="#fffee0" stroke-width="2"/><path d="M160.99999,348.53922l16,-18l16,18z" fill="#000000" stroke="#fffee0" stroke-width="2"/><path d="M96.99999,30.53922l-16,18l-16,-18z" fill="#000000" stroke="#fffee0" stroke-width="2"/><path d="M160.99999,30.53922l-16,18l-16,-18z" fill="#000000" stroke="#fffee0" stroke-width="2"/><path d="M128.99999,30.53922l-16,18l-16,-18z" fill="#000000" stroke="#fffee0" stroke-width="2"/><path d="M192.99999,30.53922l-16,18l-16,-18z" fill="#000000" stroke="#fffee0" stroke-width="2"/><g fill="#000000" stroke="#fffee0" stroke-width="2"><path d="M32.99999,348.53922l16,-18l16,18z"/><path d="M64.99999,30.53922l-16,18l-16,-18z"/></g><g fill="#000000" stroke="#fffee0" stroke-width="2"><path d="M2.37605,348.53922l16,-18l16,18z"/><path d="M34.37605,30.53922l-16,18l-16,-18z"/></g><path d="M-50.54054,361.47104v-399.18875h576.57657v399.18887z" fill="none" stroke="none" stroke-width="NaN"/><path d="M192,61.80183v-32h32v32z" fill="#000000" stroke="#ffffff" stroke-width="2"/><path d="M192,93.80183v-32h32v32z" fill="#000000" stroke="#ffffff" stroke-width="2"/><path d="M192,125.80183v-32h32v32z" fill="#000000" stroke="#ffffff" stroke-width="2"/><path d="M224,125.80183v-32h32v32z" fill="#000000" stroke="#ffffff" stroke-width="2"/><path d="M256,125.80183v-32h32v32z" fill="#000000" stroke="#ffffff" stroke-width="2"/><path d="M288,125.80183v-32h32v32z" fill="#000000" stroke="#ffffff" stroke-width="2"/><path d="M320,125.80183v-32h32v32z" fill="#000000" stroke="#ffffff" stroke-width="2"/><path d="M352,125.80183v-32h32v32z" fill="#000000" stroke="#ffffff" stroke-width="2"/><path d="M384,125.80183v-32h32v32z" fill="#000000" stroke="#ffffff" stroke-width="2"/><path d="M416,125.80183v-32h32v32z" fill="#000000" stroke="#ffffff" stroke-width="2"/><path d="M448,125.80183v-32h32v32z" fill="#000000" stroke="#ffffff" stroke-width="2"/><path d="M192,284.80183v-32h32v32z" fill="#000000" stroke="#ffffff" stroke-width="2"/><path d="M224,284.80183v-32h32v32z" fill="#000000" stroke="#ffffff" stroke-width="2"/><path d="M256,284.80183v-32h32v32z" fill="#000000" stroke="#ffffff" stroke-width="2"/><path d="M288,284.80183v-32h32v32z" fill="#000000" stroke="#ffffff" stroke-width="2"/><path d="M320,284.80183v-32h32v32z" fill="#000000" stroke="#ffffff" stroke-width="2"/><path d="M352,284.80183v-32h32v32z" fill="#000000" stroke="#ffffff" stroke-width="2"/><path d="M384,284.80183v-32h32v32z" fill="#000000" stroke="#ffffff" stroke-width="2"/><path d="M416,284.80183v-32h32v32z" fill="#000000" stroke="#ffffff" stroke-width="2"/><path d="M448,284.80183v-32h32v32z" fill="#000000" stroke="#ffffff" stroke-width="2"/><path d="M192,316.80183v-32h32v32z" fill="#000000" stroke="#ffffff" stroke-width="2"/><path d="M192,347.80183v-32h32v32z" fill="#000000" stroke="#ffffff" stroke-width="2"/></g></g></svg>