<svg version="1.1" xmlns="http://www.w3.org/2000/svg" xmlns:xlink="http://www.w3.org/1999/xlink" width="576.57657" height="398.71771" viewBox="0,0,576.57657,398.71771"><g transform="translate(50.54054,37.71771)"><g data-paper-data="{&quot;isPaintingLayer&quot;:true}" fill-rule="nonzero" stroke-linecap="butt" stroke-linejoin="miter" stroke-miterlimit="10" stroke-dasharray="" stroke-dashoffset="0" style="mix-blend-mode: normal"><path d="M-50.54054,-4.68468v-33.03303h576.57657v33.03304z" fill="none" stroke="none" stroke-width="NaN"/><path d="M448,41.97443l-16,28.6l-16,-28.6z" data-paper-data="{&quot;index&quot;:null}" fill="#000000" stroke="#fffee0" stroke-width="2"/><path d="M480,41.97443l-16,28.6l-16,-28.6z" data-paper-data="{&quot;index&quot;:null}" fill="#000000" stroke="#fffee0" stroke-width="2"/><path d="M384,41.97443l-16,28.6l-16,-28.6z" data-paper-data="{&quot;index&quot;:null}" fill="#000000" stroke="#fffee0" stroke-width="2"/><path d="M416,41.97443l-16,28.6l-16,-28.6z" data-paper-data="{&quot;index&quot;:null}" fill="#000000" stroke="#fffee0" stroke-width="2"/><path d="M416,358.57443l16,-28.6l16,28.6z" data-paper-data="{&quot;index&quot;:null}" fill="#000000" stroke="#fffee0" stroke-width="2"/><path d="M448,358.57443l16,-28.6l16,28.6z" data-paper-data="{&quot;index&quot;:null}" fill="#000000" stroke="#fffee0" stroke-width="2"/><path d="M352,358.57443l16,-28.6l16,28.6z" data-paper-data="{&quot;index&quot;:null}" fill="#000000" stroke="#fffee0" stroke-width="2"/><path d="M384,358.57443l16,-28.6l16,28.6z" data-paper-data="{&quot;index&quot;:null}" fill="#000000" stroke="#fffee0" stroke-width="2"/><path d="M349.99413,74v-32h32v32z" data-paper-data="{&quot;index&quot;:null}" fill="#000000" stroke="#ffffff" stroke-width="2"/><path d="M349.99413,106v-32h32v32z" data-paper-data="{&quot;index&quot;:null}" fill="#000000" stroke="#ffffff" stroke-width="2"/><path d="M349.99413,138v-32h32v32z" data-paper-data="{&quot;index&quot;:null}" fill="#000000" stroke="#ffffff" stroke-width="2"/><path d="M317.99413,138v-32h32v32z" data-paper-data="{&quot;index&quot;:null}" fill="#000000" stroke="#ffffff" stroke-width="2"/><path d="M285.99413,138v-32h32v32z" data-paper-data="{&quot;index&quot;:null}" fill="#000000" stroke="#ffffff" stroke-width="2"/><path d="M253.99413,138v-32h32v32z" data-paper-data="{&quot;index&quot;:null}" fill="#000000" stroke="#ffffff" stroke-width="2"/><path d="M221.99413,138v-32h32v32z" data-paper-data="{&quot;index&quot;:null}" fill="#000000" stroke="#ffffff" stroke-width="2"/><path d="M189.99413,138v-32h32v32z" data-paper-data="{&quot;index&quot;:null}" fill="#000000" stroke="#ffffff" stroke-width="2"/><path d="M157.99413,138v-32h32v32z" data-paper-data="{&quot;index&quot;:null}" fill="#000000" stroke="#ffffff" stroke-width="2"/><path d="M125.99413,138v-32h32v32z" data-paper-data="{&quot;index&quot;:null}" fill="#000000" stroke="#ffffff" stroke-width="2"/><path d="M93.99413,138v-32h32v32z" data-paper-data="{&quot;index&quot;:null}" fill="#000000" stroke="#ffffff" stroke-width="2"/><path d="M61.99413,138v-32h32v32z" data-paper-data="{&quot;index&quot;:null}" fill="#000000" stroke="#ffffff" stroke-width="2"/><path d="M29.99413,138v-32h32v32z" data-paper-data="{&quot;index&quot;:null}" fill="#000000" stroke="#ffffff" stroke-width="2"/><path d="M-2.00587,138v-32h32v32z" data-paper-data="{&quot;index&quot;:null}" fill="#000000" stroke="#ffffff" stroke-width="2"/><path d="M349.99413,297v-32h32v32z" data-paper-data="{&quot;index&quot;:null}" fill="#000000" stroke="#ffffff" stroke-width="2"/><path d="M317.99413,297v-32h32v32z" data-paper-data="{&quot;index&quot;:null}" fill="#000000" stroke="#ffffff" stroke-width="2"/><path d="M285.99413,297v-32h32v32z" data-paper-data="{&quot;index&quot;:null}" fill="#000000" stroke="#ffffff" stroke-width="2"/><path d="M253.99413,297v-32h32v32z" data-paper-data="{&quot;index&quot;:null}" fill="#000000" stroke="#ffffff" stroke-width="2"/><path d="M221.99413,297v-32h32v32z" data-paper-data="{&quot;index&quot;:null}" fill="#000000" stroke="#ffffff" stroke-width="2"/><path d="M189.99413,297v-32h32v32z" data-paper-data="{&quot;index&quot;:null}" fill="#000000" stroke="#ffffff" stroke-width="2"/><path d="M157.99413,297v-32h32v32z" data-paper-data="{&quot;index&quot;:null}" fill="#000000" stroke="#ffffff" stroke-width="2"/><path d="M125.99413,297v-32h32v32z" data-paper-data="{&quot;index&quot;:null}" fill="#000000" stroke="#ffffff" stroke-width="2"/><path d="M93.99413,297v-32h32v32z" data-paper-data="{&quot;index&quot;:null}" fill="#000000" stroke="#ffffff" stroke-width="2"/><path d="M61.99413,297v-32h32v32z" data-paper-data="{&quot;index&quot;:null}" fill="#000000" stroke="#ffffff" stroke-width="2"/><path d="M29.99413,297v-32h32v32z" data-paper-data="{&quot;index&quot;:null}" fill="#000000" stroke="#ffffff" stroke-width="2"/><path d="M-2.00587,297v-32h32v32z" data-paper-data="{&quot;index&quot;:null}" fill="#000000" stroke="#ffffff" stroke-width="2"/><path d="M349.99413,329v-32h32v32z" data-paper-data="{&quot;index&quot;:null}" fill="#000000" stroke="#ffffff" stroke-width="2"/><path d="M349.99413,360v-32h32v32z" data-paper-data="{&quot;index&quot;:null}" fill="#000000" stroke="#ffffff" stroke-width="2"/><g data-paper-data="{&quot;index&quot;:null}" fill="#000000" stroke="#fffee0" stroke-width="2"><path d="M349.47665,136.33426l-16,18l-16,-18z" data-paper-data="{&quot;index&quot;:null}"/><path d="M381.47665,136.33426l-16,18l-16,-18z" data-paper-data="{&quot;index&quot;:null}"/><path d="M285.47665,136.33426l-16,18l-16,-18z" data-paper-data="{&quot;index&quot;:null}"/><path d="M317.47665,136.33426l-16,18l-16,-18z" data-paper-data="{&quot;index&quot;:null}"/><path d="M253.47665,136.33426l-16,18l-16,-18z" data-paper-data="{&quot;index&quot;:null}"/></g></g></g></svg>