<svg version="1.1" xmlns="http://www.w3.org/2000/svg" xmlns:xlink="http://www.w3.org/1999/xlink" width="576.57657" height="403.71771" viewBox="0,0,576.57657,403.71771"><g transform="translate(50.54054,37.71771)"><g data-paper-data="{&quot;isPaintingLayer&quot;:true}" fill-rule="nonzero" stroke-linecap="butt" stroke-linejoin="miter" stroke-miterlimit="10" stroke-dasharray="" stroke-dashoffset="0" style="mix-blend-mode: normal"><path d="M-50.54054,-4.68468v-33.03303h576.57657v33.03304z" fill="none" stroke="none" stroke-width="NaN"/><path d="M37,365v-32h32v32z" fill="#000000" stroke="#ffffff" stroke-width="2"/><g><path d="M169.39999,345.97501v0c0.9,1.1 -1,1.7 -1.3,2.4c-0.2,0.5 -0.7,0.8 -1.2,0.8h-17.9c-11.7,-8.5 -12,-24.3 -12,-34.8c0,-10.5 -0.9,-30.5 12.6,-35.6c8,0 9.8,0.2 17.9,0.2c-1.1,0.3 -3.3,0.6 -4.2,1.2c-0.9,0 -0.5,0 -0.7,0c-4.1,5 -4.1,7.4 -4.1,7.4l0.7,0.2h-1.3c-0.4,0.9 -0.6,1.3 -0.9,2.3h4.1c0.2,-0.6 0.2,-0.9 0.4,-1.3l-0.9,1.3c-2.9,8 0.7,16.6 0.7,24.1c0,7.5 -2.8,14.7 -0.4,21.4v1.4c-0.2,-0.1 -0.2,-0.2 -0.2,-0.4c-1.6,0.2 -2.4,0.2 -4.1,0.2c0.3,0.9 0.5,1.3 0.9,2.2h0.2c0.2,0.9 1.1,3.3 3.9,6.9h7.8zM155.09999,331.275v0c1.6,0 2.4,0 4.1,0c-0.1,-1 -0.1,-1.4 -0.3,-2.4c-1.6,0 -2.4,0 -4.1,0c0.2,1 0.2,1.4 0.4,2.4zM154.09999,307.47501v0h4.2c0,-1 0,-1.5 0,-2.6h-4.1c0,1 0,1.6 0,2.6zM154.09999,313.17501v2.2h4.2v-2.2zM154.69999,287.87501h-4.1c-0.4,0.9 -0.6,1.3 -0.9,2.3h4.1c0.3,-0.9 0.5,-1.4 0.9,-2.3zM148.19999,296.07501c-0.2,1 -0.2,1.5 -0.4,2.6h4.1c0.2,-1 0.2,-1.5 0.4,-2.6zM147.09999,304.87501c0,1 0,1.6 0,2.6h4.2c0,-1 0,-1.5 0,-2.6zM146.89999,313.17501v2.2h4.2v-2.2zM146.99999,320.87501c0,0.9 0,1.4 0,2.4h4.1c0,-1 0,-1.4 0,-2.4zM151.79999,328.87501v0c-1.6,0 -2.4,0 -4.1,0c0.2,1 0.2,1.5 0.4,2.5c1.6,0 2.4,0 4.1,0c-0.2,-0.9 -0.2,-1.4 -0.4,-2.4zM149.49999,337.07501c0.3,0.9 0.5,1.3 0.9,2.2c1.6,-0.2 2.4,-0.2 4.1,-0.2c-0.4,-0.8 -0.6,-1.3 -0.9,-2.2c-1.6,0.2 -2.4,0.2 -4.1,0.2zM158.19999,323.27501c0,-1 0,-1.5 0,-2.4h-4.1c0,1 0,1.4 0,2.4zM155.19999,296.17501c-0.2,1 -0.2,1.5 -0.4,2.6h4.1c0.2,-1 0.2,-1.5 0.4,-2.6zM153.19999,283.17501h4.1c0.5,-0.8 0.8,-1.1 1.5,-1.7h-4.1c-0.7,0.6 -0.9,1 -1.5,1.7zM145.99999,283.17501h4.1c0.6,-0.8 0.8,-1.1 1.5,-1.7h-4.1c-0.7,0.6 -0.9,1 -1.5,1.7zM142.29999,290.17501h4.1c0.3,-0.9 0.5,-1.4 0.9,-2.3h-4.1c-0.4,0.9 -0.6,1.3 -0.9,2.3zM140.39999,298.67501h4.1c0.2,-1 0.2,-1.5 0.4,-2.6h-4.1c-0.2,1 -0.2,1.5 -0.4,2.6zM139.79999,304.87501v0c-0.2,1 -0.2,1.6 -0.2,2.6h4.2c0.2,-1 0.2,-1.5 0.2,-2.6h-4.1zM139.59999,315.37501h4.2v-2.2h-4.2c0,0.9 0,1.3 0,2.2zM139.79999,320.77501v0c0.2,1 0.2,1.5 0.2,2.5h4.1c-0.2,-0.9 -0.2,-1.4 -0.2,-2.4h-4.1zM140.89999,331.57501c1.6,0 2.4,0 4.1,0c-0.2,-1 -0.2,-1.5 -0.4,-2.5c-1.6,0 -2.4,0 -4.1,0c0.2,1 0.2,1.5 0.4,2.5zM142.49999,337.07501v0c0.3,1 0.5,1.4 0.9,2.3c1.6,-0.2 2.4,-0.2 4.1,-0.2c-0.4,-0.8 -0.6,-1.3 -0.9,-2.2c-1.6,0.2 -2.4,0.2 -4.1,0.2zM147.59999,346.17501v0c1.6,0 2.4,0 4.1,0c-0.7,-0.7 -0.9,-1.2 -1.5,-1.9c-1.6,0.2 -2.4,0.2 -4.1,0.2c0.6,0.7 0.8,1.1 1.5,1.8zM154.69999,345.87501v0c1.6,0 2.4,0 4.1,0c-0.7,-0.7 -1,-1.1 -1.6,-1.9c-1.6,0.2 -2.4,0.2 -4.1,0.2c0.5,0.8 0.8,1.2 1.5,1.9z" fill="#000000" stroke="none" stroke-width="0"/><path d="M157.09999,274.27501c0,-1.71208 1.38792,-3.1 3.1,-3.1c1.71208,0 3.1,1.38792 3.1,3.1c0,1.71208 -1.38792,3.1 -3.1,3.1c-1.71208,0 -3.1,-1.38792 -3.1,-3.1z" fill="#ff77ff" stroke="#fee6ff" stroke-width="0.9"/><path d="M157.09999,354.27501c0,-1.71208 1.38792,-3.1 3.1,-3.1c1.71208,0 3.1,1.38792 3.1,3.1c0,1.71208 -1.38792,3.1 -3.1,3.1c-1.71208,0 -3.1,-1.38792 -3.1,-3.1z" fill="#ff77ff" stroke="#fee6ff" stroke-width="0.9"/><path d="M179.99999,314.37501v0c0,18.3 -3.1,28.9 -10.5,35.1h-17.8c8.5,-10.6 10.3,-22.4 10.3,-35.4c0,-13 -1.5,-25.3 -10.3,-35.4h17.8c6.9,5.8 10.5,17.4 10.5,35.6zM177.59999,311.67501v0c-0.1,-2.5 -0.3,-5 -0.5,-7.4h-3.1c0.3,2.4 0.5,4.9 0.5,7.3h3.1zM176.39999,299.47501v0c-0.4,-2.4 -1,-4.8 -1.7,-7.1h-3.1c0.7,2.3 1.3,4.6 1.7,7h3.1zM165.49999,283.17501h-3.1c0.8,1.3 1.6,2.8 2.3,4.3h3.1c-0.6,-1.5 -1.4,-2.9 -2.3,-4.3zM169.69999,292.37501h-3.1c0.7,2.3 1.3,4.6 1.6,6.9h3.1c-0.5,-2.3 -1,-4.7 -1.7,-6.9zM168.79999,304.27501c0.2,2.4 0.4,4.9 0.4,7.3h3.1c0,-2.4 -0.2,-4.9 -0.4,-7.3zM166.79999,304.37501v0h-3.1c0.1,2.4 0.3,4.8 0.3,7.2h3.1c-0.1,-2.5 -0.2,-4.9 -0.4,-7.3zM163.69999,323.47501h3.1c0.2,-2.3 0.2,-4.6 0.2,-6.8h-3.1c0,2.3 0,4.6 -0.2,6.8zM168.39999,327.87501v0c-0.3,2.3 -0.8,4.7 -1.5,6.8h3.1c0.7,-2.2 1.2,-4.5 1.5,-6.7h-3.1zM168.89999,323.27501h3.1c0.2,-2.2 0.2,-4.5 0.2,-6.7h-3.1c0,2.3 0,4.6 -0.2,6.8zM169.69999,287.47501h3.1c-0.5,-1.5 -1.4,-2.9 -2.2,-4.3h-3.1c0.9,1.3 1.6,2.8 2.3,4.3zM159.39999,287.47501h3.1c-0.6,-1.5 -1.4,-3 -2.3,-4.3h-3.1c0.9,1.3 1.7,2.8 2.4,4.3zM161.49999,292.67501v0c0.7,2.3 1.2,4.6 1.5,6.8h3.1c-0.4,-2.4 -0.9,-4.7 -1.6,-6.9h-3.1zM161.69999,334.775h3.1c0.7,-2.2 1.2,-4.6 1.5,-6.8h-3.1c-0.3,2.3 -0.8,4.7 -1.5,6.8zM156.29999,345.77501h3.1c1.4,-2.1 2.6,-4.1 3.6,-6.3h-3.1M164.79999,345.77501c1.3,-2.1 2.5,-4.1 3.5,-6.3h-3.1c-1,2.2 -2.3,4.2 -3.6,6.3zM173.39999,339.57501h-3.1c-1,2.1 -2.2,4.1 -3.5,6.2h3.1c1.4,-2 2.5,-4.1 3.5,-6.2zM175.19999,334.57501v0c0.7,-2.1 1.2,-4.4 1.5,-6.6h-3.1c-0.3,2.2 -0.8,4.6 -1.5,6.7h3.1zM177.19999,323.37501c0.2,-2.2 0.2,-4.5 0.2,-6.7h-3.1c0,2.2 0,4.5 -0.2,6.7z" fill="#000000" stroke="none" stroke-width="0"/><path d="M148.89999,284.37501c-4.8,0 -8.8,13.3 -8.8,29.7c0,16.4 3.9,29.7 8.8,29.7c4.9,0 8.8,-13.3 8.8,-29.7c0,-16.4 -3.9,-29.7 -8.8,-29.7zM161.79999,314.07501c0,20 -5.7,36.3 -12.8,36.3c-7.1,0 -12.9,-16.2 -12.9,-36.2c0,-20 5.8,-36.3 12.9,-36.3c7.1,0 12.8,16.2 12.8,36.3v0z" fill="#ff77ff" stroke="none" stroke-width="0"/><path d="M161.79999,314.17501c0,20 -5.7,36.3 -12.8,36.3c-7.1,0 -12.9,-16.3 -12.9,-36.3c0,-20 5.8,-36.3 12.9,-36.3c7.1,0 12.8,16.2 12.8,36.3z" fill="none" stroke="#fee6ff" stroke-width="1.9"/><path d="M168.79999,330.97501c0,-1.71208 1.38792,-3.1 3.1,-3.1c1.71208,0 3.1,1.38792 3.1,3.1c0,1.71208 -1.38792,3.1 -3.1,3.1c-1.71208,0 -3.1,-1.38792 -3.1,-3.1z" fill="#ff77ff" stroke="#fee6ff" stroke-width="0.9"/><path d="M168.79999,296.67501c0,-1.71208 1.38792,-3.1 3.1,-3.1c1.71208,0 3.1,1.38792 3.1,3.1c0,1.71208 -1.38792,3.1 -3.1,3.1c-1.71208,0 -3.1,-1.38792 -3.1,-3.1z" fill="#ff77ff" stroke="#fee6ff" stroke-width="0.9"/></g></g></g></svg>