<svg version="1.1" xmlns="http://www.w3.org/2000/svg" xmlns:xlink="http://www.w3.org/1999/xlink" width="576.57657" height="240.71771" viewBox="0,0,576.57657,240.71771"><g transform="translate(50.54054,37.71771)"><g data-paper-data="{&quot;isPaintingLayer&quot;:true}" fill-rule="nonzero" stroke-linecap="butt" stroke-linejoin="miter" stroke-miterlimit="10" stroke-dasharray="" stroke-dashoffset="0" style="mix-blend-mode: normal"><path d="M-50.54054,-4.68468v-33.03303h576.57657v33.03304z" fill="none" stroke="none" stroke-width="NaN"/><path d="M0,138v-32h32v32z" fill="#000000" stroke="#ffffff" stroke-width="2"/><path d="M32,138v-32h32v32z" fill="#000000" stroke="#ffffff" stroke-width="2"/><path d="M64,138v-32h32v32z" fill="#000000" stroke="#ffffff" stroke-width="2"/><path d="M96,138v-32h32v32z" fill="#000000" stroke="#ffffff" stroke-width="2"/><path d="M128,138v-32h32v32z" fill="#000000" stroke="#ffffff" stroke-width="2"/><path d="M160,138v-32h32v32z" fill="#000000" stroke="#ffffff" stroke-width="2"/><path d="M192,138v-32h32v32z" fill="#000000" stroke="#ffffff" stroke-width="2"/><path d="M224,138v-32h32v32z" fill="#000000" stroke="#ffffff" stroke-width="2"/><path d="M256,138v-32h32v32z" fill="#000000" stroke="#ffffff" stroke-width="2"/><path d="M288,138v-32h32v32z" fill="#000000" stroke="#ffffff" stroke-width="2"/><path d="M320,138v-32h32v32z" fill="#000000" stroke="#ffffff" stroke-width="2"/><path d="M352,138v-32h32v32z" fill="#000000" stroke="#ffffff" stroke-width="2"/><path d="M384,138v-32h32v32z" fill="#000000" stroke="#ffffff" stroke-width="2"/><path d="M416,138v-32h32v32z" fill="#000000" stroke="#ffffff" stroke-width="2"/><path d="M448,138v-32h32v32z" fill="#000000" stroke="#ffffff" stroke-width="2"/><g fill="#000000" stroke="#fffee0" stroke-width="2"><path d="M32.08331,137.52661l-16,18l-16,-18z" data-paper-data="{&quot;index&quot;:null}"/><path d="M96.08331,137.52661l-16,18l-16,-18z" data-paper-data="{&quot;index&quot;:null}"/><path d="M64.08331,137.52661l-16,18l-16,-18z" data-paper-data="{&quot;index&quot;:null}"/><path d="M128.08331,137.52661l-16,18l-16,-18z" data-paper-data="{&quot;index&quot;:null}"/></g><g stroke="#fffdbd" stroke-width="2"><path d="M50.0523,180.83432c0,-7.5 6,-13.5 13.5,-13.5c7.5,0 13.5,6 13.5,13.5c0,7.5 -6,13.5 -13.5,13.5c-7.5,0 -13.5,-6 -13.5,-13.5z" fill="none"/><path d="M54.5523,180.83432c0,-5 4,-9 9,-9c5,0 9,4 9,9c0,5 -4,9 -9,9c-5,0 -9,-4 -9,-9z" fill="#fbf300"/></g><path d="M352,170v-32h32v32z" fill="#000000" stroke="#ffffff" stroke-width="2"/><path d="M352,202v-32h32v32z" fill="#000000" stroke="#ffffff" stroke-width="2"/><g fill="#000000" stroke="#fffee0" stroke-width="2"><path d="M416.08331,138.52661l-16,18l-16,-18z" data-paper-data="{&quot;index&quot;:null}"/><path d="M480.08331,138.52661l-16,18l-16,-18z" data-paper-data="{&quot;index&quot;:null}"/><path d="M448.08331,138.52661l-16,18l-16,-18z" data-paper-data="{&quot;index&quot;:null}"/></g></g></g></svg>