<svg version="1.1" xmlns="http://www.w3.org/2000/svg" xmlns:xlink="http://www.w3.org/1999/xlink" width="576.57657" height="335.71771" viewBox="0,0,576.57657,335.71771"><g transform="translate(50.54054,37.71771)"><g data-paper-data="{&quot;isPaintingLayer&quot;:true}" fill-rule="nonzero" stroke-linecap="butt" stroke-linejoin="miter" stroke-miterlimit="10" stroke-dasharray="" stroke-dashoffset="0" style="mix-blend-mode: normal"><path d="M-50.54054,-4.68468v-33.03303h576.57657v33.03304z" fill="none" stroke="none" stroke-width="NaN"/><path d="M32,138v-32h32v32z" fill="#000000" stroke="#ffffff" stroke-width="2"/><path d="M-0.12662,138v-32h32v32z" fill="#000000" stroke="#ffffff" stroke-width="2"/><path d="M64,138v-32h32v32z" fill="#000000" stroke="#ffffff" stroke-width="2"/><path d="M96,138v-32h32v32z" fill="#000000" stroke="#ffffff" stroke-width="2"/><path d="M128,138v-32h32v32z" fill="#000000" stroke="#ffffff" stroke-width="2"/><path d="M160,138v-32h32v32z" fill="#000000" stroke="#ffffff" stroke-width="2"/><path d="M192,138v-32h32v32z" fill="#000000" stroke="#ffffff" stroke-width="2"/><path d="M224,138v-32h32v32z" fill="#000000" stroke="#ffffff" stroke-width="2"/><path d="M256,138v-32h32v32z" fill="#000000" stroke="#ffffff" stroke-width="2"/><path d="M288,138v-32h32v32z" fill="#000000" stroke="#ffffff" stroke-width="2"/><path d="M320,138v-32h32v32z" fill="#000000" stroke="#ffffff" stroke-width="2"/><path d="M352,138v-32h32v32z" fill="#000000" stroke="#ffffff" stroke-width="2"/><path d="M384,138v-32h32v32z" fill="#000000" stroke="#ffffff" stroke-width="2"/><path d="M416,138v-32h32v32z" fill="#000000" stroke="#ffffff" stroke-width="2"/><path d="M448,138v-32h32v32z" fill="#000000" stroke="#ffffff" stroke-width="2"/><path d="M32,297v-32h32v32z" fill="#000000" stroke="#ffffff" stroke-width="2"/><path d="M-1.274,297v-32h32v32z" fill="#000000" stroke="#ffffff" stroke-width="2"/><path d="M64,297v-32h32v32z" fill="#000000" stroke="#ffffff" stroke-width="2"/><path d="M96,297v-32h32v32z" fill="#000000" stroke="#ffffff" stroke-width="2"/><path d="M128,297v-32h32v32z" fill="#000000" stroke="#ffffff" stroke-width="2"/><path d="M160,297v-32h32v32z" fill="#000000" stroke="#ffffff" stroke-width="2"/><path d="M192,297v-32h32v32z" fill="#000000" stroke="#ffffff" stroke-width="2"/><path d="M224,297v-32h32v32z" fill="#000000" stroke="#ffffff" stroke-width="2"/><path d="M256,297v-32h32v32z" fill="#000000" stroke="#ffffff" stroke-width="2"/><path d="M288,297v-32h32v32z" fill="#000000" stroke="#ffffff" stroke-width="2"/><path d="M320,297v-32h32v32z" fill="#000000" stroke="#ffffff" stroke-width="2"/><path d="M352,297v-32h32v32z" fill="#000000" stroke="#ffffff" stroke-width="2"/><path d="M384,297v-32h32v32z" fill="#000000" stroke="#ffffff" stroke-width="2"/><path d="M416,297v-32h32v32z" fill="#000000" stroke="#ffffff" stroke-width="2"/><path d="M448,297v-32h32v32z" fill="#000000" stroke="#ffffff" stroke-width="2"/><g fill="#000000" stroke="#fffee0" stroke-width="2"><path d="M62.85261,138.24231l-16,18l-16,-18z" data-paper-data="{&quot;index&quot;:null}"/><path d="M30.85261,138.24231l-16,18l-16,-18z" data-paper-data="{&quot;index&quot;:null}"/><path d="M126.85261,138.24231l-16,18l-16,-18z" data-paper-data="{&quot;index&quot;:null}"/><path d="M94.85261,138.24231l-16,18l-16,-18z" data-paper-data="{&quot;index&quot;:null}"/><path d="M158.85261,138.24231l-16,18l-16,-18z" data-paper-data="{&quot;index&quot;:null}"/></g><g data-paper-data="{&quot;index&quot;:null}" fill="#000000" stroke="#fffee0" stroke-width="2"><path d="M350.97147,265.24336l16,-18l16,18z" data-paper-data="{&quot;index&quot;:null}"/><path d="M318.97147,265.24336l16,-18l16,18z" data-paper-data="{&quot;index&quot;:null}"/><path d="M414.97147,265.24336l16,-18l16,18z" data-paper-data="{&quot;index&quot;:null}"/><path d="M382.97147,265.24336l16,-18l16,18z" data-paper-data="{&quot;index&quot;:null}"/><path d="M446.97147,265.24336l16,-18l16,18z" data-paper-data="{&quot;index&quot;:null}"/></g></g></g></svg>