<svg version="1.1" xmlns="http://www.w3.org/2000/svg" xmlns:xlink="http://www.w3.org/1999/xlink" width="576.57657" height="272.71771" viewBox="0,0,576.57657,272.71771"><g transform="translate(50.54054,37.71771)"><g data-paper-data="{&quot;isPaintingLayer&quot;:true}" fill-rule="nonzero" stroke-linecap="butt" stroke-linejoin="miter" stroke-miterlimit="10" stroke-dasharray="" stroke-dashoffset="0" style="mix-blend-mode: normal"><g fill="#000000" stroke="#fffee0" stroke-width="2"><path d="M64.08331,139.52661l-16,18l-16,-18z" data-paper-data="{&quot;index&quot;:null}"/><path d="M128.08331,139.52661l-16,18l-16,-18z" data-paper-data="{&quot;index&quot;:null}"/><path d="M96.08331,139.52661l-16,18l-16,-18z" data-paper-data="{&quot;index&quot;:null}"/></g><path d="M-50.54054,-4.68468v-33.03303h576.57657v33.03304z" fill="none" stroke="none" stroke-width="NaN"/><path d="M0,138v-32h32v32z" fill="#000000" stroke="#ffffff" stroke-width="2"/><path d="M32,138v-32h32v32z" fill="#000000" stroke="#ffffff" stroke-width="2"/><path d="M64,138v-32h32v32z" fill="#000000" stroke="#ffffff" stroke-width="2"/><path d="M96,138v-32h32v32z" fill="#000000" stroke="#ffffff" stroke-width="2"/><path d="M128,138v-32h32v32z" fill="#000000" stroke="#ffffff" stroke-width="2"/><path d="M160,138v-32h32v32z" fill="#000000" stroke="#ffffff" stroke-width="2"/><path d="M192,138v-32h32v32z" fill="#000000" stroke="#ffffff" stroke-width="2"/><path d="M224,138v-32h32v32z" fill="#000000" stroke="#ffffff" stroke-width="2"/><path d="M256,138v-32h32v32z" fill="#000000" stroke="#ffffff" stroke-width="2"/><path d="M288,138v-32h32v32z" fill="#000000" stroke="#ffffff" stroke-width="2"/><path d="M320,138v-32h32v32z" fill="#000000" stroke="#ffffff" stroke-width="2"/><path d="M352,138v-32h32v32z" fill="#000000" stroke="#ffffff" stroke-width="2"/><path d="M384,138v-32h32v32z" fill="#000000" stroke="#ffffff" stroke-width="2"/><path d="M416,138v-32h32v32z" fill="#000000" stroke="#ffffff" stroke-width="2"/><path d="M448,138v-32h32v32z" fill="#000000" stroke="#ffffff" stroke-width="2"/><path d="M0,170v-32h32v32z" fill="#000000" stroke="#ffffff" stroke-width="2"/><path d="M96,170v-32h32v32z" fill="#000000" stroke="#ffffff" stroke-width="2"/><path d="M0,202v-32h32v32z" fill="#000000" stroke="#ffffff" stroke-width="2"/><path d="M96,202v-32h32v32z" fill="#000000" stroke="#ffffff" stroke-width="2"/><path d="M0,234v-32h32v32z" fill="#000000" stroke="#ffffff" stroke-width="2"/><g data-paper-data="{&quot;index&quot;:null}" fill="#000000" stroke="#fffede" stroke-width="2"><path d="M319.94396,138.65564l-19.14041,32.62861l-19.14041,-32.62861z"/><path d="M448.94396,138.65564l-19.14041,32.62861l-19.14041,-32.62861z"/></g></g></g></svg>