<svg version="1.1" xmlns="http://www.w3.org/2000/svg" xmlns:xlink="http://www.w3.org/1999/xlink" width="576.57657" height="399.81806" viewBox="0,0,576.57657,399.81806"><g transform="translate(50.54054,37.71771)"><g data-paper-data="{&quot;isPaintingLayer&quot;:true}" fill-rule="nonzero" stroke-linecap="butt" stroke-linejoin="miter" stroke-miterlimit="10" stroke-dasharray="" stroke-dashoffset="0" style="mix-blend-mode: normal"><path d="M-50.54054,-4.68468v-33.03303h576.57657v33.03304z" fill="none" stroke="none" stroke-width="NaN"/><path d="M31.1458,361.10035l16,-18l16,18z" fill="#000000" stroke="#fffee0" stroke-width="2"/><path d="M-0.8542,361.10035l16,-18l16,18z" fill="#000000" stroke="#fffee0" stroke-width="2"/><path d="M95.14579,361.10035l16,-18l16,18z" fill="#000000" stroke="#fffee0" stroke-width="2"/><path d="M63.1458,361.10035l16,-18l16,18z" fill="#000000" stroke="#fffee0" stroke-width="2"/><path d="M127.29708,361.10035l16,-18l16,18z" fill="#000000" stroke="#fffee0" stroke-width="2"/><path d="M157.63208,361.10035l16,-18l16,18z" fill="#000000" stroke="#fffee0" stroke-width="2"/><g stroke="#fffdbd" stroke-width="2"><path d="M3.20795,312.01485c0,-7.5 6,-13.5 13.5,-13.5c7.5,0 13.5,6 13.5,13.5c0,7.5 -6,13.5 -13.5,13.5c-7.5,0 -13.5,-6 -13.5,-13.5z" fill="none"/><path d="M7.70795,312.01485c0,-5 4,-9 9,-9c5,0 9,4 9,9c0,5 -4,9 -9,9c-5,0 -9,-4 -9,-9z" fill="#fbf300"/></g><g stroke="#fffdbd" stroke-width="2"><path d="M122.4288,295.01485c0,-7.5 6,-13.5 13.5,-13.5c7.5,0 13.5,6 13.5,13.5c0,7.5 -6,13.5 -13.5,13.5c-7.5,0 -13.5,-6 -13.5,-13.5z" fill="none"/><path d="M126.9288,295.01485c0,-5 4,-9 9,-9c5,0 9,4 9,9c0,5 -4,9 -9,9c-5,0 -9,-4 -9,-9z" fill="#fbf300"/></g><g fill="#000000" stroke="#ffffff" stroke-width="2"><path d="M386.38777,329v-32h32v32z"/><path d="M386.38777,360v-32h32v32z"/></g><path d="M417.99698,359.35608l16,-18l16,18z" fill="#000000" stroke="#fffee0" stroke-width="2"/><path d="M449.99698,359.35608l16,-18l16,18z" fill="#000000" stroke="#fffee0" stroke-width="2"/></g></g></svg>