<svg version="1.1" xmlns="http://www.w3.org/2000/svg" xmlns:xlink="http://www.w3.org/1999/xlink" width="576.57657" height="398.82751" viewBox="0,0,576.57657,398.82751"><g transform="translate(50.54054,37.71771)"><g data-paper-data="{&quot;isPaintingLayer&quot;:true}" fill-rule="nonzero" stroke-linecap="butt" stroke-linejoin="miter" stroke-miterlimit="10" stroke-dasharray="" stroke-dashoffset="0" style="mix-blend-mode: normal"><g data-paper-data="{&quot;index&quot;:null}" stroke="none" stroke-width="0"><path d="M17.05509,199.38439l3.8,52.3h-7.7l3.8,-52.3z" fill="#000000"/><path d="M11.35509,201.08439c0,-3.1 2.5,-5.7 5.7,-5.7c3.2,0 5.7,2.5 5.7,5.7c0,3.2 -2.5,5.7 -5.7,5.7c-3.2,0 -5.7,-2.5 -5.7,-5.7z" fill="#ff00de"/></g><path d="M-50.54054,-4.68468v-33.03303h576.57657v33.03304z" fill="none" stroke="none" stroke-width="NaN"/><path d="M31.99999,360.1098l16,-18l16,18z" fill="#000000" stroke="#fffee0" stroke-width="2"/><path d="M95.99999,360.1098l16,-18l16,18z" fill="#000000" stroke="#fffee0" stroke-width="2"/><path d="M63.99999,360.1098l16,-18l16,18z" fill="#000000" stroke="#fffee0" stroke-width="2"/><path d="M159.99999,360.1098l16,-18l16,18z" fill="#000000" stroke="#fffee0" stroke-width="2"/><path d="M127.99999,360.1098l16,-18l16,18z" fill="#000000" stroke="#fffee0" stroke-width="2"/><path d="M223.99999,360.1098l16,-18l16,18z" fill="#000000" stroke="#fffee0" stroke-width="2"/><path d="M191.99999,360.1098l16,-18l16,18z" fill="#000000" stroke="#fffee0" stroke-width="2"/><path d="M287.99998,360.1098l16,-18l16,18z" fill="#000000" stroke="#fffee0" stroke-width="2"/><path d="M255.99999,360.1098l16,-18l16,18z" fill="#000000" stroke="#fffee0" stroke-width="2"/><path d="M351.99999,360.1098l16,-18l16,18z" fill="#000000" stroke="#fffee0" stroke-width="2"/><path d="M319.99998,360.1098l16,-18l16,18z" fill="#000000" stroke="#fffee0" stroke-width="2"/><path d="M415.99999,360.1098l16,-18l16,18z" fill="#000000" stroke="#fffee0" stroke-width="2"/><path d="M383.99999,360.1098l16,-18l16,18z" fill="#000000" stroke="#fffee0" stroke-width="2"/><path d="M63.99999,41.08252l-16,18l-16,-18z" fill="#000000" stroke="#fffee0" stroke-width="2"/><path d="M31.99999,41.08252l-16,18l-16,-18z" fill="#000000" stroke="#fffee0" stroke-width="2"/><path d="M127.99999,41.08252l-16,18l-16,-18z" fill="#000000" stroke="#fffee0" stroke-width="2"/><path d="M95.99999,41.08252l-16,18l-16,-18z" fill="#000000" stroke="#fffee0" stroke-width="2"/><path d="M191.99999,41.08252l-16,18l-16,-18z" fill="#000000" stroke="#fffee0" stroke-width="2"/><path d="M159.99999,41.08252l-16,18l-16,-18z" fill="#000000" stroke="#fffee0" stroke-width="2"/><path d="M255.99999,41.08252l-16,18l-16,-18z" fill="#000000" stroke="#fffee0" stroke-width="2"/><path d="M223.99999,41.08252l-16,18l-16,-18z" fill="#000000" stroke="#fffee0" stroke-width="2"/><path d="M319.99999,41.08252l-16,18l-16,-18z" fill="#000000" stroke="#fffee0" stroke-width="2"/><path d="M287.99999,41.08252l-16,18l-16,-18z" fill="#000000" stroke="#fffee0" stroke-width="2"/><path d="M383.99999,41.08252l-16,18l-16,-18z" fill="#000000" stroke="#fffee0" stroke-width="2"/><path d="M351.99999,41.08252l-16,18l-16,-18z" fill="#000000" stroke="#fffee0" stroke-width="2"/><path d="M447.99999,41.08252l-16,18l-16,-18z" fill="#000000" stroke="#fffee0" stroke-width="2"/><path d="M415.99999,41.08252l-16,18l-16,-18z" fill="#000000" stroke="#fffee0" stroke-width="2"/><path d="M0,265v-32h32v32z" fill="#000000" stroke="#ffffff" stroke-width="2"/><path d="M0,297v-32h32v32z" fill="#000000" stroke="#ffffff" stroke-width="2"/><path d="M0,329v-32h32v32z" fill="#000000" stroke="#ffffff" stroke-width="2"/><path d="M0,360v-32h32v32z" fill="#000000" stroke="#ffffff" stroke-width="2"/><g fill="#000000" stroke="#ffffff" stroke-width="2"><path d="M447.19918,73.96346v-32h32v32z"/><path d="M447.19918,105.96346v-32h32v32z"/><path d="M447.19918,137.96346v-32h32v32z"/></g><g fill="#000000" stroke="#ffffff" stroke-width="2"><path d="M447.19918,295.39218v-32h32v32z"/><path d="M447.19918,327.39218v-32h32v32z"/><path d="M447.19918,359.39218v-32h32v32z"/></g><g><path d="M473.6033,204.27836v-7.676h12.18413v7.676z" fill="#000000" stroke="none" stroke-width="0"/><path d="M443.63034,204.27836v-7.676h6.70127v7.676z" fill="#000000" stroke="none" stroke-width="0"/><path d="M444.60507,194.77474v-7.676h6.70127v7.676z" fill="#000000" stroke="none" stroke-width="0"/><path d="M446.31085,184.90559v-7.31048h6.70127v7.31048z" fill="#000000" stroke="none" stroke-width="0"/><path d="M448.99136,176.13302v-6.21391h6.70127v6.21391z" fill="#000000" stroke="none" stroke-width="0"/><path d="M451.30634,168.7007v-4.26445h6.70127v4.26445z" fill="#000000" stroke="none" stroke-width="0"/><path d="M472.62857,194.40921v-7.0668h12.18413v7.0668z" fill="#000000" stroke="none" stroke-width="0"/><path d="M471.04463,185.5148v-7.31048h12.18413v7.31048z" fill="#000000" stroke="none" stroke-width="0"/><path d="M467.51124,176.13302v-6.09207h12.18413v6.09207z" fill="#000000" stroke="none" stroke-width="0"/><path d="M464.58705,168.7007v-3.77708h12.18413v3.77708z" fill="#000000" stroke="none" stroke-width="0"/><path d="M460.56628,163.58336v-2.92419h12.18413v2.92419z" fill="#000000" stroke="none" stroke-width="0"/><path d="M455.32711,159.92812v-1.94946h12.18413v1.94946z" fill="#000000" stroke="none" stroke-width="0"/><path d="M472.62857,213.41646v-7.0668h12.18413v7.0668z" fill="#000000" stroke="none" stroke-width="0"/><path d="M471.04463,222.55455v-7.31048h12.18413v7.31048z" fill="#000000" stroke="none" stroke-width="0"/><path d="M467.51124,230.71792v-6.09207h12.18413v6.09207z" fill="#000000" stroke="none" stroke-width="0"/><path d="M464.58705,235.83526v-3.77708h12.18413v3.77708z" fill="#000000" stroke="none" stroke-width="0"/><path d="M460.56628,240.0997v-2.92419h12.18413v2.92419z" fill="#000000" stroke="none" stroke-width="0"/><path d="M455.32711,242.78021v-1.94946h12.18413v1.94946z" fill="#000000" stroke="none" stroke-width="0"/><path d="M444.60507,213.78198v-7.676h6.70127v7.676z" fill="#000000" stroke="none" stroke-width="0"/><path d="M446.31085,223.04192v-7.31048h6.70127v7.31048z" fill="#000000" stroke="none" stroke-width="0"/><path d="M448.99136,230.83976v-6.21391h6.70127v6.21391z" fill="#000000" stroke="none" stroke-width="0"/><path d="M451.30634,236.32262v-4.26445h6.70127v4.26445z" fill="#000000" stroke="none" stroke-width="0"/><path d="M458.00761,164.43625c-5.84838,0 -10.72203,16.20489 -10.72203,36.18687c0,19.98197 4.75181,36.18687 10.72203,36.18687c5.97022,0 10.72203,-16.20489 10.72203,-36.18687c0,-19.98197 -4.75181,-36.18687 -10.72203,-36.18687zM473.72514,200.62312c0,24.36826 -6.94495,44.22839 -15.59569,44.22839c-8.65073,0 -15.71753,-19.73829 -15.71753,-44.10655c0,-24.36826 7.0668,-44.22839 15.71753,-44.22839c8.65073,0 15.59569,19.73829 15.59569,44.22839v0z" fill="#ffed48" stroke="none" stroke-width="0"/><path d="M473.72514,200.74496c0,24.36826 -6.94495,44.22839 -15.59569,44.22839c-8.65073,0 -15.71753,-19.86013 -15.71753,-44.22839c0,-24.36826 7.0668,-44.22839 15.71753,-44.22839c8.65073,0 15.59569,19.73829 15.59569,44.22839z" fill="none" stroke="#fffecc" stroke-width="1.9"/></g></g></g></svg>