<svg version="1.1" xmlns="http://www.w3.org/2000/svg" xmlns:xlink="http://www.w3.org/1999/xlink" width="576.57657" height="398.71771" viewBox="0,0,576.57657,398.71771"><g transform="translate(50.54054,37.71771)"><g data-paper-data="{&quot;isPaintingLayer&quot;:true}" fill-rule="nonzero" stroke-linecap="butt" stroke-linejoin="miter" stroke-miterlimit="10" stroke-dasharray="" stroke-dashoffset="0" style="mix-blend-mode: normal"><g data-paper-data="{&quot;index&quot;:null}" stroke="none" stroke-width="0"><path d="M463.79012,170.10401l3.8,52.3h-7.7l3.8,-52.3z" fill="#000000"/><path d="M458.09012,171.80401c0,-3.1 2.5,-5.7 5.7,-5.7c3.2,0 5.7,2.5 5.7,5.7c0,3.2 -2.5,5.7 -5.7,5.7c-3.2,0 -5.7,-2.5 -5.7,-5.7z" fill="#ff00de"/></g><g data-paper-data="{&quot;index&quot;:null}" stroke="none" stroke-width="0"><path d="M206.95931,170.10401l3.8,52.3h-7.7l3.8,-52.3z" fill="#000000"/><path d="M201.25931,171.80401c0,-3.1 2.5,-5.7 5.7,-5.7c3.2,0 5.7,2.5 5.7,5.7c0,3.2 -2.5,5.7 -5.7,5.7c-3.2,0 -5.7,-2.5 -5.7,-5.7z" fill="#ff00de"/></g><g fill="#000000" stroke="#fffee0" stroke-width="2"><path d="M33.99699,359.35608l16,-18l16,18z"/><path d="M1.99699,359.35608l16,-18l16,18z"/><path d="M97.99699,359.35608l16,-18l16,18z"/><path d="M65.99698,359.35608l16,-18l16,18z"/><path d="M161.99699,359.35608l16,-18l16,18z"/><path d="M129.99699,359.35608l16,-18l16,18z"/><path d="M193.99699,359.35608l16,-18l16,18z"/><path d="M449.99699,359.35608l16,-18l16,18z"/></g><path d="M-50.54054,360.13956v-397.85727h576.57657v397.85739z" fill="none" stroke="none" stroke-width="NaN"/><g stroke="#fffdbd" stroke-width="2"><path d="M73.49999,200.87501c0,-7.5 6,-13.5 13.5,-13.5c7.5,0 13.5,6 13.5,13.5c0,7.5 -6,13.5 -13.5,13.5c-7.5,0 -13.5,-6 -13.5,-13.5z" fill="none"/><path d="M77.99999,200.87501c0,-5 4,-9 9,-9c5,0 9,4 9,9c0,5 -4,9 -9,9c-5,0 -9,-4 -9,-9z" fill="#fbf300"/></g><path d="M192,234v-32h32v32z" fill="#000000" stroke="#ffffff" stroke-width="2"/><path d="M224,234v-32h32v32z" fill="#000000" stroke="#ffffff" stroke-width="2"/><path d="M256,234v-32h32v32z" fill="#000000" stroke="#ffffff" stroke-width="2"/><path d="M288,234v-32h32v32z" fill="#000000" stroke="#ffffff" stroke-width="2"/><path d="M320,234v-32h32v32z" fill="#000000" stroke="#ffffff" stroke-width="2"/><path d="M352,234v-32h32v32z" fill="#000000" stroke="#ffffff" stroke-width="2"/><path d="M384,234v-32h32v32z" fill="#000000" stroke="#ffffff" stroke-width="2"/><path d="M416,234v-32h32v32z" fill="#000000" stroke="#ffffff" stroke-width="2"/><path d="M448,234v-32h32v32z" fill="#000000" stroke="#ffffff" stroke-width="2"/><path d="M192,265v-32h32v32z" fill="#000000" stroke="#ffffff" stroke-width="2"/><path d="M448,266v-32h32v32z" fill="#000000" stroke="#ffffff" stroke-width="2"/><path d="M192,297v-32h32v32z" fill="#000000" stroke="#ffffff" stroke-width="2"/><path d="M448,297v-32h32v32z" fill="#000000" stroke="#ffffff" stroke-width="2"/><path d="M192,329v-32h32v32z" fill="#000000" stroke="#ffffff" stroke-width="2"/><path d="M448,329v-32h32v32z" fill="#000000" stroke="#ffffff" stroke-width="2"/><path d="M192,360v-32h32v32z" fill="#000000" stroke="#ffffff" stroke-width="2"/><path d="M448,360v-32h32v32z" fill="#000000" stroke="#ffffff" stroke-width="2"/><g fill="#000000" stroke="#fffede" stroke-width="2"><path d="M282.03,201.48011l19.14041,-32.62861l19.14041,32.62861z"/><path d="M411.03,201.48011l19.14041,-32.62861l19.14041,32.62861z"/></g></g></g></svg>