<svg version="1.1" xmlns="http://www.w3.org/2000/svg" xmlns:xlink="http://www.w3.org/1999/xlink" width="576.57657" height="399.77907" viewBox="0,0,576.57657,399.77907"><g transform="translate(50.54054,37.71771)"><g data-paper-data="{&quot;isPaintingLayer&quot;:true}" fill-rule="nonzero" stroke-linecap="butt" stroke-linejoin="miter" stroke-miterlimit="10" stroke-dasharray="" stroke-dashoffset="0" style="mix-blend-mode: normal"><g stroke="none" stroke-width="0"><path d="M273.15765,202.81142l3.8,52.3h-7.7l3.8,-52.3z" fill="#000000"/><path d="M267.45765,204.51142c0,-3.1 2.5,-5.7 5.7,-5.7c3.2,0 5.7,2.5 5.7,5.7c0,3.2 -2.5,5.7 -5.7,5.7c-3.2,0 -5.7,-2.5 -5.7,-5.7z" fill="#ff00de"/></g><g><path d="M32.3885,334.1l10.9,24h-21.8z" fill="#ff00de" stroke="#fffee0" stroke-width="2"/><path d="M61.3885,338.5l10.9,21.7h-21.8z" fill="#ff00de" stroke="#fffee0" stroke-width="2"/><path d="M16.8885,348.8l11.2,10.3h-22.3l11.2,-10.3z" fill="#000000" stroke="none" stroke-width="0"/><path d="M44.8885,347.8l11.2,10.3h-22.3l11.2,-10.3z" fill="#000000" stroke="none" stroke-width="0"/><path d="M26.3885,343.8l7,13.7h-14z" fill="#000000" stroke="none" stroke-width="0"/><path d="M53.0885,343.1l7,15h-14z" fill="#000000" stroke="none" stroke-width="0"/><path d="M77.08849,344.1l7,14h-14z" fill="#000000" stroke="none" stroke-width="0"/><path d="M7.3885,348.8l7,10.3h-14z" fill="#000000" stroke="none" stroke-width="0"/><path d="M59.3885,349.1l7,10.3h-14z" fill="#000000" stroke="none" stroke-width="0"/><path d="M36.0885,349.5l13,10.3h-26z" fill="#000000" stroke="none" stroke-width="0"/><path d="M87.7885,349.5l13,10.3h-26z" fill="#000000" stroke="none" stroke-width="0"/><path d="M68.3885,348.1l13,10.3h-26z" fill="#000000" stroke="none" stroke-width="0"/><path d="M9.3885,360.5v-4.2h83.6v4.2z" fill="#000000" stroke="none" stroke-width="0"/></g><g><path d="M151.26841,354.46136h-21.8l10.9,-24z" fill="#ff00de" stroke="#fffee0" stroke-width="2"/><path d="M175.26841,361.06136h-21.8l10.9,-24z" fill="#ff00de" stroke="#fffee0" stroke-width="2"/><path d="M137.26841,359.76136h-21.8l10.9,-24z" fill="#ff00de" stroke="#fffee0" stroke-width="2"/><path d="M113.56841,359.26136h-21.8l10.9,-20.2z" fill="#ff00de" stroke="#fffee0" stroke-width="2"/><path d="M173.26841,359.76136h-22.3l11.2,-10.3l11.2,10.3z" fill="#000000" stroke="none" stroke-width="0"/><path d="M146.26841,357.76136h-22.3l11.2,-10.3l11.2,10.3z" fill="#000000" stroke="none" stroke-width="0"/><path d="M160.56841,357.06136h-14l7,-13.7z" fill="#000000" stroke="none" stroke-width="0"/><path d="M190.46841,359.26136h-22.3l11.2,-10.3l11.2,10.3z" fill="#000000" stroke="none" stroke-width="0"/><path d="M177.86841,358.56136h-14l7,-11.8z" fill="#000000" stroke="none" stroke-width="0"/><path d="M133.86841,357.76136h-14l7,-12.4z" fill="#000000" stroke="none" stroke-width="0"/><path d="M113.86841,357.76136h-14l7,-14z" fill="#000000" stroke="none" stroke-width="0"/><path d="M127.56841,359.06136h-14l7,-10.3z" fill="#000000" stroke="none" stroke-width="0"/><path d="M156.86841,359.46136h-26l13,-10.3z" fill="#000000" stroke="none" stroke-width="0"/><path d="M110.26841,359.46136h-26l13,-10.3z" fill="#000000" stroke="none" stroke-width="0"/><path d="M125.56841,358.06136h-26l13,-10.3z" fill="#000000" stroke="none" stroke-width="0"/><path d="M97.76841,359.36136v-3.1h70.5v3.1z" fill="#000000" stroke="none" stroke-width="0"/></g><g><path d="M215.48111,333.7191l10.9,24h-21.8z" fill="#ff00de" stroke="#fffee0" stroke-width="2"/><path d="M244.48111,338.1191l10.9,21.7h-21.8z" fill="#ff00de" stroke="#fffee0" stroke-width="2"/><path d="M199.98111,348.4191l11.2,10.3h-22.3l11.2,-10.3z" fill="#000000" stroke="none" stroke-width="0"/><path d="M227.98111,347.4191l11.2,10.3h-22.3l11.2,-10.3z" fill="#000000" stroke="none" stroke-width="0"/><path d="M209.48111,343.4191l7,13.7h-14z" fill="#000000" stroke="none" stroke-width="0"/><path d="M236.18111,342.7191l7,15h-14z" fill="#000000" stroke="none" stroke-width="0"/><path d="M260.18111,343.7191l7,14h-14z" fill="#000000" stroke="none" stroke-width="0"/><path d="M190.48111,348.4191l7,10.3h-14z" fill="#000000" stroke="none" stroke-width="0"/><path d="M242.48111,348.7191l7,10.3h-14z" fill="#000000" stroke="none" stroke-width="0"/><path d="M219.18111,349.1191l13,10.3h-26z" fill="#000000" stroke="none" stroke-width="0"/><path d="M270.88111,349.1191l13,10.3h-26z" fill="#000000" stroke="none" stroke-width="0"/><path d="M251.48111,347.7191l13,10.3h-26z" fill="#000000" stroke="none" stroke-width="0"/><path d="M192.48111,360.1191v-4.2h83.6v4.2z" fill="#000000" stroke="none" stroke-width="0"/></g><path d="M-50.54054,-4.68468v-33.03303h576.57657v33.03304z" fill="none" stroke="none" stroke-width="NaN"/><path d="M128,265v-32h32v32z" fill="#000000" stroke="#ffffff" stroke-width="2"/><path d="M0,297v-32h32v32z" fill="#000000" stroke="#ffffff" stroke-width="2"/><path d="M128,297v-32h32v32z" fill="#000000" stroke="#ffffff" stroke-width="2"/><path d="M0,329v-32h32v32z" fill="#000000" stroke="#ffffff" stroke-width="2"/><path d="M128,329v-32h32v32z" fill="#000000" stroke="#ffffff" stroke-width="2"/><path d="M0,360v-32h32v32z" fill="#000000" stroke="#ffffff" stroke-width="2"/><path d="M128,360v-32h32v32z" fill="#000000" stroke="#ffffff" stroke-width="2"/><path d="M256,265v-32h32v32z" fill="#000000" stroke="#ffffff" stroke-width="2"/><path d="M288,265v-32h32v32z" fill="#000000" stroke="#ffffff" stroke-width="2"/><path d="M320,265v-32h32v32z" fill="#000000" stroke="#ffffff" stroke-width="2"/><path d="M352,265v-32h32v32z" fill="#000000" stroke="#ffffff" stroke-width="2"/><path d="M384,265v-32h32v32z" fill="#000000" stroke="#ffffff" stroke-width="2"/><path d="M416,265v-32h32v32z" fill="#000000" stroke="#ffffff" stroke-width="2"/><path d="M448,265v-32h32v32z" fill="#000000" stroke="#ffffff" stroke-width="2"/><path d="M256,297v-32h32v32z" fill="#000000" stroke="#ffffff" stroke-width="2"/><path d="M256,329v-32h32v32z" fill="#000000" stroke="#ffffff" stroke-width="2"/><path d="M256,360v-32h32v32z" fill="#000000" stroke="#ffffff" stroke-width="2"/><path d="M446.99999,233.27501l16,-28.6l16,28.6z" fill="#000000" stroke="#fffee0" stroke-width="2"/></g></g></svg>