<svg version="1.1" xmlns="http://www.w3.org/2000/svg" xmlns:xlink="http://www.w3.org/1999/xlink" width="576.57657" height="399.77907" viewBox="0,0,576.57657,399.77907"><g transform="translate(50.54054,37.71771)"><g data-paper-data="{&quot;isPaintingLayer&quot;:true}" fill-rule="nonzero" stroke-linecap="butt" stroke-linejoin="miter" stroke-miterlimit="10" stroke-dasharray="" stroke-dashoffset="0" style="mix-blend-mode: normal"><g><path d="M32.3885,334.1l10.9,24h-21.8z" fill="#ff00de" stroke="#fffee0" stroke-width="2"/><path d="M61.3885,338.5l10.9,21.7h-21.8z" fill="#ff00de" stroke="#fffee0" stroke-width="2"/><path d="M16.8885,348.8l11.2,10.3h-22.3l11.2,-10.3z" fill="#000000" stroke="none" stroke-width="0"/><path d="M44.8885,347.8l11.2,10.3h-22.3l11.2,-10.3z" fill="#000000" stroke="none" stroke-width="0"/><path d="M26.3885,343.8l7,13.7h-14z" fill="#000000" stroke="none" stroke-width="0"/><path d="M53.0885,343.1l7,15h-14z" fill="#000000" stroke="none" stroke-width="0"/><path d="M77.08849,344.1l7,14h-14z" fill="#000000" stroke="none" stroke-width="0"/><path d="M7.3885,348.8l7,10.3h-14z" fill="#000000" stroke="none" stroke-width="0"/><path d="M59.3885,349.1l7,10.3h-14z" fill="#000000" stroke="none" stroke-width="0"/><path d="M36.0885,349.5l13,10.3h-26z" fill="#000000" stroke="none" stroke-width="0"/><path d="M87.7885,349.5l13,10.3h-26z" fill="#000000" stroke="none" stroke-width="0"/><path d="M68.3885,348.1l13,10.3h-26z" fill="#000000" stroke="none" stroke-width="0"/><path d="M9.3885,360.5v-4.2h83.6v4.2z" fill="#000000" stroke="none" stroke-width="0"/></g><g><path d="M151.26841,354.46136h-21.8l10.9,-24z" fill="#ff00de" stroke="#fffee0" stroke-width="2"/><path d="M175.26841,361.06136h-21.8l10.9,-24z" fill="#ff00de" stroke="#fffee0" stroke-width="2"/><path d="M137.26841,359.76136h-21.8l10.9,-24z" fill="#ff00de" stroke="#fffee0" stroke-width="2"/><path d="M113.56841,359.26136h-21.8l10.9,-20.2z" fill="#ff00de" stroke="#fffee0" stroke-width="2"/><path d="M173.26841,359.76136h-22.3l11.2,-10.3l11.2,10.3z" fill="#000000" stroke="none" stroke-width="0"/><path d="M146.26841,357.76136h-22.3l11.2,-10.3l11.2,10.3z" fill="#000000" stroke="none" stroke-width="0"/><path d="M160.56841,357.06136h-14l7,-13.7z" fill="#000000" stroke="none" stroke-width="0"/><path d="M190.46841,359.26136h-22.3l11.2,-10.3l11.2,10.3z" fill="#000000" stroke="none" stroke-width="0"/><path d="M177.86841,358.56136h-14l7,-11.8z" fill="#000000" stroke="none" stroke-width="0"/><path d="M133.86841,357.76136h-14l7,-12.4z" fill="#000000" stroke="none" stroke-width="0"/><path d="M113.86841,357.76136h-14l7,-14z" fill="#000000" stroke="none" stroke-width="0"/><path d="M127.56841,359.06136h-14l7,-10.3z" fill="#000000" stroke="none" stroke-width="0"/><path d="M156.86841,359.46136h-26l13,-10.3z" fill="#000000" stroke="none" stroke-width="0"/><path d="M110.26841,359.46136h-26l13,-10.3z" fill="#000000" stroke="none" stroke-width="0"/><path d="M125.56841,358.06136h-26l13,-10.3z" fill="#000000" stroke="none" stroke-width="0"/><path d="M97.76841,359.36136v-3.1h70.5v3.1z" fill="#000000" stroke="none" stroke-width="0"/></g><g><path d="M335.17075,354.46136h-21.8l10.9,-24z" fill="#ff00de" stroke="#fffee0" stroke-width="2"/><path d="M359.17075,361.06136h-21.8l10.9,-24z" fill="#ff00de" stroke="#fffee0" stroke-width="2"/><path d="M321.17075,359.76136h-21.8l10.9,-24z" fill="#ff00de" stroke="#fffee0" stroke-width="2"/><path d="M297.47075,359.26136h-21.8l10.9,-20.2z" fill="#ff00de" stroke="#fffee0" stroke-width="2"/><path d="M357.17075,359.76136h-22.3l11.2,-10.3l11.2,10.3z" fill="#000000" stroke="none" stroke-width="0"/><path d="M330.17075,357.76136h-22.3l11.2,-10.3l11.2,10.3z" fill="#000000" stroke="none" stroke-width="0"/><path d="M344.47075,357.06136h-14l7,-13.7z" fill="#000000" stroke="none" stroke-width="0"/><path d="M374.37075,359.26136h-22.3l11.2,-10.3l11.2,10.3z" fill="#000000" stroke="none" stroke-width="0"/><path d="M361.77075,358.56136h-14l7,-11.8z" fill="#000000" stroke="none" stroke-width="0"/><path d="M317.77075,357.76136h-14l7,-12.4z" fill="#000000" stroke="none" stroke-width="0"/><path d="M297.77075,357.76136h-14l7,-14z" fill="#000000" stroke="none" stroke-width="0"/><path d="M311.47075,359.06136h-14l7,-10.3z" fill="#000000" stroke="none" stroke-width="0"/><path d="M340.77075,359.46136h-26l13,-10.3z" fill="#000000" stroke="none" stroke-width="0"/><path d="M294.17075,359.46136h-26l13,-10.3z" fill="#000000" stroke="none" stroke-width="0"/><path d="M309.47075,358.06136h-26l13,-10.3z" fill="#000000" stroke="none" stroke-width="0"/><path d="M281.67075,359.36136v-3.1h70.5v3.1z" fill="#000000" stroke="none" stroke-width="0"/></g><g><path d="M215.48111,333.7191l10.9,24h-21.8z" fill="#ff00de" stroke="#fffee0" stroke-width="2"/><path d="M244.48111,338.1191l10.9,21.7h-21.8z" fill="#ff00de" stroke="#fffee0" stroke-width="2"/><path d="M199.98111,348.4191l11.2,10.3h-22.3l11.2,-10.3z" fill="#000000" stroke="none" stroke-width="0"/><path d="M227.98111,347.4191l11.2,10.3h-22.3l11.2,-10.3z" fill="#000000" stroke="none" stroke-width="0"/><path d="M209.48111,343.4191l7,13.7h-14z" fill="#000000" stroke="none" stroke-width="0"/><path d="M236.18111,342.7191l7,15h-14z" fill="#000000" stroke="none" stroke-width="0"/><path d="M260.18111,343.7191l7,14h-14z" fill="#000000" stroke="none" stroke-width="0"/><path d="M190.48111,348.4191l7,10.3h-14z" fill="#000000" stroke="none" stroke-width="0"/><path d="M242.48111,348.7191l7,10.3h-14z" fill="#000000" stroke="none" stroke-width="0"/><path d="M219.18111,349.1191l13,10.3h-26z" fill="#000000" stroke="none" stroke-width="0"/><path d="M270.88111,349.1191l13,10.3h-26z" fill="#000000" stroke="none" stroke-width="0"/><path d="M251.48111,347.7191l13,10.3h-26z" fill="#000000" stroke="none" stroke-width="0"/><path d="M192.48111,360.1191v-4.2h83.6v4.2z" fill="#000000" stroke="none" stroke-width="0"/></g><path d="M-50.54054,-4.68468v-33.03303h576.57657v33.03304z" fill="none" stroke="none" stroke-width="NaN"/><path d="M0,360v-32h32v32z" fill="#000000" stroke="#ffffff" stroke-width="2"/><path d="M30.97555,326.49612c-1.4,1.1 -28.7,0.9 -29.6,0c0,-4.1 6.6,-7.4 14.8,-7.4c8.2,0 14.8,3.3 14.8,7.4z" fill="#fbff00" stroke="#fffdbd" stroke-width="1.9"/><path d="M160,265v-32h32v32z" fill="#000000" stroke="#ffffff" stroke-width="2"/><path d="M160,297v-32h32v32z" fill="#000000" stroke="#ffffff" stroke-width="2"/><path d="M160,329v-32h32v32z" fill="#000000" stroke="#ffffff" stroke-width="2"/><path d="M160,360v-32h32v32z" fill="#000000" stroke="#ffffff" stroke-width="2"/><g stroke="#fffdbd" stroke-width="2"><path d="M244.08717,270.56286c0,-7.5 6,-13.5 13.5,-13.5c7.5,0 13.5,6 13.5,13.5c0,7.5 -6,13.5 -13.5,13.5c-7.5,0 -13.5,-6 -13.5,-13.5z" fill="none"/><path d="M248.58717,270.56286c0,-5 4,-9 9,-9c5,0 9,4 9,9c0,5 -4,9 -9,9c-5,0 -9,-4 -9,-9z" fill="#fbf300"/></g><path d="M352,265v-32h32v32z" fill="#000000" stroke="#ffffff" stroke-width="2"/><path d="M384,265v-32h32v32z" fill="#000000" stroke="#ffffff" stroke-width="2"/><path d="M416,265v-32h32v32z" fill="#000000" stroke="#ffffff" stroke-width="2"/><path d="M448,266v-32h32v32z" fill="#000000" stroke="#ffffff" stroke-width="2"/><path d="M352,297v-32h32v32z" fill="#000000" stroke="#ffffff" stroke-width="2"/><path d="M352,329v-32h32v32z" fill="#000000" stroke="#ffffff" stroke-width="2"/><path d="M352,360v-32h32v32z" fill="#000000" stroke="#ffffff" stroke-width="2"/></g></g></svg>