<svg version="1.1" xmlns="http://www.w3.org/2000/svg" xmlns:xlink="http://www.w3.org/1999/xlink" width="576.57657" height="248.40956" viewBox="0,0,576.57657,248.40956"><g transform="translate(50.54054,37.71771)"><g data-paper-data="{&quot;isPaintingLayer&quot;:true}" fill-rule="nonzero" stroke-linecap="butt" stroke-linejoin="miter" stroke-miterlimit="10" stroke-dasharray="" stroke-dashoffset="0" style="mix-blend-mode: normal"><g data-paper-data="{&quot;index&quot;:null}" stroke="none" stroke-width="0"><path d="M400.10986,206.69185l-3.8,-52.3h7.7l-3.8,52.3z" fill="#000000"/><path d="M400.20986,199.29185c3.2,0 5.7,2.5 5.7,5.7c0,3.2 -2.5,5.7 -5.7,5.7c-3.2,0 -5.7,-2.6 -5.7,-5.7c0,-3.2 2.5,-5.7 5.7,-5.7z" fill="#ff00de"/></g><path d="M-50.54054,-4.68468v-33.03303h576.57657v33.03304z" fill="none" stroke="none" stroke-width="NaN"/><g fill="#000000" stroke-width="2"><path d="M159.99413,41.97443l-16,28.6l-16,-28.6z" data-paper-data="{&quot;index&quot;:null}" stroke="#fffee0"/><path d="M127.99413,41.97443l-16,28.6l-16,-28.6z" data-paper-data="{&quot;index&quot;:null}" stroke="#fffee0"/><path d="M223.99413,41.97443l-16,28.6l-16,-28.6z" data-paper-data="{&quot;index&quot;:null}" stroke="#fffee0"/><path d="M191.99413,41.97443l-16,28.6l-16,-28.6z" data-paper-data="{&quot;index&quot;:null}" stroke="#fffee0"/><path d="M287.99413,41.97443l-16,28.6l-16,-28.6z" data-paper-data="{&quot;index&quot;:null}" stroke="#fffee0"/><path d="M255.99413,41.97443l-16,28.6l-16,-28.6z" data-paper-data="{&quot;index&quot;:null}" stroke="#fffee0"/><path d="M351.99413,41.97443l-16,28.6l-16,-28.6z" data-paper-data="{&quot;index&quot;:null}" stroke="#fffee0"/><path d="M319.99413,41.97443l-16,28.6l-16,-28.6z" data-paper-data="{&quot;index&quot;:null}" stroke="#fffee0"/><path d="M383.99413,41.97443l-16,28.6l-16,-28.6z" data-paper-data="{&quot;index&quot;:null}" stroke="#fffee0"/><path d="M416,136v32h-32v-32z" data-paper-data="{&quot;index&quot;:null}" stroke="#ffffff"/><path d="M416,104v32h-32v-32z" data-paper-data="{&quot;index&quot;:null}" stroke="#ffffff"/><path d="M416,72v32h-32v-32z" data-paper-data="{&quot;index&quot;:null}" stroke="#ffffff"/><path d="M416,41v32h-32v-32z" data-paper-data="{&quot;index&quot;:null}" stroke="#ffffff"/></g></g></g></svg>