<svg version="1.1" xmlns="http://www.w3.org/2000/svg" xmlns:xlink="http://www.w3.org/1999/xlink" width="576.57657" height="399.77907" viewBox="0,0,576.57657,399.77907"><g transform="translate(50.54054,37.71771)"><g data-paper-data="{&quot;isPaintingLayer&quot;:true}" fill-rule="nonzero" stroke-linecap="butt" stroke-linejoin="miter" stroke-miterlimit="10" stroke-dasharray="" stroke-dashoffset="0" style="mix-blend-mode: normal"><g><path d="M432.65756,353.78181h-21.8l10.9,-24z" fill="#ff00de" stroke="#fffee0" stroke-width="2"/><path d="M456.65756,360.38181h-21.8l10.9,-24z" fill="#ff00de" stroke="#fffee0" stroke-width="2"/><path d="M418.65756,359.08181h-21.8l10.9,-24z" fill="#ff00de" stroke="#fffee0" stroke-width="2"/><path d="M394.95756,358.58181h-21.8l10.9,-20.2z" fill="#ff00de" stroke="#fffee0" stroke-width="2"/><path d="M454.65756,359.08181h-22.3l11.2,-10.3l11.2,10.3z" fill="#000000" stroke="none" stroke-width="0"/><path d="M427.65756,357.08181h-22.3l11.2,-10.3l11.2,10.3z" fill="#000000" stroke="none" stroke-width="0"/><path d="M441.95756,356.38181h-14l7,-13.7z" fill="#000000" stroke="none" stroke-width="0"/><path d="M471.85756,358.58181h-22.3l11.2,-10.3l11.2,10.3z" fill="#000000" stroke="none" stroke-width="0"/><path d="M459.25756,357.88181h-14l7,-11.8z" fill="#000000" stroke="none" stroke-width="0"/><path d="M415.25756,357.08181h-14l7,-12.4z" fill="#000000" stroke="none" stroke-width="0"/><path d="M395.25756,357.08181h-14l7,-14z" fill="#000000" stroke="none" stroke-width="0"/><path d="M408.95756,358.38181h-14l7,-10.3z" fill="#000000" stroke="none" stroke-width="0"/><path d="M438.25756,358.78181h-26l13,-10.3z" fill="#000000" stroke="none" stroke-width="0"/><path d="M391.65756,358.78181h-26l13,-10.3z" fill="#000000" stroke="none" stroke-width="0"/><path d="M406.95756,357.38181h-26l13,-10.3z" fill="#000000" stroke="none" stroke-width="0"/><path d="M379.15756,358.68181v-3.1h70.5v3.1z" fill="#000000" stroke="none" stroke-width="0"/></g><g><path d="M129.74791,354.46136h-21.8l10.9,-24z" fill="#ff00de" stroke="#fffee0" stroke-width="2"/><path d="M153.74791,361.06136h-21.8l10.9,-24z" fill="#ff00de" stroke="#fffee0" stroke-width="2"/><path d="M115.74791,359.76136h-21.8l10.9,-24z" fill="#ff00de" stroke="#fffee0" stroke-width="2"/><path d="M92.04791,359.26136h-21.8l10.9,-20.2z" fill="#ff00de" stroke="#fffee0" stroke-width="2"/><path d="M151.74791,359.76136h-22.3l11.2,-10.3l11.2,10.3z" fill="#000000" stroke="none" stroke-width="0"/><path d="M124.74791,357.76136h-22.3l11.2,-10.3l11.2,10.3z" fill="#000000" stroke="none" stroke-width="0"/><path d="M139.04791,357.06136h-14l7,-13.7z" fill="#000000" stroke="none" stroke-width="0"/><path d="M168.94791,359.26136h-22.3l11.2,-10.3l11.2,10.3z" fill="#000000" stroke="none" stroke-width="0"/><path d="M156.34791,358.56136h-14l7,-11.8z" fill="#000000" stroke="none" stroke-width="0"/><path d="M112.34791,357.76136h-14l7,-12.4z" fill="#000000" stroke="none" stroke-width="0"/><path d="M92.34791,357.76136h-14l7,-14z" fill="#000000" stroke="none" stroke-width="0"/><path d="M106.04791,359.06136h-14l7,-10.3z" fill="#000000" stroke="none" stroke-width="0"/><path d="M135.34791,359.46136h-26l13,-10.3z" fill="#000000" stroke="none" stroke-width="0"/><path d="M88.74791,359.46136h-26l13,-10.3z" fill="#000000" stroke="none" stroke-width="0"/><path d="M104.04791,358.06136h-26l13,-10.3z" fill="#000000" stroke="none" stroke-width="0"/><path d="M76.24791,359.36136v-3.1h70.5v3.1z" fill="#000000" stroke="none" stroke-width="0"/></g><g><path d="M346.90919,354.46136h-21.8l10.9,-24z" fill="#ff00de" stroke="#fffee0" stroke-width="2"/><path d="M370.90919,361.06136h-21.8l10.9,-24z" fill="#ff00de" stroke="#fffee0" stroke-width="2"/><path d="M332.90919,359.76136h-21.8l10.9,-24z" fill="#ff00de" stroke="#fffee0" stroke-width="2"/><path d="M309.20919,359.26136h-21.8l10.9,-20.2z" fill="#ff00de" stroke="#fffee0" stroke-width="2"/><path d="M368.90919,359.76136h-22.3l11.2,-10.3l11.2,10.3z" fill="#000000" stroke="none" stroke-width="0"/><path d="M341.90919,357.76136h-22.3l11.2,-10.3l11.2,10.3z" fill="#000000" stroke="none" stroke-width="0"/><path d="M356.20919,357.06136h-14l7,-13.7z" fill="#000000" stroke="none" stroke-width="0"/><path d="M386.10919,359.26136h-22.3l11.2,-10.3l11.2,10.3z" fill="#000000" stroke="none" stroke-width="0"/><path d="M373.50919,358.56136h-14l7,-11.8z" fill="#000000" stroke="none" stroke-width="0"/><path d="M329.50919,357.76136h-14l7,-12.4z" fill="#000000" stroke="none" stroke-width="0"/><path d="M309.50919,357.76136h-14l7,-14z" fill="#000000" stroke="none" stroke-width="0"/><path d="M323.20919,359.06136h-14l7,-10.3z" fill="#000000" stroke="none" stroke-width="0"/><path d="M352.50919,359.46136h-26l13,-10.3z" fill="#000000" stroke="none" stroke-width="0"/><path d="M305.90919,359.46136h-26l13,-10.3z" fill="#000000" stroke="none" stroke-width="0"/><path d="M321.20919,358.06136h-26l13,-10.3z" fill="#000000" stroke="none" stroke-width="0"/><path d="M293.40919,359.36136v-3.1h70.5v3.1z" fill="#000000" stroke="none" stroke-width="0"/></g><g><path d="M215.4811,333.71911l10.9,24h-21.8z" fill="#ff00de" stroke="#fffee0" stroke-width="2"/><path d="M244.4811,338.11911l10.9,21.7h-21.8z" fill="#ff00de" stroke="#fffee0" stroke-width="2"/><path d="M199.9811,348.41911l11.2,10.3h-22.3l11.2,-10.3z" fill="#000000" stroke="none" stroke-width="0"/><path d="M227.9811,347.41911l11.2,10.3h-22.3l11.2,-10.3z" fill="#000000" stroke="none" stroke-width="0"/><path d="M209.4811,343.41911l7,13.7h-14z" fill="#000000" stroke="none" stroke-width="0"/><path d="M236.1811,342.71911l7,15h-14z" fill="#000000" stroke="none" stroke-width="0"/><path d="M260.1811,343.71911l7,14h-14z" fill="#000000" stroke="none" stroke-width="0"/><path d="M190.4811,348.41911l7,10.3h-14z" fill="#000000" stroke="none" stroke-width="0"/><path d="M242.4811,348.71911l7,10.3h-14z" fill="#000000" stroke="none" stroke-width="0"/><path d="M219.1811,349.11911l13,10.3h-26z" fill="#000000" stroke="none" stroke-width="0"/><path d="M270.8811,349.11911l13,10.3h-26z" fill="#000000" stroke="none" stroke-width="0"/><path d="M251.4811,347.71911l13,10.3h-26z" fill="#000000" stroke="none" stroke-width="0"/><path d="M192.4811,360.11911v-4.2h83.6v4.2z" fill="#000000" stroke="none" stroke-width="0"/></g><path d="M-50.54054,-4.68468v-33.03303h576.57657v33.03304z" fill="none" stroke="none" stroke-width="NaN"/><path d="M0,265v-32h32v32z" fill="#000000" stroke="#ffffff" stroke-width="2"/><path d="M32,265v-32h32v32z" fill="#000000" stroke="#ffffff" stroke-width="2"/><path d="M160,265v-32h32v32z" fill="#000000" stroke="#ffffff" stroke-width="2"/><path d="M32,297v-32h32v32z" fill="#000000" stroke="#ffffff" stroke-width="2"/><path d="M160,297v-32h32v32z" fill="#000000" stroke="#ffffff" stroke-width="2"/><path d="M32,329v-32h32v32z" fill="#000000" stroke="#ffffff" stroke-width="2"/><path d="M160,329v-32h32v32z" fill="#000000" stroke="#ffffff" stroke-width="2"/><path d="M32,360v-32h32v32z" fill="#000000" stroke="#ffffff" stroke-width="2"/><path d="M160,360v-32h32v32z" fill="#000000" stroke="#ffffff" stroke-width="2"/><path d="M256,297v-32h32v32z" fill="#000000" stroke="#ffffff" stroke-width="2"/><path d="M256,329v-32h32v32z" fill="#000000" stroke="#ffffff" stroke-width="2"/><path d="M352,329v-32h32v32z" fill="#000000" stroke="#ffffff" stroke-width="2"/><path d="M256,360v-32h32v32z" fill="#000000" stroke="#ffffff" stroke-width="2"/><path d="M352,360v-32h32v32z" fill="#000000" stroke="#ffffff" stroke-width="2"/><path d="M448,360v-32h32v32z" fill="#000000" stroke="#ffffff" stroke-width="2"/></g></g></svg>