<svg version="1.1" xmlns="http://www.w3.org/2000/svg" xmlns:xlink="http://www.w3.org/1999/xlink" width="576.57657" height="398.82751" viewBox="0,0,576.57657,398.82751"><g transform="translate(50.54054,37.71771)"><g data-paper-data="{&quot;isPaintingLayer&quot;:true}" fill-rule="nonzero" stroke-linecap="butt" stroke-linejoin="miter" stroke-miterlimit="10" stroke-dasharray="" stroke-dashoffset="0" style="mix-blend-mode: normal"><path d="M-50.54054,-4.68468v-33.03303h576.57657v33.03304z" fill="none" stroke="none" stroke-width="NaN"/><path d="M31.99999,360.1098l16,-18l16,18z" fill="#000000" stroke="#fffee0" stroke-width="2"/><path d="M-0.00001,360.1098l16,-18l16,18z" fill="#000000" stroke="#fffee0" stroke-width="2"/><path d="M95.99999,360.1098l16,-18l16,18z" fill="#000000" stroke="#fffee0" stroke-width="2"/><path d="M63.99999,360.1098l16,-18l16,18z" fill="#000000" stroke="#fffee0" stroke-width="2"/><path d="M351.99999,360.1098l16,-18l16,18z" fill="#000000" stroke="#fffee0" stroke-width="2"/><path d="M415.99999,360.1098l16,-18l16,18z" fill="#000000" stroke="#fffee0" stroke-width="2"/><path d="M383.99999,360.1098l16,-18l16,18z" fill="#000000" stroke="#fffee0" stroke-width="2"/><path d="M447.99999,360.1098l16,-18l16,18z" fill="#000000" stroke="#fffee0" stroke-width="2"/><path d="M63.99999,41.08252l-16,18l-16,-18z" fill="#000000" stroke="#fffee0" stroke-width="2"/><path d="M31.99999,41.08252l-16,18l-16,-18z" fill="#000000" stroke="#fffee0" stroke-width="2"/><path d="M127.99999,41.08252l-16,18l-16,-18z" fill="#000000" stroke="#fffee0" stroke-width="2"/><path d="M95.99999,41.08252l-16,18l-16,-18z" fill="#000000" stroke="#fffee0" stroke-width="2"/><path d="M383.99999,41.08252l-16,18l-16,-18z" fill="#000000" stroke="#fffee0" stroke-width="2"/><path d="M447.99999,41.08252l-16,18l-16,-18z" fill="#000000" stroke="#fffee0" stroke-width="2"/><path d="M415.99999,41.08252l-16,18l-16,-18z" fill="#000000" stroke="#fffee0" stroke-width="2"/><path d="M479.99999,41.08252l-16,18l-16,-18z" fill="#000000" stroke="#fffee0" stroke-width="2"/><path d="M96,74v-32h32v32z" fill="#000000" stroke="#ffffff" stroke-width="2"/><path d="M352,74v-32h32v32z" fill="#000000" stroke="#ffffff" stroke-width="2"/><path d="M96,106v-32h32v32z" fill="#000000" stroke="#ffffff" stroke-width="2"/><path d="M352,106v-32h32v32z" fill="#000000" stroke="#ffffff" stroke-width="2"/><path d="M96,329v-32h32v32z" fill="#000000" stroke="#ffffff" stroke-width="2"/><path d="M352,329v-32h32v32z" fill="#000000" stroke="#ffffff" stroke-width="2"/><path d="M96,360v-32h32v32z" fill="#000000" stroke="#ffffff" stroke-width="2"/><path d="M352,360v-32h32v32z" fill="#000000" stroke="#ffffff" stroke-width="2"/><path d="M128,329v-32h32v32z" fill="#000000" stroke="#ffffff" stroke-width="2"/><path d="M160,329v-32h32v32z" fill="#000000" stroke="#ffffff" stroke-width="2"/><path d="M192,329v-32h32v32z" fill="#000000" stroke="#ffffff" stroke-width="2"/><path d="M224,329v-32h32v32z" fill="#000000" stroke="#ffffff" stroke-width="2"/><path d="M256,329v-32h32v32z" fill="#000000" stroke="#ffffff" stroke-width="2"/><path d="M288,329v-32h32v32z" fill="#000000" stroke="#ffffff" stroke-width="2"/><path d="M320,329v-32h32v32z" fill="#000000" stroke="#ffffff" stroke-width="2"/><path d="M128,106v-32h32v32z" fill="#000000" stroke="#ffffff" stroke-width="2"/><path d="M160,106v-32h32v32z" fill="#000000" stroke="#ffffff" stroke-width="2"/><path d="M192,106v-32h32v32z" fill="#000000" stroke="#ffffff" stroke-width="2"/><path d="M224,106v-32h32v32z" fill="#000000" stroke="#ffffff" stroke-width="2"/><path d="M256,106v-32h32v32z" fill="#000000" stroke="#ffffff" stroke-width="2"/><path d="M288,106v-32h32v32z" fill="#000000" stroke="#ffffff" stroke-width="2"/><path d="M320,106v-32h32v32z" fill="#000000" stroke="#ffffff" stroke-width="2"/><g fill="#000000" stroke="#fffee0" stroke-width="2"><path d="M96.15128,298.63148l16,-18l16,18z"/><path d="M160.15128,298.63148l16,-18l16,18z"/><path d="M128.15128,298.63148l16,-18l16,18z"/><path d="M224.15128,298.63148l16,-18l16,18z"/><path d="M192.15128,298.63148l16,-18l16,18z"/><path d="M288.15128,298.63148l16,-18l16,18z"/><path d="M320.22692,298.63148l16,-18l16,18z"/><path d="M352.30257,298.63148l16,-18l16,18z"/><path d="M256.15128,298.63148l16,-18l16,18z"/></g><g data-paper-data="{&quot;index&quot;:null}" fill="#000000" stroke="#fffee0" stroke-width="2"><path d="M128.15128,105.55192l-16,18l-16,-18z"/><path d="M192.15128,105.55192l-16,18l-16,-18z"/><path d="M160.15128,105.55192l-16,18l-16,-18z"/><path d="M256.15128,105.55192l-16,18l-16,-18z"/><path d="M224.15128,105.55192l-16,18l-16,-18z"/><path d="M320.15128,105.55192l-16,18l-16,-18z"/><path d="M352.22692,105.55192l-16,18l-16,-18z"/><path d="M384.30257,105.55192l-16,18l-16,-18z"/><path d="M288.15128,105.55192l-16,18l-16,-18z"/></g></g></g></svg>