<svg version="1.1" xmlns="http://www.w3.org/2000/svg" xmlns:xlink="http://www.w3.org/1999/xlink" width="576.57657" height="399.77907" viewBox="0,0,576.57657,399.77907"><g transform="translate(50.54054,37.71771)"><g data-paper-data="{&quot;isPaintingLayer&quot;:true}" fill-rule="nonzero" stroke-linecap="butt" stroke-linejoin="miter" stroke-miterlimit="10" stroke-dasharray="" stroke-dashoffset="0" style="mix-blend-mode: normal"><g><path d="M32.3885,334.1l10.9,24h-21.8z" fill="#ff00de" stroke="#fffee0" stroke-width="2"/><path d="M61.3885,338.5l10.9,21.7h-21.8z" fill="#ff00de" stroke="#fffee0" stroke-width="2"/><path d="M16.8885,348.8l11.2,10.3h-22.3l11.2,-10.3z" fill="#000000" stroke="none" stroke-width="0"/><path d="M44.8885,347.8l11.2,10.3h-22.3l11.2,-10.3z" fill="#000000" stroke="none" stroke-width="0"/><path d="M26.3885,343.8l7,13.7h-14z" fill="#000000" stroke="none" stroke-width="0"/><path d="M53.0885,343.1l7,15h-14z" fill="#000000" stroke="none" stroke-width="0"/><path d="M77.08849,344.1l7,14h-14z" fill="#000000" stroke="none" stroke-width="0"/><path d="M7.3885,348.8l7,10.3h-14z" fill="#000000" stroke="none" stroke-width="0"/><path d="M59.3885,349.1l7,10.3h-14z" fill="#000000" stroke="none" stroke-width="0"/><path d="M36.0885,349.5l13,10.3h-26z" fill="#000000" stroke="none" stroke-width="0"/><path d="M87.7885,349.5l13,10.3h-26z" fill="#000000" stroke="none" stroke-width="0"/><path d="M68.3885,348.1l13,10.3h-26z" fill="#000000" stroke="none" stroke-width="0"/><path d="M9.3885,360.5v-4.2h83.6v4.2z" fill="#000000" stroke="none" stroke-width="0"/></g><g><path d="M151.2684,354.46136h-21.8l10.9,-24z" fill="#ff00de" stroke="#fffee0" stroke-width="2"/><path d="M175.2684,361.06136h-21.8l10.9,-24z" fill="#ff00de" stroke="#fffee0" stroke-width="2"/><path d="M137.2684,359.76136h-21.8l10.9,-24z" fill="#ff00de" stroke="#fffee0" stroke-width="2"/><path d="M113.5684,359.26136h-21.8l10.9,-20.2z" fill="#ff00de" stroke="#fffee0" stroke-width="2"/><path d="M173.2684,359.76136h-22.3l11.2,-10.3l11.2,10.3z" fill="#000000" stroke="none" stroke-width="0"/><path d="M146.2684,357.76136h-22.3l11.2,-10.3l11.2,10.3z" fill="#000000" stroke="none" stroke-width="0"/><path d="M160.5684,357.06136h-14l7,-13.7z" fill="#000000" stroke="none" stroke-width="0"/><path d="M190.4684,359.26136h-22.3l11.2,-10.3l11.2,10.3z" fill="#000000" stroke="none" stroke-width="0"/><path d="M177.8684,358.56136h-14l7,-11.8z" fill="#000000" stroke="none" stroke-width="0"/><path d="M133.8684,357.76136h-14l7,-12.4z" fill="#000000" stroke="none" stroke-width="0"/><path d="M113.8684,357.76136h-14l7,-14z" fill="#000000" stroke="none" stroke-width="0"/><path d="M127.5684,359.06136h-14l7,-10.3z" fill="#000000" stroke="none" stroke-width="0"/><path d="M156.8684,359.46136h-26l13,-10.3z" fill="#000000" stroke="none" stroke-width="0"/><path d="M110.2684,359.46136h-26l13,-10.3z" fill="#000000" stroke="none" stroke-width="0"/><path d="M125.5684,358.06136h-26l13,-10.3z" fill="#000000" stroke="none" stroke-width="0"/><path d="M97.7684,359.36136v-3.1h70.5v3.1z" fill="#000000" stroke="none" stroke-width="0"/></g><g><path d="M415.38347,354.46136h-21.8l10.9,-24z" fill="#ff00de" stroke="#fffee0" stroke-width="2"/><path d="M439.38347,361.06136h-21.8l10.9,-24z" fill="#ff00de" stroke="#fffee0" stroke-width="2"/><path d="M401.38347,359.76136h-21.8l10.9,-24z" fill="#ff00de" stroke="#fffee0" stroke-width="2"/><path d="M377.68347,359.26136h-21.8l10.9,-20.2z" fill="#ff00de" stroke="#fffee0" stroke-width="2"/><path d="M437.38347,359.76136h-22.3l11.2,-10.3l11.2,10.3z" fill="#000000" stroke="none" stroke-width="0"/><path d="M410.38347,357.76136h-22.3l11.2,-10.3l11.2,10.3z" fill="#000000" stroke="none" stroke-width="0"/><path d="M424.68347,357.06136h-14l7,-13.7z" fill="#000000" stroke="none" stroke-width="0"/><path d="M454.58347,359.26136h-22.3l11.2,-10.3l11.2,10.3z" fill="#000000" stroke="none" stroke-width="0"/><path d="M441.98347,358.56136h-14l7,-11.8z" fill="#000000" stroke="none" stroke-width="0"/><path d="M397.98347,357.76136h-14l7,-12.4z" fill="#000000" stroke="none" stroke-width="0"/><path d="M377.98347,357.76136h-14l7,-14z" fill="#000000" stroke="none" stroke-width="0"/><path d="M391.68347,359.06136h-14l7,-10.3z" fill="#000000" stroke="none" stroke-width="0"/><path d="M420.98347,359.46136h-26l13,-10.3z" fill="#000000" stroke="none" stroke-width="0"/><path d="M374.38347,359.46136h-26l13,-10.3z" fill="#000000" stroke="none" stroke-width="0"/><path d="M389.68347,358.06136h-26l13,-10.3z" fill="#000000" stroke="none" stroke-width="0"/><path d="M361.88347,359.36136v-3.1h70.5v3.1z" fill="#000000" stroke="none" stroke-width="0"/></g><path d="M-50.54054,-4.68468v-33.03303h576.57657v33.03304z" fill="none" stroke="none" stroke-width="NaN"/><path d="M160,265v-32h32v32z" fill="#000000" stroke="#ffffff" stroke-width="2"/><path d="M32,297v-32h32v32z" fill="#000000" stroke="#ffffff" stroke-width="2"/><path d="M160,297v-32h32v32z" fill="#000000" stroke="#ffffff" stroke-width="2"/><path d="M32,329v-32h32v32z" fill="#000000" stroke="#ffffff" stroke-width="2"/><path d="M160,329v-32h32v32z" fill="#000000" stroke="#ffffff" stroke-width="2"/><path d="M32,360v-32h32v32z" fill="#000000" stroke="#ffffff" stroke-width="2"/><path d="M160,360v-32h32v32z" fill="#000000" stroke="#ffffff" stroke-width="2"/><path d="M192,265v-32h32v32z" fill="#000000" stroke="#ffffff" stroke-width="2"/><path d="M224,265v-32h32v32z" fill="#000000" stroke="#ffffff" stroke-width="2"/><path d="M256,265v-32h32v32z" fill="#000000" stroke="#ffffff" stroke-width="2"/><path d="M288,265v-32h32v32z" fill="#000000" stroke="#ffffff" stroke-width="2"/><path d="M320,265v-32h32v32z" fill="#000000" stroke="#ffffff" stroke-width="2"/><path d="M320,297v-32h32v32z" fill="#000000" stroke="#ffffff" stroke-width="2"/><path d="M320,329v-32h32v32z" fill="#000000" stroke="#ffffff" stroke-width="2"/><path d="M320,360v-32h32v32z" fill="#000000" stroke="#ffffff" stroke-width="2"/><path d="M448,266v-32h32v32z" fill="#000000" stroke="#ffffff" stroke-width="2"/><path d="M448,297v-32h32v32z" fill="#000000" stroke="#ffffff" stroke-width="2"/><path d="M448,329v-32h32v32z" fill="#000000" stroke="#ffffff" stroke-width="2"/><path d="M448,360v-32h32v32z" fill="#000000" stroke="#ffffff" stroke-width="2"/></g></g></svg>