<svg version="1.1" xmlns="http://www.w3.org/2000/svg" xmlns:xlink="http://www.w3.org/1999/xlink" width="576.57657" height="399.09952" viewBox="0,0,576.57657,399.09952"><g transform="translate(50.54054,37.71771)"><g data-paper-data="{&quot;isPaintingLayer&quot;:true}" fill-rule="nonzero" stroke-linecap="butt" stroke-linejoin="miter" stroke-miterlimit="10" stroke-dasharray="" stroke-dashoffset="0" style="mix-blend-mode: normal"><g><path d="M453.30124,353.78181h-21.8l10.9,-24z" fill="#ff00de" stroke="#fffee0" stroke-width="2"/><path d="M477.30124,360.38181h-21.8l10.9,-24z" fill="#ff00de" stroke="#fffee0" stroke-width="2"/><path d="M439.30124,359.08181h-21.8l10.9,-24z" fill="#ff00de" stroke="#fffee0" stroke-width="2"/><path d="M415.60124,358.58181h-21.8l10.9,-20.2z" fill="#ff00de" stroke="#fffee0" stroke-width="2"/><path d="M475.30124,359.08181h-22.3l11.2,-10.3l11.2,10.3z" fill="#000000" stroke="none" stroke-width="0"/><path d="M448.30124,357.08181h-22.3l11.2,-10.3l11.2,10.3z" fill="#000000" stroke="none" stroke-width="0"/><path d="M462.60124,356.38181h-14l7,-13.7z" fill="#000000" stroke="none" stroke-width="0"/><path d="M492.50124,358.58181h-22.3l11.2,-10.3l11.2,10.3z" fill="#000000" stroke="none" stroke-width="0"/><path d="M479.90124,357.88181h-14l7,-11.8z" fill="#000000" stroke="none" stroke-width="0"/><path d="M435.90124,357.08181h-14l7,-12.4z" fill="#000000" stroke="none" stroke-width="0"/><path d="M415.90124,357.08181h-14l7,-14z" fill="#000000" stroke="none" stroke-width="0"/><path d="M429.60124,358.38181h-14l7,-10.3z" fill="#000000" stroke="none" stroke-width="0"/><path d="M458.90124,358.78181h-26l13,-10.3z" fill="#000000" stroke="none" stroke-width="0"/><path d="M412.30124,358.78181h-26l13,-10.3z" fill="#000000" stroke="none" stroke-width="0"/><path d="M427.60124,357.38181h-26l13,-10.3z" fill="#000000" stroke="none" stroke-width="0"/><path d="M399.80124,358.68181v-3.1h70.5v3.1z" fill="#000000" stroke="none" stroke-width="0"/></g><g><path d="M344.77915,333.71911l10.9,24h-21.8z" fill="#ff00de" stroke="#fffee0" stroke-width="2"/><path d="M373.77915,338.11911l10.9,21.7h-21.8z" fill="#ff00de" stroke="#fffee0" stroke-width="2"/><path d="M329.27915,348.41911l11.2,10.3h-22.3l11.2,-10.3z" fill="#000000" stroke="none" stroke-width="0"/><path d="M357.27915,347.41911l11.2,10.3h-22.3l11.2,-10.3z" fill="#000000" stroke="none" stroke-width="0"/><path d="M338.77915,343.41911l7,13.7h-14z" fill="#000000" stroke="none" stroke-width="0"/><path d="M365.47915,342.71911l7,15h-14z" fill="#000000" stroke="none" stroke-width="0"/><path d="M389.47915,343.71911l7,14h-14z" fill="#000000" stroke="none" stroke-width="0"/><path d="M319.77915,348.41911l7,10.3h-14z" fill="#000000" stroke="none" stroke-width="0"/><path d="M371.77915,348.71911l7,10.3h-14z" fill="#000000" stroke="none" stroke-width="0"/><path d="M348.47915,349.11911l13,10.3h-26z" fill="#000000" stroke="none" stroke-width="0"/><path d="M400.17915,349.11911l13,10.3h-26z" fill="#000000" stroke="none" stroke-width="0"/><path d="M380.77915,347.71911l13,10.3h-26z" fill="#000000" stroke="none" stroke-width="0"/><path d="M321.77915,360.11911v-4.2h83.6v4.2z" fill="#000000" stroke="none" stroke-width="0"/></g><g><path d="M241.99629,333.71911l10.9,24h-21.8z" fill="#ff00de" stroke="#fffee0" stroke-width="2"/><path d="M270.99629,338.11911l10.9,21.7h-21.8z" fill="#ff00de" stroke="#fffee0" stroke-width="2"/><path d="M226.49629,348.41911l11.2,10.3h-22.3l11.2,-10.3z" fill="#000000" stroke="none" stroke-width="0"/><path d="M254.49629,347.41911l11.2,10.3h-22.3l11.2,-10.3z" fill="#000000" stroke="none" stroke-width="0"/><path d="M235.99629,343.41911l7,13.7h-14z" fill="#000000" stroke="none" stroke-width="0"/><path d="M262.69629,342.71911l7,15h-14z" fill="#000000" stroke="none" stroke-width="0"/><path d="M286.69629,343.71911l7,14h-14z" fill="#000000" stroke="none" stroke-width="0"/><path d="M216.99629,348.41911l7,10.3h-14z" fill="#000000" stroke="none" stroke-width="0"/><path d="M268.99629,348.71911l7,10.3h-14z" fill="#000000" stroke="none" stroke-width="0"/><path d="M245.69629,349.11911l13,10.3h-26z" fill="#000000" stroke="none" stroke-width="0"/><path d="M297.39629,349.11911l13,10.3h-26z" fill="#000000" stroke="none" stroke-width="0"/><path d="M277.99629,347.71911l13,10.3h-26z" fill="#000000" stroke="none" stroke-width="0"/><path d="M218.99629,360.11911v-4.2h83.6v4.2z" fill="#000000" stroke="none" stroke-width="0"/></g><path d="M-50.54054,-4.68468v-33.03303h576.57657v33.03304z" fill="none" stroke="none" stroke-width="NaN"/><path d="M0,297v-32h32v32z" fill="#000000" stroke="#ffffff" stroke-width="2"/><path d="M32,297v-32h32v32z" fill="#000000" stroke="#ffffff" stroke-width="2"/><path d="M64,297v-32h32v32z" fill="#000000" stroke="#ffffff" stroke-width="2"/><path d="M96,297v-32h32v32z" fill="#000000" stroke="#ffffff" stroke-width="2"/><path d="M128,297v-32h32v32z" fill="#000000" stroke="#ffffff" stroke-width="2"/><path d="M160,297v-32h32v32z" fill="#000000" stroke="#ffffff" stroke-width="2"/><path d="M192,297v-32h32v32z" fill="#000000" stroke="#ffffff" stroke-width="2"/><path d="M160,297v-32h32v32z" fill="#000000" stroke="#ffffff" stroke-width="2"/><path d="M192,297v-32h32v32z" fill="#000000" stroke="#ffffff" stroke-width="2"/><path d="M192,329v-32h32v32z" fill="#000000" stroke="#ffffff" stroke-width="2"/><path d="M192,360v-32h32v32z" fill="#000000" stroke="#ffffff" stroke-width="2"/><path d="M288,329v-32h32v32z" fill="#000000" stroke="#ffffff" stroke-width="2"/><path d="M288,360v-32h32v32z" fill="#000000" stroke="#ffffff" stroke-width="2"/><path d="M384,360v-32h32v32z" fill="#000000" stroke="#ffffff" stroke-width="2"/><path d="M414.79999,325.57501c-1.4,1.1 -28.7,0.9 -29.6,0c0,-4.1 6.6,-7.4 14.8,-7.4c8.2,0 14.8,3.3 14.8,7.4z" fill="#fbff00" stroke="#fffdbd" stroke-width="1.9"/><path d="M103.73414,263.60726c-1.4,1.1 -28.7,0.9 -29.6,0c0,-4.1 6.6,-7.4 14.8,-7.4c8.2,0 14.8,3.3 14.8,7.4z" fill="#fbff00" stroke="#fffdbd" stroke-width="1.9"/><path d="M0,138v-32h32v32z" fill="#000000" stroke="#ffffff" stroke-width="2"/><path d="M32,138v-32h32v32z" fill="#000000" stroke="#ffffff" stroke-width="2"/><path d="M64,138v-32h32v32z" fill="#000000" stroke="#ffffff" stroke-width="2"/><path d="M96,138v-32h32v32z" fill="#000000" stroke="#ffffff" stroke-width="2"/><path d="M128,138v-32h32v32z" fill="#000000" stroke="#ffffff" stroke-width="2"/><path d="M160,138v-32h32v32z" fill="#000000" stroke="#ffffff" stroke-width="2"/><g fill="#000000" stroke="#fffee0" stroke-width="2"><path d="M63.99999,137.61402l-16,18l-16,-18z" data-paper-data="{&quot;index&quot;:null}"/><path d="M31.99999,137.61402l-16,18l-16,-18z" data-paper-data="{&quot;index&quot;:null}"/><path d="M127.99999,137.61402l-16,18l-16,-18z" data-paper-data="{&quot;index&quot;:null}"/><path d="M95.99999,137.61402l-16,18l-16,-18z" data-paper-data="{&quot;index&quot;:null}"/><path d="M191.99999,137.61402l-16,18l-16,-18z" data-paper-data="{&quot;index&quot;:null}"/><path d="M159.99999,137.61402l-16,18l-16,-18z" data-paper-data="{&quot;index&quot;:null}"/></g></g></g></svg>