<svg version="1.1" xmlns="http://www.w3.org/2000/svg" xmlns:xlink="http://www.w3.org/1999/xlink" width="576.57657" height="398.71771" viewBox="0,0,576.57657,398.71771"><g transform="translate(50.54054,37.71771)"><g data-paper-data="{&quot;isPaintingLayer&quot;:true}" fill-rule="nonzero" stroke-linecap="butt" stroke-linejoin="miter" stroke-miterlimit="10" stroke-dasharray="" stroke-dashoffset="0" style="mix-blend-mode: normal"><path d="M-50.54054,-4.68468v-33.03303h576.57657v33.03304z" fill="none" stroke="none" stroke-width="NaN"/><path d="M32,74v-32h32v32z" fill="#000000" stroke="#ffffff" stroke-width="2"/><path d="M32,106v-32h32v32z" fill="#000000" stroke="#ffffff" stroke-width="2"/><path d="M0,138v-32h32v32z" fill="#000000" stroke="#ffffff" stroke-width="2"/><path d="M32,138v-32h32v32z" fill="#000000" stroke="#ffffff" stroke-width="2"/><path d="M0,297v-32h32v32z" fill="#000000" stroke="#ffffff" stroke-width="2"/><path d="M32,297v-32h32v32z" fill="#000000" stroke="#ffffff" stroke-width="2"/><path d="M32,329v-32h32v32z" fill="#000000" stroke="#ffffff" stroke-width="2"/><path d="M32,360v-32h32v32z" fill="#000000" stroke="#ffffff" stroke-width="2"/><path d="M31.26309,266.80122l16,-18l16,18z" data-paper-data="{&quot;index&quot;:null}" fill="#000000" stroke="#fffee0" stroke-width="2"/><path d="M-0.73691,266.80122l16,-18l16,18z" data-paper-data="{&quot;index&quot;:null}" fill="#000000" stroke="#fffee0" stroke-width="2"/><path d="M63.26309,137.50542l-16,18l-16,-18z" data-paper-data="{&quot;index&quot;:null}" fill="#000000" stroke="#fffee0" stroke-width="2"/><path d="M31.26309,137.50542l-16,18l-16,-18z" data-paper-data="{&quot;index&quot;:null}" fill="#000000" stroke="#fffee0" stroke-width="2"/></g></g></svg>