<svg version="1.1" xmlns="http://www.w3.org/2000/svg" xmlns:xlink="http://www.w3.org/1999/xlink" width="576.57657" height="399.18887" viewBox="0,0,576.57657,399.18887"><g transform="translate(50.54054,37.71771)"><g data-paper-data="{&quot;isPaintingLayer&quot;:true}" fill-rule="nonzero" stroke-linecap="butt" stroke-linejoin="miter" stroke-miterlimit="10" stroke-dasharray="" stroke-dashoffset="0" style="mix-blend-mode: normal"><g fill="#000000" stroke="#fffee0" stroke-width="2"><path d="M33.99698,359.35608l16,-18l16,18z"/><path d="M1.99698,359.35608l16,-18l16,18z"/><path d="M97.99698,359.35608l16,-18l16,18z"/><path d="M65.99698,359.35608l16,-18l16,18z"/><path d="M161.99698,359.35608l16,-18l16,18z"/><path d="M129.99698,359.35608l16,-18l16,18z"/></g><g><path d="M41.39999,228.97501v0c0.9,1.1 -1,1.7 -1.3,2.4c-0.2,0.5 -0.7,0.8 -1.2,0.8h-17.9c-11.7,-8.5 -12,-24.3 -12,-34.8c0,-10.5 -0.9,-30.5 12.6,-35.6c8,0 9.8,0.2 17.9,0.2c-1.1,0.3 -3.3,0.6 -4.2,1.2c-0.9,0 -0.5,0 -0.7,0c-4.1,5 -4.1,7.4 -4.1,7.4l0.7,0.2h-1.3c-0.4,0.9 -0.6,1.3 -0.9,2.3h4.1c0.2,-0.6 0.2,-0.9 0.4,-1.3l-0.9,1.3c-2.9,8 0.7,16.6 0.7,24.1c0,7.5 -2.8,14.7 -0.4,21.4v1.4c-0.2,-0.1 -0.2,-0.2 -0.2,-0.4c-1.6,0.2 -2.4,0.2 -4.1,0.2c0.3,0.9 0.5,1.3 0.9,2.2h0.2c0.2,0.9 1.1,3.3 3.9,6.9h7.8zM27.09999,214.27501v0c1.6,0 2.4,0 4.1,0c-0.1,-1 -0.1,-1.4 -0.3,-2.4c-1.6,0 -2.4,0 -4.1,0c0.2,1 0.2,1.4 0.4,2.4zM26.09999,190.47501v0h4.2c0,-1 0,-1.5 0,-2.6h-4.1c0,1 0,1.6 0,2.6zM26.09999,196.17501v2.2h4.2v-2.2zM26.69999,170.875h-4.1c-0.4,0.9 -0.6,1.3 -0.9,2.3h4.1c0.3,-0.9 0.5,-1.4 0.9,-2.3zM20.19999,179.07501c-0.2,1 -0.2,1.5 -0.4,2.6h4.1c0.2,-1 0.2,-1.5 0.4,-2.6zM19.09999,187.87501c0,1 0,1.6 0,2.6h4.2c0,-1 0,-1.5 0,-2.6zM18.89999,196.17501v2.2h4.2v-2.2zM18.99999,203.87501c0,0.9 0,1.4 0,2.4h4.1c0,-1 0,-1.4 0,-2.4zM23.79999,211.87501v0c-1.6,0 -2.4,0 -4.1,0c0.2,1 0.2,1.5 0.4,2.5c1.6,0 2.4,0 4.1,0c-0.2,-0.9 -0.2,-1.4 -0.4,-2.4zM21.49999,220.07501c0.3,0.9 0.5,1.3 0.9,2.2c1.6,-0.2 2.4,-0.2 4.1,-0.2c-0.4,-0.8 -0.6,-1.3 -0.9,-2.2c-1.6,0.2 -2.4,0.2 -4.1,0.2zM30.19999,206.27501c0,-1 0,-1.5 0,-2.4h-4.1c0,1 0,1.4 0,2.4zM27.19999,179.17501c-0.2,1 -0.2,1.5 -0.4,2.6h4.1c0.2,-1 0.2,-1.5 0.4,-2.6zM25.19999,166.17501h4.1c0.5,-0.8 0.8,-1.1 1.5,-1.7h-4.1c-0.7,0.6 -0.9,1 -1.5,1.7zM17.99999,166.17501h4.1c0.6,-0.8 0.8,-1.1 1.5,-1.7h-4.1c-0.7,0.6 -0.9,1 -1.5,1.7zM14.29999,173.17501h4.1c0.3,-0.9 0.5,-1.4 0.9,-2.3h-4.1c-0.4,0.9 -0.6,1.3 -0.9,2.3zM12.39999,181.67501h4.1c0.2,-1 0.2,-1.5 0.4,-2.6h-4.1c-0.2,1 -0.2,1.5 -0.4,2.6zM11.79999,187.87501v0c-0.2,1 -0.2,1.6 -0.2,2.6h4.2c0.2,-1 0.2,-1.5 0.2,-2.6h-4.1zM11.59999,198.37501h4.2v-2.2h-4.2c0,0.9 0,1.3 0,2.2zM11.79999,203.77501v0c0.2,1 0.2,1.5 0.2,2.5h4.1c-0.2,-0.9 -0.2,-1.4 -0.2,-2.4h-4.1zM12.89999,214.57501c1.6,0 2.4,0 4.1,0c-0.2,-1 -0.2,-1.5 -0.4,-2.5c-1.6,0 -2.4,0 -4.1,0c0.2,1 0.2,1.5 0.4,2.5zM14.49999,220.07501v0c0.3,1 0.5,1.4 0.9,2.3c1.6,-0.2 2.4,-0.2 4.1,-0.2c-0.4,-0.8 -0.6,-1.3 -0.9,-2.2c-1.6,0.2 -2.4,0.2 -4.1,0.2zM19.59999,229.17501v0c1.6,0 2.4,0 4.1,0c-0.7,-0.7 -0.9,-1.2 -1.5,-1.9c-1.6,0.2 -2.4,0.2 -4.1,0.2c0.6,0.7 0.8,1.1 1.5,1.8zM26.69999,228.87501v0c1.6,0 2.4,0 4.1,0c-0.7,-0.7 -1,-1.1 -1.6,-1.9c-1.6,0.2 -2.4,0.2 -4.1,0.2c0.5,0.8 0.8,1.2 1.5,1.9z" fill="#000000" stroke="none" stroke-width="0"/><path d="M29.09999,157.27501c0,-1.71208 1.38792,-3.1 3.1,-3.1c1.71208,0 3.1,1.38792 3.1,3.1c0,1.71208 -1.38792,3.1 -3.1,3.1c-1.71208,0 -3.1,-1.38792 -3.1,-3.1z" fill="#ff77ff" stroke="#fee6ff" stroke-width="0.9"/><path d="M29.09999,237.27501c0,-1.71208 1.38792,-3.1 3.1,-3.1c1.71208,0 3.1,1.38792 3.1,3.1c0,1.71208 -1.38792,3.1 -3.1,3.1c-1.71208,0 -3.1,-1.38792 -3.1,-3.1z" fill="#ff77ff" stroke="#fee6ff" stroke-width="0.9"/><path d="M51.99999,197.37501v0c0,18.3 -3.1,28.9 -10.5,35.1h-17.8c8.5,-10.6 10.3,-22.4 10.3,-35.4c0,-13 -1.5,-25.3 -10.3,-35.4h17.8c6.9,5.8 10.5,17.4 10.5,35.6zM49.59999,194.67501v0c-0.1,-2.5 -0.3,-5 -0.5,-7.4h-3.1c0.3,2.4 0.5,4.9 0.5,7.3h3.1zM48.39999,182.47501v0c-0.4,-2.4 -1,-4.8 -1.7,-7.1h-3.1c0.7,2.3 1.3,4.6 1.7,7h3.1zM37.49999,166.17501h-3.1c0.8,1.3 1.6,2.8 2.3,4.3h3.1c-0.6,-1.5 -1.4,-2.9 -2.3,-4.3zM41.69999,175.375h-3.1c0.7,2.3 1.3,4.6 1.6,6.9h3.1c-0.5,-2.3 -1,-4.7 -1.7,-6.9zM40.79999,187.27501c0.2,2.4 0.4,4.9 0.4,7.3h3.1c0,-2.4 -0.2,-4.9 -0.4,-7.3zM38.79999,187.375v0h-3.1c0.1,2.4 0.3,4.8 0.3,7.2h3.1c-0.1,-2.5 -0.2,-4.9 -0.4,-7.3zM35.69999,206.47501h3.1c0.2,-2.3 0.2,-4.6 0.2,-6.8h-3.1c0,2.3 0,4.6 -0.2,6.8zM40.39999,210.87501v0c-0.3,2.3 -0.8,4.7 -1.5,6.8h3.1c0.7,-2.2 1.2,-4.5 1.5,-6.7h-3.1zM40.89999,206.27501h3.1c0.2,-2.2 0.2,-4.5 0.2,-6.7h-3.1c0,2.3 0,4.6 -0.2,6.8zM41.69999,170.47501h3.1c-0.5,-1.5 -1.4,-2.9 -2.2,-4.3h-3.1c0.9,1.3 1.6,2.8 2.3,4.3zM31.39999,170.47501h3.1c-0.6,-1.5 -1.4,-3 -2.3,-4.3h-3.1c0.9,1.3 1.7,2.8 2.4,4.3zM33.49999,175.67501v0c0.7,2.3 1.2,4.6 1.5,6.8h3.1c-0.4,-2.4 -0.9,-4.7 -1.6,-6.9h-3.1zM33.69999,217.77501h3.1c0.7,-2.2 1.2,-4.6 1.5,-6.8h-3.1c-0.3,2.3 -0.8,4.7 -1.5,6.8zM28.29999,228.77501h3.1c1.4,-2.1 2.6,-4.1 3.6,-6.3h-3.1M36.79999,228.77501c1.3,-2.1 2.5,-4.1 3.5,-6.3h-3.1c-1,2.2 -2.3,4.2 -3.6,6.3zM45.39999,222.57501h-3.1c-1,2.1 -2.2,4.1 -3.5,6.2h3.1c1.4,-2 2.5,-4.1 3.5,-6.2zM47.19999,217.57501v0c0.7,-2.1 1.2,-4.4 1.5,-6.6h-3.1c-0.3,2.2 -0.8,4.6 -1.5,6.7h3.1zM49.19999,206.37501c0.2,-2.2 0.2,-4.5 0.2,-6.7h-3.1c0,2.2 0,4.5 -0.2,6.7z" fill="#000000" stroke="none" stroke-width="0"/><path d="M20.89999,167.375c-4.8,0 -8.8,13.3 -8.8,29.7c0,16.4 3.9,29.7 8.8,29.7c4.9,0 8.8,-13.3 8.8,-29.7c0,-16.4 -3.9,-29.7 -8.8,-29.7zM33.79999,197.07501c0,20 -5.7,36.3 -12.8,36.3c-7.1,0 -12.9,-16.2 -12.9,-36.2c0,-20 5.8,-36.3 12.9,-36.3c7.1,0 12.8,16.2 12.8,36.3v0z" fill="#ff77ff" stroke="none" stroke-width="0"/><path d="M33.79999,197.17501c0,20 -5.7,36.3 -12.8,36.3c-7.1,0 -12.9,-16.3 -12.9,-36.3c0,-20 5.8,-36.3 12.9,-36.3c7.1,0 12.8,16.2 12.8,36.3z" fill="none" stroke="#fee6ff" stroke-width="1.9"/><path d="M40.79999,213.97501c0,-1.71208 1.38792,-3.1 3.1,-3.1c1.71208,0 3.1,1.38792 3.1,3.1c0,1.71208 -1.38792,3.1 -3.1,3.1c-1.71208,0 -3.1,-1.38792 -3.1,-3.1z" fill="#ff77ff" stroke="#fee6ff" stroke-width="0.9"/><path d="M40.79999,179.67501c0,-1.71208 1.38792,-3.1 3.1,-3.1c1.71208,0 3.1,1.38792 3.1,3.1c0,1.71208 -1.38792,3.1 -3.1,3.1c-1.71208,0 -3.1,-1.38792 -3.1,-3.1z" fill="#ff77ff" stroke="#fee6ff" stroke-width="0.9"/></g><path d="M-50.54054,-4.68468v-33.03303h576.57657v33.03304z" fill="none" stroke="none" stroke-width="NaN"/><path d="M-50.54054,361.47104v-399.18875h576.57657v399.18887c0,0 -201.65063,-0.00004 -299.54954,-0.00006c-94.14659,-0.00002 -277.02703,-0.00006 -277.02703,-0.00006z" fill="none" stroke="none" stroke-width="NaN"/><path d="M192.99999,347.32499l16,-18l16,18z" fill="#000000" stroke="#fffee0" stroke-width="2"/><path d="M256.99999,347.41116l16,-18l16,18z" fill="#000000" stroke="#fffee0" stroke-width="2"/><path d="M224.99999,347.41116l16,-18l16,18z" fill="#000000" stroke="#fffee0" stroke-width="2"/><path d="M320.99999,347.41116l16,-18l16,18z" fill="#000000" stroke="#fffee0" stroke-width="2"/><path d="M288.99999,347.41116l16,-18l16,18z" fill="#000000" stroke="#fffee0" stroke-width="2"/><path d="M384.99999,347.41116l16,-18l16,18z" fill="#000000" stroke="#fffee0" stroke-width="2"/><path d="M352.99999,347.41116l16,-18l16,18z" fill="#000000" stroke="#fffee0" stroke-width="2"/><path d="M448.99999,347.41116l16,-18l16,18z" fill="#000000" stroke="#fffee0" stroke-width="2"/><path d="M416.99999,347.41116l16,-18l16,18z" fill="#000000" stroke="#fffee0" stroke-width="2"/><path d="M224.99999,29.41116l-16,18l-16,-18z" fill="#000000" stroke="#fffee0" stroke-width="2"/><path d="M288.99999,29.41116l-16,18l-16,-18z" fill="#000000" stroke="#fffee0" stroke-width="2"/><path d="M256.99999,29.41116l-16,18l-16,-18z" fill="#000000" stroke="#fffee0" stroke-width="2"/><path d="M352.99999,29.41116l-16,18l-16,-18z" fill="#000000" stroke="#fffee0" stroke-width="2"/><path d="M320.99999,29.41116l-16,18l-16,-18z" fill="#000000" stroke="#fffee0" stroke-width="2"/><path d="M416.99999,29.41116l-16,18l-16,-18z" fill="#000000" stroke="#fffee0" stroke-width="2"/><path d="M384.99999,29.41116l-16,18l-16,-18z" fill="#000000" stroke="#fffee0" stroke-width="2"/><path d="M480.99999,29.41116l-16,18l-16,-18z" fill="#000000" stroke="#fffee0" stroke-width="2"/><path d="M448.99999,29.41116l-16,18l-16,-18z" fill="#000000" stroke="#fffee0" stroke-width="2"/></g></g></svg>