<svg version="1.1" xmlns="http://www.w3.org/2000/svg" xmlns:xlink="http://www.w3.org/1999/xlink" width="576.57657" height="398.71771" viewBox="0,0,576.57657,398.71771"><g transform="translate(50.54054,37.71771)"><g data-paper-data="{&quot;isPaintingLayer&quot;:true}" fill-rule="nonzero" stroke-linecap="butt" stroke-linejoin="miter" stroke-miterlimit="10" stroke-dasharray="" stroke-dashoffset="0" style="mix-blend-mode: normal"><g data-paper-data="{&quot;index&quot;:null}" stroke="none" stroke-width="0"><path d="M209.32461,170.70974l-3.8,-52.3h7.7l-3.8,52.3z" fill="#000000"/><path d="M209.42461,163.30974c3.2,0 5.7,2.5 5.7,5.7c0,3.2 -2.5,5.7 -5.7,5.7c-3.2,0 -5.7,-2.6 -5.7,-5.7c0,-3.2 2.5,-5.7 5.7,-5.7z" fill="#ff00de"/></g><g stroke="none" stroke-width="0"><path d="M209.42461,235.16819l3.8,52.3h-7.7l3.8,-52.3z" fill="#000000"/><path d="M203.72461,236.86819c0,-3.1 2.5,-5.7 5.7,-5.7c3.2,0 5.7,2.5 5.7,5.7c0,3.2 -2.5,5.7 -5.7,5.7c-3.2,0 -5.7,-2.5 -5.7,-5.7z" fill="#ff00de"/></g><path d="M-50.54054,-4.68468v-33.03303h576.57657v33.03304z" fill="none" stroke="none" stroke-width="NaN"/><path d="M61.99413,41.97443l-16,28.6l-16,-28.6z" data-paper-data="{&quot;index&quot;:null}" fill="#000000" stroke="#fffee0" stroke-width="2"/><path d="M29.99413,41.97443l-16,28.6l-16,-28.6z" data-paper-data="{&quot;index&quot;:null}" fill="#000000" stroke="#fffee0" stroke-width="2"/><path d="M125.99413,41.97443l-16,28.6l-16,-28.6z" data-paper-data="{&quot;index&quot;:null}" fill="#000000" stroke="#fffee0" stroke-width="2"/><path d="M93.99413,41.97443l-16,28.6l-16,-28.6z" data-paper-data="{&quot;index&quot;:null}" fill="#000000" stroke="#fffee0" stroke-width="2"/><path d="M157.99413,41.97443l-16,28.6l-16,-28.6z" data-paper-data="{&quot;index&quot;:null}" fill="#000000" stroke="#fffee0" stroke-width="2"/><path d="M220.99413,41.97443l-16,28.6l-16,-28.6z" data-paper-data="{&quot;index&quot;:null}" fill="#000000" stroke="#fffee0" stroke-width="2"/><path d="M188.99413,41.97443l-16,28.6l-16,-28.6z" data-paper-data="{&quot;index&quot;:null}" fill="#000000" stroke="#fffee0" stroke-width="2"/><path d="M476.66079,41.97443l-16,28.6l-16,-28.6z" data-paper-data="{&quot;index&quot;:null}" fill="#000000" stroke="#fffee0" stroke-width="2"/><path d="M29.99413,358.57443l16,-28.6l16,28.6z" data-paper-data="{&quot;index&quot;:null}" fill="#000000" stroke="#fffee0" stroke-width="2"/><path d="M-2.00587,358.57443l16,-28.6l16,28.6z" data-paper-data="{&quot;index&quot;:null}" fill="#000000" stroke="#fffee0" stroke-width="2"/><path d="M93.99413,358.57443l16,-28.6l16,28.6z" data-paper-data="{&quot;index&quot;:null}" fill="#000000" stroke="#fffee0" stroke-width="2"/><path d="M61.99413,358.57443l16,-28.6l16,28.6z" data-paper-data="{&quot;index&quot;:null}" fill="#000000" stroke="#fffee0" stroke-width="2"/><path d="M125.99413,358.57443l16,-28.6l16,28.6z" data-paper-data="{&quot;index&quot;:null}" fill="#000000" stroke="#fffee0" stroke-width="2"/><path d="M188.99413,358.57443l16,-28.6l16,28.6z" data-paper-data="{&quot;index&quot;:null}" fill="#000000" stroke="#fffee0" stroke-width="2"/><path d="M156.99413,358.57443l16,-28.6l16,28.6z" data-paper-data="{&quot;index&quot;:null}" fill="#000000" stroke="#fffee0" stroke-width="2"/><path d="M444.66079,358.57443l16,-28.6l16,28.6z" data-paper-data="{&quot;index&quot;:null}" fill="#000000" stroke="#fffee0" stroke-width="2"/><path d="M448,74v-32h32v32z" fill="#000000" stroke="#ffffff" stroke-width="2"/><path d="M448,106v-32h32v32z" fill="#000000" stroke="#ffffff" stroke-width="2"/><path d="M192,138v-32h32v32z" fill="#000000" stroke="#ffffff" stroke-width="2"/><path d="M224,138v-32h32v32z" fill="#000000" stroke="#ffffff" stroke-width="2"/><path d="M256,138v-32h32v32z" fill="#000000" stroke="#ffffff" stroke-width="2"/><path d="M288,138v-32h32v32z" fill="#000000" stroke="#ffffff" stroke-width="2"/><path d="M320,138v-32h32v32z" fill="#000000" stroke="#ffffff" stroke-width="2"/><path d="M352,138v-32h32v32z" fill="#000000" stroke="#ffffff" stroke-width="2"/><path d="M384,138v-32h32v32z" fill="#000000" stroke="#ffffff" stroke-width="2"/><path d="M416,138v-32h32v32z" fill="#000000" stroke="#ffffff" stroke-width="2"/><path d="M448,138v-32h32v32z" fill="#000000" stroke="#ffffff" stroke-width="2"/><path d="M192,297v-32h32v32z" fill="#000000" stroke="#ffffff" stroke-width="2"/><path d="M224,297v-32h32v32z" fill="#000000" stroke="#ffffff" stroke-width="2"/><path d="M256,297v-32h32v32z" fill="#000000" stroke="#ffffff" stroke-width="2"/><path d="M288,297v-32h32v32z" fill="#000000" stroke="#ffffff" stroke-width="2"/><path d="M320,297v-32h32v32z" fill="#000000" stroke="#ffffff" stroke-width="2"/><path d="M352,297v-32h32v32z" fill="#000000" stroke="#ffffff" stroke-width="2"/><path d="M384,297v-32h32v32z" fill="#000000" stroke="#ffffff" stroke-width="2"/><path d="M416,297v-32h32v32z" fill="#000000" stroke="#ffffff" stroke-width="2"/><path d="M448,297v-32h32v32z" fill="#000000" stroke="#ffffff" stroke-width="2"/><path d="M448,329v-32h32v32z" fill="#000000" stroke="#ffffff" stroke-width="2"/><path d="M448,360v-32h32v32z" fill="#000000" stroke="#ffffff" stroke-width="2"/><path d="M192,329v-32h32v32z" fill="#000000" stroke="#ffffff" stroke-width="2"/><path d="M192,360v-32h32v32z" fill="#000000" stroke="#ffffff" stroke-width="2"/><path d="M192,106v-32h32v32z" fill="#000000" stroke="#ffffff" stroke-width="2"/><path d="M192,74v-32h32v32z" fill="#000000" stroke="#ffffff" stroke-width="2"/><g><path d="M473.68906,232.21042v0c0.96036,1.17378 -1.06707,1.81402 -1.38719,2.56096c-0.21341,0.53353 -0.74695,0.85365 -1.28048,0.85365h-19.10053c-12.4847,-9.07008 -12.80482,-25.92977 -12.80482,-37.13399c0,-11.20422 -0.96036,-32.5456 13.44507,-37.98765c8.53655,0 10.45727,0.21341 19.10053,0.21341c-1.17378,0.32012 -3.52133,0.64024 -4.48169,1.28048c-0.96036,0 -0.53353,0 -0.74695,0c-4.37498,5.33534 -4.37498,7.89631 -4.37498,7.89631l0.74695,0.21341h-1.38719c-0.42683,0.96036 -0.64024,1.38719 -0.96036,2.45426h4.37498c0.21341,-0.64024 0.21341,-0.96036 0.42683,-1.38719l-0.96036,1.38719c-3.0945,8.53655 0.74695,17.71334 0.74695,25.71636c0,8.00302 -2.98779,15.68591 -0.42683,22.83527v1.4939c-0.21341,-0.10671 -0.21341,-0.21341 -0.21341,-0.42683c-1.70731,0.21341 -2.56096,0.21341 -4.37498,0.21341c0.32012,0.96036 0.53353,1.38719 0.96036,2.34755h0.21341c0.21341,0.96036 1.17378,3.52133 4.16157,7.36277h8.32314zM458.42998,216.52451v0c1.70731,0 2.56096,0 4.37498,0c-0.10671,-1.06707 -0.10671,-1.4939 -0.32012,-2.56096c-1.70731,0 -2.56096,0 -4.37498,0c0.21341,1.06707 0.21341,1.4939 0.42683,2.56096zM457.36291,191.12828v0h4.48169c0,-1.06707 0,-1.6006 0,-2.77438h-4.37498c0,1.06707 0,1.70731 0,2.77438zM457.36291,197.21057v2.34755h4.48169v-2.34755zM458.00315,170.21373h-4.37498c-0.42683,0.96036 -0.64024,1.38719 -0.96036,2.45426h4.37498c0.32012,-0.96036 0.53353,-1.4939 0.96036,-2.45426zM451.06721,178.96369c-0.21341,1.06707 -0.21341,1.6006 -0.42683,2.77438h4.37498c0.21341,-1.06707 0.21341,-1.6006 0.42683,-2.77438zM449.89343,188.3539c0,1.06707 0,1.70731 0,2.77438h4.48169c0,-1.06707 0,-1.6006 0,-2.77438zM449.68002,197.21057v2.34755h4.48169v-2.34755zM449.78672,205.427c0,0.96036 0,1.4939 0,2.56096h4.37498c0,-1.06707 0,-1.4939 0,-2.56096zM454.90865,213.96355v0c-1.70731,0 -2.56096,0 -4.37498,0c0.21341,1.06707 0.21341,1.6006 0.42683,2.66767c1.70731,0 2.56096,0 4.37498,0c-0.21341,-0.96036 -0.21341,-1.4939 -0.42683,-2.56096zM452.45439,222.71351c0.32012,0.96036 0.53353,1.38719 0.96036,2.34755c1.70731,-0.21341 2.56096,-0.21341 4.37498,-0.21341c-0.42683,-0.85365 -0.64024,-1.38719 -0.96036,-2.34755c-1.70731,0.21341 -2.56096,0.21341 -4.37498,0.21341zM461.73789,207.98796c0,-1.06707 0,-1.6006 0,-2.56096h-4.37498c0,1.06707 0,1.4939 0,2.56096zM458.53669,179.0704c-0.21341,1.06707 -0.21341,1.6006 -0.42683,2.77438h4.37498c0.21341,-1.06707 0.21341,-1.6006 0.42683,-2.77438zM456.40255,165.19851h4.37498c0.53353,-0.85365 0.85365,-1.17378 1.6006,-1.81402h-4.37498c-0.74695,0.64024 -0.96036,1.06707 -1.6006,1.81402zM448.71965,165.19851h4.37498c0.64024,-0.85365 0.85365,-1.17378 1.6006,-1.81402h-4.37498c-0.74695,0.64024 -0.96036,1.06707 -1.6006,1.81402zM444.7715,172.66799h4.37498c0.32012,-0.96036 0.53353,-1.4939 0.96036,-2.45426h-4.37498c-0.42683,0.96036 -0.64024,1.38719 -0.96036,2.45426zM442.74407,181.73807h4.37498c0.21341,-1.06707 0.21341,-1.6006 0.42683,-2.77438h-4.37498c-0.21341,1.06707 -0.21341,1.6006 -0.42683,2.77438zM442.10383,188.3539v0c-0.21341,1.06707 -0.21341,1.70731 -0.21341,2.77438h4.48169c0.21341,-1.06707 0.21341,-1.6006 0.21341,-2.77438h-4.37498zM441.89041,199.55812h4.48169v-2.34755h-4.48169c0,0.96036 0,1.38719 0,2.34755zM442.10383,205.32029v0c0.21341,1.06707 0.21341,1.6006 0.21341,2.66767h4.37498c-0.21341,-0.96036 -0.21341,-1.4939 -0.21341,-2.56096h-4.37498zM443.2776,216.84463c1.70731,0 2.56096,0 4.37498,0c-0.21341,-1.06707 -0.21341,-1.6006 -0.42683,-2.66767c-1.70731,0 -2.56096,0 -4.37498,0c0.21341,1.06707 0.21341,1.6006 0.42683,2.66767zM444.98491,222.71351v0c0.32012,1.06707 0.53353,1.4939 0.96036,2.45426c1.70731,-0.21341 2.56096,-0.21341 4.37498,-0.21341c-0.42683,-0.85365 -0.64024,-1.38719 -0.96036,-2.34755c-1.70731,0.21341 -2.56096,0.21341 -4.37498,0.21341zM450.42696,232.42384v0c1.70731,0 2.56096,0 4.37498,0c-0.74695,-0.74695 -0.96036,-1.28048 -1.6006,-2.02743c-1.70731,0.21341 -2.56096,0.21341 -4.37498,0.21341c0.64024,0.74695 0.85365,1.17378 1.6006,1.92072zM458.00315,232.10372v0c1.70731,0 2.56096,0 4.37498,0c-0.74695,-0.74695 -1.06707,-1.17378 -1.70731,-2.02743c-1.70731,0.21341 -2.56096,0.21341 -4.37498,0.21341c0.53353,0.85365 0.85365,1.28048 1.6006,2.02743z" fill="#000000" stroke="none" stroke-width="0"/><path d="M460.56412,155.7016c0,-1.82691 1.48101,-3.30791 3.30791,-3.30791c1.82691,0 3.30791,1.48101 3.30791,3.30791c0,1.82691 -1.48101,3.30791 -3.30791,3.30791c-1.82691,0 -3.30791,-1.48101 -3.30791,-3.30791z" fill="#2bff50" stroke="#e1ffe5" stroke-width="0.9"/><path d="M460.56412,241.06709c0,-1.82691 1.48101,-3.30791 3.30791,-3.30791c1.82691,0 3.30791,1.48101 3.30791,3.30791c0,1.82691 -1.48101,3.30791 -3.30791,3.30791c-1.82691,0 -3.30791,-1.48101 -3.30791,-3.30791z" fill="#2bff50" stroke="#e1ffe5" stroke-width="0.9"/><path d="M484.99999,198.49105v0c0,19.52736 -3.30791,30.83829 -11.20422,37.45411h-18.99382c9.07008,-11.31093 10.99081,-23.90234 10.99081,-37.77423c0,-13.87189 -1.6006,-26.99684 -10.99081,-37.77423h18.99382c7.36277,6.189 11.20422,18.567 11.20422,37.98765zM482.43903,195.60997v0c-0.10671,-2.66767 -0.32012,-5.33534 -0.53353,-7.89631h-3.30791c0.32012,2.56096 0.53353,5.22864 0.53353,7.7896h3.30791zM481.15854,182.59173v0c-0.42683,-2.56096 -1.06707,-5.12193 -1.81402,-7.57619h-3.30791c0.74695,2.45426 1.38719,4.90852 1.81402,7.46948h3.30791zM469.52749,165.19851h-3.30791c0.85365,1.38719 1.70731,2.98779 2.45426,4.5884h3.30791c-0.64024,-1.6006 -1.4939,-3.0945 -2.45426,-4.5884zM474.00918,175.01554h-3.30791c0.74695,2.45426 1.38719,4.90852 1.70731,7.36277h3.30791c-0.53353,-2.45426 -1.06707,-5.01522 -1.81402,-7.36277zM473.04882,187.71366c0.21341,2.56096 0.42683,5.22864 0.42683,7.7896h3.30791c0,-2.56096 -0.21341,-5.22864 -0.42683,-7.7896zM470.91468,187.82036v0h-3.30791c0.10671,2.56096 0.32012,5.12193 0.32012,7.68289h3.30791c-0.10671,-2.66767 -0.21341,-5.22864 -0.42683,-7.7896zM467.60677,208.20138h3.30791c0.21341,-2.45426 0.21341,-4.90852 0.21341,-7.25607h-3.30791c0,2.45426 0,4.90852 -0.21341,7.25607zM472.62199,212.89648v0c-0.32012,2.45426 -0.85365,5.01522 -1.6006,7.25607h3.30791c0.74695,-2.34755 1.28048,-4.80181 1.6006,-7.14936h-3.30791zM473.15553,207.98796h3.30791c0.21341,-2.34755 0.21341,-4.80181 0.21341,-7.14936h-3.30791c0,2.45426 0,4.90852 -0.21341,7.25607zM474.00918,169.7869h3.30791c-0.53353,-1.6006 -1.4939,-3.0945 -2.34755,-4.5884h-3.30791c0.96036,1.38719 1.70731,2.98779 2.45426,4.5884zM463.01837,169.7869h3.30791c-0.64024,-1.6006 -1.4939,-3.20121 -2.45426,-4.5884h-3.30791c0.96036,1.38719 1.81402,2.98779 2.56096,4.5884zM465.25922,175.33566v0c0.74695,2.45426 1.28048,4.90852 1.6006,7.25607h3.30791c-0.42683,-2.56096 -0.96036,-5.01522 -1.70731,-7.36277h-3.30791zM465.47263,220.25925h3.30791c0.74695,-2.34755 1.28048,-4.90852 1.6006,-7.25607h-3.30791c-0.32012,2.45426 -0.85365,5.01522 -1.6006,7.25607zM459.71046,231.99701h3.30791c1.4939,-2.24084 2.77438,-4.37498 3.84145,-6.72253h-3.30791M468.78055,231.99701c1.38719,-2.24084 2.66767,-4.37498 3.73474,-6.72253h-3.30791c-1.06707,2.34755 -2.45426,4.48169 -3.84145,6.72253zM477.95734,225.38118h-3.30791c-1.06707,2.24084 -2.34755,4.37498 -3.73474,6.61583h3.30791c1.4939,-2.13414 2.66767,-4.37498 3.73474,-6.61583zM479.87806,220.04584v0c0.74695,-2.24084 1.28048,-4.6951 1.6006,-7.04265h-3.30791c-0.32012,2.34755 -0.85365,4.90852 -1.6006,7.14936h3.30791zM482.0122,208.09467c0.21341,-2.34755 0.21341,-4.80181 0.21341,-7.14936h-3.30791c0,2.34755 0,4.80181 -0.21341,7.14936z" fill="#000000" stroke="none" stroke-width="0"/><path d="M451.81415,166.47899c-5.12193,0 -9.3902,14.19201 -9.3902,31.69194c0,17.49993 4.16157,31.69194 9.3902,31.69194c5.22864,0 9.3902,-14.19201 9.3902,-31.69194c0,-17.49993 -4.16157,-31.69194 -9.3902,-31.69194zM465.57934,198.17093c0,21.34137 -6.08229,38.73459 -13.65848,38.73459c-7.57619,0 -13.76519,-17.28651 -13.76519,-38.62789c0,-21.34137 6.189,-38.73459 13.76519,-38.73459c7.57619,0 13.65848,17.28651 13.65848,38.73459v0z" fill="#2bff50" stroke="none" stroke-width="0"/><path d="M465.57934,198.27764c0,21.34137 -6.08229,38.73459 -13.65848,38.73459c-7.57619,0 -13.76519,-17.39322 -13.76519,-38.73459c0,-21.34137 6.189,-38.73459 13.76519,-38.73459c7.57619,0 13.65848,17.28651 13.65848,38.73459z" fill="none" stroke="#e1ffe5" stroke-width="1.9"/><path d="M473.04882,216.20439c0,-1.82691 1.48101,-3.30791 3.30791,-3.30791c1.82691,0 3.30791,1.48101 3.30791,3.30791c0,1.82691 -1.48101,3.30791 -3.30791,3.30791c-1.82691,0 -3.30791,-1.48101 -3.30791,-3.30791z" fill="#2bff50" stroke="#e1ffe5" stroke-width="0.9"/><path d="M473.04882,179.60394c0,-1.82691 1.48101,-3.30791 3.30791,-3.30791c1.82691,0 3.30791,1.48101 3.30791,3.30791c0,1.82691 -1.48101,3.30791 -3.30791,3.30791c-1.82691,0 -3.30791,-1.48101 -3.30791,-3.30791z" fill="#2bff50" stroke="#e1ffe5" stroke-width="0.9"/></g></g></g></svg>